<?xml version="1.0" encoding="utf-8"?>
<!-- Generator: Adobe Illustrator 26.0.1, SVG Export Plug-In . SVG Version: 6.00 Build 0)  -->
<svg version="1.1" id="Layer_1" xmlns="http://www.w3.org/2000/svg" xmlns:xlink="http://www.w3.org/1999/xlink" x="0px" y="0px"
	 viewBox="0 0 100 100" style="enable-background:new 0 0 100 100;" xml:space="preserve">
<style type="text/css">
	.st0{opacity:4.000000e-02;}
	.st1{fill:#090808;}
	.st2{fill:#E16D64;}
	.st3{fill:#FFFFFF;}
</style>
<g class="st0">
	<path class="st1" d="M53.4,56.4c-0.6,0-1,0.2-1.3,0.4c-0.5,0.5-0.5,1.2-0.5,1.2v-1.7v-1.4v-1.3v-2.1c0,0,0.2,1,0.7,1.4
		c0.3,0.3,0.5,0.4,1.2,0.4c0,0,8.5,0,8.8,0c0.8,0,1.7-0.6,2.1-1.6l1.8,4.6L53.4,56.4z"/>
	<path class="st1" d="M61.9,65.3h-8.5c-0.6,0-1,0.2-1.3,0.4c-0.5,0.5-0.5,1.2-0.5,1.2v-1.7v-1.4v-1.4v-2.1c0,0,0.2,1.1,0.7,1.4
		c0.3,0.3,0.5,0.4,1.2,0.4c0,0,8.1,0,8.5,0c0,0,2.3,0.1,2.3-2.3c0-1.9-0.5-2.8-0.5-2.8s2.6,1.7,2.3,5.4
		C65.9,65.6,61.9,65.3,61.9,65.3"/>
	<path class="st1" d="M61.9,74.3H35.7c-0.6,0-1,0.2-1.3,0.4c-0.5,0.5-0.6,1.2-0.6,1.2v-1.7v-1.4v-1.3v-2.1c0,0,0.3,1.1,0.8,1.4
		c0.3,0.3,0.5,0.4,1.2,0.4c0,0,25.9,0,26.1,0c0,0,2.3,0.1,2.3-2.3c0-1.9-0.5-2.8-0.5-2.8s2.6,1.7,2.3,5.4
		C65.9,74.5,61.9,74.3,61.9,74.3"/>
	<path class="st1" d="M44.2,83.2h-8.5c-0.5,0-1,0.2-1.3,0.4c-0.5,0.6-0.6,1.3-0.6,1.3v-1.7v-1.4v-1.3v-2.1c0,0,0.2,1.1,0.7,1.4
		c0.3,0.3,0.5,0.4,1.2,0.4c0,0,8.1,0,8.5,0c0,0,2.3,0.1,2.3-2.3c0-1.9-0.5-2.8-0.5-2.8s2.6,1.7,2.3,5.4
		C48.1,83.5,44.2,83.2,44.2,83.2"/>
	<path class="st1" d="M44.2,92.3h-8.5c-0.5,0-1,0.2-1.3,0.4c-0.5,0.5-0.6,1.2-0.6,1.2v-1.7v-1.4v-1.3v-2.1c0,0,0.2,1,0.7,1.4
		c0.3,0.3,0.5,0.4,1.2,0.4c0,0,8.1,0,8.5,0c0,0,2.3,0.1,2.3-2.3c0-1.9-0.5-2.8-0.5-2.8s2.6,1.7,2.3,5.4
		C48.1,92.5,44.2,92.3,44.2,92.3"/>
	<path class="st1" d="M56.4,46.6c0,0.6,0.2,1,0.4,1.3c0.5,0.5,1.2,0.5,1.2,0.5h-1.7h-1.4h-1.3h-2.1c0,0,1.1-0.2,1.4-0.7
		c0.3-0.3,0.4-0.5,0.4-1.2c0,0,0-8.5,0-8.8c0-0.8-0.6-1.7-1.6-2.1l4.6-1.8L56.4,46.6z"/>
	<path class="st1" d="M65.3,38.1v8.5c0,0.6,0.2,1,0.4,1.3c0.5,0.5,1.2,0.5,1.2,0.5h-1.7h-1.4h-1.3h-2.1c0,0,1.1-0.2,1.4-0.7
		c0.3-0.3,0.4-0.5,0.4-1.2c0,0,0-8.1,0-8.5c0,0,0.1-2.3-2.3-2.3c-1.9,0-2.8,0.5-2.8,0.5s1.7-2.6,5.4-2.3
		C65.6,34.1,65.3,38.1,65.3,38.1"/>
	<path class="st1" d="M74.3,38.1v26.2c0,0.5,0.2,1,0.4,1.3c0.5,0.5,1.2,0.6,1.2,0.6h-1.7h-1.4h-1.3h-2.1c0,0,1.1-0.3,1.4-0.8
		c0.3-0.3,0.4-0.5,0.4-1.2c0,0,0-25.9,0-26.1c0,0,0.1-2.3-2.3-2.3c-1.9,0-2.8,0.5-2.8,0.5s1.7-2.6,5.4-2.3
		C74.6,34.1,74.3,38.1,74.3,38.1"/>
	<path class="st1" d="M83.3,55.9v8.5c0,0.6,0.2,1,0.4,1.3c0.5,0.5,1.2,0.5,1.2,0.5h-1.7h-1.4h-1.3h-2.1c0,0,1.1-0.2,1.4-0.7
		c0.3-0.3,0.4-0.5,0.4-1.2c0,0,0-8.1,0-8.5c0,0,0.1-2.3-2.3-2.3c-1.9,0-2.8,0.5-2.8,0.5s1.7-2.6,5.4-2.3
		C83.6,52,83.3,55.9,83.3,55.9"/>
	<path class="st1" d="M92.3,55.9v8.5c0,0.6,0.2,1,0.4,1.3c0.5,0.5,1.2,0.5,1.2,0.5h-1.7h-1.4h-1.4h-2.1c0,0,1.1-0.2,1.4-0.7
		c0.3-0.3,0.4-0.5,0.4-1.2c0,0,0-8.1,0-8.5c0,0,0.1-2.3-2.3-2.3c-1.9,0-2.8,0.5-2.8,0.5s1.7-2.6,5.4-2.3
		C92.5,52,92.3,55.9,92.3,55.9"/>
	<path class="st1" d="M46.6,43.6c0.6,0,1-0.2,1.3-0.4c0.5-0.5,0.5-1.2,0.5-1.2v1.7v1.4v1.3v2.1c0,0-0.2-1.1-0.7-1.4
		c-0.3-0.3-0.5-0.4-1.2-0.4c0,0-8.5,0-8.8,0c-0.8,0-1.7,0.6-2.1,1.6l-1.8-4.6L46.6,43.6z"/>
	<path class="st1" d="M38.1,34.7h8.5c0.6,0,1-0.2,1.3-0.4c0.5-0.5,0.5-1.2,0.5-1.2v1.7v1.4v1.4v2.1c0,0-0.2-1.1-0.7-1.4
		c-0.3-0.3-0.5-0.4-1.2-0.4c0,0-8.1,0-8.5,0c0,0-2.3-0.1-2.3,2.3c0,1.9,0.5,2.8,0.5,2.8s-2.6-1.7-2.3-5.4
		C34.1,34.4,38.1,34.7,38.1,34.7"/>
	<path class="st1" d="M38.1,25.7h26.2c0.6,0,1-0.2,1.3-0.4c0.5-0.5,0.6-1.2,0.6-1.2v1.7v1.4v1.3v2.1c0,0-0.3-1.1-0.8-1.4
		c-0.3-0.3-0.5-0.4-1.2-0.4c0,0-25.9,0-26.1,0c0,0-2.3-0.1-2.3,2.3c0,1.9,0.5,2.8,0.5,2.8s-2.6-1.7-2.3-5.4
		C34.1,25.5,38.1,25.7,38.1,25.7"/>
	<path class="st1" d="M55.9,16.8h8.5c0.5,0,1-0.2,1.3-0.4c0.5-0.5,0.5-1.2,0.5-1.2v1.7v1.4v1.3v2.1c0,0-0.2-1.1-0.7-1.4
		c-0.3-0.3-0.5-0.4-1.2-0.4c0,0-8.1,0-8.5,0c0,0-2.3-0.1-2.3,2.3c0,1.9,0.5,2.8,0.5,2.8s-2.6-1.7-2.3-5.4
		C52,16.5,55.9,16.8,55.9,16.8"/>
	<path class="st1" d="M55.9,7.8h8.5c0.5,0,1-0.2,1.3-0.4c0.5-0.6,0.5-1.3,0.5-1.3v1.7v1.4v1.3v2.1c0,0-0.2-1.1-0.7-1.4
		c-0.3-0.3-0.5-0.4-1.2-0.4c0,0-8.1,0-8.5,0c0,0-2.3-0.1-2.3,2.3c0,1.9,0.5,2.8,0.5,2.8s-2.6-1.7-2.3-5.4C52,7.5,55.9,7.8,55.9,7.8"
		/>
	<path class="st1" d="M43.6,53.3c0-0.6-0.2-1-0.4-1.3c-0.5-0.5-1.2-0.5-1.2-0.5h1.7h1.4h1.3h2.1c0,0-1.1,0.2-1.4,0.7
		c-0.3,0.3-0.4,0.5-0.4,1.2c0,0,0,8.5,0,8.8c0,0.8,0.6,1.7,1.6,2.1L43.7,66L43.6,53.3z"/>
	<path class="st1" d="M34.7,61.8v-8.5c0-0.6-0.2-1-0.4-1.3c-0.5-0.5-1.2-0.5-1.2-0.5h1.7h1.4h1.3h2.1c0,0-1,0.2-1.4,0.7
		c-0.3,0.3-0.4,0.5-0.4,1.2c0,0,0,8.1,0,8.5c0,0-0.1,2.3,2.3,2.3c1.9,0,2.8-0.5,2.8-0.5s-1.7,2.6-5.4,2.3
		C34.4,65.9,34.7,61.8,34.7,61.8"/>
	<path class="st1" d="M25.7,61.8V35.6c0-0.6-0.2-1-0.4-1.3c-0.6-0.4-1.3-0.5-1.3-0.5h1.7h1.4h1.3h2.1c0,0-1.1,0.3-1.4,0.8
		c-0.3,0.3-0.4,0.5-0.4,1.2c0,0,0,25.9,0,26.1c0,0-0.1,2.3,2.3,2.3c1.9,0,2.8-0.5,2.8-0.5s-1.7,2.6-5.4,2.3
		C25.4,65.9,25.7,61.8,25.7,61.8"/>
	<path class="st1" d="M16.7,44.1v-8.5c0-0.6-0.2-1-0.4-1.3c-0.5-0.5-1.2-0.5-1.2-0.5h1.7h1.4h1.3h2.1c0,0-1,0.2-1.4,0.7
		c-0.3,0.3-0.4,0.5-0.4,1.2c0,0,0,8.1,0,8.5c0,0-0.1,2.3,2.3,2.3c1.9,0,2.8-0.5,2.8-0.5s-1.7,2.6-5.4,2.3
		C16.4,48,16.7,44.1,16.7,44.1"/>
	<path class="st1" d="M7.7,44.1v-8.5c0-0.6-0.2-1-0.4-1.3c-0.5-0.5-1.2-0.5-1.2-0.5h1.7h1.4h1.4h2.1c0,0-1.1,0.2-1.4,0.7
		c-0.4,0.3-0.7,0.5-0.7,1.2c0,0,0,8.1,0,8.5c0,0-0.1,2.3,2.3,2.3c1.9,0,2.8-0.5,2.8-0.5s-1.7,2.6-5.4,2.3C7.5,48,7.7,44.1,7.7,44.1"
		/>
</g>
<g>
	<path class="st2" d="M-111.2,57.1c-0.7,0-1.1,0.2-1.4,0.5c-0.6,0.6-0.6,1.3-0.6,1.3V57v-1.6V54v-2.4c0,0,0.2,1.1,0.8,1.6
		c0.3,0.3,0.6,0.5,1.3,0.5c0,0,9.5,0,9.8,0c0.9,0,1.9-0.7,2.3-1.8l2,5.1L-111.2,57.1z"/>
	<path class="st2" d="M-101.7,67.1h-9.5c-0.7,0-1.1,0.2-1.4,0.5c-0.6,0.6-0.6,1.3-0.6,1.3V67v-1.6v-1.6v-2.4c0,0,0.2,1.2,0.8,1.6
		c0.3,0.3,0.6,0.5,1.3,0.5c0,0,9.1,0,9.5,0c0,0,2.6,0.1,2.6-2.6c0-2.1-0.6-3.1-0.6-3.1s2.9,1.9,2.6,6
		C-97.2,67.4-101.7,67.1-101.7,67.1"/>
	<path class="st2" d="M-101.7,77.1H-131c-0.7,0-1.1,0.2-1.4,0.5c-0.6,0.6-0.7,1.3-0.7,1.3V77v-1.6V74v-2.4c0,0,0.3,1.2,0.9,1.6
		c0.3,0.3,0.6,0.5,1.3,0.5c0,0,28.9,0,29.2,0c0,0,2.6,0.1,2.6-2.6c0-2.1-0.6-3.1-0.6-3.1s2.9,1.9,2.6,6
		C-97.2,77.4-101.7,77.1-101.7,77.1"/>
	<path class="st2" d="M-121.5,87.1h-9.5c-0.6,0-1.1,0.2-1.4,0.5c-0.6,0.7-0.7,1.4-0.7,1.4v-1.9v-1.6V84v-2.4c0,0,0.2,1.2,0.8,1.6
		c0.3,0.3,0.6,0.5,1.3,0.5c0,0,9.1,0,9.5,0c0,0,2.6,0.1,2.6-2.6c0-2.1-0.6-3.1-0.6-3.1s2.9,1.9,2.6,6
		C-117.1,87.4-121.5,87.1-121.5,87.1"/>
	<path class="st2" d="M-121.5,97.2h-9.5c-0.6,0-1.1,0.2-1.4,0.5c-0.6,0.6-0.7,1.3-0.7,1.3v-1.9v-1.6V94v-2.4c0,0,0.2,1.1,0.8,1.6
		c0.3,0.3,0.6,0.5,1.3,0.5c0,0,9.1,0,9.5,0c0,0,2.6,0.1,2.6-2.6c0-2.1-0.6-3.1-0.6-3.1s2.9,1.9,2.6,6
		C-117.1,97.5-121.5,97.2-121.5,97.2"/>
	<path class="st2" d="M-107.8,46.2c0,0.7,0.2,1.1,0.5,1.4c0.6,0.6,1.3,0.6,1.3,0.6h-1.9h-1.6h-1.5h-2.4c0,0,1.2-0.2,1.6-0.8
		c0.3-0.3,0.5-0.6,0.5-1.3c0,0,0-9.5,0-9.8c0-0.9-0.7-1.9-1.8-2.3l5.1-2L-107.8,46.2z"/>
	<path class="st2" d="M-97.9,36.7v9.5c0,0.7,0.2,1.1,0.5,1.4c0.6,0.6,1.3,0.6,1.3,0.6H-98h-1.6h-1.4h-2.4c0,0,1.2-0.2,1.6-0.8
		c0.3-0.3,0.5-0.6,0.5-1.3c0,0,0-9.1,0-9.5c0,0,0.1-2.6-2.6-2.6c-2.1,0-3.1,0.6-3.1,0.6s1.9-2.9,6-2.6
		C-97.6,32.3-97.9,36.7-97.9,36.7"/>
	<path class="st2" d="M-87.9,36.7V66c0,0.6,0.2,1.1,0.5,1.4c0.6,0.6,1.3,0.7,1.3,0.7H-88h-1.6H-91h-2.4c0,0,1.2-0.3,1.6-0.9
		c0.3-0.3,0.5-0.6,0.5-1.3c0,0,0-28.9,0-29.2c0,0,0.1-2.6-2.6-2.6c-2.1,0-3.1,0.6-3.1,0.6s1.9-2.9,6-2.6
		C-87.5,32.3-87.9,36.7-87.9,36.7"/>
	<path class="st2" d="M-77.8,56.6v9.5c0,0.7,0.2,1.1,0.5,1.4c0.6,0.6,1.3,0.6,1.3,0.6h-1.9h-1.6H-81h-2.4c0,0,1.2-0.2,1.6-0.8
		c0.3-0.3,0.5-0.6,0.5-1.3c0,0,0-9.1,0-9.5c0,0,0.1-2.6-2.6-2.6c-2.1,0-3.1,0.6-3.1,0.6s1.9-2.9,6-2.6
		C-77.5,52.2-77.8,56.6-77.8,56.6"/>
	<path class="st2" d="M-67.8,56.6v9.5c0,0.7,0.2,1.1,0.5,1.4c0.6,0.6,1.3,0.6,1.3,0.6h-1.9h-1.6h-1.6h-2.4c0,0,1.2-0.2,1.6-0.8
		c0.3-0.3,0.5-0.6,0.5-1.3c0,0,0-9.1,0-9.5c0,0,0.1-2.6-2.6-2.6c-2.1,0-3.1,0.6-3.1,0.6s1.9-2.9,6-2.6
		C-67.5,52.2-67.8,56.6-67.8,56.6"/>
	<path class="st2" d="M-118.8,42.9c0.7,0,1.1-0.2,1.4-0.5c0.6-0.6,0.6-1.3,0.6-1.3V43v1.6V46v2.4c0,0-0.2-1.2-0.8-1.6
		c-0.3-0.3-0.6-0.5-1.3-0.5c0,0-9.5,0-9.8,0c-0.9,0-1.9,0.7-2.3,1.8l-2-5.1L-118.8,42.9z"/>
	<path class="st2" d="M-128.3,32.9h9.5c0.7,0,1.1-0.2,1.4-0.5c0.6-0.6,0.6-1.3,0.6-1.3V33v1.6v1.6v2.4c0,0-0.2-1.2-0.8-1.6
		c-0.3-0.3-0.6-0.5-1.3-0.5c0,0-9.1,0-9.5,0c0,0-2.6-0.1-2.6,2.6c0,2.1,0.6,3.1,0.6,3.1s-2.9-1.9-2.6-6
		C-132.7,32.6-128.3,32.9-128.3,32.9"/>
	<path class="st2" d="M-128.3,22.9H-99c0.7,0,1.1-0.2,1.4-0.5c0.6-0.6,0.7-1.3,0.7-1.3V23v1.6V26v2.4c0,0-0.3-1.2-0.9-1.6
		c-0.3-0.3-0.6-0.5-1.3-0.5c0,0-28.9,0-29.2,0c0,0-2.6-0.1-2.6,2.6c0,2.1,0.6,3.1,0.6,3.1s-2.9-1.9-2.6-6
		C-132.7,22.6-128.3,22.9-128.3,22.9"/>
	<path class="st2" d="M-108.4,12.9h9.5c0.6,0,1.1-0.2,1.4-0.5c0.6-0.6,0.6-1.3,0.6-1.3V13v1.6V16v2.4c0,0-0.2-1.2-0.8-1.6
		c-0.3-0.3-0.6-0.5-1.3-0.5c0,0-9.1,0-9.5,0c0,0-2.6-0.1-2.6,2.6c0,2.1,0.6,3.1,0.6,3.1s-2.9-1.9-2.6-6
		C-112.8,12.6-108.4,12.9-108.4,12.9"/>
	<path class="st2" d="M-108.4,2.9h9.5c0.6,0,1.1-0.2,1.4-0.5c0.6-0.7,0.6-1.4,0.6-1.4v1.9v1.6V6v2.4c0,0-0.2-1.2-0.8-1.6
		C-98,6.5-98.3,6.3-99,6.3c0,0-9.1,0-9.5,0c0,0-2.6-0.1-2.6,2.6c0,2.1,0.6,3.1,0.6,3.1s-2.9-1.9-2.6-6
		C-112.8,2.5-108.4,2.9-108.4,2.9"/>
	<path class="st2" d="M-122.2,53.7c0-0.7-0.2-1.1-0.5-1.4c-0.6-0.6-1.3-0.6-1.3-0.6h1.9h1.6h1.5h2.4c0,0-1.2,0.2-1.6,0.8
		c-0.3,0.3-0.5,0.6-0.5,1.3c0,0,0,9.5,0,9.8c0,0.9,0.7,1.9,1.8,2.3l-5.1,2L-122.2,53.7z"/>
	<path class="st2" d="M-132.1,63.2v-9.5c0-0.7-0.2-1.1-0.5-1.4c-0.6-0.6-1.3-0.6-1.3-0.6h1.9h1.6h1.4h2.4c0,0-1.1,0.2-1.6,0.8
		c-0.3,0.3-0.5,0.6-0.5,1.3c0,0,0,9.1,0,9.5c0,0-0.1,2.6,2.6,2.6c2.1,0,3.1-0.6,3.1-0.6s-1.9,2.9-6,2.6
		C-132.4,67.7-132.1,63.2-132.1,63.2"/>
	<path class="st2" d="M-142.1,63.2V33.9c0-0.7-0.2-1.1-0.5-1.4c-0.7-0.5-1.4-0.6-1.4-0.6h1.9h1.6h1.5h2.4c0,0-1.2,0.3-1.6,0.9
		c-0.3,0.3-0.5,0.6-0.5,1.3c0,0,0,28.9,0,29.2c0,0-0.1,2.6,2.6,2.6c2.1,0,3.1-0.6,3.1-0.6s-1.9,2.9-6,2.6
		C-142.5,67.7-142.1,63.2-142.1,63.2"/>
	<path class="st2" d="M-152.2,43.4v-9.5c0-0.7-0.2-1.1-0.5-1.4c-0.6-0.6-1.3-0.6-1.3-0.6h1.9h1.6h1.5h2.4c0,0-1.1,0.2-1.6,0.8
		c-0.3,0.3-0.5,0.6-0.5,1.3c0,0,0,9.1,0,9.5c0,0-0.1,2.6,2.6,2.6c2.1,0,3.1-0.6,3.1-0.6s-1.9,2.9-6,2.6
		C-152.5,47.8-152.2,43.4-152.2,43.4"/>
	<path class="st2" d="M-162.2,43.4v-9.5c0-0.7-0.2-1.1-0.5-1.4c-0.6-0.6-1.3-0.6-1.3-0.6h1.9h1.6h1.6h2.4c0,0-1.2,0.2-1.6,0.8
		c-0.5,0.3-0.8,0.6-0.8,1.3c0,0,0,9.1,0,9.5c0,0-0.1,2.6,2.6,2.6c2.1,0,3.1-0.6,3.1-0.6s-1.9,2.9-6,2.6
		C-162.5,47.8-162.2,43.4-162.2,43.4"/>
</g>
<g>
	<path class="st3" d="M215.8,57.1c-0.7,0-1.1,0.2-1.4,0.5c-0.6,0.6-0.6,1.3-0.6,1.3V57v-1.6V54v-2.4c0,0,0.2,1.1,0.8,1.6
		c0.3,0.3,0.6,0.5,1.3,0.5c0,0,9.5,0,9.8,0c0.9,0,1.9-0.7,2.3-1.8l2,5.1L215.8,57.1z"/>
	<path class="st3" d="M225.3,67.1h-9.5c-0.7,0-1.1,0.2-1.4,0.5c-0.6,0.6-0.6,1.3-0.6,1.3V67v-1.6v-1.6v-2.4c0,0,0.2,1.2,0.8,1.6
		c0.3,0.3,0.6,0.5,1.3,0.5c0,0,9.1,0,9.5,0c0,0,2.6,0.1,2.6-2.6c0-2.1-0.6-3.1-0.6-3.1s2.9,1.9,2.6,6
		C229.8,67.4,225.3,67.1,225.3,67.1"/>
	<path class="st3" d="M225.3,77.1H196c-0.7,0-1.1,0.2-1.4,0.5c-0.6,0.6-0.7,1.3-0.7,1.3V77v-1.6V74v-2.4c0,0,0.3,1.2,0.9,1.6
		c0.3,0.3,0.6,0.5,1.3,0.5c0,0,28.9,0,29.2,0c0,0,2.6,0.1,2.6-2.6c0-2.1-0.6-3.1-0.6-3.1s2.9,1.9,2.6,6
		C229.8,77.4,225.3,77.1,225.3,77.1"/>
	<path class="st3" d="M205.5,87.1H196c-0.6,0-1.1,0.2-1.4,0.5c-0.6,0.7-0.7,1.4-0.7,1.4v-1.9v-1.6V84v-2.4c0,0,0.2,1.2,0.8,1.6
		c0.3,0.3,0.6,0.5,1.3,0.5c0,0,9.1,0,9.5,0c0,0,2.6,0.1,2.6-2.6c0-2.1-0.6-3.1-0.6-3.1s2.9,1.9,2.6,6
		C209.9,87.4,205.5,87.1,205.5,87.1"/>
	<path class="st3" d="M205.5,97.2H196c-0.6,0-1.1,0.2-1.4,0.5c-0.6,0.6-0.7,1.3-0.7,1.3v-1.9v-1.6V94v-2.4c0,0,0.2,1.1,0.8,1.6
		c0.3,0.3,0.6,0.5,1.3,0.5c0,0,9.1,0,9.5,0c0,0,2.6,0.1,2.6-2.6c0-2.1-0.6-3.1-0.6-3.1s2.9,1.9,2.6,6
		C209.9,97.5,205.5,97.2,205.5,97.2"/>
	<path class="st3" d="M219.2,46.2c0,0.7,0.2,1.1,0.5,1.4c0.6,0.6,1.3,0.6,1.3,0.6h-1.9h-1.6H216h-2.4c0,0,1.2-0.2,1.6-0.8
		c0.3-0.3,0.5-0.6,0.5-1.3c0,0,0-9.5,0-9.8c0-0.9-0.7-1.9-1.8-2.3l5.1-2L219.2,46.2z"/>
	<path class="st3" d="M229.1,36.7v9.5c0,0.7,0.2,1.1,0.5,1.4c0.6,0.6,1.3,0.6,1.3,0.6H229h-1.6H226h-2.4c0,0,1.2-0.2,1.6-0.8
		c0.3-0.3,0.5-0.6,0.5-1.3c0,0,0-9.1,0-9.5c0,0,0.1-2.6-2.6-2.6c-2.1,0-3.1,0.6-3.1,0.6s1.9-2.9,6-2.6
		C229.4,32.3,229.1,36.7,229.1,36.7"/>
	<path class="st3" d="M239.1,36.7V66c0,0.6,0.2,1.1,0.5,1.4c0.6,0.6,1.3,0.7,1.3,0.7H239h-1.6H236h-2.4c0,0,1.2-0.3,1.6-0.9
		c0.3-0.3,0.5-0.6,0.5-1.3c0,0,0-28.9,0-29.2c0,0,0.1-2.6-2.6-2.6c-2.1,0-3.1,0.6-3.1,0.6s1.9-2.9,6-2.6
		C239.5,32.3,239.1,36.7,239.1,36.7"/>
	<path class="st3" d="M249.2,56.6v9.5c0,0.7,0.2,1.1,0.5,1.4c0.6,0.6,1.3,0.6,1.3,0.6h-1.9h-1.6H246h-2.4c0,0,1.2-0.2,1.6-0.8
		c0.3-0.3,0.5-0.6,0.5-1.3c0,0,0-9.1,0-9.5c0,0,0.1-2.6-2.6-2.6c-2.1,0-3.1,0.6-3.1,0.6s1.9-2.9,6-2.6
		C249.5,52.2,249.2,56.6,249.2,56.6"/>
	<path class="st3" d="M259.2,56.6v9.5c0,0.7,0.2,1.1,0.5,1.4c0.6,0.6,1.3,0.6,1.3,0.6h-1.9h-1.6h-1.6h-2.4c0,0,1.2-0.2,1.6-0.8
		c0.3-0.3,0.5-0.6,0.5-1.3c0,0,0-9.1,0-9.5c0,0,0.1-2.6-2.6-2.6c-2.1,0-3.1,0.6-3.1,0.6s1.9-2.9,6-2.6
		C259.5,52.2,259.2,56.6,259.2,56.6"/>
	<path class="st3" d="M208.2,42.9c0.7,0,1.1-0.2,1.4-0.5c0.6-0.6,0.6-1.3,0.6-1.3V43v1.6V46v2.4c0,0-0.2-1.2-0.8-1.6
		c-0.3-0.3-0.6-0.5-1.3-0.5c0,0-9.5,0-9.8,0c-0.9,0-1.9,0.7-2.3,1.8l-2-5.1L208.2,42.9z"/>
	<path class="st3" d="M198.7,32.9h9.5c0.7,0,1.1-0.2,1.4-0.5c0.6-0.6,0.6-1.3,0.6-1.3V33v1.6v1.6v2.4c0,0-0.2-1.2-0.8-1.6
		c-0.3-0.3-0.6-0.5-1.3-0.5c0,0-9.1,0-9.5,0c0,0-2.6-0.1-2.6,2.6c0,2.1,0.6,3.1,0.6,3.1s-2.9-1.9-2.6-6
		C194.3,32.6,198.7,32.9,198.7,32.9"/>
	<path class="st3" d="M198.7,22.9H228c0.7,0,1.1-0.2,1.4-0.5c0.6-0.6,0.7-1.3,0.7-1.3V23v1.6V26v2.4c0,0-0.3-1.2-0.9-1.6
		c-0.3-0.3-0.6-0.5-1.3-0.5c0,0-28.9,0-29.2,0c0,0-2.6-0.1-2.6,2.6c0,2.1,0.6,3.1,0.6,3.1s-2.9-1.9-2.6-6
		C194.3,22.6,198.7,22.9,198.7,22.9"/>
	<path class="st3" d="M218.6,12.9h9.5c0.6,0,1.1-0.2,1.4-0.5c0.6-0.6,0.6-1.3,0.6-1.3V13v1.6V16v2.4c0,0-0.2-1.2-0.8-1.6
		c-0.3-0.3-0.6-0.5-1.3-0.5c0,0-9.1,0-9.5,0c0,0-2.6-0.1-2.6,2.6c0,2.1,0.6,3.1,0.6,3.1s-2.9-1.9-2.6-6
		C214.2,12.6,218.6,12.9,218.6,12.9"/>
	<path class="st3" d="M218.6,2.9h9.5c0.6,0,1.1-0.2,1.4-0.5c0.6-0.7,0.6-1.4,0.6-1.4v1.9v1.6V6v2.4c0,0-0.2-1.2-0.8-1.6
		c-0.3-0.3-0.6-0.5-1.3-0.5c0,0-9.1,0-9.5,0c0,0-2.6-0.1-2.6,2.6c0,2.1,0.6,3.1,0.6,3.1s-2.9-1.9-2.6-6
		C214.2,2.5,218.6,2.9,218.6,2.9"/>
	<path class="st3" d="M204.8,53.7c0-0.7-0.2-1.1-0.5-1.4c-0.6-0.6-1.3-0.6-1.3-0.6h1.9h1.6h1.5h2.4c0,0-1.2,0.2-1.6,0.8
		c-0.3,0.3-0.5,0.6-0.5,1.3c0,0,0,9.5,0,9.8c0,0.9,0.7,1.9,1.8,2.3l-5.1,2L204.8,53.7z"/>
	<path class="st3" d="M194.9,63.2v-9.5c0-0.7-0.2-1.1-0.5-1.4c-0.6-0.6-1.3-0.6-1.3-0.6h1.9h1.6h1.4h2.4c0,0-1.1,0.2-1.6,0.8
		c-0.3,0.3-0.5,0.6-0.5,1.3c0,0,0,9.1,0,9.5c0,0-0.1,2.6,2.6,2.6c2.1,0,3.1-0.6,3.1-0.6s-1.9,2.9-6,2.6
		C194.6,67.7,194.9,63.2,194.9,63.2"/>
	<path class="st3" d="M184.9,63.2V33.9c0-0.7-0.2-1.1-0.5-1.4c-0.7-0.5-1.4-0.6-1.4-0.6h1.9h1.6h1.5h2.4c0,0-1.2,0.3-1.6,0.9
		c-0.3,0.3-0.5,0.6-0.5,1.3c0,0,0,28.9,0,29.2c0,0-0.1,2.6,2.6,2.6c2.1,0,3.1-0.6,3.1-0.6s-1.9,2.9-6,2.6
		C184.5,67.7,184.9,63.2,184.9,63.2"/>
	<path class="st3" d="M174.8,43.4v-9.5c0-0.7-0.2-1.1-0.5-1.4c-0.6-0.6-1.3-0.6-1.3-0.6h1.9h1.6h1.5h2.4c0,0-1.1,0.2-1.6,0.8
		c-0.3,0.3-0.5,0.6-0.5,1.3c0,0,0,9.1,0,9.5c0,0-0.1,2.6,2.6,2.6c2.1,0,3.1-0.6,3.1-0.6s-1.9,2.9-6,2.6
		C174.5,47.8,174.8,43.4,174.8,43.4"/>
	<path class="st3" d="M164.8,43.4v-9.5c0-0.7-0.2-1.1-0.5-1.4c-0.6-0.6-1.3-0.6-1.3-0.6h1.9h1.6h1.6h2.4c0,0-1.2,0.2-1.6,0.8
		c-0.5,0.3-0.8,0.6-0.8,1.3c0,0,0,9.1,0,9.5c0,0-0.1,2.6,2.6,2.6c2.1,0,3.1-0.6,3.1-0.6s-1.9,2.9-6,2.6
		C164.5,47.8,164.8,43.4,164.8,43.4"/>
</g>
</svg>
