<?xml version="1.0" encoding="utf-8"?>
<!-- Generator: Adobe Illustrator 26.0.1, SVG Export Plug-In . SVG Version: 6.00 Build 0)  -->
<svg version="1.1" id="Layer_1" xmlns="http://www.w3.org/2000/svg" xmlns:xlink="http://www.w3.org/1999/xlink" x="0px" y="0px"
	 viewBox="0 0 100 100" style="enable-background:new 0 0 100 100;" xml:space="preserve">
<style type="text/css">
	.st0{fill:#090808;}
	.st1{fill:#E16D64;}
	.st2{fill:#FFFFFF;}
</style>
<g>
	<path class="st0" d="M218.8,57.1c-0.7,0-1.1,0.2-1.4,0.5c-0.6,0.6-0.6,1.3-0.6,1.3V57v-1.6V54v-2.4c0,0,0.2,1.1,0.8,1.6
		c0.3,0.3,0.6,0.5,1.3,0.5c0,0,9.5,0,9.8,0c0.9,0,1.9-0.7,2.3-1.8l2,5.1L218.8,57.1z"/>
	<path class="st0" d="M228.3,67.1h-9.5c-0.7,0-1.1,0.2-1.4,0.5c-0.6,0.6-0.6,1.3-0.6,1.3V67v-1.6v-1.6v-2.4c0,0,0.2,1.2,0.8,1.6
		c0.3,0.3,0.6,0.5,1.3,0.5c0,0,9.1,0,9.5,0c0,0,2.6,0.1,2.6-2.6c0-2.1-0.6-3.1-0.6-3.1s2.9,1.9,2.6,6
		C232.8,67.4,228.3,67.1,228.3,67.1"/>
	<path class="st0" d="M228.3,77.1H199c-0.7,0-1.1,0.2-1.4,0.5c-0.6,0.6-0.7,1.3-0.7,1.3V77v-1.6V74v-2.4c0,0,0.3,1.2,0.9,1.6
		c0.3,0.3,0.6,0.5,1.3,0.5c0,0,28.9,0,29.2,0c0,0,2.6,0.1,2.6-2.6c0-2.1-0.6-3.1-0.6-3.1s2.9,1.9,2.6,6
		C232.8,77.4,228.3,77.1,228.3,77.1"/>
	<path class="st0" d="M208.5,87.1H199c-0.6,0-1.1,0.2-1.4,0.5c-0.6,0.7-0.7,1.4-0.7,1.4v-1.9v-1.6V84v-2.4c0,0,0.2,1.2,0.8,1.6
		c0.3,0.3,0.6,0.5,1.3,0.5c0,0,9.1,0,9.5,0c0,0,2.6,0.1,2.6-2.6c0-2.1-0.6-3.1-0.6-3.1s2.9,1.9,2.6,6
		C212.9,87.4,208.5,87.1,208.5,87.1"/>
	<path class="st0" d="M208.5,97.2H199c-0.6,0-1.1,0.2-1.4,0.5c-0.6,0.6-0.7,1.3-0.7,1.3v-1.9v-1.6V94v-2.4c0,0,0.2,1.1,0.8,1.6
		c0.3,0.3,0.6,0.5,1.3,0.5c0,0,9.1,0,9.5,0c0,0,2.6,0.1,2.6-2.6c0-2.1-0.6-3.1-0.6-3.1s2.9,1.9,2.6,6
		C212.9,97.5,208.5,97.2,208.5,97.2"/>
	<path class="st0" d="M222.2,46.2c0,0.7,0.2,1.1,0.5,1.4c0.6,0.6,1.3,0.6,1.3,0.6h-1.9h-1.6H219h-2.4c0,0,1.2-0.2,1.6-0.8
		c0.3-0.3,0.5-0.6,0.5-1.3c0,0,0-9.5,0-9.8c0-0.9-0.7-1.9-1.8-2.3l5.1-2L222.2,46.2z"/>
	<path class="st0" d="M232.1,36.7v9.5c0,0.7,0.2,1.1,0.5,1.4c0.6,0.6,1.3,0.6,1.3,0.6H232h-1.6H229h-2.4c0,0,1.2-0.2,1.6-0.8
		c0.3-0.3,0.5-0.6,0.5-1.3c0,0,0-9.1,0-9.5c0,0,0.1-2.6-2.6-2.6c-2.1,0-3.1,0.6-3.1,0.6s1.9-2.9,6-2.6
		C232.4,32.3,232.1,36.7,232.1,36.7"/>
	<path class="st0" d="M242.1,36.7V66c0,0.6,0.2,1.1,0.5,1.4c0.6,0.6,1.3,0.7,1.3,0.7H242h-1.6H239h-2.4c0,0,1.2-0.3,1.6-0.9
		c0.3-0.3,0.5-0.6,0.5-1.3c0,0,0-28.9,0-29.2c0,0,0.1-2.6-2.6-2.6c-2.1,0-3.1,0.6-3.1,0.6s1.9-2.9,6-2.6
		C242.5,32.3,242.1,36.7,242.1,36.7"/>
	<path class="st0" d="M252.2,56.6v9.5c0,0.7,0.2,1.1,0.5,1.4c0.6,0.6,1.3,0.6,1.3,0.6h-1.9h-1.6H249h-2.4c0,0,1.2-0.2,1.6-0.8
		c0.3-0.3,0.5-0.6,0.5-1.3c0,0,0-9.1,0-9.5c0,0,0.1-2.6-2.6-2.6c-2.1,0-3.1,0.6-3.1,0.6s1.9-2.9,6-2.6
		C252.5,52.2,252.2,56.6,252.2,56.6"/>
	<path class="st0" d="M262.2,56.6v9.5c0,0.7,0.2,1.1,0.5,1.4c0.6,0.6,1.3,0.6,1.3,0.6h-1.9h-1.6h-1.6h-2.4c0,0,1.2-0.2,1.6-0.8
		c0.3-0.3,0.5-0.6,0.5-1.3c0,0,0-9.1,0-9.5c0,0,0.1-2.6-2.6-2.6c-2.1,0-3.1,0.6-3.1,0.6s1.9-2.9,6-2.6
		C262.5,52.2,262.2,56.6,262.2,56.6"/>
	<path class="st0" d="M211.2,42.9c0.7,0,1.1-0.2,1.4-0.5c0.6-0.6,0.6-1.3,0.6-1.3V43v1.6V46v2.4c0,0-0.2-1.2-0.8-1.6
		c-0.3-0.3-0.6-0.5-1.3-0.5c0,0-9.5,0-9.8,0c-0.9,0-1.9,0.7-2.3,1.8l-2-5.1L211.2,42.9z"/>
	<path class="st0" d="M201.7,32.9h9.5c0.7,0,1.1-0.2,1.4-0.5c0.6-0.6,0.6-1.3,0.6-1.3V33v1.6v1.6v2.4c0,0-0.2-1.2-0.8-1.6
		c-0.3-0.3-0.6-0.5-1.3-0.5c0,0-9.1,0-9.5,0c0,0-2.6-0.1-2.6,2.6c0,2.1,0.6,3.1,0.6,3.1s-2.9-1.9-2.6-6
		C197.3,32.6,201.7,32.9,201.7,32.9"/>
	<path class="st0" d="M201.7,22.9H231c0.7,0,1.1-0.2,1.4-0.5c0.6-0.6,0.7-1.3,0.7-1.3V23v1.6V26v2.4c0,0-0.3-1.2-0.9-1.6
		c-0.3-0.3-0.6-0.5-1.3-0.5c0,0-28.9,0-29.2,0c0,0-2.6-0.1-2.6,2.6c0,2.1,0.6,3.1,0.6,3.1s-2.9-1.9-2.6-6
		C197.3,22.6,201.7,22.9,201.7,22.9"/>
	<path class="st0" d="M221.6,12.9h9.5c0.6,0,1.1-0.2,1.4-0.5c0.6-0.6,0.6-1.3,0.6-1.3V13v1.6V16v2.4c0,0-0.2-1.2-0.8-1.6
		c-0.3-0.3-0.6-0.5-1.3-0.5c0,0-9.1,0-9.5,0c0,0-2.6-0.1-2.6,2.6c0,2.1,0.6,3.1,0.6,3.1s-2.9-1.9-2.6-6
		C217.2,12.6,221.6,12.9,221.6,12.9"/>
	<path class="st0" d="M221.6,2.9h9.5c0.6,0,1.1-0.2,1.4-0.5c0.6-0.7,0.6-1.4,0.6-1.4v1.9v1.6V6v2.4c0,0-0.2-1.2-0.8-1.6
		c-0.3-0.3-0.6-0.5-1.3-0.5c0,0-9.1,0-9.5,0c0,0-2.6-0.1-2.6,2.6c0,2.1,0.6,3.1,0.6,3.1s-2.9-1.9-2.6-6
		C217.2,2.5,221.6,2.9,221.6,2.9"/>
	<path class="st0" d="M207.8,53.7c0-0.7-0.2-1.1-0.5-1.4c-0.6-0.6-1.3-0.6-1.3-0.6h1.9h1.6h1.5h2.4c0,0-1.2,0.2-1.6,0.8
		c-0.3,0.3-0.5,0.6-0.5,1.3c0,0,0,9.5,0,9.8c0,0.9,0.7,1.9,1.8,2.3l-5.1,2L207.8,53.7z"/>
	<path class="st0" d="M197.9,63.2v-9.5c0-0.7-0.2-1.1-0.5-1.4c-0.6-0.6-1.3-0.6-1.3-0.6h1.9h1.6h1.4h2.4c0,0-1.1,0.2-1.6,0.8
		c-0.3,0.3-0.5,0.6-0.5,1.3c0,0,0,9.1,0,9.5c0,0-0.1,2.6,2.6,2.6c2.1,0,3.1-0.6,3.1-0.6s-1.9,2.9-6,2.6
		C197.6,67.7,197.9,63.2,197.9,63.2"/>
	<path class="st0" d="M187.9,63.2V33.9c0-0.7-0.2-1.1-0.5-1.4c-0.7-0.5-1.4-0.6-1.4-0.6h1.9h1.6h1.5h2.4c0,0-1.2,0.3-1.6,0.9
		c-0.3,0.3-0.5,0.6-0.5,1.3c0,0,0,28.9,0,29.2c0,0-0.1,2.6,2.6,2.6c2.1,0,3.1-0.6,3.1-0.6s-1.9,2.9-6,2.6
		C187.5,67.7,187.9,63.2,187.9,63.2"/>
	<path class="st0" d="M177.8,43.4v-9.5c0-0.7-0.2-1.1-0.5-1.4c-0.6-0.6-1.3-0.6-1.3-0.6h1.9h1.6h1.5h2.4c0,0-1.1,0.2-1.6,0.8
		c-0.3,0.3-0.5,0.6-0.5,1.3c0,0,0,9.1,0,9.5c0,0-0.1,2.6,2.6,2.6c2.1,0,3.1-0.6,3.1-0.6s-1.9,2.9-6,2.6
		C177.5,47.8,177.8,43.4,177.8,43.4"/>
	<path class="st0" d="M167.8,43.4v-9.5c0-0.7-0.2-1.1-0.5-1.4c-0.6-0.6-1.3-0.6-1.3-0.6h1.9h1.6h1.6h2.4c0,0-1.2,0.2-1.6,0.8
		c-0.5,0.3-0.8,0.6-0.8,1.3c0,0,0,9.1,0,9.5c0,0-0.1,2.6,2.6,2.6c2.1,0,3.1-0.6,3.1-0.6s-1.9,2.9-6,2.6
		C167.5,47.8,167.8,43.4,167.8,43.4"/>
</g>
<g>
	<path class="st1" d="M53.8,57.1c-0.7,0-1.1,0.2-1.4,0.5c-0.6,0.6-0.6,1.3-0.6,1.3V57v-1.6V54v-2.4c0,0,0.2,1.1,0.8,1.6
		c0.3,0.3,0.6,0.5,1.3,0.5c0,0,9.5,0,9.8,0c0.9,0,1.9-0.7,2.3-1.8l2,5.1L53.8,57.1z"/>
	<path class="st1" d="M63.3,67.1h-9.5c-0.7,0-1.1,0.2-1.4,0.5c-0.6,0.6-0.6,1.3-0.6,1.3V67v-1.6v-1.6v-2.4c0,0,0.2,1.2,0.8,1.6
		c0.3,0.3,0.6,0.5,1.3,0.5c0,0,9.1,0,9.5,0c0,0,2.6,0.1,2.6-2.6c0-2.1-0.6-3.1-0.6-3.1s2.9,1.9,2.6,6C67.8,67.4,63.3,67.1,63.3,67.1
		"/>
	<path class="st1" d="M63.3,77.1H34c-0.7,0-1.1,0.2-1.4,0.5c-0.6,0.6-0.7,1.3-0.7,1.3V77v-1.6V74v-2.4c0,0,0.3,1.2,0.9,1.6
		c0.3,0.3,0.6,0.5,1.3,0.5c0,0,28.9,0,29.2,0c0,0,2.6,0.1,2.6-2.6c0-2.1-0.6-3.1-0.6-3.1s2.9,1.9,2.6,6
		C67.8,77.4,63.3,77.1,63.3,77.1"/>
	<path class="st1" d="M43.5,87.1H34c-0.6,0-1.1,0.2-1.4,0.5C32,88.3,31.9,89,31.9,89v-1.9v-1.6V84v-2.4c0,0,0.2,1.2,0.8,1.6
		c0.3,0.3,0.6,0.5,1.3,0.5c0,0,9.1,0,9.5,0c0,0,2.6,0.1,2.6-2.6c0-2.1-0.6-3.1-0.6-3.1s2.9,1.9,2.6,6C47.9,87.4,43.5,87.1,43.5,87.1
		"/>
	<path class="st1" d="M43.5,97.2H34c-0.6,0-1.1,0.2-1.4,0.5C32,98.3,31.9,99,31.9,99v-1.9v-1.6V94v-2.4c0,0,0.2,1.1,0.8,1.6
		c0.3,0.3,0.6,0.5,1.3,0.5c0,0,9.1,0,9.5,0c0,0,2.6,0.1,2.6-2.6c0-2.1-0.6-3.1-0.6-3.1s2.9,1.9,2.6,6C47.9,97.5,43.5,97.2,43.5,97.2
		"/>
	<path class="st1" d="M57.2,46.2c0,0.7,0.2,1.1,0.5,1.4c0.6,0.6,1.3,0.6,1.3,0.6h-1.9h-1.6H54h-2.4c0,0,1.2-0.2,1.6-0.8
		c0.3-0.3,0.5-0.6,0.5-1.3c0,0,0-9.5,0-9.8c0-0.9-0.7-1.9-1.8-2.3l5.1-2L57.2,46.2z"/>
	<path class="st1" d="M67.1,36.7v9.5c0,0.7,0.2,1.1,0.5,1.4c0.6,0.6,1.3,0.6,1.3,0.6H67h-1.6H64h-2.4c0,0,1.2-0.2,1.6-0.8
		c0.3-0.3,0.5-0.6,0.5-1.3c0,0,0-9.1,0-9.5c0,0,0.1-2.6-2.6-2.6C59,34,58,34.6,58,34.6s1.9-2.9,6-2.6C67.4,32.3,67.1,36.7,67.1,36.7
		"/>
	<path class="st1" d="M77.1,36.7V66c0,0.6,0.2,1.1,0.5,1.4c0.6,0.6,1.3,0.7,1.3,0.7H77h-1.6H74h-2.4c0,0,1.2-0.3,1.6-0.9
		c0.3-0.3,0.5-0.6,0.5-1.3c0,0,0-28.9,0-29.2c0,0,0.1-2.6-2.6-2.6c-2.1,0-3.1,0.6-3.1,0.6s1.9-2.9,6-2.6
		C77.5,32.3,77.1,36.7,77.1,36.7"/>
	<path class="st1" d="M87.2,56.6v9.5c0,0.7,0.2,1.1,0.5,1.4c0.6,0.6,1.3,0.6,1.3,0.6h-1.9h-1.6H84h-2.4c0,0,1.2-0.2,1.6-0.8
		c0.3-0.3,0.5-0.6,0.5-1.3c0,0,0-9.1,0-9.5c0,0,0.1-2.6-2.6-2.6c-2.1,0-3.1,0.6-3.1,0.6s1.9-2.9,6-2.6
		C87.5,52.2,87.2,56.6,87.2,56.6"/>
	<path class="st1" d="M97.2,56.6v9.5c0,0.7,0.2,1.1,0.5,1.4c0.6,0.6,1.3,0.6,1.3,0.6h-1.9h-1.6h-1.6h-2.4c0,0,1.2-0.2,1.6-0.8
		c0.3-0.3,0.5-0.6,0.5-1.3c0,0,0-9.1,0-9.5c0,0,0.1-2.6-2.6-2.6c-2.1,0-3.1,0.6-3.1,0.6s1.9-2.9,6-2.6
		C97.5,52.2,97.2,56.6,97.2,56.6"/>
	<path class="st1" d="M46.2,42.9c0.7,0,1.1-0.2,1.4-0.5c0.6-0.6,0.6-1.3,0.6-1.3V43v1.6V46v2.4c0,0-0.2-1.2-0.8-1.6
		c-0.3-0.3-0.6-0.5-1.3-0.5c0,0-9.5,0-9.8,0c-0.9,0-1.9,0.7-2.3,1.8L32,43L46.2,42.9z"/>
	<path class="st1" d="M36.7,32.9h9.5c0.7,0,1.1-0.2,1.4-0.5c0.6-0.6,0.6-1.3,0.6-1.3V33v1.6v1.6v2.4c0,0-0.2-1.2-0.8-1.6
		c-0.3-0.3-0.6-0.5-1.3-0.5c0,0-9.1,0-9.5,0c0,0-2.6-0.1-2.6,2.6c0,2.1,0.6,3.1,0.6,3.1s-2.9-1.9-2.6-6
		C32.3,32.6,36.7,32.9,36.7,32.9"/>
	<path class="st1" d="M36.7,22.9H66c0.7,0,1.1-0.2,1.4-0.5c0.6-0.6,0.7-1.3,0.7-1.3V23v1.6V26v2.4c0,0-0.3-1.2-0.9-1.6
		c-0.3-0.3-0.6-0.5-1.3-0.5c0,0-28.9,0-29.2,0c0,0-2.6-0.1-2.6,2.6c0,2.1,0.6,3.1,0.6,3.1s-2.9-1.9-2.6-6
		C32.3,22.6,36.7,22.9,36.7,22.9"/>
	<path class="st1" d="M56.6,12.9h9.5c0.6,0,1.1-0.2,1.4-0.5c0.6-0.6,0.6-1.3,0.6-1.3V13v1.6V16v2.4c0,0-0.2-1.2-0.8-1.6
		c-0.3-0.3-0.6-0.5-1.3-0.5c0,0-9.1,0-9.5,0c0,0-2.6-0.1-2.6,2.6c0,2.1,0.6,3.1,0.6,3.1s-2.9-1.9-2.6-6
		C52.2,12.6,56.6,12.9,56.6,12.9"/>
	<path class="st1" d="M56.6,2.9h9.5c0.6,0,1.1-0.2,1.4-0.5C68.1,1.7,68.1,1,68.1,1v1.9v1.6V6v2.4c0,0-0.2-1.2-0.8-1.6
		C67,6.5,66.7,6.3,66,6.3c0,0-9.1,0-9.5,0c0,0-2.6-0.1-2.6,2.6c0,2.1,0.6,3.1,0.6,3.1s-2.9-1.9-2.6-6C52.2,2.5,56.6,2.9,56.6,2.9"/>
	<path class="st1" d="M42.8,53.7c0-0.7-0.2-1.1-0.5-1.4c-0.6-0.6-1.3-0.6-1.3-0.6h1.9h1.6H46h2.4c0,0-1.2,0.2-1.6,0.8
		c-0.3,0.3-0.5,0.6-0.5,1.3c0,0,0,9.5,0,9.8c0,0.9,0.7,1.9,1.8,2.3l-5.1,2L42.8,53.7z"/>
	<path class="st1" d="M32.9,63.2v-9.5c0-0.7-0.2-1.1-0.5-1.4c-0.6-0.6-1.3-0.6-1.3-0.6H33h1.6H36h2.4c0,0-1.1,0.2-1.6,0.8
		c-0.3,0.3-0.5,0.6-0.5,1.3c0,0,0,9.1,0,9.5c0,0-0.1,2.6,2.6,2.6c2.1,0,3.1-0.6,3.1-0.6s-1.9,2.9-6,2.6
		C32.6,67.7,32.9,63.2,32.9,63.2"/>
	<path class="st1" d="M22.9,63.2V33.9c0-0.7-0.2-1.1-0.5-1.4C21.7,32,21,31.9,21,31.9h1.9h1.6H26h2.4c0,0-1.2,0.3-1.6,0.9
		c-0.3,0.3-0.5,0.6-0.5,1.3c0,0,0,28.9,0,29.2c0,0-0.1,2.6,2.6,2.6c2.1,0,3.1-0.6,3.1-0.6s-1.9,2.9-6,2.6
		C22.5,67.7,22.9,63.2,22.9,63.2"/>
	<path class="st1" d="M12.8,43.4v-9.5c0-0.7-0.2-1.1-0.5-1.4c-0.6-0.6-1.3-0.6-1.3-0.6h1.9h1.6H16h2.4c0,0-1.1,0.2-1.6,0.8
		c-0.3,0.3-0.5,0.6-0.5,1.3c0,0,0,9.1,0,9.5c0,0-0.1,2.6,2.6,2.6c2.1,0,3.1-0.6,3.1-0.6s-1.9,2.9-6,2.6
		C12.5,47.8,12.8,43.4,12.8,43.4"/>
	<path class="st1" d="M2.8,43.4v-9.5c0-0.7-0.2-1.1-0.5-1.4C1.7,31.9,1,31.9,1,31.9h1.9h1.6h1.6h2.4c0,0-1.2,0.2-1.6,0.8
		C6.4,33,6.1,33.3,6.1,34c0,0,0,9.1,0,9.5c0,0-0.1,2.6,2.6,2.6c2.1,0,3.1-0.6,3.1-0.6s-1.9,2.9-6,2.6C2.5,47.8,2.8,43.4,2.8,43.4"/>
</g>
<g>
	<path class="st2" d="M380.8,57.1c-0.7,0-1.1,0.2-1.4,0.5c-0.6,0.6-0.6,1.3-0.6,1.3V57v-1.6V54v-2.4c0,0,0.2,1.1,0.8,1.6
		c0.3,0.3,0.6,0.5,1.3,0.5c0,0,9.5,0,9.8,0c0.9,0,1.9-0.7,2.3-1.8l2,5.1L380.8,57.1z"/>
	<path class="st2" d="M390.3,67.1h-9.5c-0.7,0-1.1,0.2-1.4,0.5c-0.6,0.6-0.6,1.3-0.6,1.3V67v-1.6v-1.6v-2.4c0,0,0.2,1.2,0.8,1.6
		c0.3,0.3,0.6,0.5,1.3,0.5c0,0,9.1,0,9.5,0c0,0,2.6,0.1,2.6-2.6c0-2.1-0.6-3.1-0.6-3.1s2.9,1.9,2.6,6
		C394.8,67.4,390.3,67.1,390.3,67.1"/>
	<path class="st2" d="M390.3,77.1H361c-0.7,0-1.1,0.2-1.4,0.5c-0.6,0.6-0.7,1.3-0.7,1.3V77v-1.6V74v-2.4c0,0,0.3,1.2,0.9,1.6
		c0.3,0.3,0.6,0.5,1.3,0.5c0,0,28.9,0,29.2,0c0,0,2.6,0.1,2.6-2.6c0-2.1-0.6-3.1-0.6-3.1s2.9,1.9,2.6,6
		C394.8,77.4,390.3,77.1,390.3,77.1"/>
	<path class="st2" d="M370.5,87.1H361c-0.6,0-1.1,0.2-1.4,0.5c-0.6,0.7-0.7,1.4-0.7,1.4v-1.9v-1.6V84v-2.4c0,0,0.2,1.2,0.8,1.6
		c0.3,0.3,0.6,0.5,1.3,0.5c0,0,9.1,0,9.5,0c0,0,2.6,0.1,2.6-2.6c0-2.1-0.6-3.1-0.6-3.1s2.9,1.9,2.6,6
		C374.9,87.4,370.5,87.1,370.5,87.1"/>
	<path class="st2" d="M370.5,97.2H361c-0.6,0-1.1,0.2-1.4,0.5c-0.6,0.6-0.7,1.3-0.7,1.3v-1.9v-1.6V94v-2.4c0,0,0.2,1.1,0.8,1.6
		c0.3,0.3,0.6,0.5,1.3,0.5c0,0,9.1,0,9.5,0c0,0,2.6,0.1,2.6-2.6c0-2.1-0.6-3.1-0.6-3.1s2.9,1.9,2.6,6
		C374.9,97.5,370.5,97.2,370.5,97.2"/>
	<path class="st2" d="M384.2,46.2c0,0.7,0.2,1.1,0.5,1.4c0.6,0.6,1.3,0.6,1.3,0.6h-1.9h-1.6H381h-2.4c0,0,1.2-0.2,1.6-0.8
		c0.3-0.3,0.5-0.6,0.5-1.3c0,0,0-9.5,0-9.8c0-0.9-0.7-1.9-1.8-2.3l5.1-2L384.2,46.2z"/>
	<path class="st2" d="M394.1,36.7v9.5c0,0.7,0.2,1.1,0.5,1.4c0.6,0.6,1.3,0.6,1.3,0.6H394h-1.6H391h-2.4c0,0,1.2-0.2,1.6-0.8
		c0.3-0.3,0.5-0.6,0.5-1.3c0,0,0-9.1,0-9.5c0,0,0.1-2.6-2.6-2.6c-2.1,0-3.1,0.6-3.1,0.6s1.9-2.9,6-2.6
		C394.4,32.3,394.1,36.7,394.1,36.7"/>
	<path class="st2" d="M404.1,36.7V66c0,0.6,0.2,1.1,0.5,1.4c0.6,0.6,1.3,0.7,1.3,0.7H404h-1.6H401h-2.4c0,0,1.2-0.3,1.6-0.9
		c0.3-0.3,0.5-0.6,0.5-1.3c0,0,0-28.9,0-29.2c0,0,0.1-2.6-2.6-2.6c-2.1,0-3.1,0.6-3.1,0.6s1.9-2.9,6-2.6
		C404.5,32.3,404.1,36.7,404.1,36.7"/>
	<path class="st2" d="M414.2,56.6v9.5c0,0.7,0.2,1.1,0.5,1.4c0.6,0.6,1.3,0.6,1.3,0.6h-1.9h-1.6H411h-2.4c0,0,1.2-0.2,1.6-0.8
		c0.3-0.3,0.5-0.6,0.5-1.3c0,0,0-9.1,0-9.5c0,0,0.1-2.6-2.6-2.6c-2.1,0-3.1,0.6-3.1,0.6s1.9-2.9,6-2.6
		C414.5,52.2,414.2,56.6,414.2,56.6"/>
	<path class="st2" d="M424.2,56.6v9.5c0,0.7,0.2,1.1,0.5,1.4c0.6,0.6,1.3,0.6,1.3,0.6h-1.9h-1.6h-1.6h-2.4c0,0,1.2-0.2,1.6-0.8
		c0.3-0.3,0.5-0.6,0.5-1.3c0,0,0-9.1,0-9.5c0,0,0.1-2.6-2.6-2.6c-2.1,0-3.1,0.6-3.1,0.6s1.9-2.9,6-2.6
		C424.5,52.2,424.2,56.6,424.2,56.6"/>
	<path class="st2" d="M373.2,42.9c0.7,0,1.1-0.2,1.4-0.5c0.6-0.6,0.6-1.3,0.6-1.3V43v1.6V46v2.4c0,0-0.2-1.2-0.8-1.6
		c-0.3-0.3-0.6-0.5-1.3-0.5c0,0-9.5,0-9.8,0c-0.9,0-1.9,0.7-2.3,1.8l-2-5.1L373.2,42.9z"/>
	<path class="st2" d="M363.7,32.9h9.5c0.7,0,1.1-0.2,1.4-0.5c0.6-0.6,0.6-1.3,0.6-1.3V33v1.6v1.6v2.4c0,0-0.2-1.2-0.8-1.6
		c-0.3-0.3-0.6-0.5-1.3-0.5c0,0-9.1,0-9.5,0c0,0-2.6-0.1-2.6,2.6c0,2.1,0.6,3.1,0.6,3.1s-2.9-1.9-2.6-6
		C359.3,32.6,363.7,32.9,363.7,32.9"/>
	<path class="st2" d="M363.7,22.9H393c0.7,0,1.1-0.2,1.4-0.5c0.6-0.6,0.7-1.3,0.7-1.3V23v1.6V26v2.4c0,0-0.3-1.2-0.9-1.6
		c-0.3-0.3-0.6-0.5-1.3-0.5c0,0-28.9,0-29.2,0c0,0-2.6-0.1-2.6,2.6c0,2.1,0.6,3.1,0.6,3.1s-2.9-1.9-2.6-6
		C359.3,22.6,363.7,22.9,363.7,22.9"/>
	<path class="st2" d="M383.6,12.9h9.5c0.6,0,1.1-0.2,1.4-0.5c0.6-0.6,0.6-1.3,0.6-1.3V13v1.6V16v2.4c0,0-0.2-1.2-0.8-1.6
		c-0.3-0.3-0.6-0.5-1.3-0.5c0,0-9.1,0-9.5,0c0,0-2.6-0.1-2.6,2.6c0,2.1,0.6,3.1,0.6,3.1s-2.9-1.9-2.6-6
		C379.2,12.6,383.6,12.9,383.6,12.9"/>
	<path class="st2" d="M383.6,2.9h9.5c0.6,0,1.1-0.2,1.4-0.5c0.6-0.7,0.6-1.4,0.6-1.4v1.9v1.6V6v2.4c0,0-0.2-1.2-0.8-1.6
		c-0.3-0.3-0.6-0.5-1.3-0.5c0,0-9.1,0-9.5,0c0,0-2.6-0.1-2.6,2.6c0,2.1,0.6,3.1,0.6,3.1s-2.9-1.9-2.6-6
		C379.2,2.5,383.6,2.9,383.6,2.9"/>
	<path class="st2" d="M369.8,53.7c0-0.7-0.2-1.1-0.5-1.4c-0.6-0.6-1.3-0.6-1.3-0.6h1.9h1.6h1.5h2.4c0,0-1.2,0.2-1.6,0.8
		c-0.3,0.3-0.5,0.6-0.5,1.3c0,0,0,9.5,0,9.8c0,0.9,0.7,1.9,1.8,2.3l-5.1,2L369.8,53.7z"/>
	<path class="st2" d="M359.9,63.2v-9.5c0-0.7-0.2-1.1-0.5-1.4c-0.6-0.6-1.3-0.6-1.3-0.6h1.9h1.6h1.4h2.4c0,0-1.1,0.2-1.6,0.8
		c-0.3,0.3-0.5,0.6-0.5,1.3c0,0,0,9.1,0,9.5c0,0-0.1,2.6,2.6,2.6c2.1,0,3.1-0.6,3.1-0.6s-1.9,2.9-6,2.6
		C359.6,67.7,359.9,63.2,359.9,63.2"/>
	<path class="st2" d="M349.9,63.2V33.9c0-0.7-0.2-1.1-0.5-1.4c-0.7-0.5-1.4-0.6-1.4-0.6h1.9h1.6h1.5h2.4c0,0-1.2,0.3-1.6,0.9
		c-0.3,0.3-0.5,0.6-0.5,1.3c0,0,0,28.9,0,29.2c0,0-0.1,2.6,2.6,2.6c2.1,0,3.1-0.6,3.1-0.6s-1.9,2.9-6,2.6
		C349.5,67.7,349.9,63.2,349.9,63.2"/>
	<path class="st2" d="M339.8,43.4v-9.5c0-0.7-0.2-1.1-0.5-1.4c-0.6-0.6-1.3-0.6-1.3-0.6h1.9h1.6h1.5h2.4c0,0-1.1,0.2-1.6,0.8
		c-0.3,0.3-0.5,0.6-0.5,1.3c0,0,0,9.1,0,9.5c0,0-0.1,2.6,2.6,2.6c2.1,0,3.1-0.6,3.1-0.6s-1.9,2.9-6,2.6
		C339.5,47.8,339.8,43.4,339.8,43.4"/>
	<path class="st2" d="M329.8,43.4v-9.5c0-0.7-0.2-1.1-0.5-1.4c-0.6-0.6-1.3-0.6-1.3-0.6h1.9h1.6h1.6h2.4c0,0-1.2,0.2-1.6,0.8
		c-0.5,0.3-0.8,0.6-0.8,1.3c0,0,0,9.1,0,9.5c0,0-0.1,2.6,2.6,2.6c2.1,0,3.1-0.6,3.1-0.6s-1.9,2.9-6,2.6
		C329.5,47.8,329.8,43.4,329.8,43.4"/>
</g>
</svg>
