<?xml version="1.0" encoding="utf-8"?>
<!-- Generator: Adobe Illustrator 26.0.1, SVG Export Plug-In . SVG Version: 6.00 Build 0)  -->
<svg version="1.1" id="Layer_1" xmlns="http://www.w3.org/2000/svg" xmlns:xlink="http://www.w3.org/1999/xlink" x="0px" y="0px"
	 viewBox="0 0 300 300" style="enable-background:new 0 0 300 300;" xml:space="preserve">
<style type="text/css">
	.st0{fill-rule:evenodd;clip-rule:evenodd;fill:#E16D64;}
	.st1{fill-rule:evenodd;clip-rule:evenodd;fill:#FBC8BC;}
	.st2{fill:#E16D64;stroke:#FBC8BC;stroke-width:2.1136;}
	.st3{fill:#E16D64;stroke:#FBC8BC;stroke-width:2.1136;stroke-miterlimit:4;}
	.st4{fill:#E16D64;stroke:#FBC8BC;stroke-width:2.1135;stroke-miterlimit:3.9999;}
	.st5{fill:#E16D64;stroke:#FBC8BC;stroke-width:2.1137;stroke-miterlimit:4.0002;}
	.st6{fill:#E16D64;stroke:#FBC8BC;stroke-width:8.7298;}
	.st7{fill:#E16D64;}
	.st8{fill:#E16D64;stroke:#FBC8BC;stroke-width:0.8;}
	.st9{clip-path:url(#SVGID_00000034062233725737790880000000983160068327266957_);}
	.st10{fill:#E16D64;stroke:#FBC8BC;stroke-width:2.135;}
	.st11{fill:#E16D64;stroke:#FBC8BC;stroke-width:2.0838;}
	.st12{clip-path:url(#SVGID_00000145019360289736422870000014966939115280316038_);}
	.st13{stroke:#FBC8BC;stroke-width:8.7359;}
	.st14{clip-path:url(#SVGID_00000010290573682922935890000006547669493108156861_);}
	.st15{fill:none;stroke:#E16D64;stroke-width:0.2169;}
	.st16{fill:#E16D64;stroke:#FBC8BC;stroke-width:4.3542;}
</style>
<g>
	<path id="Path_4090" class="st0" d="M146-350c65.8,0,119.1-53.3,119.1-119.1c0-13.8-3.7-34.9-8.4-47.9l-6.1,2.2
		c3.2,9,6,22.5,7.3,34.2l-4.7,0.5c-0.2,0-0.5,0-0.7,0.1l-2.1,0.1c-5.2,0.2-9.9,3.4-11.9,8.2l-0.5,1.3c-2.1,4.7-6.7,7.8-11.9,7.8H217
		c-2.8,0-5.2-2.1-5.5-5l-0.4-3.7c-0.4-4.1-2.7-7.9-6.2-10.1c-1.9-1.2-3-3.3-3-5.5v-3.7c0-2.4,1-4.7,2.8-6.3l15.6-13.8
		c4.1-3.6,5.7-9.4,4.2-14.6c-1.7-5.5-6.4-9.4-12-10.1l-1.6-0.2c-2.2-0.3-4.2-1.3-5.7-3c-1.6-1.8-1.8-4.4-0.7-6.5l8.5-14.6
		c6.9,4.6,13.3,9.9,19,15.8l4.7-4.5c-11-11.4-25.1-21.1-40.9-28.3c-16.6-7.5-33.9-11.5-49.9-11.5c-6,0.1-12,0.5-17.9,1.4l0.9,6.4
		c1.9-0.3,3.9-0.5,5.8-0.7l13.6,19.6c3.2,4.6,3.1,10.8-0.4,15.3l-3.8,5c-1.9,2.5-5,3.7-8.1,3.3l-4.4-0.6c-6.3-0.8-12.4,2.2-15.6,7.7
		c-1.8,3.1-5.3,4.8-8.8,4.3l-10.1-1.3c-6.1-0.8-12.2,1.9-15.6,7.1c-3.2,4.8-3.3,11-0.2,15.9l6.6,10.5c2.5,3.9,6.8,6.3,11.4,6.3
		c2.2,0,4.4-0.5,6.3-1.6l6.8-3.7c3.8-2,10.3-1.8,14.2,0.6l3.3-5.5c-5.8-3.5-14.9-3.8-20.6-0.7l-6.8,3.7c-3.2,1.7-7.3,0.7-9.2-2.4
		l-6.6-10.5c-1.7-2.7-1.7-6.2,0.1-8.8c2.1-3.1,5.8-4.8,9.5-4.3l10.1,1.3c6.1,0.8,12.1-2.2,15.2-7.5c1.9-3.2,5.5-5,9.2-4.5l4.4,0.6
		c5.4,0.7,10.7-1.5,14-5.8l3.8-5c5.2-6.7,5.4-16,0.6-22.9l-11.4-16.4c1.3-0.1,2.6-0.1,3.7-0.1c15.1,0,31.5,3.8,47.3,10.9
		c4.9,2.2,9.7,4.8,14.4,7.6l-8.7,14.9c-2.6,4.5-2,10.1,1.4,14c2.5,2.9,6,4.7,9.7,5.2l1.6,0.2c3.1,0.4,5.7,2.6,6.6,5.6
		c0.9,2.9,0,5.9-2.2,7.9l-15.6,13.8c-3.2,2.8-5,6.9-5,11.2v3.7c0,4.4,2.2,8.5,5.9,10.9c1.8,1.2,3,3.1,3.2,5.3l0.4,3.7
		c0.6,6.1,5.8,10.8,11.9,10.8h9.1c7.7,0,14.7-4.6,17.8-11.6l0.5-1.2c1.1-2.5,3.5-4.2,6.3-4.3l2.1-0.1c0.3,0,0.7,0,1-0.1l4.6-0.5
		c0.1,1.8,0.2,3.5,0.2,5c0,62.1-50.5,112.6-112.6,112.6S33.4-407,33.4-469.1c0.1-7.8,0.9-15.5,2.6-23.1l12.3-4
		c5.3-1,10.7,1.5,13.4,6.2c1.3,2.2,2.8,4.2,4.7,5.9L75-476c2.3,2.2,5.1,3.8,8.2,4.6l1,0.3c3.8,1,6.7,4,7.8,7.8l4.6,16.8
		c0.8,2.8,2.1,5.4,3.8,7.7l14.1,18.5c1.1,1.5,1.9,3.2,2.2,5l3.8,23.1c0.9,5.3,5.8,8.8,11.1,8c0.7-0.1,1.5-0.3,2.2-0.6
		c4.3-1.8,7.4-5.9,7.8-10.6c0.4-3.4,1.7-6.7,3.9-9.4l4.1-4.9c1.3-1.5,2.2-3.3,2.8-5.2l4.2-13.6c0.8-2.7,2.5-5.2,4.8-6.9l12.6-9.7
		c4.7-3.6,5.6-10.3,2-15l0,0c-0.1-0.1-0.2-0.3-0.3-0.4l-8.3-9.8c-0.4-0.4-0.7-0.9-1.1-1.4l-3.7-5.1l-5.2,3.8l3.7,5
		c0.4,0.6,0.9,1.2,1.4,1.8l8.3,9.8c1.5,1.8,1.3,4.4-0.5,5.9l0,0c-0.1,0-0.1,0.1-0.2,0.1l-12.6,9.7c-3.3,2.6-5.8,6.1-7,10.1
		l-4.2,13.6c-0.3,1.1-0.9,2.1-1.6,2.9l-4.1,4.9c-3,3.6-4.9,8.1-5.4,12.8c-0.2,2.3-1.7,4.4-3.9,5.3c-1.6,0.7-3.5-0.1-4.2-1.7
		c-0.1-0.2-0.2-0.5-0.2-0.7l-3.8-23.1c-0.5-2.9-1.7-5.6-3.4-7.9L105.6-443c-1.3-1.7-2.2-3.5-2.8-5.5L98.3-465
		c-1.7-6-6.4-10.6-12.3-12.3l-1-0.3c-2-0.6-3.9-1.6-5.5-3.1l-8.7-8.2c-1.4-1.3-2.6-2.8-3.5-4.4c-4.1-7.1-12.3-10.8-20.4-9.2
		c-0.1,0-0.3,0.1-0.4,0.1l-8.7,2.8c2.5-9,5.9-17.6,10.3-25.8l-5.7-3.1c-9.7,17.9-15.5,40.1-15.5,59.4C26.9-403.3,80.2-350,146-350z"
		/>
	<path id="Icon_material-location-on" d="M148.8-534c-14.3,0-25.8,11.5-25.9,25.8l0,0c0,19.4,25.9,48,25.9,48s25.9-28.6,25.9-48
		C174.6-522.4,163.1-534,148.8-534L148.8-534z M148.8-498.9c-5.1,0-9.2-4.1-9.2-9.2s4.1-9.2,9.2-9.2c5.1,0,9.2,4.1,9.2,9.2l0,0
		C158-503,153.9-498.9,148.8-498.9z"/>
	<path id="Icon_material-location-on-2" d="M249.7-583.2c-14.3,0-25.8,11.5-25.9,25.8l0,0c0,19.4,25.9,48,25.9,48s25.9-28.6,25.9-48
		C275.6-571.6,264-583.2,249.7-583.2L249.7-583.2z M249.7-548.1c-5.1,0-9.2-4.1-9.2-9.2c0-5.1,4.1-9.2,9.2-9.2
		c5.1,0,9.2,4.1,9.2,9.2l0,0C258.9-552.3,254.8-548.1,249.7-548.1z"/>
	<path id="Path_4091" class="st1" d="M48-471.8c0.1-8.6,1.1-17.2,3.1-25.7c0.4-1.7,0.8-3.3,1.2-4.9c2.5-9.5,6.2-18.6,10.8-27.3l0,0
		L91-562c6.1-4.8,15.3-11,22.4-14.5l26.5-8l-1.9-2.8l0,0c-2.7,0.2-5.4,0.6-7.8,0.9h-0.1l-32.8,9.9C90.2-573,81-566.8,74.8-562
		L47-529.7l0,0c-5.4,10.2-9.5,21-12,32.2c-2,8.4-3,17-3.1,25.7c0,64,51.8,115.9,115.7,115.9c2.7,0,5.4-0.1,8.1-0.3
		C95.5-360.3,48-410.5,48-471.8"/>
	<path id="Icon_material-location-on-3" d="M50.3-590.6c-14.3,0-25.8,11.5-25.9,25.8l0,0c0,19.4,25.9,48,25.9,48s25.9-28.6,25.9-48
		C76.1-579,64.6-590.6,50.3-590.6L50.3-590.6z M50.3-555.5c-5.1,0-9.2-4.1-9.2-9.2s4.1-9.2,9.2-9.2s9.2,4.1,9.2,9.2l0,0
		C59.5-559.6,55.4-555.5,50.3-555.5z"/>
	<path id="Icon_material-location-on-4" d="M111.8-630C97.6-630,86-618.4,86-604.2l0,0c0,19.4,25.9,48,25.9,48s25.9-28.6,25.9-48
		C137.7-618.4,126.1-630,111.8-630C111.9-630,111.8-630,111.8-630z M111.8-594.9c-5.1,0-9.2-4.1-9.2-9.2s4.1-9.2,9.2-9.2
		s9.2,4.1,9.2,9.2l0,0C121.1-599,116.9-594.9,111.8-594.9z"/>
</g>
<g id="Image" transform="translate(3221.066 2950.876)">
	<g id="famous" transform="translate(30.152 -0.661)">
		<g id="Group_210" transform="translate(33.143 35.321)">
			<g id="Group_209">
				<path id="Path_4092" class="st2" d="M-3427.5-3456.1c21.1-14.8,26.2-44,11.4-65.1s-44-26.2-65.1-11.4s-26.2,44-11.4,65.1
					c3.1,4.4,7,8.3,11.4,11.4c-24.9,4.3-43.2,25.9-43.2,51.2v64.8c0,2.6,2.1,4.7,4.7,4.7l0,0h130.8c2.6,0,4.7-2.1,4.7-4.7l0,0v-64.8
					C-3384.4-3430.2-3402.6-3451.8-3427.5-3456.1z M-3491.7-3494.3c0-20.6,16.7-37.4,37.4-37.4s37.4,16.7,37.4,37.4
					c0,20.6-16.7,37.4-37.4,37.4l0,0C-3475-3456.9-3491.7-3473.6-3491.7-3494.3z M-3393.6-3344.8H-3515v-60.1
					c0-23.5,19.1-42.6,42.6-42.6h36.1c23.5,0,42.6,19.1,42.6,42.6L-3393.6-3344.8z"/>
			</g>
		</g>
		<g id="Group_212" transform="translate(64.076 13.257)">
			<g id="Group_211">
				<rect id="Rectangle_171" x="-3490" y="-3565.6" class="st2" width="9.3" height="18.7"/>
			</g>
		</g>
		<g id="Group_214" transform="translate(85.903 18.699)">
			<g id="Group_213">
				
					<rect id="Rectangle_172" x="-3465.1" y="-3554.3" transform="matrix(0.7071 -0.7071 0.7071 0.7071 1497.8235 -3483.2258)" class="st3" width="18.7" height="9.3"/>
			</g>
		</g>
		<g id="Group_216" transform="translate(112.685 128.151)">
			<g id="Group_215">
				<rect id="Rectangle_173" x="-3435.8" y="-3437.7" class="st2" width="18.7" height="9.3"/>
			</g>
		</g>
		<g id="Group_218" transform="translate(112.685 106.056)">
			<g id="Group_217">
				<rect id="Rectangle_174" x="-3435.8" y="-3462.3" class="st2" width="18.7" height="9.3"/>
			</g>
		</g>
		<g id="Group_220" transform="translate(112.685 83.961)">
			<g id="Group_219">
				<rect id="Rectangle_175" x="-3435.8" y="-3486.9" class="st2" width="18.7" height="9.3"/>
			</g>
		</g>
		<g id="Group_222" transform="translate(110.009 60.577)">
			<g id="Group_221">
				
					<rect id="Rectangle_176" x="-3437.7" y="-3510.2" transform="matrix(0.9486 -0.3164 0.3164 0.9486 933.0351 -1264.8573)" class="st4" width="18.7" height="9.3"/>
			</g>
		</g>
		<g id="Group_224" transform="translate(103.144 37.664)">
			<g id="Group_223">
				
					<rect id="Rectangle_177" x="-3445.4" y="-3535.6" transform="matrix(0.9486 -0.3164 0.3164 0.9486 940.7029 -1268.6002)" class="st4" width="18.7" height="9.3"/>
			</g>
		</g>
		<g id="Group_226" transform="translate(37.295 18.704)">
			<g id="Group_225">
				
					<rect id="Rectangle_178" x="-3514.5" y="-3559" transform="matrix(0.7072 -0.707 0.707 0.7072 1481.9193 -3520.821)" class="st3" width="9.3" height="18.7"/>
			</g>
		</g>
		<g id="Group_228" transform="translate(11.048 128.151)">
			<g id="Group_227">
				<rect id="Rectangle_179" x="-3549" y="-3437.7" class="st2" width="18.7" height="9.3"/>
			</g>
		</g>
		<g id="Group_230" transform="translate(11.048 106.056)">
			<g id="Group_229">
				<rect id="Rectangle_180" x="-3549" y="-3462.3" class="st2" width="18.7" height="9.3"/>
			</g>
		</g>
		<g id="Group_232" transform="translate(11.048 83.961)">
			<g id="Group_231">
				<rect id="Rectangle_181" x="-3549" y="-3486.9" class="st2" width="18.7" height="9.3"/>
			</g>
		</g>
		<g id="Group_234" transform="translate(12.785 60.579)">
			<g id="Group_233">
				
					<rect id="Rectangle_182" x="-3541.3" y="-3514.9" transform="matrix(0.3161 -0.9487 0.9487 0.3161 907.114 -5752.7261)" class="st4" width="9.3" height="18.7"/>
			</g>
		</g>
		<g id="Group_236" transform="translate(19.639 37.68)">
			<g id="Group_235">
				
					<rect id="Rectangle_183" x="-3534" y="-3540.2" transform="matrix(0.3163 -0.9487 0.9487 0.3163 936.5769 -5762.2251)" class="st5" width="9.3" height="18.7"/>
			</g>
		</g>
		<g id="Group_238" transform="translate(110.475)">
			<g id="Group_237">
				<path id="Path_4093" class="st2" d="M-3396.3-3561.7c-7.7,0-14-6.3-14-14c-0.1-2.6-2.2-4.6-4.8-4.6c-2.5,0.1-4.5,2.1-4.6,4.6
					c0,7.7-6.3,14-14,14c-2.6-0.1-4.7,2-4.8,4.6s2,4.7,4.6,4.8c0.1,0,0.1,0,0.2,0c7.7,0,14,6.3,14,14c0.1,2.6,2.2,4.6,4.8,4.6
					c2.5-0.1,4.5-2.1,4.6-4.6c0-7.7,6.3-14,14-14c2.6-0.1,4.6-2.2,4.6-4.8C-3391.7-3559.6-3393.8-3561.6-3396.3-3561.7
					L-3396.3-3561.7z M-3414.9-3552.3c-1.3-1.8-2.9-3.4-4.7-4.7c1.8-1.3,3.4-2.9,4.7-4.7c1.3,1.8,2.9,3.4,4.7,4.7
					C-3412-3555.7-3413.6-3554.1-3414.9-3552.3z"/>
			</g>
		</g>
		<g id="Group_240">
			<g id="Group_239">
				<path id="Path_4094" class="st2" d="M-3519.3-3561.7c-7.7,0-14-6.3-14-14c-0.1-2.6-2.2-4.6-4.8-4.6c-2.5,0.1-4.5,2.1-4.6,4.6
					c0,7.7-6.3,14-14,14c-2.6,0.1-4.6,2.2-4.6,4.8c0.1,2.5,2.1,4.5,4.6,4.6c7.7,0,14,6.3,14,14c-0.1,2.6,2,4.7,4.6,4.8
					s4.7-2,4.8-4.6c0-0.1,0-0.1,0-0.2c0-7.7,6.3-14,14-14c2.6-0.1,4.6-2.2,4.6-4.8C-3514.8-3559.6-3516.8-3561.6-3519.3-3561.7
					L-3519.3-3561.7z M-3538-3552.3c-1.3-1.8-2.9-3.4-4.7-4.7c1.8-1.3,3.4-2.9,4.7-4.7c1.3,1.8,2.9,3.4,4.7,4.7
					C-3535.1-3555.7-3536.6-3554.1-3538-3552.3z"/>
			</g>
		</g>
	</g>
</g>
<g id="Image-2" transform="translate(3514.156 2960.45)">
	<g id="hand" transform="translate(16.719 -0.661)">
		<g id="Group_241" transform="translate(0 0)">
			<path id="Path_4095" class="st6" d="M-3587.8-3157.8l-51.2,35.8v-25.7h-14.3l20.2-20.2c19.8-19.8,19.8-51.9,0-71.7
				c-18.5-18.5-48-19.9-68.2-3.2c-21.6-17.8-53.5-14.8-71.4,6.7c-16.7,20.2-15.3,49.7,3.2,68.2l20.2,20.2h-66.8l-27.3,23.9v116.9
				l62.3-54.6l87.6,38.7l134.4-94.1L-3587.8-3157.8z M-3757.7-3179.6c-13.3-13.3-13.3-34.9,0-48.1c13.3-13.3,34.9-13.3,48.1,0
				l8.2,8.2l8.2-8.2c13.3-13.3,34.9-13.3,48.2,0s13.3,34.9,0,48.2l-32,32h-48.8L-3757.7-3179.6z M-3695.4-3041.7l-88.7-39.2
				l-42.6,37.4v-72.6l16.9-14.8h154.2v16.7h-57.4v16.7h68.4l52.8-37l9.6,13.7L-3695.4-3041.7z"/>
		</g>
	</g>
</g>
<g id="Image-3" transform="translate(3789.425 2960.449)">
	<g id="peace" transform="translate(26.711 -0.661)">
		<path id="Path_4096" class="st7" d="M-3675.3-3035.5v-14.3c0-6.9-1.6-13.7-4.6-20c-1-2.1-3.6-3-5.8-2s-3,3.6-2,5.8
			c2.5,5,3.7,10.6,3.7,16.2v10.4c-0.4,0-62.7,0-62.7,0l-12.9-8c-25.9-16.1-41.7-44.5-41.7-75v-43.4c0.1-4.1,3.6-7.3,7.7-7.2
			c3.9,0.1,7,3.3,7.2,7.2v45c0,5.7,2.3,11.2,6.4,15.2l1.3,1.3c0.6,3.7,2.4,7,5.2,9.5l35.9,32.9c1.8,1.5,4.5,1.3,6.1-0.5
			c1.4-1.7,1.3-4.2-0.3-5.8l-35.9-32.9c-3.2-3-3.5-8.1-0.5-11.3c2.8-3.1,7.5-3.4,10.8-0.9l28.5,22.2c0.4,0.3,0.9,0.6,1.4,0.7
			l17.4,5.3c4.4,1.3,8.4,3.5,12,6.3c1.9,1.5,4.6,1.1,6.1-0.7s1.1-4.6-0.7-6.1c-4.4-3.5-9.4-6.1-14.8-7.8l-14.5-4.4v-23.3
			c0-10.3-7.3-19.2-17.4-21.3v-3.1c0-7.7-6.2-13.9-13.9-13.9c-1.8,0-3.6,0.4-5.3,1v-0.8c0-7.7-6.2-13.9-13.9-13.9
			c-2.2,0-4.3,0.5-6.3,1.5c-3.1-8.3-12.4-12.6-20.7-9.5c-6.3,2.3-10.5,8.3-10.5,15.1v43.4c0,33.5,17.3,64.7,45.8,82.3l6.4,3.9
			c-3.2,2.7-5,6.6-5,10.8v31.3c0,2.4,1.9,4.3,4.3,4.3c2.4,0,4.3-1.9,4.3-4.3l0,0v-31.3c0-3,2.4-5.4,5.4-5.4h63.7
			c3,0,5.4,2.4,5.4,5.4v31.3c0,2.4,1.9,4.3,4.3,4.3c2.4,0,4.3-1.9,4.3-4.3v-31.3C-3671.1-3029.2-3672.6-3032.8-3675.3-3035.5z
			 M-3730.7-3121.1v17.5l-8.8-6.8v-23C-3734.2-3131.6-3730.7-3126.6-3730.7-3121.1z M-3753.4-3150.7c2.9,0,5.3,2.4,5.3,5.3v28.3
			l-3.9-3.1c-1.9-1.5-4.2-2.6-6.6-3.1v-22.1C-3758.6-3148.3-3756.3-3150.7-3753.4-3150.7L-3753.4-3150.7z M-3772.5-3164.3
			c2.9,0,5.3,2.4,5.3,5.3v36.1c-3,0.9-5.7,2.7-7.7,5.1c-0.6,0.7-1.1,1.5-1.6,2.3c-0.8-1.7-1.2-3.5-1.2-5.3v-38.2
			C-3777.8-3161.9-3775.4-3164.3-3772.5-3164.3z"/>
		<path id="Path_4097" class="st7" d="M-3538.4-3181.9c-6.7,0-12.7,4.2-15.1,10.5c-6.8-3.5-15.2-0.7-18.7,6.1
			c-1,1.9-1.5,4.1-1.5,6.3v0.8c-7.1-2.9-15.2,0.5-18.1,7.6c-0.7,1.7-1,3.5-1,5.3v3.1c-10.1,2.1-17.4,10.9-17.4,21.3v23.3l-14.5,4.4
			c-19.2,5.9-32.2,23.6-32.2,43.6v14.3c-2.7,2.6-4.3,6.3-4.3,10.1v31.3c0,2.4,1.9,4.3,4.3,4.3c2.4,0,4.3-1.9,4.3-4.3v-31.3
			c0-3,2.4-5.4,5.4-5.4h63.7c3,0,5.4,2.4,5.4,5.4v31.3c0,2.4,1.9,4.3,4.3,4.3c2.4,0,4.3-1.9,4.3-4.3v-31.3c0-4.2-1.8-8.1-5-10.8
			l6.4-3.9c8-5,15.3-11.1,21.5-18.2c1.6-1.8,1.4-4.5-0.4-6.1c-1.8-1.6-4.5-1.4-6.1,0.4l0,0c-5.7,6.5-12.3,12-19.6,16.6l-12.9,8
			c0,0-62.3,0-62.7,0v-10.4c0-16.2,10.6-30.6,26.1-35.4l17.4-5.3c0.5-0.2,1-0.4,1.4-0.7l28.5-22.2c3.5-2.7,8.5-2.1,11.2,1.4
			c2.5,3.3,2.2,8-0.9,10.8l-35.9,32.9c-1.7,1.7-1.7,4.4,0,6.1c1.6,1.6,4.1,1.7,5.9,0.3l35.9-32.9c2.8-2.5,4.6-5.9,5.2-9.5l1.3-1.3
			c4.1-4,6.3-9.5,6.4-15.2v-45c0.1-4.1,3.6-7.3,7.7-7.2c3.9,0.1,7,3.3,7.2,7.2v43.4c0,15.5-4.1,30.7-11.9,44.2
			c-1.2,2.1-0.5,4.7,1.6,5.9s4.7,0.5,5.9-1.6c8.5-14.7,13-31.5,13-48.5v-43.4C-3522.3-3174.7-3529.5-3181.9-3538.4-3181.9
			L-3538.4-3181.9z M-3592.8-3133.4v23l-8.8,6.8v-17.5C-3601.5-3126.6-3598-3131.6-3592.8-3133.4z M-3580.2-3120.2l-4,3.1v-28.3
			c0.1-2.9,2.6-5.2,5.5-5c2.7,0.1,4.9,2.3,5,5v22.1C-3576-3122.8-3578.3-3121.7-3580.2-3120.2z M-3565-3122.9v-36.1
			c0.1-2.9,2.6-5.2,5.5-5c2.7,0.1,4.9,2.3,5,5v38.2c0,1.8-0.4,3.6-1.2,5.3c-0.5-0.8-1-1.5-1.6-2.3
			C-3559.3-3120.2-3562-3122-3565-3122.9z"/>
		<path id="Path_4098" class="st7" d="M-3585.3-3175.1c19.8-19.9,21-51.7,2.7-73c-0.1-0.1-0.1-0.1-0.2-0.2c-1.5-1.8-4.3-2.1-6.1-0.5
			c-1.8,1.5-2.1,4.3-0.5,6.1l0.1,0.1c0.1,0.1,0.1,0.1,0.2,0.2c15.4,17.9,14.4,44.6-2.3,61.3l-71.7,72c-1.8,1.8-4.7,1.8-6.5,0l0,0
			l-71.7-72.1c-17.6-17.7-17.6-46.3,0.1-63.9c15.8-15.8,40.9-17.6,58.8-4.3l11.5,8.5c2.7,2,6.4,2,9.2,0l11.5-8.5
			c13.9-10.2,32.4-11.7,47.7-3.8c2.1,1.1,4.7,0.3,5.8-1.8s0.3-4.7-1.8-5.8c-18.2-9.5-40.3-7.7-56.8,4.5l-10.9,8.1l-10.9-8.1
			c-23.9-17.7-57.6-12.6-75.3,11.3c-15.8,21.4-13.6,51.1,5.1,70l71.7,72c5.1,5.2,13.5,5.2,18.7,0.1c0,0,0,0,0.1-0.1L-3585.3-3175.1z
			"/>
	</g>
</g>
<g id="Group_4743" transform="translate(2945.248 -1370.379)">
	<g id="confetti" transform="translate(443.9 4737)">
		<g id="Group_245" transform="translate(0 32.08)">
			<g id="Group_244">
				<path id="Path_4112" class="st8" d="M-3507.7-3212.1c-0.8-2.5-3.6-3.9-6.1-3c-2.5,0.8-3.9,3.6-3,6.1c0,0.1,0,0.1,0.1,0.2
					c0,0.1,0,0.1,0.1,0.2c4.4,11.4,4.7,20.2,0.9,24c-4.6,4.6-16.2,3.2-31-3.9c-19.7-10.2-37.7-23.6-53.1-39.6
					c-37.6-37.6-53.1-74.5-43.5-84.1c3.1-2.4,7-3.3,10.9-2.5c2.6,0.2,4.9-1.8,5.1-4.5c0.2-2.5-1.7-4.7-4.2-5.1
					c-6.7-1.2-13.5,0.8-18.6,5.3c-17.6,17.6,9.3,63.4,43.5,97.7c16.2,16.8,35,30.8,55.8,41.5c3.8,1.8,7.6,3.3,11.6,4.6l-34.1,12.9
					c-45.5-17.3-78.3-57.7-85.9-105.8c-0.4-2.6-2.8-4.5-5.4-4.1s-4.5,2.8-4.1,5.4v0.1c7.5,47.9,38.5,88.8,82.4,109.2l-56.1,21.2
					c-0.3-0.4-0.6-0.8-1-1.1c-14.3-11.5-23.2-28.2-24.8-46.5l-2.2-27c-0.2-2.6-2.4-4.6-5-4.4h-0.1c-2.6,0.2-4.6,2.5-4.4,5.2l0,0
					l2.3,26.9c1.7,19.5,10.8,37.6,25.4,50.6l-40,15.2l7.2-29.5c0.6-2.6-1-5.2-3.5-5.8c-2.6-0.6-5.2,1-5.8,3.5l0,0l-9.3,38.4
					c-0.6,2.6,0.9,5.2,3.5,5.8c0.9,0.2,1.9,0.2,2.8-0.2l177.6-67.2c0.3-0.1,0.5-0.3,0.8-0.5c3.8-0.6,7.4-2.4,10.2-5.1
					C-3504.2-3182.7-3500.2-3192.5-3507.7-3212.1z"/>
			</g>
		</g>
		<g id="Group_247" transform="translate(65.651 74.576)">
			<g id="Group_246">
				<path id="Path_4113" class="st8" d="M-3528-3267c-25.9-9.7-54-12.4-81.3-7.9l-17.1,2.9c-2.6,0.5-4.3,3-3.8,5.6
					c0.5,2.5,2.8,4.2,5.4,3.8l17.1-2.9c25.7-4.3,52-1.7,76.4,7.4c0.5,0.2,1.1,0.3,1.7,0.3c2.7,0,4.8-2.1,4.8-4.8
					C-3524.9-3264.5-3526.2-3266.3-3528-3267L-3528-3267z"/>
			</g>
		</g>
		<g id="Group_249" transform="translate(70.127 42.972)">
			<g id="Group_248">
				<path id="Path_4114" class="st8" d="M-3515.5-3309.8c-1.1-2.4-4-3.4-6.4-2.3l0,0l-100.8,48c-2.4,1.1-3.4,4-2.3,6.4l0,0
					c1.1,2.4,4,3.4,6.4,2.3l0,0l100.8-48C-3515.3-3304.5-3514.3-3307.4-3515.5-3309.8L-3515.5-3309.8z"/>
			</g>
		</g>
		<g id="Group_251" transform="translate(43.678 13.539)">
			<g id="Group_250">
				<path id="Path_4115" class="st8" d="M-3631.2-3341.7c-0.6-2.6-3.1-4.2-5.7-3.7c-2.5,0.6-4.2,3-3.7,5.6c0,0.1,0,0.1,0,0.2
					c6.1,27.1,3.6,55.5-7.2,81.2l-7,16.7c-1,2.4,0.1,5.2,2.6,6.3c0.6,0.2,1.2,0.4,1.8,0.4c1.9,0,3.7-1.2,4.4-3l7-16.7
					C-3627.4-3282.2-3624.7-3312.6-3631.2-3341.7z"/>
			</g>
		</g>
		<g id="Group_253" transform="translate(117.618 81.423)">
			<g id="Group_252">
				<path id="Path_4116" class="st8" d="M-3557.7-3269.4c-8,0-14.4,6.4-14.4,14.4s6.4,14.4,14.4,14.4s14.4-6.4,14.4-14.4
					C-3543.3-3262.9-3549.8-3269.4-3557.7-3269.4L-3557.7-3269.4z M-3557.7-3250.2c-2.7,0-4.8-2.1-4.8-4.8s2.1-4.8,4.8-4.8
					s4.8,2.1,4.8,4.8l0,0C-3552.9-3252.3-3555.1-3250.2-3557.7-3250.2L-3557.7-3250.2z"/>
			</g>
		</g>
		<g id="Group_255" transform="translate(63.335 18.094)">
			<g id="Group_254">
				<path id="Path_4117" class="st8" d="M-3618.6-3340.4c-8,0-14.4,6.4-14.4,14.4s6.4,14.4,14.4,14.4s14.4-6.4,14.4-14.4
					C-3604.2-3334-3610.7-3340.4-3618.6-3340.4L-3618.6-3340.4z M-3618.6-3321.2c-2.7,0-4.8-2.1-4.8-4.8s2.1-4.8,4.8-4.8
					s4.8,2.1,4.8,4.8C-3613.8-3323.4-3616-3321.2-3618.6-3321.2L-3618.6-3321.2z"/>
			</g>
		</g>
		<g id="Group_257" transform="translate(45.241)">
			<g id="Group_256">
				<circle id="Ellipse_55" class="st8" cx="-3643.7" cy="-3351.1" r="9.6"/>
			</g>
		</g>
		<g id="Group_259" transform="translate(110.832 11.309)">
			<g id="Group_258">
				<path id="Path_4118" class="st8" d="M-3574.9-3348c-2.7,0-4.8,2.1-4.8,4.8v4.8c-0.1,2.7,2,4.8,4.7,4.9s4.8-2,4.9-4.7
					c0-0.1,0-0.1,0-0.2v-4.8C-3570.1-3345.9-3572.3-3348-3574.9-3348z"/>
			</g>
		</g>
		<g id="Group_261" transform="translate(110.832)">
			<g id="Group_260">
				<path id="Path_4119" class="st8" d="M-3574.9-3360.7c-2.7,0-4.8,2.1-4.8,4.8v4.8c-0.1,2.7,2,4.8,4.7,4.9s4.8-2,4.9-4.7
					c0-0.1,0-0.1,0-0.2v-4.8C-3570.1-3358.6-3572.3-3360.7-3574.9-3360.7z"/>
			</g>
		</g>
		<g id="Group_263" transform="translate(115.356 6.785)">
			<g id="Group_262">
				<path id="Path_4120" class="st8" d="M-3565-3353.1h-4.8c-2.7,0-4.8,2.1-4.8,4.8s2.1,4.8,4.8,4.8h4.8c2.7,0,4.8-2.1,4.8-4.8
					S-3562.4-3353.1-3565-3353.1z"/>
			</g>
		</g>
		<g id="Group_265" transform="translate(104.047 6.785)">
			<g id="Group_264">
				<path id="Path_4121" class="st8" d="M-3577.7-3353.1h-4.8c-2.7,0-4.8,2.1-4.8,4.8s2.1,4.8,4.8,4.8h4.8c2.7,0,4.8-2.1,4.8-4.8
					S-3575.1-3353.1-3577.7-3353.1z"/>
			</g>
		</g>
		<g id="Group_267" transform="translate(83.644 24.832)">
			<g id="Group_266">
				<path id="Path_4122" class="st8" d="M-3581.3-3332.9h-24.1c-2.7,0-4.8,2.1-4.8,4.8l0,0v24.1c0,2.7,2.1,4.8,4.8,4.8l0,0h24.1
					c2.7,0,4.8-2.1,4.8-4.8l0,0v-24.1C-3576.5-3330.7-3578.7-3332.8-3581.3-3332.9z M-3586.1-3308.8h-14.5v-14.5h14.5V-3308.8z"/>
			</g>
		</g>
		<g id="Group_269" transform="translate(54.289 43.003)">
			<g id="Group_268">
				<path id="Path_4123" class="st8" d="M-3586.9-3310.9c-1.8-1.9-4.7-2-6.6-0.3l-48,43.2c-2,1.7-2.2,4.8-0.5,6.8s4.8,2.2,6.8,0.5
					c0.1,0,0.1-0.1,0.1-0.1l48-43.2C-3585.2-3306-3585.1-3309-3586.9-3310.9z"/>
			</g>
		</g>
		<g id="Group_271" transform="translate(119.879 52.02)">
			<g id="Group_270">
				<path id="Path_4124" class="st8" d="M-3564.8-3302.3c-2.7,0-4.8,2.1-4.8,4.8v4.8c-0.1,2.7,2,4.8,4.7,4.9c2.7,0.1,4.8-2,4.9-4.7
					c0-0.1,0-0.1,0-0.2v-4.8C-3560-3300.2-3562.1-3302.3-3564.8-3302.3z"/>
			</g>
		</g>
		<g id="Group_273" transform="translate(126.306 49.397)">
			<g id="Group_272">
				<path id="Path_4125" class="st8" d="M-3550.8-3300.5l-3.4-3.4c-1.9-1.9-4.9-1.9-6.8,0c-1.9,1.9-1.9,4.9,0,6.8l3.4,3.4
					c1.9,1.9,4.9,1.9,6.8,0C-3549-3295.6-3549-3298.7-3550.8-3300.5z"/>
			</g>
		</g>
		<g id="Group_275" transform="translate(128.926 42.973)">
			<g id="Group_274">
				<path id="Path_4126" class="st8" d="M-3549.8-3312.5h-4.8c-2.7-0.1-4.8,2-4.9,4.7c-0.1,2.7,2,4.8,4.7,4.9c0.1,0,0.1,0,0.2,0h4.8
					c2.7,0.1,4.8-2,4.9-4.7c0.1-2.7-2-4.8-4.7-4.9C-3549.7-3312.5-3549.8-3312.5-3549.8-3312.5z"/>
			</g>
		</g>
		<g id="Group_277" transform="translate(126.278 35.006)">
			<g id="Group_276">
				<path id="Path_4127" class="st8" d="M-3550.9-3320.1c-1.9-1.8-4.8-1.8-6.7,0l-3.4,3.4c-1.9,1.9-1.9,4.9,0,6.8
					c0.9,0.9,2.1,1.4,3.4,1.4l0,0c1.3,0,2.5-0.5,3.4-1.4l3.4-3.4C-3548.9-3315.2-3549-3318.2-3550.9-3320.1z"/>
			</g>
		</g>
		<g id="Group_279" transform="translate(119.879 31.665)">
			<g id="Group_278">
				<path id="Path_4128" class="st8" d="M-3564.8-3325.2c-2.7,0-4.8,2.1-4.8,4.8v4.8c-0.1,2.7,2,4.8,4.7,4.9s4.8-2,4.9-4.7
					c0-0.1,0-0.1,0-0.2v-4.8C-3560-3323-3562.1-3325.2-3564.8-3325.2z"/>
			</g>
		</g>
		<g id="Group_281" transform="translate(111.91 35.006)">
			<g id="Group_280">
				<path id="Path_4129" class="st8" d="M-3567-3316.7l-3.4-3.4c-1.9-1.9-4.9-1.9-6.8,0c-1.9,1.9-1.9,4.9,0,6.8l0,0l3.4,3.4
					c1.9,1.9,4.9,1.9,6.8,0C-3565.1-3311.8-3565.1-3314.8-3567-3316.7z"/>
			</g>
		</g>
		<g id="Group_283" transform="translate(0.004 0.102)">
			<g id="Group_282">
				<path id="Path_4130" class="st8" d="M-3646.7-3340.1c-0.6-1.7-2.1-3-3.9-3.3l-14.1-2.1l-6.3-12.8c-1.4-2.4-4.5-3.2-6.8-1.8
					c-0.7,0.4-1.3,1-1.8,1.8l-6.3,12.8l-14.1,2.1c-2.6,0.4-4.4,2.8-4.1,5.4c0.2,1,0.6,2,1.4,2.7l10.2,9.9l-2.4,14
					c-0.5,2.6,1.3,5.1,3.9,5.6c1.1,0.2,2.1,0,3.1-0.5l12.6-6.6l12.6,6.6c2.3,1.2,5.2,0.3,6.5-2c0.5-0.9,0.7-2,0.5-3l-2.4-14
					l10.2-9.9C-3646.6-3336.4-3646.1-3338.3-3646.7-3340.1z M-3666.6-3330.3c-1.1,1.1-1.6,2.7-1.4,4.2l1.2,6.9l-6.2-3.3
					c-1.4-0.7-3.1-0.7-4.5,0l-6.2,3.3l1.2-6.9c0.3-1.6-0.2-3.1-1.4-4.2l-5.1-4.9l7-1c1.6-0.2,2.9-1.2,3.6-2.6l3.1-6.3l3.1,6.3
					c0.7,1.4,2,2.4,3.6,2.6l7,1L-3666.6-3330.3z"/>
			</g>
		</g>
		<g id="Group_285" transform="translate(101.839 97.264)">
			<g id="Group_284">
				<path id="Path_4131" class="st8" d="M-3534.1-3217.4L-3534.1-3217.4l-2-3c-11.1-16.6-28.5-27.9-48.2-31.2
					c-2.6-0.4-5,1.5-5.4,4.1c-0.3,2.5,1.3,4.9,3.8,5.4c14.2,2.4,27.1,9.6,36.6,20.4c-8,1.4-15,6.2-19.2,13.2
					c-5.2,9.3-1.9,21,7.4,26.1s21,1.9,26.1-7.4c2-3.8,3-8,3.1-12.3c5.1,7.4,5.5,17.1,1.1,24.9c-1.4,2.3-0.6,5.2,1.7,6.6
					c2.3,1.4,5.2,0.6,6.6-1.7c0-0.1,0.1-0.1,0.1-0.2C-3513.6-3188.2-3518.8-3208-3534.1-3217.4z M-3543.3-3194.4
					c-2.6,4.6-8.4,6.3-13,3.8c-4.6-2.6-6.3-8.4-3.8-13v-0.1c2.8-4.6,7.6-7.7,13-8.5c0.8,0,1.7,0.2,2.4,0.6
					C-3540.6-3209.4-3540.4-3199.6-3543.3-3194.4L-3543.3-3194.4z"/>
			</g>
		</g>
	</g>
</g>
<g id="Group_287" transform="translate(-600.578 3144.16)">
	<g>
		<g>
			<defs>
				<rect id="SVGID_1_" x="4875.6" y="-2915.6" width="288.2" height="288.2"/>
			</defs>
			<clipPath id="SVGID_00000096769588057118232760000000657524790171687321_">
				<use xlink:href="#SVGID_1_"  style="overflow:visible;"/>
			</clipPath>
			
				<g id="Group_286" transform="translate(4269.08 222.84)" style="clip-path:url(#SVGID_00000096769588057118232760000000657524790171687321_);">
				<path id="Path_4132" class="st10" d="M-3406.8-3322l4.7,13.2c0.2,0.5,0.6,1,1.1,1.2l11.7,5.3c1.1,0.6,1.6,2,1,3.2
					c-0.2,0.4-0.6,0.7-1,1l-11.7,5.3c-0.5,0.2-0.9,0.7-1.1,1.2l-4.7,13.2c-0.3,1-1.3,1.6-2.3,1.3c-0.6-0.2-1.2-0.7-1.3-1.3
					l-4.7-13.2c-0.2-0.5-0.6-1-1.1-1.2l-11.7-5.3c-1.1-0.6-1.6-2-1-3.2c0.2-0.4,0.6-0.7,1-1l11.7-5.3c0.5-0.2,0.9-0.7,1.1-1.2
					l4.7-13.2c0.3-1,1.3-1.6,2.3-1.3C-3407.5-3323.1-3407-3322.6-3406.8-3322"/>
				<path id="Path_4133" class="st10" d="M-3582.1-3359.6l3.5,9.8c0.1,0.4,0.4,0.7,0.8,0.9l8.7,3.9c0.8,0.5,1.2,1.5,0.7,2.3
					c-0.2,0.3-0.4,0.6-0.7,0.7l-8.7,3.9c-0.4,0.2-0.7,0.5-0.8,0.9l-3.5,9.8c-0.2,0.8-1,1.2-1.7,1c-0.5-0.1-0.9-0.5-1-1l-3.5-9.8
					c-0.1-0.4-0.4-0.7-0.8-0.9l-8.7-3.9c-0.8-0.5-1.2-1.5-0.7-2.3c0.2-0.3,0.4-0.6,0.7-0.7l8.7-3.9c0.4-0.2,0.7-0.5,0.8-0.9l3.5-9.8
					c0.2-0.8,1-1.2,1.7-1C-3582.6-3360.5-3582.2-3360.1-3582.1-3359.6"/>
				<path id="Path_4134" class="st10" d="M-3440-3339.2c0,3.8-3.1,6.9-6.9,6.9c-3.8,0-6.9-3.1-6.9-6.9c0-3.8,3.1-6.9,6.9-6.9
					C-3443.1-3346.1-3440-3343-3440-3339.2L-3440-3339.2"/>
				<path id="Path_4135" class="st10" d="M-3628.1-3300.8c0,5.6-4.6,10.2-10.2,10.2s-10.2-4.6-10.2-10.2c0-5.6,4.6-10.2,10.2-10.2
					C-3632.7-3311-3628.1-3306.5-3628.1-3300.8L-3628.1-3300.8"/>
				<path id="Path_4136" class="st10" d="M-3523-3294.5c-58,0-105,47-105,105s47,105,105,105s105-47,105-105
					C-3418-3247.4-3465-3294.4-3523-3294.5 M-3523-3073.1c-64.3,0-116.3-52.1-116.3-116.4c0-64.3,52.1-116.3,116.4-116.3
					c64.2,0,116.3,52.1,116.3,116.3C-3406.7-3125.2-3458.8-3073.1-3523-3073.1"/>
				<path id="Path_4137" class="st10" d="M-3549.2-3215.5c-3.1,0-5.6-2.5-5.6-5.6l0,0c0-8.7-7-15.7-15.7-15.7s-15.7,7-15.7,15.7l0,0
					c0,3.1-2.5,5.7-5.7,5.7c-3.1,0-5.7-2.5-5.7-5.7c0-14.9,12.1-27,27-27s27,12.1,27,27C-3543.5-3218-3546.1-3215.5-3549.2-3215.5"
					/>
				<path id="Path_4138" class="st10" d="M-3454.1-3215.5c-3.1,0-5.6-2.5-5.6-5.6l0,0c0-8.7-7-15.7-15.7-15.7s-15.7,7-15.7,15.7
					c0,3.1-2.5,5.7-5.6,5.7s-5.7-2.5-5.7-5.6l0,0c0-14.9,12.1-27,27-27s27,12.1,27,27C-3448.5-3218-3451-3215.5-3454.1-3215.5"/>
				<path id="Path_4139" class="st10" d="M-3471.7-3140.5c-10.2-14.6-29.8-23.9-51.3-23.9s-41.1,9.4-51.3,23.9
					c-10.4-11.4-16.8-25.9-18-41.2h138.6C-3455-3166.3-3461.3-3151.8-3471.7-3140.5 M-3565.9-3132.7c7.7-12.4,24.3-20.4,42.9-20.4
					s35.2,8.1,42.9,20.4C-3505.3-3112.9-3540.7-3112.9-3565.9-3132.7 M-3447.8-3193h-150.3c-3.1,0-5.6,2.5-5.6,5.6
					c0,44.6,36.2,80.8,80.8,80.8s80.8-36.2,80.8-80.8C-3442.2-3190.5-3444.7-3193-3447.8-3193"/>
			</g>
		</g>
	</g>
</g>
<g id="Image-5" transform="translate(4326.906 2946.623)">
	<g id="heart" transform="translate(54.662 -0.661)">
		<g id="Group_243" transform="translate(0 0)">
			<g id="Group_242">
				<path id="Path_4103" class="st11" d="M-4457.5-3771.7c-3-4.5-4.5-9.7-4.5-15.1v-0.1c0-3.8-0.2-7.6-0.7-11.3
					c-0.6-4.8-5-8.2-9.8-7.5c-1.7,0.2-3.3,0.9-4.5,2c-1.6,1.4-3.3,2.7-5,3.9c0.6-10.5-0.3-21.1-2.8-31.4c-0.6-2.3-3-3.7-5.3-3.1
					c-2.2,0.6-3.6,2.8-3.1,5.1c2.9,12.2,3.5,24.8,1.7,37.1c-0.3,2.4,1.3,4.5,3.7,4.9c0.9,0.1,1.9,0,2.7-0.5
					c4.8-2.7,9.4-5.9,13.7-9.5c0,0,0.1-0.1,0.1,0c0.1,0,0.1,0,0.1,0.1c0.4,3.4,0.7,6.8,0.7,10.2v0.1c0,7.1,2.1,13.9,6,19.8
					c7.7,11.7,11.8,25.3,11.7,39.3c0,17-7.1,36.3-19.9,54.4c-14.9,20.5-34.6,37.2-57.2,48.6c-3.1,1.6-6.4,3.1-9.6,4.6
					c-3.8,1.7-7.9,2.5-12,2.5c-4.1-0.1-8.2-1-11.9-2.7c-3.1-1.4-6.2-2.9-9.2-4.4c-22.7-11.4-42.3-28.1-57.2-48.6
					c-12.9-18.2-19.9-37.5-19.9-54.4c-0.1-17.7,6.5-34.7,18.4-47.8c2.8-3.1,4.4-7.2,4.3-11.3c-0.1-17.7,5.9-34.9,16.9-48.7
					c0-0.1,0.1-0.1,0.2,0l0,0c3.1,9.3,7.8,18,13.9,25.7c1.5,1.9,4.2,2.2,6,0.7c0.2-0.2,0.4-0.4,0.6-0.6c3.5-4.1,7.2-8,11.2-11.7
					c27-25.6,21.4-51.6,18.4-65.5c-0.6-2.4-1-4.9-1.3-7.3c23.9,0.2,49.4,20,62.2,48.1c1,2.2,3.6,3.1,5.7,2.1s3.1-3.5,2.1-5.6
					c-6.8-15.1-17.2-28.3-30.3-38.3c-12.6-9.5-26.7-14.7-39.9-14.8c-2.5-0.2-5,0.8-6.6,2.8c-2.8,3.5-1.8,8.3-0.3,15
					c3,14,7.5,35.1-15.9,57.4c-2.9,2.8-5.7,5.6-8.2,8.3c-4-5.9-7.2-12.2-9.4-18.9c-1.6-4.6-6.5-7-11.1-5.4c-1.6,0.5-3,1.5-4,2.8
					c-12.3,15.4-18.9,34.5-18.8,54.1c0,2-0.7,4-2.1,5.5c-13.3,14.7-20.7,33.8-20.6,53.6c0,18.7,7.6,39.8,21.5,59.4
					c15.7,21.7,36.4,39.3,60.3,51.3c3.1,1.6,6.4,3.2,9.7,4.6c4.8,2.2,10.1,3.3,15.4,3.4h0.3c5.3,0,10.5-1.1,15.3-3.2
					c3.4-1.5,6.8-3.1,10.1-4.8c23.9-12,44.6-29.6,60.3-51.3c13.9-19.6,21.5-40.7,21.5-59.4
					C-4444.3-3743.3-4448.9-3758.6-4457.5-3771.7L-4457.5-3771.7z"/>
				<path id="Path_4104" class="st11" d="M-4617.8-3754.5c-2.1-1.2-4.7-0.4-5.9,1.7l0,0c-4.3,7.7-6.5,16.3-6.5,25.1
					c0,15.3,8.5,34.5,22.8,51.3c1.6,1.8,4.3,1.9,6.1,0.4c1.7-1.5,1.9-4.1,0.5-5.9c-15.3-18-20.8-35.4-20.8-45.7
					c0-7.3,1.8-14.5,5.4-20.9C-4615-3750.7-4615.8-3753.4-4617.8-3754.5C-4617.9-3754.5-4617.9-3754.5-4617.8-3754.5L-4617.8-3754.5
					z"/>
				<path id="Path_4105" class="st11" d="M-4594-3668.5c-1.6,1.8-1.4,4.5,0.4,6.1c9.1,7.9,19.1,14.6,29.7,20.1
					c2.8,1.4,5.7,2.8,8.5,4.1c2.4,1,5.1,1,7.4,0c2.9-1.3,5.8-2.6,8.5-4.1c19.9-9.9,37-24.4,50.1-42.4c10.3-14.6,16.3-30.2,16.3-42.9
					c0-27.3-20.9-49.4-46.6-49.4c-12,0.1-23.6,4.9-32,13.5c-8.4-8.6-20-13.4-32-13.5c-9.5,0-18.7,3-26.4,8.7c-1.9,1.4-2.3,4.1-0.8,6
					c1.4,1.9,4,2.3,5.9,0.9c6.2-4.5,13.6-7,21.3-7c11.2,0.1,21.7,5.3,28.7,14c1.5,1.8,4.2,2.1,6.1,0.6c0.2-0.2,0.4-0.4,0.6-0.6
					c6.9-8.8,17.5-13.9,28.7-14c20.9,0,38,18.3,38,40.8c0,10.8-5.5,24.9-14.7,37.9c-12.2,16.8-28.4,30.4-47,39.7
					c-2.6,1.4-5.3,2.6-8.1,3.9c-0.2,0.1-0.3,0.1-0.5,0c-2.7-1.2-5.5-2.5-8.1-3.9c-10.1-5.1-19.5-11.5-28-18.9
					C-4589.7-3670.5-4592.4-3670.3-4594-3668.5L-4594-3668.5z"/>
				<path id="Path_4109" class="st11" d="M-4452.8-3819.2c4,0,7.2-3.2,7.2-7.2v-10.4c0-11.8-9.6-21.4-21.5-21.5
					c-4,0-7.2,3.2-7.2,7.2v10.4C-4474.2-3828.8-4464.6-3819.2-4452.8-3819.2z M-4465.6-3849.6c6.5,0.7,11.4,6.2,11.4,12.8v8.9
					c-6.5-0.7-11.4-6.2-11.4-12.8V-3849.6z"/>
				<path id="Path_4110" class="st11" d="M-4647-3830.4c11.8,0,21.4-9.6,21.5-21.5v-10.4c0-4-3.2-7.2-7.2-7.2
					c-11.8,0-21.5,9.6-21.5,21.5v10.4C-4654.2-3833.6-4651-3830.4-4647-3830.4z M-4645.6-3848c0-6.5,4.9-12,11.4-12.8v8.9
					c0,6.5-4.9,12-11.4,12.8V-3848z"/>
				<path id="Path_4111" class="st11" d="M-4585.2-3863.2c4,0,7.2-3.2,7.2-7.2v-10.4c0-11.8-9.6-21.4-21.5-21.4
					c-4,0-7.2,3.2-7.2,7.2v10.4C-4606.6-3872.8-4597-3863.2-4585.2-3863.2z M-4598-3893.6c6.5,0.7,11.4,6.2,11.4,12.8v8.9
					c-6.5-0.7-11.4-6.2-11.4-12.8V-3893.6z"/>
			</g>
		</g>
	</g>
</g>
<g id="Group_289" transform="translate(-433.537 3143.921)">
	<g>
		<g>
			<defs>
				<rect id="SVGID_00000086676597525053745880000000512210184299569287_" x="4497.1" y="-4197.7" width="294.8" height="294.8"/>
			</defs>
			<clipPath id="SVGID_00000078003800873398929860000001854221239109167745_">
				<use xlink:href="#SVGID_00000086676597525053745880000000512210184299569287_"  style="overflow:visible;"/>
			</clipPath>
			
				<g id="Group_288" transform="translate(4381.04 223.08)" style="clip-path:url(#SVGID_00000078003800873398929860000001854221239109167745_);">
				<path id="Path_4140" class="st7" d="M-4137-4526.2c10.4,7.2,23.8,8.2,35.1,2.6l33.9,39.3l-45.1,0.8l-31.3-36.3L-4137-4526.2z
					 M-4187.6-4505.4l-0.8-45.1l36.3-31.3l6.4,7.4c-7.2,10.4-8.1,23.8-2.6,35.1l-20.5,17.7L-4187.6-4505.4z M-4121.5-4625.8
					l31.3,36.3l-7.4,6.4c-10.4-7.2-23.8-8.1-35.1-2.6l-33.9-39.3L-4121.5-4625.8z M-4046.9-4604l0.8,45.1l-36.3,31.3l-6.4-7.4
					c7.2-10.4,8.2-23.8,2.6-35.1l20.5-17.7L-4046.9-4604z M-4128.6-4567.8c7.1-6.4,18.1-5.8,24.5,1.3c6.4,7.1,5.8,18.1-1.3,24.5
					c-0.2,0.1-0.3,0.3-0.5,0.4l0,0c-7.1,6.4-18.1,5.8-24.5-1.3c-6.4-7.1-5.8-18.1,1.3-24.5
					C-4128.9-4567.5-4128.7-4567.6-4128.6-4567.8 M-4071.1-4514.5l42.4-36.6l-1.6-90.2l-46.8,40.4l-36.6-42.4l-90.2,1.6l40.4,46.8
					l-42.4,36.6l1.6,90.2l46.8-40.4l31.8,36.9l-0.3,122.5h17.3l0.3-117.2l77.6-1.4L-4071.1-4514.5z"/>
				<path id="Path_4141" class="st13" d="M-4137-4526.2c10.4,7.2,23.8,8.2,35.1,2.6l33.9,39.3l-45.1,0.8l-31.3-36.3L-4137-4526.2z
					 M-4187.6-4505.4l-0.8-45.1l36.3-31.3l6.4,7.4c-7.2,10.4-8.1,23.8-2.6,35.1l-20.5,17.7L-4187.6-4505.4z M-4121.5-4625.8
					l31.3,36.3l-7.4,6.4c-10.4-7.2-23.8-8.1-35.1-2.6l-33.9-39.3L-4121.5-4625.8z M-4046.9-4604l0.8,45.1l-36.3,31.3l-6.4-7.4
					c7.2-10.4,8.2-23.8,2.6-35.1l20.5-17.7L-4046.9-4604z M-4128.6-4567.8c7.3-6.1,18.3-5.2,24.4,2.2c6,7.2,5.2,17.8-1.8,24l0,0
					c-7.1,6.4-18.1,5.7-24.5-1.4s-5.7-18.1,1.4-24.5C-4128.9-4567.5-4128.7-4567.7-4128.6-4567.8z M-4071.1-4514.5l42.4-36.6
					l-1.6-90.2l-46.8,40.4l-36.6-42.4l-90.2,1.6l40.4,46.8l-42.4,36.6l1.6,90.2l46.8-40.4l31.9,36.9l-0.3,122.5h17.3l0.3-117.2
					l77.6-1.4L-4071.1-4514.5z"/>
			</g>
		</g>
	</g>
</g>
<g id="Group_291" transform="translate(-265.396 3145.002)">
	<g>
		<g>
			<defs>
				<rect id="SVGID_00000094577042729808289230000005563016823256151740_" x="4761.8" y="-4198.3" width="292" height="292"/>
			</defs>
			<clipPath id="SVGID_00000131346327782025018050000007331821072782560677_">
				<use xlink:href="#SVGID_00000094577042729808289230000005563016823256151740_"  style="overflow:visible;"/>
			</clipPath>
			
				<g id="Group_290" transform="translate(4492.4 222)" style="clip-path:url(#SVGID_00000131346327782025018050000007331821072782560677_);">
				<path id="Path_4142" class="st7" d="M-4076.1-4484.1c-2.6,1.5-5.8,1.5-8.4,0c-2-1.2-4.7-0.5-5.8,1.6c-1.1,2-0.5,4.5,1.4,5.8
					c1.5,0.9,3.1,1.5,4.7,1.9c-0.3,0.6-0.4,1.2-0.4,1.8v6.8c0,2.4,1.9,4.3,4.3,4.3c2.4,0,4.3-1.9,4.3-4.3v-6.8
					c0-0.6-0.1-1.3-0.4-1.8c1.7-0.4,3.3-1,4.7-1.9c2-1.2,2.7-3.8,1.5-5.9C-4071.5-4484.7-4074.1-4485.3-4076.1-4484.1
					L-4076.1-4484.1 M-4033.8-4466.1c-6.9-2.8-15.8-2.8-20.2-2.8h-0.1c-2.4,0-4.3,1.9-4.3,4.3s1.9,4.3,4.3,4.3h0.1
					c3.5,0,11.7,0,17.1,2.2c2.2,0.9,4.7-0.2,5.6-2.3C-4030.6-4462.7-4031.6-4465.2-4033.8-4466.1 M-4009.2-4477.3
					c-2.4,0-4.3,1.9-4.3,4.3v6.8c0,2.4,1.9,4.3,4.3,4.3c2.4,0,4.3-1.9,4.3-4.3v-6.8C-4005-4475.4-4006.9-4477.3-4009.2-4477.3
					L-4009.2-4477.3 M-4154-4598.9c7.4,0,13.3,6,13.3,13.3c0,7.4-6,13.3-13.3,13.3c-7.4,0-13.3-6-13.3-13.3l0,0
					C-4167.3-4592.9-4161.3-4598.9-4154-4598.9 M-4154-4563.7c12.1,0,21.9-9.8,21.9-21.9s-9.8-21.9-21.9-21.9s-21.9,9.8-21.9,21.9
					C-4175.8-4573.5-4166-4563.7-4154-4563.7 M-4105.2-4576.1v-19c0-1.5,1.2-2.7,2.7-2.7h19c1.5,0,2.7,1.2,2.7,2.7l0,0v19
					c0,1.5-1.2,2.7-2.7,2.7h-19C-4104-4573.4-4105.2-4574.6-4105.2-4576.1L-4105.2-4576.1 M-4083.5-4564.9c6.2,0,11.2-5,11.2-11.2
					v-19c0-6.2-5-11.2-11.2-11.2h-19c-6.2,0-11.2,5-11.2,11.2v19c0,6.2,5,11.2,11.2,11.2H-4083.5z M-3949.5-4358.9h-21.5
					c-0.6-9.4-3.1-18.6-7.4-26.9c8-3.9,15.4-9,21.9-15.1c6.4,11.4,10.4,24,11.7,37.1c0.2,2.5-1.6,4.7-4.1,4.9
					C-3949.2-4358.9-3949.3-4358.9-3949.5-4358.9 M-3982.8-4393.2c-2.3-3.4-4.9-6.7-7.7-9.8c-4.9-5.4-4.5-13.7,0.9-18.6
					s13.7-4.5,18.6,0.9l0,0c3.5,3.9,6.8,8,9.8,12.4C-3967.5-4402.1-3974.8-4397-3982.8-4393.2 M-4002-4407.3
					c-13.2,6.8-27.9,10.4-42.7,10.3c-56.8,0-97.1-49-81.6-97.2c0.7,0,1.5-0.1,2.2-0.3c14.3-4.2,28.1-10,41-17.4
					c-0.7,10.1,6.9,18.9,17,19.6c1,0.1,2,0.1,3.1,0c15.3-1.5,36.3-5.5,50.2-16.2c14.7,9.6,31.8,14.6,49.3,14.6c0.2,0,0.3,0,0.5,0
					c2.2,6.8,3.3,13.9,3.3,21c0,14.7-4.7,28.9-13.3,40.8c-11.2-4.2-23.8,1.5-28,12.7C-4002.6-4415.6-4002.9-4411.4-4002-4407.3
					 M-4126.7-4502.9c21.3-47,85.3-64.4,131.6-35.9c13.9,8.4,25,20.7,31.9,35.3c0.2,0.3,0,0.7-0.3,0.9c-0.1,0-0.2,0.1-0.3,0.1l0,0
					c-16.1,0-31.8-4.7-45.1-13.6c-2.7-1.8-6.2-1.6-8.7,0.4c-13,10.3-34.6,13.7-46.3,14.9c-5.4,0.5-10.2-3.4-10.7-8.8
					c0-0.5-0.1-1,0-1.5c0-0.9,0.1-1.9,0.2-2.8c0.4-3.9-2.5-7.3-6.3-7.7c-1.5-0.2-3.1,0.2-4.4,1c-13,7.7-26.9,13.7-41.3,17.9
					c-0.1,0-0.1,0-0.2,0C-4126.7-4502.8-4126.7-4502.8-4126.7-4502.9L-4126.7-4502.9 M-4182.6-4515.4c-10.9,0-19.7-8.9-19.7-19.7
					c0-3.5,0.9-6.9,2.7-9.9c10.3,8.3,23.6,11.9,36.7,9.9v0.1C-4162.9-4524.2-4171.7-4515.4-4182.6-4515.4 M-3936.4-4364.7
					c-2.3-23.2-11.6-43.4-28.3-61.8c-0.4-0.4-0.8-0.8-1.2-1.2c9.4-13.2,14.5-29.1,14.5-45.3c0-8.7-1.5-17.4-4.4-25.6
					c1.5-2.6,1.6-5.7,0.3-8.4c-13.5-29.3-42.8-49.3-76.8-53.4c11.8-23.2,2.5-51.6-20.7-63.3c-8.6-4.4-18.3-6-27.9-4.6
					c-2.6,0.4-5.2-0.3-7.2-1.8c-20.1-15.4-48.1-15.4-68.2,0c-2.1,1.6-4.7,2.2-7.2,1.8c-6.5-1-13.2-0.5-19.6,1.3
					c-2.3,0.7-3.6,3-2.9,5.3s3,3.6,5.3,2.9c5.2-1.5,10.6-1.9,16-1.1c4.8,0.7,9.7-0.5,13.6-3.5c17.1-13.1,40.8-13.1,57.9,0
					c3.9,3,8.8,4.2,13.6,3.5c21.1-3,40.6,11.7,43.6,32.8c1.3,9-0.7,18.3-5.6,26c-23.8-0.9-47.2,6.6-66.1,21.1
					c-12.3,3.9-25.6,2.7-37-3.4c-4.3-2.4-9.3-2.9-14-1.5c-20.4,6.3-42-5.1-48.3-25.4c-1.1-3.7-1.7-7.5-1.7-11.4
					c0-10.6,4.3-20.7,12-27.9c1.7-1.6,1.7-4.3,0.1-6s-4.3-1.7-6-0.2c-18.2,17.2-19.7,45.7-3.4,64.7c-8.8,12.8-5.6,30.4,7.2,39.3
					c12.8,8.8,30.4,5.6,39.3-7.2c3.6-5.3,5.4-11.6,4.9-18c2-0.2,4,0.2,5.8,1.2c9,4.8,19.2,7.1,29.4,6.6
					c-6.2,6.8-11.3,14.5-15.1,22.9c-1.2,2.6-1,5.7,0.5,8.1c-11.8,34.2,1.4,72.1,34.5,93.8c-9.9,10.9-16.4,24.5-18.5,39.1
					c-1,7.2,4,13.8,11.2,14.8c0.6,0.1,1.2,0.1,1.8,0.1h93.9c2.4,0,4.3-1.9,4.3-4.3s-1.9-4.3-4.3-4.3l0,0h-93.9c-2.5,0-4.6-2-4.6-4.5
					c0-0.2,0-0.4,0-0.7c2-13.5,8.2-26.1,17.6-35.9c29.2,15.3,63.9,15.5,93.3,0.6c3.5,5,17.2,16.6,19.1,40.6h-11.3
					c-2.4,0-4.3,1.9-4.3,4.3s1.9,4.3,4.3,4.3h41.3c7.2,0,13.1-5.8,13.1-13.1C-3936.4-4363.8-3936.4-4364.3-3936.4-4364.7
					 M-4166.9-4469.3c-5.7,0-10.3-4.6-10.3-10.3c0-5.7,4.6-10.3,10.3-10.3c5.7,0,10.3,4.6,10.3,10.3S-4161.2-4469.3-4166.9-4469.3
					 M-4166.9-4498.4c-10.4,0-18.9,8.4-18.9,18.9c0,10.4,8.4,18.9,18.9,18.9c10.4,0,18.9-8.4,18.9-18.9l0,0
					C-4148.1-4490-4156.5-4498.4-4166.9-4498.4"/>
				<path id="Path_4143" class="st15" d="M-4076.1-4484.1c-2.6,1.5-5.8,1.5-8.4,0c-2-1.2-4.7-0.5-5.8,1.6c-1.1,2-0.5,4.5,1.4,5.8
					c1.5,0.9,3.1,1.5,4.7,1.9c-0.3,0.6-0.4,1.2-0.4,1.8v6.8c0,2.4,1.9,4.3,4.3,4.3c2.4,0,4.3-1.9,4.3-4.3l0,0v-6.8
					c0-0.6-0.1-1.3-0.4-1.8c1.7-0.4,3.3-1,4.7-1.9c2-1.2,2.7-3.8,1.5-5.9C-4071.5-4484.7-4074.1-4485.3-4076.1-4484.1
					L-4076.1-4484.1L-4076.1-4484.1z M-4033.8-4466.1c-6.9-2.8-15.8-2.8-20.2-2.8h-0.1c-2.4,0-4.3,1.9-4.3,4.3s1.9,4.3,4.3,4.3h0.1
					c3.5,0,11.7,0,17.1,2.2c2.2,0.9,4.7-0.2,5.6-2.3C-4030.6-4462.7-4031.6-4465.2-4033.8-4466.1z M-4009.2-4477.3
					c-2.4,0-4.3,1.9-4.3,4.3l0,0v6.8c0,2.4,1.9,4.3,4.3,4.3c2.4,0,4.3-1.9,4.3-4.3v-6.8C-4005-4475.4-4006.9-4477.3-4009.2-4477.3
					L-4009.2-4477.3L-4009.2-4477.3z M-4154-4598.9c7.4,0,13.3,6,13.3,13.3c0,7.4-6,13.3-13.3,13.3c-7.4,0-13.3-6-13.3-13.3
					C-4167.3-4593-4161.3-4598.9-4154-4598.9L-4154-4598.9z M-4154-4563.7c12.1,0,21.9-9.8,21.9-21.9s-9.8-21.9-21.9-21.9
					s-21.9,9.8-21.9,21.9C-4175.8-4573.5-4166-4563.7-4154-4563.7L-4154-4563.7z M-4105.2-4576.1v-19c0-1.5,1.2-2.7,2.7-2.7h19
					c1.5,0,2.7,1.2,2.7,2.7l0,0v19c0,1.5-1.2,2.7-2.7,2.7h-19C-4104-4573.4-4105.2-4574.6-4105.2-4576.1L-4105.2-4576.1z
					 M-4083.5-4564.9c6.2,0,11.2-5,11.2-11.2v-19c0-6.2-5-11.2-11.2-11.2h-19c-6.2,0-11.2,5-11.2,11.2v19c0,6.2,5,11.2,11.2,11.2
					H-4083.5z M-3949.5-4358.9h-21.5c-0.6-9.4-3.1-18.6-7.4-26.9c8-3.9,15.4-9,21.9-15.1c6.4,11.4,10.4,24,11.7,37.1
					c0.2,2.5-1.6,4.7-4.1,4.9C-3949.2-4358.9-3949.3-4358.9-3949.5-4358.9L-3949.5-4358.9z M-3982.8-4393.2
					c-2.3-3.4-4.9-6.7-7.7-9.8c-4.9-5.4-4.5-13.7,0.9-18.6s13.7-4.5,18.6,0.9l0,0c3.5,3.9,6.8,8,9.8,12.4
					C-3967.5-4402.1-3974.8-4397-3982.8-4393.2z M-4002-4407.3c-13.2,6.8-27.9,10.4-42.7,10.3c-56.8,0-97.1-49-81.6-97.2
					c0.7,0,1.5-0.1,2.2-0.3c14.3-4.2,28.1-10,41-17.4c-0.7,10.1,6.9,18.9,17,19.6c1,0.1,2,0.1,3.1,0c15.3-1.5,36.3-5.5,50.2-16.2
					c14.7,9.6,31.8,14.6,49.3,14.6c0.2,0,0.3,0,0.5,0c2.2,6.8,3.3,13.9,3.3,21c0,14.7-4.7,28.9-13.3,40.8
					c-11.2-4.2-23.8,1.5-28,12.7C-4002.6-4415.6-4002.9-4411.4-4002-4407.3L-4002-4407.3z M-4126.7-4502.9
					c21.3-47,85.3-64.4,131.6-35.9c13.9,8.4,25,20.7,31.9,35.3c0.2,0.3,0,0.7-0.3,0.9c-0.1,0-0.2,0.1-0.3,0.1l0,0
					c-16.1,0-31.8-4.7-45.1-13.6c-2.7-1.8-6.2-1.6-8.7,0.4c-13,10.3-34.6,13.7-46.3,14.9c-5.4,0.5-10.2-3.4-10.7-8.8
					c0-0.5-0.1-1,0-1.5c0-0.9,0.1-1.9,0.2-2.8c0.4-3.9-2.5-7.3-6.3-7.7c-1.5-0.2-3.1,0.2-4.4,1c-13,7.7-26.9,13.7-41.3,17.9
					c-0.1,0-0.1,0-0.2,0C-4126.7-4502.8-4126.7-4502.8-4126.7-4502.9z M-4182.6-4515.4c-10.9,0-19.7-8.9-19.7-19.8
					c0-3.5,0.9-6.9,2.7-9.9c10.3,8.3,23.6,11.9,36.7,9.9v0.1C-4163-4524.2-4171.8-4515.4-4182.6-4515.4L-4182.6-4515.4z
					 M-3936.4-4364.7c-2.3-23.2-11.6-43.4-28.3-61.8c-0.4-0.4-0.8-0.8-1.2-1.2c9.4-13.2,14.5-29.1,14.5-45.3
					c0-8.7-1.5-17.4-4.4-25.6c1.5-2.6,1.6-5.7,0.3-8.4c-13.5-29.3-42.8-49.3-76.8-53.4c11.8-23.2,2.5-51.6-20.7-63.3
					c-8.6-4.4-18.3-6-27.9-4.6c-2.6,0.4-5.2-0.3-7.2-1.8c-20.1-15.4-48.1-15.4-68.3,0c-2.1,1.6-4.7,2.2-7.2,1.8
					c-6.5-1-13.2-0.5-19.6,1.3c-2.3,0.7-3.6,3-2.9,5.3s3,3.6,5.3,2.9l0,0c5.2-1.5,10.6-1.9,16-1.1c4.8,0.7,9.7-0.5,13.6-3.5
					c17.1-13.1,40.8-13.1,57.9,0c3.9,3,8.8,4.2,13.6,3.5c21.1-3,40.6,11.7,43.6,32.8c1.3,9-0.7,18.3-5.6,26
					c-23.8-0.9-47.2,6.6-66.1,21.1c-12.3,3.9-25.6,2.7-37-3.4c-4.3-2.4-9.3-2.9-14-1.5c-20.4,6.3-42-5.1-48.3-25.4
					c-1.1-3.7-1.7-7.5-1.7-11.4c0-10.6,4.3-20.7,12-27.9c1.7-1.6,1.7-4.3,0.1-6s-4.3-1.7-6-0.2c-18.2,17.2-19.7,45.7-3.4,64.7
					c-8.8,12.8-5.6,30.4,7.2,39.3s30.4,5.6,39.3-7.2c3.6-5.3,5.4-11.6,4.9-18c2-0.2,4,0.2,5.8,1.2c9,4.8,19.2,7.1,29.4,6.6
					c-6.2,6.8-11.3,14.5-15.1,22.9c-1.2,2.6-1,5.7,0.5,8.1c-11.8,34.2,1.4,72.1,34.5,93.8c-9.9,10.9-16.4,24.5-18.6,39.1
					c-1,7.2,4,13.8,11.2,14.8c0.6,0.1,1.2,0.1,1.8,0.1h93.9c2.4,0,4.3-1.9,4.3-4.3s-1.9-4.3-4.3-4.3l0,0h-93.9c-2.5,0-4.6-2-4.6-4.5
					c0-0.2,0-0.4,0-0.7c2-13.5,8.2-26.1,17.6-35.9c29.2,15.3,63.9,15.5,93.3,0.6c3.5,5,17.2,16.6,19.1,40.6h-11.3
					c-2.4,0-4.3,1.9-4.3,4.3s1.9,4.3,4.3,4.3h41.3c7.2,0,13.1-5.8,13.2-13C-3936.4-4363.8-3936.4-4364.2-3936.4-4364.7
					L-3936.4-4364.7z M-4166.9-4469.3c-5.7,0-10.3-4.6-10.3-10.3c0-5.7,4.6-10.3,10.3-10.3c5.7,0,10.3,4.6,10.3,10.3
					S-4161.2-4469.3-4166.9-4469.3L-4166.9-4469.3z M-4166.9-4498.5c-10.4,0-18.9,8.4-18.9,18.9c0,10.4,8.4,18.9,18.9,18.9
					c10.4,0,18.9-8.4,18.9-18.9l0,0C-4148.1-4490-4156.5-4498.4-4166.9-4498.5L-4166.9-4498.5z"/>
			</g>
		</g>
	</g>
</g>
<g id="Image-4" transform="translate(4087.731 2966.422)">
	<g id="sea" transform="translate(-0.348 1.368)">
		<path id="Path_4099" class="st16" d="M-3904.6-2711.7c-18.5,0-27.8-10.7-36-20.1c-7.5-8.6-13.4-15.4-25.7-15.4
			s-18.2,6.8-25.7,15.4c-8.2,9.4-17.5,20.1-36,20.1c-18.4,0-27.7-10.6-35.9-20c-4.6-5.2-8.9-10.2-14.6-12.9c-3.4-1.6-4.8-5.7-3.2-9
			c1.6-3.4,5.7-4.8,9-3.2c8.2,3.9,13.7,10.2,19,16.3c7.5,8.6,13.4,15.3,25.6,15.3c12.3,0,18.2-6.8,25.7-15.4
			c8.2-9.4,17.5-20.1,36-20.1s27.8,10.7,36,20.1c7.5,8.6,13.4,15.4,25.7,15.4s18.2-6.8,25.7-15.4c8.2-9.4,17.5-20.1,36-20.1
			c18.4,0,27.7,10.6,35.8,19.9c3.4,4.3,7.4,8.1,11.8,11.3c3.1,2.1,4,6.3,1.9,9.4c-2,3.1-6.2,4-9.3,2c-5.5-3.9-10.5-8.5-14.7-13.8
			c-7.5-8.5-13.4-15.3-25.6-15.3c-12.3,0-18.2,6.8-25.7,15.4C-3876.9-2722.4-3886.1-2711.7-3904.6-2711.7z"/>
		<path id="Path_4100" class="st16" d="M-3904.6-2764.9c-18.5,0-27.8-10.7-36-20.1c-7.5-8.6-13.4-15.4-25.7-15.4
			s-18.2,6.8-25.7,15.4c-8.2,9.4-17.5,20.1-36,20.1c-18.4,0-27.7-10.6-35.9-20c-4.6-5.2-8.9-10.2-14.6-12.9c-3.4-1.6-4.8-5.7-3.2-9
			s5.7-4.8,9-3.2l0,0c8.2,3.9,13.7,10.2,19,16.3c7.5,8.6,13.4,15.3,25.6,15.3c12.3,0,18.2-6.8,25.7-15.4c8.2-9.4,17.5-20.1,36-20.1
			s27.8,10.7,36,20.1c7.5,8.6,13.4,15.4,25.7,15.4s18.2-6.8,25.7-15.4c8.2-9.4,17.5-20.1,36-20.1c18.4,0,27.7,10.6,35.8,19.9
			c3.4,4.3,7.4,8.1,11.8,11.3c3.1,2.1,4,6.3,1.9,9.4c-2,3.1-6.2,4-9.3,2c-5.5-3.9-10.5-8.5-14.7-13.8c-7.5-8.5-13.4-15.3-25.6-15.3
			c-12.3,0-18.2,6.8-25.7,15.4C-3876.9-2775.6-3886.1-2764.9-3904.6-2764.9z"/>
		<path id="Path_4101" class="st16" d="M-3904.6-2821.6c-18.5,0-27.8-10.7-36-20.1c-7.5-8.6-13.4-15.4-25.7-15.4
			s-18.2,6.8-25.7,15.4c-8.2,9.4-17.5,20.1-36,20.1c-18.4,0-27.7-10.6-35.9-20c-4.6-5.2-8.9-10.2-14.6-12.9c-3.4-1.6-4.8-5.7-3.2-9
			s5.7-4.8,9-3.2c8.2,3.9,13.7,10.2,19,16.3c7.5,8.6,13.4,15.3,25.6,15.3c12.3,0,18.2-6.8,25.7-15.4c8.2-9.4,17.5-20.1,36-20.1
			s27.8,10.7,36,20.1c7.5,8.6,13.4,15.4,25.7,15.4s18.2-6.8,25.7-15.4c8.2-9.4,17.5-20.1,36-20.1c18.4,0,27.7,10.6,35.8,19.9
			c3.4,4.3,7.4,8.1,11.8,11.3c3.1,2.1,4,6.3,1.9,9.4c-2,3.1-6.2,4-9.3,2c-5.5-3.9-10.5-8.5-14.7-13.8c-7.5-8.5-13.4-15.3-25.6-15.3
			c-12.3,0-18.2,6.8-25.7,15.4C-3876.9-2832.3-3886.1-2821.6-3904.6-2821.6z"/>
		<path id="Path_4102" class="st16" d="M-3904.6-2874.8c-18.5,0-27.8-10.7-36-20.1c-7.5-8.6-13.4-15.4-25.7-15.4
			s-18.2,6.8-25.7,15.4c-8.2,9.4-17.5,20.1-36,20.1c-18.4,0-27.7-10.6-35.9-20c-4.6-5.2-8.9-10.2-14.6-12.9c-3.4-1.6-4.8-5.7-3.2-9
			s5.7-4.8,9-3.2c8.2,3.9,13.7,10.2,19,16.3c7.5,8.6,13.4,15.3,25.6,15.3c12.3,0,18.2-6.8,25.7-15.4c8.2-9.4,17.5-20.1,36-20.1
			s27.8,10.7,36,20.1c7.5,8.6,13.4,15.4,25.7,15.4s18.2-6.8,25.7-15.4c8.2-9.4,17.5-20.1,36-20.1c18.4,0,27.7,10.6,35.8,19.9
			c3.4,4.3,7.4,8.1,11.8,11.3c3.1,2.1,4,6.3,1.9,9.4c-2,3.1-6.2,4-9.3,2c-5.5-3.9-10.5-8.5-14.7-13.8c-7.5-8.5-13.4-15.3-25.6-15.3
			c-12.3,0-18.2,6.8-25.7,15.4C-3876.9-2885.5-3886.1-2874.8-3904.6-2874.8z"/>
	</g>
</g>
</svg>
