<?xml version="1.0" encoding="utf-8"?>
<!-- Generator: Adobe Illustrator 26.0.1, SVG Export Plug-In . SVG Version: 6.00 Build 0)  -->
<svg version="1.1" id="Layer_1" xmlns="http://www.w3.org/2000/svg" xmlns:xlink="http://www.w3.org/1999/xlink" x="0px" y="0px"
	 viewBox="0 0 300 300" style="enable-background:new 0 0 300 300;" xml:space="preserve">
<style type="text/css">
	.st0{fill-rule:evenodd;clip-rule:evenodd;fill:#E16D64;}
	.st1{fill-rule:evenodd;clip-rule:evenodd;fill:#FBC8BC;}
	.st2{fill:#E16D64;stroke:#FBC8BC;stroke-width:2.1136;}
	.st3{fill:#E16D64;stroke:#FBC8BC;stroke-width:8.7298;}
	.st4{fill:#E16D64;}
	.st5{fill:#E16D64;stroke:#FBC8BC;stroke-width:0.8;}
	.st6{clip-path:url(#SVGID_00000021090982724482240340000016476074146183777185_);}
	.st7{fill:#E16D64;stroke:#FBC8BC;stroke-width:2.135;}
	.st8{fill:#E16D64;stroke:#FBC8BC;stroke-width:2.0838;}
	.st9{fill:#E16D64;stroke:#FBC8BC;stroke-width:4.3542;}
	.st10{clip-path:url(#SVGID_00000008107460201808474640000005981376770289463441_);}
	.st11{stroke:#FBC8BC;stroke-width:8.7359;}
	.st12{clip-path:url(#SVGID_00000089549892234376775460000018006552227846413757_);}
	.st13{clip-path:url(#SVGID_00000091002864971124740240000012842038233387867520_);}
	.st14{fill:none;stroke:#E16D64;stroke-width:0.2169;}
</style>
<g>
	<path id="Path_4090" class="st0" d="M466-350c65.8,0,119.1-53.3,119.1-119.1c0-13.8-3.7-34.9-8.4-47.9l-6.1,2.2
		c3.2,9,6,22.5,7.3,34.2l-4.7,0.5c-0.2,0-0.5,0-0.7,0.1l-2.1,0.1c-5.2,0.2-9.9,3.4-11.9,8.2l-0.5,1.3c-2.1,4.7-6.7,7.8-11.9,7.8
		h-9.1c-2.8,0-5.2-2.1-5.5-5l-0.4-3.7c-0.4-4.1-2.7-7.9-6.2-10.1c-1.9-1.2-3-3.3-3-5.5v-3.7c0-2.4,1-4.7,2.8-6.3l15.6-13.8
		c4.1-3.6,5.7-9.4,4.2-14.6c-1.7-5.5-6.4-9.4-12-10.1l-1.6-0.2c-2.2-0.3-4.2-1.3-5.7-3c-1.6-1.8-1.8-4.4-0.7-6.5l8.5-14.6
		c6.9,4.6,13.3,9.9,19,15.8l4.7-4.5c-11-11.4-25.1-21.1-40.9-28.3c-16.6-7.5-33.9-11.5-49.9-11.5c-6,0.1-12,0.5-17.9,1.4l0.9,6.4
		c1.9-0.3,3.9-0.5,5.8-0.7l13.6,19.6c3.2,4.6,3.1,10.8-0.4,15.3l-3.8,5c-1.9,2.5-5,3.7-8.1,3.3l-4.4-0.6c-6.3-0.8-12.4,2.2-15.6,7.7
		c-1.8,3.1-5.3,4.8-8.8,4.3l-10.1-1.3c-6.1-0.8-12.2,1.9-15.6,7.1c-3.2,4.8-3.3,11-0.2,15.9l6.6,10.5c2.5,3.9,6.8,6.3,11.4,6.3
		c2.2,0,4.4-0.5,6.3-1.6l6.8-3.7c3.8-2,10.3-1.8,14.2,0.6l3.3-5.5c-5.8-3.5-14.9-3.8-20.6-0.7l-6.8,3.7c-3.2,1.7-7.3,0.7-9.2-2.4
		l-6.6-10.5c-1.7-2.7-1.7-6.2,0.1-8.8c2.1-3.1,5.8-4.8,9.5-4.3l10.1,1.3c6.1,0.8,12.1-2.2,15.2-7.5c1.9-3.2,5.5-5,9.2-4.5l4.4,0.6
		c5.4,0.7,10.7-1.5,14-5.8l3.8-5c5.2-6.7,5.4-16,0.6-22.9l-11.4-16.4c1.3-0.1,2.6-0.1,3.7-0.1c15.1,0,31.5,3.8,47.3,10.9
		c4.9,2.2,9.7,4.8,14.4,7.6l-8.7,14.9c-2.6,4.5-2,10.1,1.4,14c2.5,2.9,6,4.7,9.7,5.2l1.6,0.2c3.1,0.4,5.7,2.6,6.6,5.6
		c0.9,2.9,0,5.9-2.2,7.9l-15.6,13.8c-3.2,2.8-5,6.9-5,11.2v3.7c0,4.4,2.2,8.5,5.9,10.9c1.8,1.2,3,3.1,3.2,5.3l0.4,3.7
		c0.6,6.1,5.8,10.8,11.9,10.8h9.1c7.7,0,14.7-4.6,17.8-11.6l0.5-1.2c1.1-2.5,3.5-4.2,6.3-4.3l2.1-0.1c0.3,0,0.7,0,1-0.1l4.6-0.5
		c0.1,1.8,0.2,3.5,0.2,5c0,62.1-50.5,112.6-112.6,112.6S353.4-407,353.4-469.1c0.1-7.8,0.9-15.5,2.6-23.1l12.3-4
		c5.3-1,10.7,1.5,13.4,6.2c1.3,2.2,2.8,4.2,4.7,5.9l8.7,8.2c2.3,2.2,5.1,3.8,8.2,4.6l1,0.3c3.8,1,6.7,4,7.8,7.8l4.6,16.8
		c0.8,2.8,2.1,5.4,3.8,7.7l14.1,18.5c1.1,1.5,1.9,3.2,2.2,5l3.8,23.1c0.9,5.3,5.8,8.8,11.1,8c0.7-0.1,1.5-0.3,2.2-0.6
		c4.4-1.8,7.4-5.9,7.8-10.6c0.4-3.4,1.7-6.7,3.9-9.4l4.1-4.9c1.3-1.5,2.2-3.3,2.8-5.2l4.2-13.6c0.8-2.7,2.5-5.2,4.8-6.9l12.6-9.7
		c4.7-3.6,5.6-10.3,2-15c0,0,0,0,0,0c-0.1-0.1-0.2-0.3-0.3-0.4l-8.3-9.8c-0.4-0.4-0.7-0.9-1.1-1.4l-3.7-5.1l-5.2,3.8l3.7,5
		c0.4,0.6,0.9,1.2,1.4,1.8l8.3,9.8c1.5,1.8,1.3,4.4-0.5,5.9c0,0,0,0,0,0c-0.1,0-0.1,0.1-0.2,0.1l-12.6,9.7c-3.3,2.6-5.8,6.1-7,10.1
		l-4.2,13.6c-0.3,1.1-0.9,2.1-1.6,2.9l-4.1,4.9c-3,3.6-4.9,8.1-5.4,12.8c-0.2,2.3-1.7,4.4-3.9,5.3c-1.6,0.7-3.5-0.1-4.2-1.7
		c-0.1-0.2-0.2-0.5-0.2-0.7l-3.8-23.1c-0.5-2.9-1.7-5.6-3.4-7.9l-14.1-18.5c-1.3-1.7-2.2-3.5-2.8-5.5l-4.6-16.8
		c-1.7-6-6.4-10.6-12.3-12.3l-1-0.3c-2-0.6-3.9-1.6-5.5-3.1l-8.7-8.2c-1.4-1.3-2.6-2.8-3.5-4.4c-4.1-7.1-12.3-10.8-20.4-9.2
		c-0.1,0-0.3,0.1-0.4,0.1l-8.7,2.8c2.5-9,5.9-17.6,10.3-25.8l-5.7-3.1c-9.7,17.9-15.5,40.1-15.5,59.4C346.9-403.3,400.2-350,466-350
		z"/>
	<path id="Icon_material-location-on" d="M468.8-534c-14.3,0-25.8,11.5-25.9,25.8c0,0,0,0,0,0c0,19.4,25.9,48,25.9,48
		s25.9-28.6,25.9-48C494.6-522.4,483.1-534,468.8-534C468.8-534,468.8-534,468.8-534z M468.8-498.9c-5.1,0-9.2-4.1-9.2-9.2
		c0-5.1,4.1-9.2,9.2-9.2c5.1,0,9.2,4.1,9.2,9.2l0,0C478-503,473.9-498.9,468.8-498.9z"/>
	<path id="Icon_material-location-on-2" d="M569.7-583.2c-14.3,0-25.8,11.5-25.9,25.8c0,0,0,0,0,0c0,19.4,25.9,48,25.9,48
		s25.9-28.6,25.9-48C595.6-571.6,584-583.2,569.7-583.2C569.7-583.2,569.7-583.2,569.7-583.2z M569.7-548.1c-5.1,0-9.2-4.1-9.2-9.2
		c0-5.1,4.1-9.2,9.2-9.2s9.2,4.1,9.2,9.2l0,0C578.9-552.3,574.8-548.1,569.7-548.1z"/>
	<path id="Path_4091" class="st1" d="M368-471.8c0.1-8.6,1.1-17.2,3.1-25.7c0.4-1.7,0.8-3.3,1.2-4.9c2.5-9.5,6.2-18.6,10.8-27.3l0,0
		L411-562c6.1-4.8,15.3-11,22.4-14.5l26.5-8l-1.9-2.8v0c-2.7,0.2-5.4,0.6-7.8,0.9l-0.1,0l-32.8,9.9c-7.1,3.5-16.3,9.7-22.4,14.5
		L367-529.7l0,0c-5.4,10.2-9.5,21-12,32.2c-2,8.4-3,17-3.1,25.7c0,64,51.8,115.9,115.7,115.9c2.7,0,5.4-0.1,8.1-0.3
		C415.5-360.3,368-410.5,368-471.8"/>
	<path id="Icon_material-location-on-3" d="M370.3-590.6c-14.3,0-25.8,11.5-25.9,25.8c0,0,0,0,0,0c0,19.4,25.9,48,25.9,48
		s25.9-28.6,25.9-48C396.1-579,384.6-590.6,370.3-590.6C370.3-590.6,370.3-590.6,370.3-590.6z M370.3-555.5c-5.1,0-9.2-4.1-9.2-9.2
		s4.1-9.2,9.2-9.2c5.1,0,9.2,4.1,9.2,9.2l0,0C379.5-559.6,375.4-555.5,370.3-555.5z"/>
	<path id="Icon_material-location-on-4" d="M431.8-630c-14.3,0-25.8,11.5-25.9,25.8c0,0,0,0,0,0c0,19.4,25.9,48,25.9,48
		s25.9-28.6,25.9-48C457.7-618.4,446.1-630,431.8-630C431.9-630,431.8-630,431.8-630z M431.8-594.9c-5.1,0-9.2-4.1-9.2-9.2
		s4.1-9.2,9.2-9.2c5.1,0,9.2,4.1,9.2,9.2l0,0C441.1-599,436.9-594.9,431.8-594.9z"/>
</g>
<g id="Image" transform="translate(3221.066 2950.876)">
	<g id="famous" transform="translate(30.152 -0.661)">
		<g id="Group_210" transform="translate(33.143 35.321)">
			<g id="Group_209">
				<path id="Path_4092" class="st2" d="M-3107.5-3456.1c21.1-14.8,26.2-44,11.4-65.1s-44-26.2-65.1-11.4s-26.2,44-11.4,65.1
					c3.1,4.4,7,8.3,11.4,11.4c-24.9,4.3-43.2,25.9-43.2,51.2v64.8c0,2.6,2.1,4.7,4.7,4.7c0,0,0,0,0,0h130.8c2.6,0,4.7-2.1,4.7-4.7
					l0,0v-64.8C-3064.4-3430.2-3082.6-3451.8-3107.5-3456.1z M-3171.7-3494.3c0-20.6,16.7-37.4,37.4-37.4s37.4,16.7,37.4,37.4
					c0,20.6-16.7,37.4-37.4,37.4l0,0C-3155-3456.9-3171.7-3473.6-3171.7-3494.3z M-3073.6-3344.8h-121.4v-60.1
					c0-23.5,19.1-42.6,42.6-42.6h36.1c23.5,0,42.6,19.1,42.6,42.6L-3073.6-3344.8z"/>
			</g>
		</g>
		<g id="Group_212" transform="translate(64.076 13.257)">
			<g id="Group_211">
				<rect id="Rectangle_171" x="-3170" y="-3565.6" class="st2" width="9.3" height="18.7"/>
			</g>
		</g>
		<g id="Group_214" transform="translate(85.903 18.699)">
			<g id="Group_213">
				
					<rect id="Rectangle_172" x="-3145.1" y="-3554.3" transform="matrix(0.7071 -0.7071 0.7071 0.7071 1591.5303 -3256.9751)" class="st2" width="18.7" height="9.3"/>
			</g>
		</g>
		<g id="Group_216" transform="translate(112.685 128.151)">
			<g id="Group_215">
				<rect id="Rectangle_173" x="-3115.8" y="-3437.7" class="st2" width="18.7" height="9.3"/>
			</g>
		</g>
		<g id="Group_218" transform="translate(112.685 106.056)">
			<g id="Group_217">
				<rect id="Rectangle_174" x="-3115.8" y="-3462.3" class="st2" width="18.7" height="9.3"/>
			</g>
		</g>
		<g id="Group_220" transform="translate(112.685 83.961)">
			<g id="Group_219">
				<rect id="Rectangle_175" x="-3115.8" y="-3486.9" class="st2" width="18.7" height="9.3"/>
			</g>
		</g>
		<g id="Group_222" transform="translate(110.009 60.577)">
			<g id="Group_221">
				
					<rect id="Rectangle_176" x="-3117.8" y="-3510.2" transform="matrix(0.9486 -0.3164 0.3164 0.9486 949.4782 -1163.6609)" class="st2" width="18.7" height="9.3"/>
			</g>
		</g>
		<g id="Group_224" transform="translate(103.144 37.664)">
			<g id="Group_223">
				
					<rect id="Rectangle_177" x="-3125.5" y="-3535.7" transform="matrix(0.9486 -0.3164 0.3164 0.9486 957.1588 -1167.3907)" class="st2" width="18.7" height="9.3"/>
			</g>
		</g>
		<g id="Group_226" transform="translate(37.295 18.704)">
			<g id="Group_225">
				
					<rect id="Rectangle_178" x="-3194.6" y="-3559" transform="matrix(0.7072 -0.707 0.707 0.7072 1575.6362 -3294.583)" class="st2" width="9.3" height="18.7"/>
			</g>
		</g>
		<g id="Group_228" transform="translate(11.048 128.151)">
			<g id="Group_227">
				<rect id="Rectangle_179" x="-3229" y="-3437.7" class="st2" width="18.7" height="9.3"/>
			</g>
		</g>
		<g id="Group_230" transform="translate(11.048 106.056)">
			<g id="Group_229">
				<rect id="Rectangle_180" x="-3229" y="-3462.3" class="st2" width="18.7" height="9.3"/>
			</g>
		</g>
		<g id="Group_232" transform="translate(11.048 83.961)">
			<g id="Group_231">
				<rect id="Rectangle_181" x="-3229" y="-3486.9" class="st2" width="18.7" height="9.3"/>
			</g>
		</g>
		<g id="Group_234" transform="translate(12.785 60.579)">
			<g id="Group_233">
				
					<rect id="Rectangle_182" x="-3221.4" y="-3514.9" transform="matrix(0.3161 -0.9487 0.9487 0.3161 1125.8744 -5449.1753)" class="st2" width="9.3" height="18.7"/>
			</g>
		</g>
		<g id="Group_236" transform="translate(19.639 37.68)">
			<g id="Group_235">
				
					<rect id="Rectangle_183" x="-3213.8" y="-3540.4" transform="matrix(0.3163 -0.9487 0.9487 0.3163 1155.6548 -5458.5337)" class="st2" width="9.3" height="18.7"/>
			</g>
		</g>
		<g id="Group_238" transform="translate(110.475)">
			<g id="Group_237">
				<path id="Path_4093" class="st2" d="M-3076.3-3561.7c-7.7,0-14-6.3-14-14c-0.1-2.6-2.2-4.6-4.8-4.6c-2.5,0.1-4.5,2.1-4.6,4.6
					c0,7.7-6.3,14-14,14c-2.6-0.1-4.7,2-4.8,4.6c-0.1,2.6,2,4.7,4.6,4.8c0.1,0,0.1,0,0.2,0c7.7,0,14,6.3,14,14
					c0.1,2.6,2.2,4.6,4.8,4.6c2.5-0.1,4.5-2.1,4.6-4.6c0-7.7,6.3-14,14-14c2.6-0.1,4.6-2.2,4.6-4.8
					C-3071.7-3559.6-3073.8-3561.6-3076.3-3561.7L-3076.3-3561.7z M-3094.9-3552.3c-1.3-1.8-2.9-3.4-4.7-4.7
					c1.8-1.3,3.4-2.9,4.7-4.7c1.3,1.8,2.9,3.4,4.7,4.7C-3092-3555.7-3093.6-3554.1-3094.9-3552.3z"/>
			</g>
		</g>
		<g id="Group_240">
			<g id="Group_239">
				<path id="Path_4094" class="st2" d="M-3199.3-3561.7c-7.7,0-14-6.3-14-14c-0.1-2.6-2.2-4.6-4.8-4.6c-2.5,0.1-4.5,2.1-4.6,4.6
					c0,7.7-6.3,14-14,14c-2.6,0.1-4.6,2.2-4.6,4.8c0.1,2.5,2.1,4.5,4.6,4.6c7.7,0,14,6.3,14,14c-0.1,2.6,2,4.7,4.6,4.8
					s4.7-2,4.8-4.6c0-0.1,0-0.1,0-0.2c0-7.7,6.3-14,14-14c2.6-0.1,4.6-2.2,4.6-4.8C-3194.8-3559.6-3196.8-3561.6-3199.3-3561.7
					L-3199.3-3561.7z M-3218-3552.3c-1.3-1.8-2.9-3.4-4.7-4.7c1.8-1.3,3.4-2.9,4.7-4.7c1.3,1.8,2.9,3.4,4.7,4.7
					C-3215.1-3555.7-3216.6-3554.1-3218-3552.3z"/>
			</g>
		</g>
	</g>
</g>
<g id="Image-2" transform="translate(3514.156 2960.45)">
	<g id="hand" transform="translate(16.719 -0.661)">
		<g id="Group_241" transform="translate(0 0)">
			<path id="Path_4095" class="st3" d="M-3267.8-3157.8l-51.2,35.8v-25.7h-14.3l20.2-20.2c19.8-19.8,19.8-51.9,0-71.7
				c-18.5-18.5-48-19.9-68.2-3.2c-21.6-17.8-53.5-14.8-71.4,6.7c-16.7,20.2-15.3,49.7,3.2,68.2l20.2,20.2h-66.8l-27.3,23.9v116.9
				l62.3-54.6l87.6,38.7l134.4-94.1L-3267.8-3157.8z M-3437.7-3179.6c-13.3-13.3-13.3-34.9,0-48.1c13.3-13.3,34.9-13.3,48.1,0
				l8.2,8.2l8.2-8.2c13.3-13.3,34.9-13.3,48.2,0c13.3,13.3,13.3,34.9,0,48.2l-32,32h-48.8L-3437.7-3179.6z M-3375.4-3041.7
				l-88.7-39.2l-42.6,37.4v-72.6l16.9-14.8h154.2v16.7h-57.4v16.7h68.4l52.8-37l9.6,13.7L-3375.4-3041.7z"/>
		</g>
	</g>
</g>
<g id="Image-3" transform="translate(3789.425 2960.449)">
	<g id="peace" transform="translate(26.711 -0.661)">
		<path id="Path_4096" class="st4" d="M-3355.3-3035.5v-14.3c0-6.9-1.6-13.7-4.6-20c-1-2.1-3.6-3-5.8-2s-3,3.6-2,5.8
			c2.5,5,3.7,10.6,3.7,16.2v10.4c-0.4,0-62.7,0-62.7,0l-12.9-8c-25.9-16.1-41.7-44.5-41.7-75v-43.4c0.1-4.1,3.6-7.3,7.7-7.2
			c3.9,0.1,7,3.3,7.2,7.2v45c0,5.7,2.3,11.2,6.4,15.2l1.3,1.3c0.6,3.7,2.4,7,5.2,9.5l35.9,32.9c1.8,1.5,4.5,1.3,6.1-0.5
			c1.4-1.7,1.3-4.2-0.3-5.8l-35.9-32.9c-3.2-3-3.5-8.1-0.5-11.3c2.8-3.1,7.5-3.4,10.8-0.9l28.5,22.2c0.4,0.3,0.9,0.6,1.4,0.7
			l17.4,5.3c4.4,1.3,8.4,3.5,12,6.3c1.9,1.5,4.6,1.1,6.1-0.7s1.1-4.6-0.7-6.1c-4.4-3.5-9.4-6.1-14.8-7.8l-14.5-4.4v-23.3
			c0-10.3-7.3-19.2-17.4-21.3v-3.1c0-7.7-6.2-13.9-13.9-13.9c-1.8,0-3.6,0.4-5.3,1v-0.8c0-7.7-6.2-13.9-13.9-13.9
			c-2.2,0-4.3,0.5-6.3,1.5c-3.1-8.3-12.4-12.6-20.7-9.5c-6.3,2.3-10.5,8.3-10.5,15.1v43.4c0,33.5,17.3,64.7,45.8,82.3l6.4,3.9
			c-3.2,2.7-5,6.6-5,10.8v31.3c0,2.4,1.9,4.3,4.3,4.3c2.4,0,4.3-1.9,4.3-4.3c0,0,0,0,0,0v-31.3c0-3,2.4-5.4,5.4-5.4h63.7
			c3,0,5.4,2.4,5.4,5.4v31.3c0,2.4,1.9,4.3,4.3,4.3c2.4,0,4.3-1.9,4.3-4.3v-31.3C-3351.1-3029.2-3352.6-3032.8-3355.3-3035.5z
			 M-3410.7-3121.1v17.5l-8.8-6.8v-23C-3414.2-3131.6-3410.7-3126.6-3410.7-3121.1z M-3433.4-3150.7c2.9,0,5.3,2.4,5.3,5.3v28.3
			l-3.9-3.1c-1.9-1.5-4.2-2.6-6.6-3.1v-22.1C-3438.6-3148.3-3436.3-3150.7-3433.4-3150.7L-3433.4-3150.7z M-3452.5-3164.3
			c2.9,0,5.3,2.4,5.3,5.3v36.1c-3,0.9-5.7,2.7-7.7,5.1c-0.6,0.7-1.1,1.5-1.6,2.3c-0.8-1.7-1.2-3.5-1.2-5.3v-38.2
			C-3457.8-3161.9-3455.4-3164.3-3452.5-3164.3z"/>
		<path id="Path_4097" class="st4" d="M-3218.4-3181.9c-6.7,0-12.7,4.2-15.1,10.5c-6.8-3.5-15.2-0.7-18.7,6.1
			c-1,1.9-1.5,4.1-1.5,6.3v0.8c-7.1-2.9-15.2,0.5-18.1,7.6c-0.7,1.7-1,3.5-1,5.3v3.1c-10.1,2.1-17.4,10.9-17.4,21.3v23.3l-14.5,4.4
			c-19.2,5.9-32.2,23.6-32.2,43.6v14.3c-2.7,2.6-4.3,6.3-4.3,10.1v31.3c0,2.4,1.9,4.3,4.3,4.3c2.4,0,4.3-1.9,4.3-4.3v-31.3
			c0-3,2.4-5.4,5.4-5.4h63.7c3,0,5.4,2.4,5.4,5.4v31.3c0,2.4,1.9,4.3,4.3,4.3c2.4,0,4.3-1.9,4.3-4.3v-31.3c0-4.2-1.8-8.1-5-10.8
			l6.4-3.9c8-5,15.3-11.1,21.5-18.2c1.6-1.8,1.4-4.5-0.4-6.1c-1.8-1.6-4.5-1.4-6.1,0.4l0,0c-5.7,6.5-12.3,12-19.6,16.6l-12.9,8
			c0,0-62.3,0-62.7,0v-10.4c0-16.2,10.6-30.6,26.1-35.4l17.4-5.3c0.5-0.2,1-0.4,1.4-0.7l28.5-22.2c3.5-2.7,8.5-2.1,11.2,1.4
			c2.5,3.3,2.2,8-0.9,10.8l-35.9,32.9c-1.7,1.7-1.7,4.4,0,6.1c1.6,1.6,4.1,1.7,5.9,0.3l35.9-32.9c2.8-2.5,4.6-5.9,5.2-9.5l1.3-1.3
			c4.1-4,6.3-9.5,6.4-15.2v-45c0.1-4.1,3.6-7.3,7.7-7.2c3.9,0.1,7,3.3,7.2,7.2v43.4c0,15.5-4.1,30.7-11.9,44.2
			c-1.2,2.1-0.5,4.7,1.6,5.9c2.1,1.2,4.7,0.5,5.9-1.6c8.5-14.7,13-31.5,13-48.5v-43.4C-3202.3-3174.7-3209.5-3181.9-3218.4-3181.9
			L-3218.4-3181.9z M-3272.8-3133.4v23l-8.8,6.8v-17.5C-3281.5-3126.6-3278-3131.6-3272.8-3133.4z M-3260.2-3120.2l-4,3.1v-28.3
			c0.1-2.9,2.6-5.2,5.5-5c2.7,0.1,4.9,2.3,5,5v22.1C-3256-3122.8-3258.3-3121.7-3260.2-3120.2z M-3245-3122.9v-36.1
			c0.1-2.9,2.6-5.2,5.5-5c2.7,0.1,4.9,2.3,5,5v38.2c0,1.8-0.4,3.6-1.2,5.3c-0.5-0.8-1-1.5-1.6-2.3
			C-3239.3-3120.2-3242-3122-3245-3122.9z"/>
		<path id="Path_4098" class="st4" d="M-3265.3-3175.1c19.8-19.9,21-51.7,2.7-73c-0.1-0.1-0.1-0.1-0.2-0.2c-1.5-1.8-4.3-2.1-6.1-0.5
			c-1.8,1.5-2.1,4.3-0.5,6.1c0,0,0.1,0.1,0.1,0.1c0.1,0.1,0.1,0.1,0.2,0.2c15.4,17.9,14.4,44.6-2.3,61.3l-71.7,72
			c-1.8,1.8-4.7,1.8-6.5,0c0,0,0,0,0,0l-71.7-72.1c-17.6-17.7-17.6-46.3,0.1-63.9c15.8-15.8,40.9-17.6,58.8-4.3l11.5,8.5
			c2.7,2,6.4,2,9.2,0l11.5-8.5c13.9-10.2,32.4-11.7,47.7-3.8c2.1,1.1,4.7,0.3,5.8-1.8c1.1-2.1,0.3-4.7-1.8-5.8
			c-18.2-9.5-40.3-7.7-56.8,4.5l-10.9,8.1l-10.9-8.1c-23.9-17.7-57.6-12.6-75.3,11.3c-15.8,21.4-13.6,51.1,5.1,70l71.7,72
			c5.1,5.2,13.5,5.2,18.7,0.1c0,0,0,0,0.1-0.1L-3265.3-3175.1z"/>
	</g>
</g>
<g id="Group_4743" transform="translate(2945.248 -1370.379)">
	<g id="confetti" transform="translate(443.9 4737)">
		<g id="Group_245" transform="translate(0 32.08)">
			<g id="Group_244">
				<path id="Path_4112" class="st5" d="M-3187.7-3212.1c-0.8-2.5-3.6-3.9-6.1-3c-2.5,0.8-3.9,3.6-3,6.1c0,0.1,0,0.1,0.1,0.2
					c0,0.1,0,0.1,0.1,0.2c4.4,11.4,4.7,20.2,0.9,24c-4.6,4.6-16.2,3.2-31-3.9c-19.7-10.2-37.7-23.6-53.1-39.6
					c-37.6-37.6-53.1-74.5-43.5-84.1c3.1-2.4,7-3.3,10.9-2.5c2.6,0.2,4.9-1.8,5.1-4.5c0.2-2.5-1.7-4.7-4.2-5.1
					c-6.7-1.2-13.5,0.8-18.6,5.3c-17.6,17.6,9.3,63.4,43.5,97.7c16.2,16.8,35,30.8,55.8,41.5c3.8,1.8,7.6,3.3,11.6,4.6l-34.1,12.9
					c-45.5-17.3-78.3-57.7-85.9-105.8c-0.4-2.6-2.8-4.5-5.4-4.1s-4.5,2.8-4.1,5.4c0,0,0,0.1,0,0.1c7.5,47.9,38.5,88.8,82.4,109.2
					l-56.1,21.2c-0.3-0.4-0.6-0.8-1-1.1c-14.3-11.5-23.2-28.2-24.8-46.5l-2.2-27c-0.2-2.6-2.4-4.6-5-4.4l-0.1,0
					c-2.6,0.2-4.6,2.5-4.4,5.2c0,0,0,0,0,0l2.3,26.9c1.7,19.5,10.8,37.6,25.4,50.6l-40,15.2l7.2-29.5c0.6-2.6-1-5.2-3.5-5.8
					c-2.6-0.6-5.2,1-5.8,3.5l0,0l-9.3,38.4c-0.6,2.6,0.9,5.2,3.5,5.8c0.9,0.2,1.9,0.2,2.8-0.2l177.6-67.2c0.3-0.1,0.5-0.3,0.8-0.5
					c3.8-0.6,7.4-2.4,10.2-5.1C-3184.2-3182.7-3180.2-3192.5-3187.7-3212.1z"/>
			</g>
		</g>
		<g id="Group_247" transform="translate(65.651 74.576)">
			<g id="Group_246">
				<path id="Path_4113" class="st5" d="M-3208-3267c-25.9-9.7-54-12.4-81.3-7.9l-17.1,2.9c-2.6,0.5-4.3,3-3.8,5.6
					c0.5,2.5,2.8,4.2,5.4,3.8l17.1-2.9c25.7-4.3,52-1.7,76.4,7.4c0.5,0.2,1.1,0.3,1.7,0.3c2.7,0,4.8-2.1,4.8-4.8
					C-3204.9-3264.5-3206.2-3266.3-3208-3267L-3208-3267z"/>
			</g>
		</g>
		<g id="Group_249" transform="translate(70.127 42.972)">
			<g id="Group_248">
				<path id="Path_4114" class="st5" d="M-3195.5-3309.8c-1.1-2.4-4-3.4-6.4-2.3c0,0,0,0,0,0l-100.8,48c-2.4,1.1-3.4,4-2.3,6.4l0,0
					c1.1,2.4,4,3.4,6.4,2.3l0,0l100.8-48C-3195.3-3304.5-3194.3-3307.4-3195.5-3309.8C-3195.5-3309.8-3195.5-3309.8-3195.5-3309.8z"
					/>
			</g>
		</g>
		<g id="Group_251" transform="translate(43.678 13.539)">
			<g id="Group_250">
				<path id="Path_4115" class="st5" d="M-3311.2-3341.7c-0.6-2.6-3.1-4.2-5.7-3.7c-2.5,0.6-4.2,3-3.7,5.6c0,0.1,0,0.1,0,0.2
					c6.1,27.1,3.6,55.5-7.2,81.2l-7,16.7c-1,2.4,0.1,5.2,2.6,6.3c0.6,0.2,1.2,0.4,1.8,0.4c1.9,0,3.7-1.2,4.4-3l7-16.7
					C-3307.4-3282.2-3304.7-3312.6-3311.2-3341.7z"/>
			</g>
		</g>
		<g id="Group_253" transform="translate(117.618 81.423)">
			<g id="Group_252">
				<path id="Path_4116" class="st5" d="M-3237.7-3269.4c-8,0-14.4,6.4-14.4,14.4c0,8,6.4,14.4,14.4,14.4c8,0,14.4-6.4,14.4-14.4
					C-3223.3-3262.9-3229.8-3269.4-3237.7-3269.4L-3237.7-3269.4z M-3237.7-3250.2c-2.7,0-4.8-2.1-4.8-4.8c0-2.7,2.1-4.8,4.8-4.8
					c2.7,0,4.8,2.1,4.8,4.8l0,0C-3232.9-3252.3-3235.1-3250.2-3237.7-3250.2L-3237.7-3250.2z"/>
			</g>
		</g>
		<g id="Group_255" transform="translate(63.335 18.094)">
			<g id="Group_254">
				<path id="Path_4117" class="st5" d="M-3298.6-3340.4c-8,0-14.4,6.4-14.4,14.4c0,8,6.4,14.4,14.4,14.4c8,0,14.4-6.4,14.4-14.4
					C-3284.2-3334-3290.7-3340.4-3298.6-3340.4L-3298.6-3340.4z M-3298.6-3321.2c-2.7,0-4.8-2.1-4.8-4.8c0-2.7,2.1-4.8,4.8-4.8
					c2.7,0,4.8,2.1,4.8,4.8C-3293.8-3323.4-3296-3321.2-3298.6-3321.2L-3298.6-3321.2z"/>
			</g>
		</g>
		<g id="Group_257" transform="translate(45.241)">
			<g id="Group_256">
				<circle id="Ellipse_55" class="st5" cx="-3323.7" cy="-3351.1" r="9.6"/>
			</g>
		</g>
		<g id="Group_259" transform="translate(110.832 11.309)">
			<g id="Group_258">
				<path id="Path_4118" class="st5" d="M-3254.9-3348c-2.7,0-4.8,2.1-4.8,4.8v4.8c-0.1,2.7,2,4.8,4.7,4.9s4.8-2,4.9-4.7
					c0-0.1,0-0.1,0-0.2v-4.8C-3250.1-3345.9-3252.3-3348-3254.9-3348z"/>
			</g>
		</g>
		<g id="Group_261" transform="translate(110.832)">
			<g id="Group_260">
				<path id="Path_4119" class="st5" d="M-3254.9-3360.7c-2.7,0-4.8,2.1-4.8,4.8v4.8c-0.1,2.7,2,4.8,4.7,4.9s4.8-2,4.9-4.7
					c0-0.1,0-0.1,0-0.2v-4.8C-3250.1-3358.6-3252.3-3360.7-3254.9-3360.7z"/>
			</g>
		</g>
		<g id="Group_263" transform="translate(115.356 6.785)">
			<g id="Group_262">
				<path id="Path_4120" class="st5" d="M-3245-3353.1h-4.8c-2.7,0-4.8,2.1-4.8,4.8c0,2.7,2.1,4.8,4.8,4.8h4.8
					c2.7,0,4.8-2.1,4.8-4.8C-3240.2-3351-3242.4-3353.1-3245-3353.1z"/>
			</g>
		</g>
		<g id="Group_265" transform="translate(104.047 6.785)">
			<g id="Group_264">
				<path id="Path_4121" class="st5" d="M-3257.7-3353.1h-4.8c-2.7,0-4.8,2.1-4.8,4.8c0,2.7,2.1,4.8,4.8,4.8h4.8
					c2.7,0,4.8-2.1,4.8-4.8S-3255.1-3353.1-3257.7-3353.1z"/>
			</g>
		</g>
		<g id="Group_267" transform="translate(83.644 24.832)">
			<g id="Group_266">
				<path id="Path_4122" class="st5" d="M-3261.3-3332.9h-24.1c-2.7,0-4.8,2.1-4.8,4.8l0,0v24.1c0,2.7,2.1,4.8,4.8,4.8l0,0h24.1
					c2.7,0,4.8-2.1,4.8-4.8l0,0v-24.1C-3256.5-3330.7-3258.7-3332.8-3261.3-3332.9z M-3266.1-3308.8h-14.5v-14.5h14.5V-3308.8z"/>
			</g>
		</g>
		<g id="Group_269" transform="translate(54.289 43.003)">
			<g id="Group_268">
				<path id="Path_4123" class="st5" d="M-3266.9-3310.9c-1.8-1.9-4.7-2-6.6-0.3l-48,43.2c-2,1.7-2.2,4.8-0.5,6.8
					c1.7,2,4.8,2.2,6.8,0.5c0.1,0,0.1-0.1,0.1-0.1l48-43.2C-3265.2-3306-3265.1-3309-3266.9-3310.9z"/>
			</g>
		</g>
		<g id="Group_271" transform="translate(119.879 52.02)">
			<g id="Group_270">
				<path id="Path_4124" class="st5" d="M-3244.8-3302.3c-2.7,0-4.8,2.1-4.8,4.8v4.8c-0.1,2.7,2,4.8,4.7,4.9c2.7,0.1,4.8-2,4.9-4.7
					c0-0.1,0-0.1,0-0.2v-4.8C-3240-3300.2-3242.1-3302.3-3244.8-3302.3z"/>
			</g>
		</g>
		<g id="Group_273" transform="translate(126.306 49.397)">
			<g id="Group_272">
				<path id="Path_4125" class="st5" d="M-3230.8-3300.5l-3.4-3.4c-1.9-1.9-4.9-1.9-6.8,0c-1.9,1.9-1.9,4.9,0,6.8l3.4,3.4
					c1.9,1.9,4.9,1.9,6.8,0C-3229-3295.6-3229-3298.7-3230.8-3300.5z"/>
			</g>
		</g>
		<g id="Group_275" transform="translate(128.926 42.973)">
			<g id="Group_274">
				<path id="Path_4126" class="st5" d="M-3229.8-3312.5h-4.8c-2.7-0.1-4.8,2-4.9,4.7c-0.1,2.7,2,4.8,4.7,4.9c0.1,0,0.1,0,0.2,0h4.8
					c2.7,0.1,4.8-2,4.9-4.7c0.1-2.7-2-4.8-4.7-4.9C-3229.7-3312.5-3229.8-3312.5-3229.8-3312.5z"/>
			</g>
		</g>
		<g id="Group_277" transform="translate(126.278 35.006)">
			<g id="Group_276">
				<path id="Path_4127" class="st5" d="M-3230.9-3320.1c-1.9-1.8-4.8-1.8-6.7,0l-3.4,3.4c-1.9,1.9-1.9,4.9,0,6.8
					c0.9,0.9,2.1,1.4,3.4,1.4l0,0c1.3,0,2.5-0.5,3.4-1.4l3.4-3.4C-3228.9-3315.2-3229-3318.2-3230.9-3320.1z"/>
			</g>
		</g>
		<g id="Group_279" transform="translate(119.879 31.665)">
			<g id="Group_278">
				<path id="Path_4128" class="st5" d="M-3244.8-3325.2c-2.7,0-4.8,2.1-4.8,4.8v4.8c-0.1,2.7,2,4.8,4.7,4.9s4.8-2,4.9-4.7
					c0-0.1,0-0.1,0-0.2v-4.8C-3240-3323-3242.1-3325.2-3244.8-3325.2z"/>
			</g>
		</g>
		<g id="Group_281" transform="translate(111.91 35.006)">
			<g id="Group_280">
				<path id="Path_4129" class="st5" d="M-3247-3316.7l-3.4-3.4c-1.9-1.9-4.9-1.9-6.8,0c-1.9,1.9-1.9,4.9,0,6.8l0,0l3.4,3.4
					c1.9,1.9,4.9,1.9,6.8,0C-3245.1-3311.8-3245.1-3314.8-3247-3316.7z"/>
			</g>
		</g>
		<g id="Group_283" transform="translate(0.004 0.102)">
			<g id="Group_282">
				<path id="Path_4130" class="st5" d="M-3326.7-3340.1c-0.6-1.7-2.1-3-3.9-3.3l-14.1-2.1l-6.3-12.8c-1.4-2.4-4.5-3.2-6.8-1.8
					c-0.7,0.4-1.3,1-1.8,1.8l-6.3,12.8l-14.1,2.1c-2.6,0.4-4.4,2.8-4.1,5.4c0.2,1,0.6,2,1.4,2.7l10.2,9.9l-2.4,14
					c-0.5,2.6,1.3,5.1,3.9,5.6c1.1,0.2,2.1,0,3.1-0.5l12.6-6.6l12.6,6.6c2.3,1.2,5.2,0.3,6.5-2c0.5-0.9,0.7-2,0.5-3l-2.4-14
					l10.2-9.9C-3326.6-3336.4-3326.1-3338.3-3326.7-3340.1z M-3346.6-3330.3c-1.1,1.1-1.6,2.7-1.4,4.2l1.2,6.9l-6.2-3.3
					c-1.4-0.7-3.1-0.7-4.5,0l-6.2,3.3l1.2-6.9c0.3-1.6-0.2-3.1-1.4-4.2l-5.1-4.9l7-1c1.6-0.2,2.9-1.2,3.6-2.6l3.1-6.3l3.1,6.3
					c0.7,1.4,2,2.4,3.6,2.6l7,1L-3346.6-3330.3z"/>
			</g>
		</g>
		<g id="Group_285" transform="translate(101.839 97.264)">
			<g id="Group_284">
				<path id="Path_4131" class="st5" d="M-3214.1-3217.4L-3214.1-3217.4l-2-3c-11.1-16.6-28.5-27.9-48.2-31.2
					c-2.6-0.4-5,1.5-5.4,4.1c-0.3,2.5,1.3,4.9,3.8,5.4c14.2,2.4,27.1,9.6,36.6,20.4c-8,1.4-15,6.2-19.2,13.2
					c-5.2,9.3-1.9,21,7.4,26.1s21,1.9,26.1-7.4c2-3.8,3-8,3.1-12.3c5.1,7.4,5.5,17.1,1.1,24.9c-1.4,2.3-0.6,5.2,1.7,6.6
					c2.3,1.4,5.2,0.6,6.6-1.7c0-0.1,0.1-0.1,0.1-0.2C-3193.6-3188.2-3198.8-3208-3214.1-3217.4z M-3223.3-3194.4
					c-2.6,4.6-8.4,6.3-13,3.8c-4.6-2.6-6.3-8.4-3.8-13l0-0.1c2.8-4.6,7.6-7.7,13-8.5c0.8,0,1.7,0.2,2.4,0.6
					C-3220.6-3209.4-3220.4-3199.6-3223.3-3194.4L-3223.3-3194.4z"/>
			</g>
		</g>
	</g>
</g>
<g id="Group_287" transform="translate(-600.578 3144.16)">
	<g>
		<defs>
			<rect id="SVGID_1_" x="926.5" y="-3138.4" width="288.2" height="288.2"/>
		</defs>
		<clipPath id="SVGID_00000142863611622603293030000008769147211859063452_">
			<use xlink:href="#SVGID_1_"  style="overflow:visible;"/>
		</clipPath>
		
			<g id="Group_286" transform="translate(4269.08 222.84)" style="clip-path:url(#SVGID_00000142863611622603293030000008769147211859063452_);">
			<path id="Path_4132" class="st7" d="M-3086.8-3322l4.7,13.2c0.2,0.5,0.6,1,1.1,1.2l11.7,5.3c1.1,0.6,1.6,2,1,3.2
				c-0.2,0.4-0.6,0.7-1,1l-11.7,5.3c-0.5,0.2-0.9,0.7-1.1,1.2l-4.7,13.2c-0.3,1-1.3,1.6-2.3,1.3c-0.6-0.2-1.2-0.7-1.3-1.3l-4.7-13.2
				c-0.2-0.5-0.6-1-1.1-1.2l-11.7-5.3c-1.1-0.6-1.6-2-1-3.2c0.2-0.4,0.6-0.7,1-1l11.7-5.3c0.5-0.2,0.9-0.7,1.1-1.2l4.7-13.2
				c0.3-1,1.3-1.6,2.3-1.3C-3087.5-3323.1-3087-3322.6-3086.8-3322"/>
			<path id="Path_4133" class="st7" d="M-3262.1-3359.6l3.5,9.8c0.1,0.4,0.4,0.7,0.8,0.9l8.7,3.9c0.8,0.5,1.2,1.5,0.7,2.3
				c-0.2,0.3-0.4,0.6-0.7,0.7l-8.7,3.9c-0.4,0.2-0.7,0.5-0.8,0.9l-3.5,9.8c-0.2,0.8-1,1.2-1.7,1c-0.5-0.1-0.9-0.5-1-1l-3.5-9.8
				c-0.1-0.4-0.4-0.7-0.8-0.9l-8.7-3.9c-0.8-0.5-1.2-1.5-0.7-2.3c0.2-0.3,0.4-0.6,0.7-0.7l8.7-3.9c0.4-0.2,0.7-0.5,0.8-0.9l3.5-9.8
				c0.2-0.8,1-1.2,1.7-1C-3262.6-3360.5-3262.2-3360.1-3262.1-3359.6"/>
			<path id="Path_4134" class="st7" d="M-3120-3339.2c0,3.8-3.1,6.9-6.9,6.9c-3.8,0-6.9-3.1-6.9-6.9c0-3.8,3.1-6.9,6.9-6.9
				C-3123.1-3346.1-3120-3343-3120-3339.2C-3120-3339.2-3120-3339.2-3120-3339.2"/>
			<path id="Path_4135" class="st7" d="M-3308.1-3300.8c0,5.6-4.6,10.2-10.2,10.2s-10.2-4.6-10.2-10.2c0-5.6,4.6-10.2,10.2-10.2
				C-3312.7-3311-3308.1-3306.5-3308.1-3300.8C-3308.1-3300.8-3308.1-3300.8-3308.1-3300.8"/>
			<path id="Path_4136" class="st7" d="M-3203-3294.5c-58,0-105,47-105,105c0,58,47,105,105,105s105-47,105-105
				C-3098-3247.4-3145-3294.4-3203-3294.5 M-3203-3073.1c-64.3,0-116.3-52.1-116.3-116.4c0-64.3,52.1-116.3,116.4-116.3
				c64.2,0,116.3,52.1,116.3,116.3C-3086.7-3125.2-3138.8-3073.1-3203-3073.1"/>
			<path id="Path_4137" class="st7" d="M-3229.2-3215.5c-3.1,0-5.6-2.5-5.6-5.6c0,0,0,0,0,0c0-8.7-7-15.7-15.7-15.7
				c-8.7,0-15.7,7-15.7,15.7l0,0c0,3.1-2.5,5.7-5.7,5.7c-3.1,0-5.7-2.5-5.7-5.7c0-14.9,12.1-27,27-27c14.9,0,27,12.1,27,27
				C-3223.5-3218-3226.1-3215.5-3229.2-3215.5"/>
			<path id="Path_4138" class="st7" d="M-3134.1-3215.5c-3.1,0-5.6-2.5-5.6-5.6c0,0,0,0,0,0c0-8.7-7-15.7-15.7-15.7
				c-8.7,0-15.7,7-15.7,15.7c0,3.1-2.5,5.7-5.6,5.7s-5.7-2.5-5.7-5.6c0,0,0,0,0,0c0-14.9,12.1-27,27-27c14.9,0,27,12.1,27,27
				C-3128.5-3218-3131-3215.5-3134.1-3215.5"/>
			<path id="Path_4139" class="st7" d="M-3151.7-3140.5c-10.2-14.6-29.8-23.9-51.3-23.9c-21.5,0-41.1,9.4-51.3,23.9
				c-10.4-11.4-16.8-25.9-18-41.2h138.6C-3135-3166.3-3141.3-3151.8-3151.7-3140.5 M-3245.9-3132.7c7.7-12.4,24.3-20.4,42.9-20.4
				s35.2,8.1,42.9,20.4C-3185.3-3112.9-3220.7-3112.9-3245.9-3132.7 M-3127.8-3193h-150.3c-3.1,0-5.6,2.5-5.6,5.6
				c0,44.6,36.2,80.8,80.8,80.8s80.8-36.2,80.8-80.8C-3122.2-3190.5-3124.7-3193-3127.8-3193"/>
		</g>
	</g>
</g>
<g id="Image-5" transform="translate(4326.906 2946.623)">
	<g id="heart" transform="translate(54.662 -0.661)">
		<g id="Group_243" transform="translate(0 0)">
			<g id="Group_242">
				<path id="Path_4103" class="st8" d="M-4137.5-3771.7c-3-4.5-4.5-9.7-4.5-15.1v-0.1c0-3.8-0.2-7.6-0.7-11.3
					c-0.6-4.8-5-8.2-9.8-7.5c-1.7,0.2-3.3,0.9-4.5,2c-1.6,1.4-3.3,2.7-5,3.9c0.6-10.5-0.3-21.1-2.8-31.4c-0.6-2.3-3-3.7-5.3-3.1
					c-2.2,0.6-3.6,2.8-3.1,5.1c2.9,12.2,3.5,24.8,1.7,37.1c-0.3,2.4,1.3,4.5,3.7,4.9c0.9,0.1,1.9,0,2.7-0.5
					c4.8-2.7,9.4-5.9,13.7-9.5c0,0,0.1-0.1,0.1,0c0.1,0,0.1,0,0.1,0.1c0.4,3.4,0.7,6.8,0.7,10.2v0.1c0,7.1,2.1,13.9,6,19.8
					c7.7,11.7,11.8,25.3,11.7,39.3c0,17-7.1,36.3-19.9,54.4c-14.9,20.5-34.6,37.2-57.2,48.6c-3.1,1.6-6.4,3.1-9.6,4.6
					c-3.8,1.7-7.9,2.5-12,2.5c-4.1-0.1-8.2-1-11.9-2.7c-3.1-1.4-6.2-2.9-9.2-4.4c-22.7-11.4-42.3-28.1-57.2-48.6
					c-12.9-18.2-19.9-37.5-19.9-54.4c-0.1-17.7,6.5-34.7,18.4-47.8c2.8-3.1,4.4-7.2,4.3-11.3c-0.1-17.7,5.9-34.9,16.9-48.7
					c0-0.1,0.1-0.1,0.2,0c0,0,0,0,0,0c3.1,9.3,7.8,18,13.9,25.7c1.5,1.9,4.2,2.2,6,0.7c0.2-0.2,0.4-0.4,0.6-0.6
					c3.5-4.1,7.2-8,11.2-11.7c27-25.6,21.4-51.6,18.4-65.5c-0.6-2.4-1-4.9-1.3-7.3c23.9,0.2,49.4,20,62.2,48.1
					c1,2.2,3.6,3.1,5.7,2.1c2.1-1,3.1-3.5,2.1-5.6c-6.8-15.1-17.2-28.3-30.3-38.3c-12.6-9.5-26.7-14.7-39.9-14.8
					c-2.5-0.2-5,0.8-6.6,2.8c-2.8,3.5-1.8,8.3-0.3,15c3,14,7.5,35.1-15.9,57.4c-2.9,2.8-5.7,5.6-8.2,8.3c-4-5.9-7.2-12.2-9.4-18.9
					c-1.6-4.6-6.5-7-11.1-5.4c-1.6,0.5-3,1.5-4,2.8c-12.3,15.4-18.9,34.5-18.8,54.1c0,2-0.7,4-2.1,5.5
					c-13.3,14.7-20.7,33.8-20.6,53.6c0,18.7,7.6,39.8,21.5,59.4c15.7,21.7,36.4,39.3,60.3,51.3c3.1,1.6,6.4,3.2,9.7,4.6
					c4.8,2.2,10.1,3.3,15.4,3.4h0.3c5.3,0,10.5-1.1,15.3-3.2c3.4-1.5,6.8-3.1,10.1-4.8c23.9-12,44.6-29.6,60.3-51.3
					c13.9-19.6,21.5-40.7,21.5-59.4C-4124.3-3743.3-4128.9-3758.6-4137.5-3771.7L-4137.5-3771.7z"/>
				<path id="Path_4104" class="st8" d="M-4297.8-3754.5c-2.1-1.2-4.7-0.4-5.9,1.7c0,0,0,0,0,0c-4.3,7.7-6.5,16.3-6.5,25.1
					c0,15.3,8.5,34.5,22.8,51.3c1.6,1.8,4.3,1.9,6.1,0.4c1.7-1.5,1.9-4.1,0.5-5.9c-15.3-18-20.8-35.4-20.8-45.7
					c0-7.3,1.8-14.5,5.4-20.9C-4295-3750.7-4295.8-3753.4-4297.8-3754.5C-4297.9-3754.5-4297.9-3754.5-4297.8-3754.5L-4297.8-3754.5
					z"/>
				<path id="Path_4105" class="st8" d="M-4274-3668.5c-1.6,1.8-1.4,4.5,0.4,6.1c9.1,7.9,19.1,14.6,29.7,20.1
					c2.8,1.4,5.7,2.8,8.5,4.1c2.4,1,5.1,1,7.4,0c2.9-1.3,5.8-2.6,8.5-4.1c19.9-9.9,37-24.4,50.1-42.4c10.3-14.6,16.3-30.2,16.3-42.9
					c0-27.3-20.9-49.4-46.6-49.4c-12,0.1-23.6,4.9-32,13.5c-8.4-8.6-20-13.4-32-13.5c-9.5,0-18.7,3-26.4,8.7c-1.9,1.4-2.3,4.1-0.8,6
					c1.4,1.9,4,2.3,5.9,0.9c6.2-4.5,13.6-7,21.3-7c11.2,0.1,21.7,5.3,28.7,14c1.5,1.8,4.2,2.1,6.1,0.6c0.2-0.2,0.4-0.4,0.6-0.6
					c6.9-8.8,17.5-13.9,28.7-14c20.9,0,38,18.3,38,40.8c0,10.8-5.5,24.9-14.7,37.9c-12.2,16.8-28.4,30.4-47,39.7
					c-2.6,1.4-5.3,2.6-8.1,3.9c-0.2,0.1-0.3,0.1-0.5,0c-2.7-1.2-5.5-2.5-8.1-3.9c-10.1-5.1-19.5-11.5-28-18.9
					C-4269.7-3670.5-4272.4-3670.3-4274-3668.5L-4274-3668.5z"/>
				<path id="Path_4109" class="st8" d="M-4132.8-3819.2c4,0,7.2-3.2,7.2-7.2v-10.4c0-11.8-9.6-21.4-21.5-21.5c-4,0-7.2,3.2-7.2,7.2
					v10.4C-4154.2-3828.8-4144.6-3819.2-4132.8-3819.2z M-4145.6-3849.6c6.5,0.7,11.4,6.2,11.4,12.8v8.9
					c-6.5-0.7-11.4-6.2-11.4-12.8V-3849.6z"/>
				<path id="Path_4110" class="st8" d="M-4327-3830.4c11.8,0,21.4-9.6,21.5-21.5v-10.4c0-4-3.2-7.2-7.2-7.2
					c-11.8,0-21.5,9.6-21.5,21.5v10.4C-4334.2-3833.6-4331-3830.4-4327-3830.4z M-4325.6-3848c0-6.5,4.9-12,11.4-12.8v8.9
					c0,6.5-4.9,12-11.4,12.8V-3848z"/>
				<path id="Path_4111" class="st8" d="M-4265.2-3863.2c4,0,7.2-3.2,7.2-7.2v-10.4c0-11.8-9.6-21.4-21.5-21.4c-4,0-7.2,3.2-7.2,7.2
					v10.4C-4286.6-3872.8-4277-3863.2-4265.2-3863.2z M-4278-3893.6c6.5,0.7,11.4,6.2,11.4,12.8v8.9c-6.5-0.7-11.4-6.2-11.4-12.8
					V-3893.6z"/>
			</g>
		</g>
	</g>
</g>
<g id="Image-4" transform="translate(4087.731 2966.422)">
	<g id="sea" transform="translate(-0.348 1.368)">
		<path id="Path_4099" class="st9" d="M-3584.7-3671.7c-18.5,0-27.8-10.7-36-20.1c-7.5-8.6-13.4-15.4-25.7-15.4s-18.2,6.8-25.7,15.4
			c-8.2,9.4-17.5,20.1-36,20.1c-18.4,0-27.7-10.6-35.9-20c-4.6-5.2-8.9-10.2-14.6-12.9c-3.4-1.6-4.8-5.7-3.2-9
			c1.6-3.4,5.7-4.8,9-3.2c8.2,3.9,13.7,10.2,19,16.3c7.5,8.6,13.4,15.3,25.6,15.3c12.3,0,18.2-6.8,25.7-15.4
			c8.2-9.4,17.5-20.1,36-20.1s27.8,10.7,36,20.1c7.5,8.6,13.4,15.4,25.7,15.4s18.2-6.8,25.7-15.4c8.2-9.4,17.5-20.1,36-20.1
			c18.4,0,27.7,10.6,35.8,19.9c3.4,4.3,7.4,8.1,11.8,11.3c3.1,2.1,4,6.3,1.9,9.4c-2,3.1-6.2,4-9.3,2c-5.5-3.9-10.5-8.5-14.7-13.8
			c-7.5-8.5-13.4-15.3-25.6-15.3c-12.3,0-18.2,6.8-25.7,15.4C-3557-3682.4-3566.2-3671.7-3584.7-3671.7z"/>
		<path id="Path_4100" class="st9" d="M-3584.7-3724.9c-18.5,0-27.8-10.7-36-20.1c-7.5-8.6-13.4-15.4-25.7-15.4s-18.2,6.8-25.7,15.4
			c-8.2,9.4-17.5,20.1-36,20.1c-18.4,0-27.7-10.6-35.9-20c-4.6-5.2-8.9-10.2-14.6-12.9c-3.4-1.6-4.8-5.7-3.2-9s5.7-4.8,9-3.2l0,0
			c8.2,3.9,13.7,10.2,19,16.3c7.5,8.6,13.4,15.3,25.6,15.3c12.3,0,18.2-6.8,25.7-15.4c8.2-9.4,17.5-20.1,36-20.1s27.8,10.7,36,20.1
			c7.5,8.6,13.4,15.4,25.7,15.4s18.2-6.8,25.7-15.4c8.2-9.4,17.5-20.1,36-20.1c18.4,0,27.7,10.6,35.8,19.9
			c3.4,4.3,7.4,8.1,11.8,11.3c3.1,2.1,4,6.3,1.9,9.4c-2,3.1-6.2,4-9.3,2c-5.5-3.9-10.5-8.5-14.7-13.8c-7.5-8.5-13.4-15.3-25.6-15.3
			c-12.3,0-18.2,6.8-25.7,15.4C-3557-3735.6-3566.2-3724.9-3584.7-3724.9z"/>
		<path id="Path_4101" class="st9" d="M-3584.7-3781.6c-18.5,0-27.8-10.7-36-20.1c-7.5-8.6-13.4-15.4-25.7-15.4s-18.2,6.8-25.7,15.4
			c-8.2,9.4-17.5,20.1-36,20.1c-18.4,0-27.7-10.6-35.9-20c-4.6-5.2-8.9-10.2-14.6-12.9c-3.4-1.6-4.8-5.7-3.2-9s5.7-4.8,9-3.2
			c8.2,3.9,13.7,10.2,19,16.3c7.5,8.6,13.4,15.3,25.6,15.3c12.3,0,18.2-6.8,25.7-15.4c8.2-9.4,17.5-20.1,36-20.1s27.8,10.7,36,20.1
			c7.5,8.6,13.4,15.4,25.7,15.4s18.2-6.8,25.7-15.4c8.2-9.4,17.5-20.1,36-20.1c18.4,0,27.7,10.6,35.8,19.9
			c3.4,4.3,7.4,8.1,11.8,11.3c3.1,2.1,4,6.3,1.9,9.4c-2,3.1-6.2,4-9.3,2c-5.5-3.9-10.5-8.5-14.7-13.8c-7.5-8.5-13.4-15.3-25.6-15.3
			c-12.3,0-18.2,6.8-25.7,15.4C-3557-3792.3-3566.2-3781.6-3584.7-3781.6z"/>
		<path id="Path_4102" class="st9" d="M-3584.7-3834.8c-18.5,0-27.8-10.7-36-20.1c-7.5-8.6-13.4-15.4-25.7-15.4s-18.2,6.8-25.7,15.4
			c-8.2,9.4-17.5,20.1-36,20.1c-18.4,0-27.7-10.6-35.9-20c-4.6-5.2-8.9-10.2-14.6-12.9c-3.4-1.6-4.8-5.7-3.2-9s5.7-4.8,9-3.2
			c8.2,3.9,13.7,10.2,19,16.3c7.5,8.6,13.4,15.3,25.6,15.3c12.3,0,18.2-6.8,25.7-15.4c8.2-9.4,17.5-20.1,36-20.1s27.8,10.7,36,20.1
			c7.5,8.6,13.4,15.4,25.7,15.4s18.2-6.8,25.7-15.4c8.2-9.4,17.5-20.1,36-20.1c18.4,0,27.7,10.6,35.8,19.9
			c3.4,4.3,7.4,8.1,11.8,11.3c3.1,2.1,4,6.3,1.9,9.4c-2,3.1-6.2,4-9.3,2c-5.5-3.9-10.5-8.5-14.7-13.8c-7.5-8.5-13.4-15.3-25.6-15.3
			c-12.3,0-18.2,6.8-25.7,15.4C-3557-3845.5-3566.2-3834.8-3584.7-3834.8z"/>
	</g>
</g>
<g id="Group_289" transform="translate(-433.537 3143.921)">
	<g>
		<defs>
			<rect id="SVGID_00000021098246329871651850000008085982514764071307_" x="436.1" y="-4420.8" width="294.8" height="294.8"/>
		</defs>
		<clipPath id="SVGID_00000178195752718796628640000001305934725397580990_">
			<use xlink:href="#SVGID_00000021098246329871651850000008085982514764071307_"  style="overflow:visible;"/>
		</clipPath>
		
			<g id="Group_288" transform="translate(4381.04 223.08)" style="clip-path:url(#SVGID_00000178195752718796628640000001305934725397580990_);">
			<path id="Path_4140" class="st4" d="M-3817-4526.2c10.4,7.2,23.8,8.2,35.1,2.6l33.9,39.3l-45.1,0.8l-31.3-36.3L-3817-4526.2z
				 M-3867.6-4505.4l-0.8-45.1l36.3-31.3l6.4,7.4c-7.2,10.4-8.1,23.8-2.6,35.1l-20.5,17.7L-3867.6-4505.4z M-3801.5-4625.8
				l31.3,36.3l-7.4,6.4c-10.4-7.2-23.8-8.1-35.1-2.6l-33.9-39.3L-3801.5-4625.8z M-3726.9-4604l0.8,45.1l-36.3,31.3l-6.4-7.4
				c7.2-10.4,8.2-23.8,2.6-35.1l20.5-17.7L-3726.9-4604z M-3808.6-4567.8c7.1-6.4,18.1-5.8,24.5,1.3c6.4,7.1,5.8,18.1-1.3,24.5
				c-0.2,0.1-0.3,0.3-0.5,0.4l0,0c-7.1,6.4-18.1,5.8-24.5-1.3c-6.4-7.1-5.8-18.1,1.3-24.5
				C-3808.9-4567.5-3808.7-4567.6-3808.6-4567.8 M-3751.1-4514.5l42.4-36.6l-1.6-90.2l-46.8,40.4l-36.6-42.4l-90.2,1.6l40.4,46.8
				l-42.4,36.6l1.6,90.2l46.8-40.4l31.8,36.9l-0.3,122.5l17.3,0l0.3-117.2l77.6-1.4L-3751.1-4514.5z"/>
			<path id="Path_4141" class="st11" d="M-3817-4526.2c10.4,7.2,23.8,8.2,35.1,2.6l33.9,39.3l-45.1,0.8l-31.3-36.3L-3817-4526.2z
				 M-3867.6-4505.4l-0.8-45.1l36.3-31.3l6.4,7.4c-7.2,10.4-8.1,23.8-2.6,35.1l-20.5,17.7L-3867.6-4505.4z M-3801.5-4625.8
				l31.3,36.3l-7.4,6.4c-10.4-7.2-23.8-8.1-35.1-2.6l-33.9-39.3L-3801.5-4625.8z M-3726.9-4604l0.8,45.1l-36.3,31.3l-6.4-7.4
				c7.2-10.4,8.2-23.8,2.6-35.1l20.5-17.7L-3726.9-4604z M-3808.6-4567.8c7.3-6.1,18.3-5.2,24.4,2.2c6,7.2,5.2,17.8-1.8,24l0,0
				c-7.1,6.4-18.1,5.7-24.5-1.4c-6.4-7.1-5.7-18.1,1.4-24.5C-3808.9-4567.5-3808.7-4567.7-3808.6-4567.8z M-3751.1-4514.5l42.4-36.6
				l-1.6-90.2l-46.8,40.4l-36.6-42.4l-90.2,1.6l40.4,46.8l-42.4,36.6l1.6,90.2l46.8-40.4l31.9,36.9l-0.3,122.5l17.3,0l0.3-117.2
				l77.6-1.4L-3751.1-4514.5z"/>
		</g>
	</g>
</g>
<g id="Group_207" transform="translate(3044.963 3734.533)">
	<g>
		<defs>
			<rect id="SVGID_00000021085487745709647080000014053481940553955458_" x="-3055.1" y="-2971.5" width="579.3" height="241"/>
		</defs>
		<clipPath id="SVGID_00000117669986835128943830000001400140772885319854_">
			<use xlink:href="#SVGID_00000021085487745709647080000014053481940553955458_"  style="overflow:visible;"/>
		</clipPath>
		
			<g id="Group_206" transform="translate(272.04 140.76)" style="clip-path:url(#SVGID_00000117669986835128943830000001400140772885319854_);">
			<path id="Path_4059" class="st4" d="M-3144.6-3061.6l-1,1c1.8,4.6,0.3,9.5,1,14.3c-1.8,2.1-3.5,4.1-5.4,6.2
				c-1.9,2.7,0.3,5.2,0.6,7.9c0,0.8,1.3,1.9,2.2,2.2c2.1,0.8,2.5,2.1,2.4,4.3c1.8,1.4,3.5,3,5.6,4.8c0.6,3,1.3,6.5,2.4,9.8
				c0.6,2.2,0.6,4-1,6.2c3.2,2.5,4,6.2,3.8,10c0,1.7,0.3,3.6-0.2,5.2c-0.5,1.4,1.9,2.2,0.3,4c-1,1.1-0.3,3.3-0.3,5.1
				c0,1.1,0.5,2.1,0.8,3.3c-0.8,0.5-1.9,1.1-3,1.7v4c3.7,2.9,3.3,8.4,6.4,12c2.7,0.3,5.6,0.8,8.1,1.1c1.1,1.7,2.1,3.2,3.3,4.9
				c-0.9,0.8-1.9,1.6-2.9,2.2c-8.9,5.5-18,11.1-26.9,16.8c-4.1,2.7-8.3,5.7-11.5,9.7c-1.8,2.2-4.3,2.4-6.5,3.2
				c-2.9,0.9-6,0.8-8.9,1.4c-1.3,0.2-2.4,0.8-4.1,1.4v-6.2c-3.5-1.4-6.7-2.7-10.8-4.3c-1-1.1-3.2-2.4-4-4.9c-0.5-1.1-1.4-2-2.5-2.5
				c-5.4-2.5-9.6-6.7-14.3-9.7c-5.7-3.6-11-7.8-16.6-11.6c-11.5-7.8-22.9-15.7-34.2-23.5c-1-0.6-1.9-1-3-1.6v-10.3
				c3.2-2.2,6.4-4.9,9.9-7.1c0.8-0.5,2.4,0.2,4.1,0.5c0.2-0.2,0.4-0.5,0.6-0.8c4-1.4,6.8-2.5,9.7-3.5c1.1-2.9,2.4-4.9,5.9-4.8
				c1.1-2.9,5.1-1.4,6.4-4.1l-2.1-2.1c1.1-2.5,3.2-3.3,5.6-3.5c0.2-0.8,0.3-1.4,0.5-2.1h12.4c0.6-1.7,1.1-3.3,1.8-5.2
				c-2.5-1.6-3.7-4.4-4.6-7.3c0.2-0.2,0.6-0.6,0.6-0.8c-0.6-4.6-1.1-8.7-1.8-13.5c2.9-1.9,6.4-4.1,9.7-6.3c0.3,0.3,0.6,0.6,0.8,0.9
				c2.7,0.2,3.3-2.5,5.4-3.5c2.1-0.8,4-2.1,6-3.3h9.2c0.7-0.7,1.4-1.4,2.1-2.2c2.4-0.8,5.1,0.5,7.8-1.3c1.4-0.9,4-0.3,6,1
				c4.3,2.7,7.8,0.5,11.5-1.9c2.2,0.8,4.6,1.7,7,0C-3148.4-3063.3-3146.5-3062.4-3144.6-3061.6"/>
			<path id="Path_4060" class="st4" d="M-2863.8-2905.4c-9.9-0.8-18.3-1.6-27.4-2.4c-0.8,1.6-1.9,4-2.9,6c-1.8-2.4-4-5.1-6-7.8
				c-1-1.3-2-2.7-2.9-4.1c-1.6-2.9-2.9-5.9-4.3-8.9c-0.9-2.3-2.7-4.1-4.9-5.1c-4.9-2.2-5.7-4.6-7.6-10.3c-1-2.7-0.3-4.6,0.5-6.8
				c-3.2-4.6-4-10.6-9.1-14.1c-1.3-0.3-2.5-0.8-3.8-1.1c-0.5-2.1-1-3.6-1.4-5.2c-0.5-1.4-0.8-2.9-1.8-4c-4.9-6.3-8.8-13.3-13.1-20.3
				c-1-0.2-2.1-0.3-3.2-0.5c1.8-2.4,0.5-5.1,1.3-8.1c1.3,0.5,2.5,1.1,4,1.3c1.6,0.2,3.2,0,4.9,0c1.4-1.9,2.9-4,4.3-5.9h3.7
				c1.8-1.9,3.5-3.6,5.6-5.7c-1.9-2.5-4-5.2-6.2-8.2c6.7-0.8,12.7-4.8,19.7-3.8c3.7,2.7,8.3,4.1,12.1,6.8c2.7,1.9,4.9,4.6,8,6.2
				c3.7,2.1,6.5,5.4,9.7,8.2c1.6,1.4,3.5,1.9,5.6,2.4c5.7,1.4,11.5,0.9,17.2,1.1c0.6,1.4,1.3,2.9,2.1,4.4h5.1
				c0.5,0.6,1.3,1.1,1.4,1.9c0.6,3.5,3.3,5.4,5.6,7.8c2.1,2.2,4,4.6,5.9,6.8c-0.6,0.9-1,1.4-1.4,2.1c2.9,5.4,4.6,11.9,11.1,14.9
				c2.2,3.3,4.5,6.8,7.2,10.6c5.9,0.8,12.3,1.7,19.6,2.9c0.2,0.3,1,1.4,1.8,2.7c1.3,5.1-3.2,9.5-2.9,15.2c-6.7,2.4-13.5,4.6-20.2,7
				c-0.5,0.2-1,0.6-1.6,0.6c-3.8,0.5-7.8,0.3-11.3,1.3c-4.1,1.1-8.4,0.8-12.6,2.9c-4.5,2.1-6.7,5.5-9.2,9.2c-0.5,0.6-1,1.3-1.9,2.4
				C-2863.5-2904.4-2863.8-2905.7-2863.8-2905.4"/>
			<path id="Path_4061" class="st4" d="M-2764.8-3004.6c0,0.6-0.3,1.3,0,1.7c2.9,4,5.7,7.9,8.3,11.7c3.7,0.6,3.7,0.6,5.9,4.3v5.9
				c0.8,0.3,1.6,0.8,2.4,1.1v1.4c-1.6,0.3-3.3,0.5-4.8,1.1c-1.4,0.6-2.9,1.9-4.5,3c-0.6,2.4-1.3,5.1-2.1,8.2
				c-4.8-2.5-10-2.7-15.4-2.5c-1.8,0-3.7-0.9-5.4-1.1s-3.3-0.2-4.9-1.1c-0.8-0.5-1.9,0-3,0c-1-3.3-1.9-6.7-2.9-10
				c-4-3-7.5-1.6-11.3,0.5c-2.5,1.4-5.3,3.8-8.8,1.3c-1-0.6-2.7-0.2-3.7-0.2c-2.4-1.4-4.5-2.7-6.8-4.1c-1.1-4.1-5.7-3.8-9.9-6.5
				c-1.4-2.9-3.3-7-5.4-11.1c0.2,0,0.2,0,0.3-0.2c-1.8-2.2-3.5-4.4-5.4-7l-2.4,1.4c-2.4,0.2-2.4-2.1-3.2-3.5h-2.4
				c-0.8,1.1-1.6,2.4-2.4,3.6c-1-1-1.9-1.9-3-3v-3.8c-1-0.3-1.4-0.3-2.5-0.6c0.3-1.7,0.5-3.5,1-6.5c-0.8-1.3-2.2-3.6-3.7-6.2
				c-0.7,0-1.5,0-2.2-0.2c-1.4-1.3-3-2.5-5.1-4.1c-1.4-2.1-3.2-4.8-5.3-7.8v-4.1c1.6-2.1,3.2-4.3,4.8-6.3l-1.4-2.4l1.4-2.4
				c-0.2-0.5-0.3-0.9-0.6-1.1c-6.5-1.1-7.3-7.1-10-11.6c2.4-2.4-1.3-2.7-1.6-4.4c-0.5-4.8-2.5-9.3-2.2-13.9c0.8-1.4,1.3-2.4,1.9-3.6
				c1,1.6,1.8,3.2,2.9,4.3s2.7,1.9,4.5,3h6.5c3.2-2.4,6.4-4.8,9.7-7c2.4,2.7-1,4.9-0.5,7.1c2.5,2.1,4.8,4.1,7.2,6.2
				c0,1.4,0.2,2.7,0.2,4c1.9,2.2,4.8,3.2,7.6,2.9c1.3,1.3,2.5,2.2,3.5,3.5c2.5,3.6,7,3.3,10.5,4.6c1.3,0.5,3.3-0.5,4.8-1.1
				c3.5-1.6,7.2-1.1,11-1.1c0.5-1,1.1-2.1,1.6-3.2c-0.3-0.3-0.6-0.6-1.3-1.3c5.4,0.3,7-4.4,10.7-7.4c1.6,0,4.1,0.8,5.7-0.2
				c2.2-1.3,4.1-0.6,5.9-0.9c0.8,1.3,1.4,2.4,2.1,3.5h4c0.6,0.8,1.3,1.9,1.6,2.4h5.9c1.8,1.7,3,3.3,4.6,4.8c1.4,1.3,3,2.2,4.9,3.6
				h4.9c0,2.7,0.2,5.4,0,8.1c-0.2,2.7-0.6,5.4-1.1,8.1c-0.7,0.1-1.4,0.4-2.1,0.6c-0.6,3.6-3.2,7.3-0.5,11.3
				c-2.5,1.9-0.2,3.6,0.2,5.5c0.6,3.6,1.1,7.4,1.6,11.1c2.2,0.6,4.6,1.3,6.8,1.9C-2758.4-3009.8-2762.1-3007.6-2764.8-3004.6"/>
			<path id="Path_4062" class="st4" d="M-3132-3000c-0.6-1.3-1.4-2.7-2.2-4.1c2.2-2.2,4.3-4.3,6.4-6.3c-0.5-2.2-1-4-1.4-6
				c2.4-3.8,6.5-5.9,10.5-7.9c-0.5-1.9-0.8-3.6-1.4-6c2.9,1.4,5.1,2.5,7.3,3.8c2.1-0.3,4-1.1,6-1.1c1.8,0,3.5,0.9,6,1.7l1.8,1.7h3.2
				c2.9,1.4,1.9,3.6,2.2,5.4c1.1,1.1,2.1,2.5,3.3,3.3c1.6,1,3,2.1,5.1,2.1c5.4,0,10.2,2.1,14.3,5.5c1.4,1.1,2.9,2,4.5,2.9
				c3.8-0.3,6-2.7,7.8-5.1c1.1-1.6,2.9-3.5,1-6c-0.8-1.3-0.5-3.3-0.5-4.9c1.9-1.9,3.5-3.5,5.4-5.4c1,0,2.2,0.3,3.2,0
				c7.8-2.1,8.8-1.7,13.2,4.4c4.1,1,8.4,1.1,12.9,2.4c-1,1.7-1.6,3-2.2,4.4c1.4,1.7,1.4,4.1,0.5,6.2c-1.3,3-1.1,5.9-0.2,8.9
				c0.5,1.4,0.5,3,0.5,4.6v68.3c-1.9,0.2-3.7,0.2-5.7,0.3c-0.6,1.1-1.3,2.2-1.8,3.2c-8.9-4.6-18-9.2-26.9-13.9c-4-2.1-8-4-11.6-6.3
				c-3.8-2.4-8.3-3.5-11.6-6.5c-1.6-1.4-4-1.7-6.2-2.9c-4,2.1-8.1,4.1-12.6,6.3l-3.5-3.5c-4.1-1.1-7.8-2.1-11.6-3
				c-1-1.9-2.2-4-3.5-6.3c-2.7-0.6-5.3-1.3-8.4-2.1c-1.8-3.5-3.8-7.4-6-11.7c1.3-1.3,2.5-2.5,4-4c-1.8-2.9-2.2-5.7-0.2-8.6
				C-3133.1-2990.7-3130.9-2995.4-3132-3000"/>
			<path id="Path_4063" class="st4" d="M-2993.5-3009.8c5.4-3.2,12.9-5.9,16.9-6c1.8,1.1,3.5,2.4,5.3,3.5c2.4,0,5.1,0.2,7.6,0
				c2.2-0.2,4.5-0.8,6.7-1.3c2.1,3.3,1.9,7.4,4,10.8c0.5,0.8-0.2,2.2-0.3,3.3c-0.8,3.5-1.6,6.8-2.4,10.6h-2.1
				c-1.6-1.7-3.2-3.5-4.6-5.1c1.1-2.9-1.9-4-2.7-6c-0.8-1.7-0.2-4.9-3.8-5.4c-0.6,1.4-1.3,3.2-2.1,4.9c1.6,1.6,3.2,2.9,3,5.2
				c0,0.5,0.6,0.9,1,1.3c4.9,6.5,7.2,14.4,10.7,21.6c1.9,4,4,7.8,6,11.7c0.5,0.9,1.3,1.9,2.4,3.5c-0.2,2.2,0.3,5.1,1.1,8.1
				c1,3.3,4.3,3.5,6.5,6.3c-6.5,0-12.6,0.2-18.6,0c-6-0.2-12.1,1-18.3-1c-0.2,0.5-0.3,1.1-0.6,1.9c-14.3,1.7-28.8-1.6-43.6-0.8
				c0-1.6-0.2-3-0.2-4.6v-49.6c0-1.9,0.5-3.6-0.8-5.5c-0.8-0.9-1-3.5-0.2-4.4c1.9-2.7,0.5-5.7,1.3-8.7c1.6-0.5,3.8-1.9,5.4-1.4
				c2.2,0.8,4.8,0.3,6.7,1.1c4.1,1.7,8.3,2.9,12.6,4C-2995.9-3011.6-2995-3010.6-2993.5-3009.8"/>
			<path id="Path_4064" class="st4" d="M-2882.9-3067.8c-0.6-0.4-1.2-0.9-1.8-1.4c-1.8,0.2-3.5,2.9-5.6,0.3
				c-2.4,0.2-4.8,0.3-7.8,0.6c0.2,0-0.3-0.3-1-0.8c-0.7,0.7-1.3,1.4-1.9,2.2h-9.2c-2.7,1.4-4.6,2.4-7,3.6c-3.3,0.2-7.2,0.8-10.3-2.2
				c-3,1.9-3,1.9-12.3,1.4c-0.2,1.1-0.3,2.2-0.6,4c-0.8-2.1-1.3-3.5-2.1-5.5c-2.2,1.4-4,2.5-5.7,3.6c-1.8-1-3.6-2-5.4-2.9
				c-3.3,5.9-8.9,6.8-14.3,7.9c-1.1-1.6-2.1-3.5-3.3-4.6c-1.4-1.1-3.3-1.6-5.3-2.5h-7.3c0,1.4-0.2,2.9-0.2,4.1
				c-1.4,0.6-2.7,1.3-4.3,1.9c-0.6-0.4-1.2-0.8-1.9-1.1c-0.6-0.3-1.4-0.5-2.1-0.8v-2.9c-1.4-0.2-2.9-0.3-4.6-0.5
				c-0.6-1-1.3-2.1-2.1-3.5c-1,0.5-1.9,1-3.2,1.6c-0.3-0.8-0.6-1.5-1.1-2.2c-0.6-0.8-1.4-1.4-2.2-2.4v-4.9c-1.1-0.2-2.1-0.2-3.5-0.3
				c1.4-1,2.5-1.9,3.8-2.9c-1-0.5-1.8-0.6-2.7-1.1c0.3-0.8,0.8-1.6,1.1-2.5c-0.6-1.3-1.4-2.7-2.2-4c0.5-1.1,1-2.1,1.8-3.6h-6.5
				c0.3-3.3,3-4.1,4.3-6c2.4,0.5,4.8,1.7,6.4,1.1c3.5-1.4,6.8-0.6,10.5-1.1c0.2-0.5,0.5-1.3,0.6-1.9c1.9-0.5,3.8-1.1,5.9-1.6v-1.1
				c-2.1-0.6-4-1.3-6-1.9v-0.5c2.5,0,5.1-0.3,7.5,0.2s4.8,1.4,7.6,1c3.7-4.8,9.1-7.1,15-9c1.1-0.3,2.2-0.2,3.2,0.3
				c2.7,1,5.3,1,7.8-0.3c0.6,1,1.4,2.1,2.2,3.2h4.9c0.6,1.1,1.3,2.2,2.1,3.5h5.1c2.2,2.2,5.1,2.1,7.5,2.9c2.5,0.8,4.5,1.1,7-0.2
				c1.8-0.8,4.5-0.6,6.7,0.5c1.1,0.6,3,0.5,4.3-0.2c2.7-1.1,5.3-2.5,8.4-4.1c2.2-0.5,5.3,1.1,7.6-0.8l6.8,6.8
				c-0.3,0.6-0.8,1.3-1.3,2.1c0.5,1.6,1,3.2,1.6,4.9c1.8,0.2,3.7,0.2,5.6,0.3c0.2,2.9-2.1,3.2-3.8,3.8c0.5,2.1,1.1,4,1.4,5.7
				c0.3,1.7,0.5,3.6,0.8,6.3c-0.2,0.5-0.6,1.7-1.3,3.3c1,0.3,1.8,0.5,2.5,0.8C-2882.9-3070.1-2882.9-3068.9-2882.9-3067.8"/>
			<path id="Path_4065" class="st4" d="M-3241.7-2965h-10.5c0.8,4.6-1.1,8.9,1.3,13.2c0.2,0.2,0,0.3,0,0.6
				c0.3,5.9,0.8,11.9,1.3,17.7c0.2,2.4,0.8,4.8,1.1,7.1c0.3,2.4-0.8,5.1,1.3,7.1c0.2,0.2,0,0.3,0,0.6c0.5,6.3,1,12.7,1.4,19.5
				c0.5,0.5,1.4,1.1,2.2,1.7v2.7l-1.8,1.7h-8.8c-2.7,0-5.6,0.2-8.3,0c-2.9-0.2-5.9,0.8-8.8-1.4c-1,0.8-1.9,1.7-3,2.7
				c-1.4-0.3-3.2-0.6-5.6-1.1c-0.5,0.2-1.8,0.6-3.2,1.1c-1.3-1.1-2.2-1.9-3.2-2.9c-2.4,1.4-4.1,3-3.8,6.5c-1.9-0.8-4-1.1-4.6-2.2
				c-1.6-2.5-4.6-4-5.1-7.4c-1,0-1.8-0.2-2.7-0.2c-1.1-1.1-2.2-2.2-3.8-3.8c-4,0.3-8.4,0.8-13.2,1.3c-0.2-0.2-0.6-0.8-1.3-1.4
				c0.6-1.1,1.3-2.4,2.1-4v-6c0-2.1,0-4-1-6c-0.8-1.5-1-3.3-0.3-4.9c1.1-2.9-0.6-5.9-1.3-8.6c-1.1-0.7-2.2-1.4-3.3-2.1l0.3-0.6h26.3
				c0.8-0.8,1.3-1.3,1.6-1.6c-1.6-4.1-0.5-8.2-0.8-12.2c2.7-1.4,5.4-2.7,8.3-4.1v-18.9h23.9v-9
				C-3257.1-2974.8-3249.8-2970.2-3241.7-2965"/>
			<path id="Path_4066" class="st4" d="M-2921.7-3032.5c4.8-2.9,9.6-5.4,14-8.2c1.4-0.9,2.4-2.7,3.3-3.6c0.8-3.2-1-6.2,1.3-8.7
				c-0.5-2.1-1-4-1.4-6.3h3c2.5-2.5,4.9-4.9,7.3-7.6c2.7,0.5,5.6,1.1,8.6,1.7c0.4,0.8,0.8,1.6,1.1,2.4c1.2-0.5,2.4-1.1,3.5-1.7
				c1.8,5.1,4,10,8.9,12.2c0.8,4.8-2.9,7.1-4.8,10.5c0.4,0.6,0.8,1.1,1.1,1.7c-0.3,0.5-0.8,1.1-1.1,1.6c1.3,3.2,4.9,5.1,4.9,8.9
				c0,0.6,1.3,1.9,1.9,1.9c3.8,0.2,5.6,3.6,8.4,5.4c1.1,0.6,1.8,2.4,2.5,3.6c-2.1,1.6-0.8,4-1,5.1c1.3,2.7,2.4,4.8,3.5,7.1h-6.5
				c-1.6,3-3,5.7-4.6,8.9c-4-0.5-7.8-1-11.5-1.6c-1.3-0.2-2.5-0.7-3.5-1.6c-3-2.4-5.9-4.9-8.8-7.4c-5.7-4.9-11.6-9.5-18.6-12.5
				c-2.5-1.1-5.3-1.7-8.1-2.5C-2920-3025.7-2920.9-3028.8-2921.7-3032.5"/>
			<path id="Path_4067" class="st4" d="M-3244.5-3054l6.2,6.2c3,0,6-0.2,9.2,0c3,0.2,5.9,0.8,9.1,1.3c0.8,1.3,1.6,2.5,2.5,4.1
				c0,1.3,0.3,3.2,0,4.8c-0.3,1.7,1.8,3,0.3,5.1c-0.5,0.8,0.6,3.2,1.6,4.4c1,1.4,2.5,2.4,1.6,4.8h-11c-0.4,0.8-0.7,1.6-1,2.4
				c-1.8,0.5-4,1.3-6.5,2.1v5.7c-4,2.5-8.9,2.9-10.3,7.9c-4.1,0.8-8.3,1.4-12.6,2.5c-1.4,0.3-2.5,1.4-3.8,2.4
				c-2.9,1.9-5.6,4-8.3,5.9v8.1h-28.5v-0.8c1.8-0.2,3.5-0.3,5.4-0.3c10.3-6.2,12.9-8.9,18.3-17.3c-0.5-4.1-1.1-8.4-1.6-12.5
				c1.4-1.3,2.5-2.4,3.8-3.5v-3.2c0.8-2.4,3.5-2.9,3.8-5.4c0-0.6,1.3-1.4,2.1-1.7c1-0.5,2.1-0.8,3-1.3c8.8-4.3,10.5-6.5,13.8-16.3
				C-3246.5-3050.6-3245.6-3052.4-3244.5-3054"/>
			<path id="Path_4068" class="st4" d="M-2890.7-2903.2c0.3-0.8,1-1.7,1.4-2.7c2.1,2.2,4.8,0.8,7.2,1.1c2.7,0.3,5.3,0.2,8,1.1
				c2.2,0.8,5.1,0.2,7.5,0.2c1.4,1.1,2.2,3.3,5.4,1.7c1-1.3,3-3.2,4.1-5.4c2.1-4.6,6.5-5.5,10.2-6.7c3.5-1,7.3-1.9,11.3-1.6
				c2.4,0.2,4.8-0.8,7-1.3c2.4,5.5,4.6,10.8,7,16.3c-1.4,0.2-2.4,0.3-4,0.6c-0.8,1.9-1.9,4-3,6.7c-4.8,2.3-9.8,4-15,5.1
				c-3,0.6-5.7,3.3-9.7,5.7h-3.5c-9.7,5.7-9.2,4.9-15.8,4.8c-1.9,1.4-3.8,2.9-5.9,4.4c-1.9,0.5-4,1-6.5,1.6l-5.1-2.5
				c1.1-5.2-1.1-10-2.5-14.4c-0.8-2.9-1.3-4.9,0-7.3c0-0.2-0.5-0.5-0.6-0.6c1.3-1.1,2.4-2.4,3.7-3.5
				C-2889.8-2901-2890.2-2902.1-2890.7-2903.2"/>
			<path id="Path_4069" class="st4" d="M-2797.9-2956.4c-0.5-1.6-1-2.9-1.6-4.8c1.1-0.2,2.1-0.3,3.2-0.3c1.1,3.3,4,4.9,5.6,6.8
				c4,1.1,7.6,2.1,10.2,2.7c3.7,2.9,4.3,7.4,8.4,8.7c-1.3,2.2-2.7,4.4-4,6.5c-3.5,0.3-3,3.8-4.6,5.9c-1.3,0-2.5,0.2-3.8,0.2
				c-2.1,3.6-3.7,7.1-2.9,10.8c-2.4,1.3-4.5,2.4-6.7,3.3c-2.5,1.1-0.6,4.8-4.5,5.9h-3.2c-3.7,1.3-2.9,5.1-5.1,7
				c-2.1-0.8-3.8-1.7-6.2,0c-1.4,1.1-3.8,1.3-5.7,1.9c-1.6-2.7-3.3-4.9-4.5-7.4c-1.1-2.4-1.8-5.1-2.7-7.9c5.1-1.7,9.9-3.8,14.8-5.1
				c4-1.1,6.7-3,7.6-7.1c0.8-3.2,2.1-6.2,2.9-9.3c0.4-1.7,0-3.4-1.1-4.8c-2.5-3.6-0.8-7.1,0.6-10.6
				C-2800.8-2955.2-2799.3-2955.5-2797.9-2956.4"/>
			<path id="Path_4070" class="st4" d="M-3291.2-2953.6c-3.2,1.6-5.7,3-8.6,4.4v12.4h-25.9c0.3-1.3,0.8-2.5,1.3-4.4
				c1.9-1.9,3.8-4.3,4.6-7.9c1.3-4.9,5.4-8.2,9.2-11.7c-1.4-4,2.2-6.8,2.4-10.8c1.8-1.4,3-3.5,5.6-4.4c1.4-0.6,2.9-1.9,2.7-4.1
				c0-1.1,1-2.4,1.6-3.5h30.2v10.1c0.2,0,0,0.2-0.2,0.2c-0.1,0.1-0.3,0.2-0.5,0.2h-22.8C-3291.2-2966.7-3291.2-2960.2-3291.2-2953.6
				"/>
			<path id="Path_4071" class="st4" d="M-2900.4-3063.4c-1.3,0.6-2.7,1.3-4.9,2.2c-0.3,1.6-0.7,3.2-1.3,4.8c-0.5,1.4,1.1,2.4,0.6,4
				c-0.4,1.3-0.6,2.6-0.5,4c-0.2,3.2-1.3,5.2-4.5,7c-9.1,5.1-17.8,10.6-27.2,16.3c-1.4-0.8-3.5-1.7-5.6-2.9c0.6-0.5,0.8-0.8,1.4-1.3
				c-2.5-2.2-1-5.1,0.5-6c1.9-1.4,2.4-3.6,4.5-4.8c-2.1-1.7-0.2-7.4-6.7-4.8c1-2.1,1.4-3,1.8-4c-0.5-1.3-1-2.7-1.3-3.5
				c2.4-2.1,4.3-3.8,6.4-5.5c-0.5-1-0.8-1.7-1.3-2.7c3.3-0.6,6.7,0.5,9.7-1.3c1-0.6,2.7-0.2,4,0.2c7,1.7,8.8,1.4,15.3-2.5h8.9
				C-2900.5-3063.9-2900.4-3063.7-2900.4-3063.4"/>
			<path id="Path_4072" class="st4" d="M-3128.5-3060.1c-1.6,1-0.5,3-1,4.4l4.9,4.9c-1,4.1-4.6,6.3-7,9.2v5.5
				c2.1,0.8,4.1,1.6,6.4,2.4c0.8,1.3,1.8,2.7,3,4.4v3.3c-3,2.5-6.4,5.2-9.7,8.1c0.5,1.9,0.8,3.6,1.4,6.2c-1.2,0.7-2.4,1.3-3.7,1.9
				c-0.8-3.2-1.8-7.3-3-12.5c-1.8-2.1-5.4-4.3-6.4-8.6c-0.2-0.6-1-1.3-1.6-1.7c-0.5-0.2-1-0.4-1.6-0.5c-0.5-1.6-1-3.2-1.6-5.1
				c2.2-0.6,1.9-3.3,4.3-4.4c1.1-0.6,1.9-2.9,1.8-5.1c-0.3-4.8,0-9.5,0-13.9c2.5-1.7,4.9-3.5,7.5-5.4
				C-3132.5-3065-3129.9-3063.2-3128.5-3060.1"/>
			<path id="Path_4073" class="st4" d="M-2948.2-2999.5c-0.5-0.9-1.3-1.7-1.1-2.5c0.2-1.4,0.8-2.9,1.1-4.3c0.2-1.5,0.5-2.9,1-4.3
				c1-2.7,1.9-5.7,1.4-8.9c-0.3-2.1,0-4.3,0-6.8c1.8,1,3,2.1,4.6,2.7c1.6,0.5,3.2,0.8,4.8,1c4.6-2.9,8-6.2,12.7-7.6
				c0.6,3,1.1,5.5,1.8,8.2c-5.3,1-10.3,2.9-16.1,4.4c2.5,3,4.6,5.5,6.7,8.1c-1,1.6-1.8,3-2.5,4.4c-1.4,0-2.9,0.2-4.1,0.2
				c-1.3,1.9-2.7,3.6-4,5.5C-2944.2-2999.5-2945.9-2999.5-2948.2-2999.5"/>
			<path id="Path_4074" class="st4" d="M-2800.1-2968.5h2.9c-0.2,3-3,3.5-4.5,5.1v4.6c-0.8,0.8-1.6,1.7-2.4,2.5l0.8,0.8
				c-0.8,2.5-1.6,5.1-2.5,7.9c-5.1,1.4-10.2-2.1-14.8-1.1c-2.5-2.5-4.8-4.8-6.7-6.7c1.5-0.3,3-0.7,4.5-1.3c1.8-0.6,2.7,0.3,4.1,0.8
				c1.6,0.6,3.5,0.2,5.3,0.2c2.4-1,4.1-2.5,5.7-4.9C-2805.9-2963.6-2802.7-2965.9-2800.1-2968.5"/>
			<path id="Path_4075" class="st4" d="M-3012.5-3103.2c0.7-0.1,1.4-0.3,2.1-0.5c0.2-1.7,0.8-3.5-1-5.1l3.8-1.9
				c1.9,0.5,3.7,1.1,5.4,1.6c0.8,2.4,2.5,4.1,5.7,5.1c-3.7,0.5-6.7,0.9-9.4,1.3c-0.8,1.4-1.4,2.5-2.2,4c-0.6-0.5-1.3-0.8-1.8-1.1
				c-1.1,0.5-2.2,0.9-3.3,1.3c-0.2-0.2-0.4-0.4-0.5-0.6c1-0.5,1.9-1.1,2.5-1.4C-3011.8-3102.1-3012.1-3102.5-3012.5-3103.2"/>
			<path id="Path_4076" class="st4" d="M-2860.6-2998.7c0.7,0.2,1.4,0.4,2.1,0.5c0.5,0.1,1.1,0.2,1.6,0.2c0.3,1.4,0.8,2.9,1.1,4.3
				h-3c-0.2-0.8-0.3-1.7-0.5-3c-1.8-0.6-3.7-1.3-5.4-1.7c0.8-1.7,1.8-3.3,2.7-5.2h4.6C-2858.4-3002-2859.4-3000.3-2860.6-2998.7"/>
			<path id="Path_4077" class="st4" d="M-2970-3046.6c1.8-0.6,3.3-1.1,4.9-1.7c0.2-0.6,0.4-1.3,0.5-1.9c0.6,0.5,1.1,0.8,1.6,1.1
				c1.3-0.3,2.5-0.8,4-1.3c-0.2,4.8-4.3,4.3-6.5,5.7C-2966.8-3043.6-2968.4-3044.4-2970-3046.6"/>
			<path id="Path_4078" class="st4" d="M-2833.2-2972.1l1.4,1.4c-1.4,1.9-1.6,4,0.6,5.5c-1.4,1.4-2.5,2.4-4.1,4
				C-2834.8-2965.1-2835.9-2968.8-2833.2-2972.1"/>
			<path id="Path_4079" class="st4" d="M-2945.9-3034.1c0.5-6.2,1.8-7.8,5.4-7c-1.1,1.3-2.2,2.4-3,3.5
				C-2944.4-3036.5-2945.2-3035.3-2945.9-3034.1"/>
			<path id="Path_4080" class="st4" d="M-2948.3-3022.3c0,1.4-0.2,2.5-0.5,2.5c-0.3,0-0.5-1.1-0.5-2.5c0-1.4,0.2-2.5,0.5-2.5
				C-2948.5-3024.9-2948.3-3023.7-2948.3-3022.3"/>
			<path id="Path_4081" class="st4" d="M-2942.3-3059.4c0.8,0,1.6-0.2,2.2-0.2c0,0.3,0,0.5,0.2,0.8l-2.4,0.5L-2942.3-3059.4z"/>
			<path id="Path_4082" class="st4" d="M-2994.5-3102.9c0,0.2-0.4,0.3-0.8,0.3s-0.8-0.1-0.8-0.3c0-0.2,0.4-0.3,0.8-0.3
				C-2994.8-3103.2-2994.5-3103-2994.5-3102.9"/>
			<path id="Path_4083" class="st4" d="M-2882.6-3068.1c0.3,0.3,0.6,0.5,1,0.8l-0.3,0.3c-0.3-0.3-0.5-0.6-0.8-0.9L-2882.6-3068.1z"
				/>
			<path id="Path_4084" class="st4" d="M-2900.7-3064.5c0.3-0.3,0.5-0.6,0.8-1l0.3,0.3c-0.3,0.3-0.6,0.5-1,0.8
				C-2900.6-3064.4-2900.6-3064.5-2900.7-3064.5C-2900.7-3064.5-2900.7-3064.5-2900.7-3064.5"/>
			<path id="Path_4085" class="st4" d="M-3144.9-3062.1c0.3-0.3,0.5-0.6,0.8-1l0.3,0.3c-0.3,0.3-0.6,0.5-1,0.8L-3144.9-3062.1z"/>
			<path id="Path_4086" class="st4" d="M-3127.1-3062.1c0.3-0.3,0.5-0.6,0.8-1l0.3,0.3c-0.3,0.3-0.6,0.5-1,0.8
				C-3126.9-3062.1-3127-3062.1-3127.1-3062.1C-3127.1-3062.1-3127.1-3062.1-3127.1-3062.1"/>
			<path id="Path_4087" class="st4" d="M-3128.2-3060.9l1.1-1.1C-3127.4-3061.6-3127.8-3061.2-3128.2-3060.9"/>
			<path id="Path_4088" class="st4" d="M-2942.1-3058.3c-0.3,0.3-0.5,0.6-0.8,0.9l-0.3-0.3c0.3-0.3,0.6-0.5,1-0.8L-2942.1-3058.3z"
				/>
			<path id="Path_4089" class="st4" d="M-2945.8-3034.7c-0.3,0.3-0.5,0.6-0.8,1l-0.3-0.3c0.3-0.3,0.6-0.5,1-0.8
				C-2945.8-3034.9-2945.8-3034.8-2945.8-3034.7C-2945.8-3034.7-2945.8-3034.7-2945.8-3034.7"/>
		</g>
	</g>
</g>
<g id="Group_291" transform="translate(-265.396 3145.002)">
	<g>
		<defs>
			<rect id="SVGID_00000073690207519120680340000004486919361645236407_" x="589.4" y="-4420.3" width="292" height="292"/>
		</defs>
		<clipPath id="SVGID_00000090976182677381756900000009309253650070442378_">
			<use xlink:href="#SVGID_00000073690207519120680340000004486919361645236407_"  style="overflow:visible;"/>
		</clipPath>
		
			<g id="Group_290" transform="translate(4492.4 222)" style="clip-path:url(#SVGID_00000090976182677381756900000009309253650070442378_);">
			<path id="Path_4142" class="st4" d="M-3756.1-4484.1c-2.6,1.5-5.8,1.5-8.4,0c-2-1.2-4.7-0.5-5.8,1.6c-1.1,2-0.5,4.5,1.4,5.8
				c1.5,0.9,3.1,1.5,4.7,1.9c-0.3,0.6-0.4,1.2-0.4,1.8v6.8c0,2.4,1.9,4.3,4.3,4.3c2.4,0,4.3-1.9,4.3-4.3v-6.8c0-0.6-0.1-1.3-0.4-1.8
				c1.7-0.4,3.3-1,4.7-1.9c2-1.2,2.7-3.8,1.5-5.9C-3751.5-4484.7-3754.1-4485.3-3756.1-4484.1L-3756.1-4484.1 M-3713.8-4466.1
				c-6.9-2.8-15.8-2.8-20.2-2.8h-0.1c-2.4,0-4.3,1.9-4.3,4.3s1.9,4.3,4.3,4.3h0.1c3.5,0,11.7,0,17.1,2.2c2.2,0.9,4.7-0.2,5.6-2.3
				C-3710.6-4462.7-3711.6-4465.2-3713.8-4466.1 M-3689.2-4477.3c-2.4,0-4.3,1.9-4.3,4.3v6.8c0,2.4,1.9,4.3,4.3,4.3
				c2.4,0,4.3-1.9,4.3-4.3v-6.8C-3685-4475.4-3686.9-4477.3-3689.2-4477.3C-3689.2-4477.3-3689.2-4477.3-3689.2-4477.3
				 M-3834-4598.9c7.4,0,13.3,6,13.3,13.3c0,7.4-6,13.3-13.3,13.3c-7.4,0-13.3-6-13.3-13.3c0,0,0,0,0,0
				C-3847.3-4592.9-3841.3-4598.9-3834-4598.9 M-3834-4563.7c12.1,0,21.9-9.8,21.9-21.9c0-12.1-9.8-21.9-21.9-21.9
				c-12.1,0-21.9,9.8-21.9,21.9C-3855.8-4573.5-3846-4563.7-3834-4563.7 M-3785.2-4576.1v-19c0-1.5,1.2-2.7,2.7-2.7h19
				c1.5,0,2.7,1.2,2.7,2.7c0,0,0,0,0,0v19c0,1.5-1.2,2.7-2.7,2.7h-19C-3784-4573.4-3785.2-4574.6-3785.2-4576.1
				C-3785.2-4576.1-3785.2-4576.1-3785.2-4576.1 M-3763.5-4564.9c6.2,0,11.2-5,11.2-11.2v-19c0-6.2-5-11.2-11.2-11.2h-19
				c-6.2,0-11.2,5-11.2,11.2v19c0,6.2,5,11.2,11.2,11.2H-3763.5z M-3629.5-4358.9h-21.5c-0.6-9.4-3.1-18.6-7.4-26.9
				c8-3.9,15.4-9,21.9-15.1c6.4,11.4,10.4,24,11.7,37.1c0.2,2.5-1.6,4.7-4.1,4.9C-3629.2-4358.9-3629.3-4358.9-3629.5-4358.9
				 M-3662.8-4393.2c-2.3-3.4-4.9-6.7-7.7-9.8c-4.9-5.4-4.5-13.7,0.9-18.6c5.4-4.9,13.7-4.5,18.6,0.9l0,0c3.5,3.9,6.8,8,9.8,12.4
				C-3647.5-4402.1-3654.8-4397-3662.8-4393.2 M-3682-4407.3c-13.2,6.8-27.9,10.4-42.7,10.3c-56.8,0-97.1-49-81.6-97.2
				c0.7,0,1.5-0.1,2.2-0.3c14.3-4.2,28.1-10,41-17.4c-0.7,10.1,6.9,18.9,17,19.6c1,0.1,2,0.1,3.1,0c15.3-1.5,36.3-5.5,50.2-16.2
				c14.7,9.6,31.8,14.6,49.3,14.6c0.2,0,0.3,0,0.5,0c2.2,6.8,3.3,13.9,3.3,21c0,14.7-4.7,28.9-13.3,40.8c-11.2-4.2-23.8,1.5-28,12.7
				C-3682.6-4415.6-3682.9-4411.4-3682-4407.3 M-3806.7-4502.9c21.3-47,85.3-64.4,131.6-35.9c13.9,8.4,25,20.7,31.9,35.3
				c0.2,0.3,0,0.7-0.3,0.9c-0.1,0-0.2,0.1-0.3,0.1l0,0c-16.1,0-31.8-4.7-45.1-13.6c-2.7-1.8-6.2-1.6-8.7,0.4
				c-13,10.3-34.6,13.7-46.3,14.9c-5.4,0.5-10.2-3.4-10.7-8.8c0-0.5-0.1-1,0-1.5c0-0.9,0.1-1.9,0.2-2.8c0.4-3.9-2.5-7.3-6.3-7.7
				c-1.5-0.2-3.1,0.2-4.4,1c-13,7.7-26.9,13.7-41.3,17.9c-0.1,0-0.1,0-0.2,0C-3806.7-4502.8-3806.7-4502.8-3806.7-4502.9
				C-3806.7-4502.9-3806.7-4502.9-3806.7-4502.9 M-3862.6-4515.4c-10.9,0-19.7-8.9-19.7-19.7c0-3.5,0.9-6.9,2.7-9.9
				c10.3,8.3,23.6,11.9,36.7,9.9v0.1C-3842.9-4524.2-3851.7-4515.4-3862.6-4515.4 M-3616.4-4364.7c-2.3-23.2-11.6-43.4-28.3-61.8
				c-0.4-0.4-0.8-0.8-1.2-1.2c9.4-13.2,14.5-29.1,14.5-45.3c0-8.7-1.5-17.4-4.4-25.6c1.5-2.6,1.6-5.7,0.3-8.4
				c-13.5-29.3-42.8-49.3-76.8-53.4c11.8-23.2,2.5-51.6-20.7-63.3c-8.6-4.4-18.3-6-27.9-4.6c-2.6,0.4-5.2-0.3-7.2-1.8
				c-20.1-15.4-48.1-15.4-68.2,0c-2.1,1.6-4.7,2.2-7.2,1.8c-6.5-1-13.2-0.5-19.6,1.3c-2.3,0.7-3.6,3-2.9,5.3s3,3.6,5.3,2.9
				c5.2-1.5,10.6-1.9,16-1.1c4.8,0.7,9.7-0.5,13.6-3.5c17.1-13.1,40.8-13.1,57.9,0c3.9,3,8.8,4.2,13.6,3.5
				c21.1-3,40.6,11.7,43.6,32.8c1.3,9-0.7,18.3-5.6,26c-23.8-0.9-47.2,6.6-66.1,21.1c-12.3,3.9-25.6,2.7-37-3.4
				c-4.3-2.4-9.3-2.9-14-1.5c-20.4,6.3-42-5.1-48.3-25.4c-1.1-3.7-1.7-7.5-1.7-11.4c0-10.6,4.3-20.7,12-27.9c1.7-1.6,1.7-4.3,0.1-6
				c-1.6-1.7-4.3-1.7-6-0.2c-18.2,17.2-19.7,45.7-3.4,64.7c-8.8,12.8-5.6,30.4,7.2,39.3s30.4,5.6,39.3-7.2c3.6-5.3,5.4-11.6,4.9-18
				c2-0.2,4,0.2,5.8,1.2c9,4.8,19.2,7.1,29.4,6.6c-6.2,6.8-11.3,14.5-15.1,22.9c-1.2,2.6-1,5.7,0.5,8.1
				c-11.8,34.2,1.4,72.1,34.5,93.8c-9.9,10.9-16.4,24.5-18.5,39.1c-1,7.2,4,13.8,11.2,14.8c0.6,0.1,1.2,0.1,1.8,0.1h93.9
				c2.4,0,4.3-1.9,4.3-4.3c0-2.4-1.9-4.3-4.3-4.3l0,0h-93.9c-2.5,0-4.6-2-4.6-4.5c0-0.2,0-0.4,0-0.7c2-13.5,8.2-26.1,17.6-35.9
				c29.2,15.3,63.9,15.5,93.3,0.6c3.5,5,17.2,16.6,19.1,40.6h-11.3c-2.4,0-4.3,1.9-4.3,4.3s1.9,4.3,4.3,4.3h41.3
				c7.2,0,13.1-5.8,13.1-13.1C-3616.4-4363.8-3616.4-4364.3-3616.4-4364.7 M-3846.9-4469.3c-5.7,0-10.3-4.6-10.3-10.3
				c0-5.7,4.6-10.3,10.3-10.3c5.7,0,10.3,4.6,10.3,10.3C-3836.6-4473.9-3841.2-4469.3-3846.9-4469.3 M-3846.9-4498.4
				c-10.4,0-18.9,8.4-18.9,18.9c0,10.4,8.4,18.9,18.9,18.9c10.4,0,18.9-8.4,18.9-18.9c0,0,0,0,0,0
				C-3828.1-4490-3836.5-4498.4-3846.9-4498.4"/>
			<path id="Path_4143" class="st14" d="M-3756.1-4484.1c-2.6,1.5-5.8,1.5-8.4,0c-2-1.2-4.7-0.5-5.8,1.6c-1.1,2-0.5,4.5,1.4,5.8
				c1.5,0.9,3.1,1.5,4.7,1.9c-0.3,0.6-0.4,1.2-0.4,1.8v6.8c0,2.4,1.9,4.3,4.3,4.3c2.4,0,4.3-1.9,4.3-4.3l0,0v-6.8
				c0-0.6-0.1-1.3-0.4-1.8c1.7-0.4,3.3-1,4.7-1.9c2-1.2,2.7-3.8,1.5-5.9C-3751.5-4484.7-3754.1-4485.3-3756.1-4484.1L-3756.1-4484.1
				L-3756.1-4484.1z M-3713.8-4466.1c-6.9-2.8-15.8-2.8-20.2-2.8h-0.1c-2.4,0-4.3,1.9-4.3,4.3s1.9,4.3,4.3,4.3h0.1
				c3.5,0,11.7,0,17.1,2.2c2.2,0.9,4.7-0.2,5.6-2.3C-3710.6-4462.7-3711.6-4465.2-3713.8-4466.1z M-3689.2-4477.3
				c-2.4,0-4.3,1.9-4.3,4.3c0,0,0,0,0,0v6.8c0,2.4,1.9,4.3,4.3,4.3c2.4,0,4.3-1.9,4.3-4.3v-6.8
				C-3685-4475.4-3686.9-4477.3-3689.2-4477.3C-3689.2-4477.3-3689.2-4477.3-3689.2-4477.3L-3689.2-4477.3z M-3834-4598.9
				c7.4,0,13.3,6,13.3,13.3c0,7.4-6,13.3-13.3,13.3c-7.4,0-13.3-6-13.3-13.3C-3847.3-4593-3841.3-4598.9-3834-4598.9L-3834-4598.9z
				 M-3834-4563.7c12.1,0,21.9-9.8,21.9-21.9c0-12.1-9.8-21.9-21.9-21.9c-12.1,0-21.9,9.8-21.9,21.9
				C-3855.8-4573.5-3846-4563.7-3834-4563.7L-3834-4563.7z M-3785.2-4576.1v-19c0-1.5,1.2-2.7,2.7-2.7h19c1.5,0,2.7,1.2,2.7,2.7
				c0,0,0,0,0,0v19c0,1.5-1.2,2.7-2.7,2.7h-19C-3784-4573.4-3785.2-4574.6-3785.2-4576.1L-3785.2-4576.1z M-3763.5-4564.9
				c6.2,0,11.2-5,11.2-11.2v-19c0-6.2-5-11.2-11.2-11.2h-19c-6.2,0-11.2,5-11.2,11.2v19c0,6.2,5,11.2,11.2,11.2H-3763.5z
				 M-3629.5-4358.9h-21.5c-0.6-9.4-3.1-18.6-7.4-26.9c8-3.9,15.4-9,21.9-15.1c6.4,11.4,10.4,24,11.7,37.1c0.2,2.5-1.6,4.7-4.1,4.9
				C-3629.2-4358.9-3629.3-4358.9-3629.5-4358.9L-3629.5-4358.9z M-3662.8-4393.2c-2.3-3.4-4.9-6.7-7.7-9.8
				c-4.9-5.4-4.5-13.7,0.9-18.6c5.4-4.9,13.7-4.5,18.6,0.9l0,0c3.5,3.9,6.8,8,9.8,12.4C-3647.5-4402.1-3654.8-4397-3662.8-4393.2z
				 M-3682-4407.3c-13.2,6.8-27.9,10.4-42.7,10.3c-56.8,0-97.1-49-81.6-97.2c0.7,0,1.5-0.1,2.2-0.3c14.3-4.2,28.1-10,41-17.4
				c-0.7,10.1,6.9,18.9,17,19.6c1,0.1,2,0.1,3.1,0c15.3-1.5,36.3-5.5,50.2-16.2c14.7,9.6,31.8,14.6,49.3,14.6c0.2,0,0.3,0,0.5,0
				c2.2,6.8,3.3,13.9,3.3,21c0,14.7-4.7,28.9-13.3,40.8c-11.2-4.2-23.8,1.5-28,12.7C-3682.6-4415.6-3682.9-4411.4-3682-4407.3
				L-3682-4407.3z M-3806.7-4502.9c21.3-47,85.3-64.4,131.6-35.9c13.9,8.4,25,20.7,31.9,35.3c0.2,0.3,0,0.7-0.3,0.9
				c-0.1,0-0.2,0.1-0.3,0.1l0,0c-16.1,0-31.8-4.7-45.1-13.6c-2.7-1.8-6.2-1.6-8.7,0.4c-13,10.3-34.6,13.7-46.3,14.9
				c-5.4,0.5-10.2-3.4-10.7-8.8c0-0.5-0.1-1,0-1.5c0-0.9,0.1-1.9,0.2-2.8c0.4-3.9-2.5-7.3-6.3-7.7c-1.5-0.2-3.1,0.2-4.4,1
				c-13,7.7-26.9,13.7-41.3,17.9c-0.1,0-0.1,0-0.2,0S-3806.7-4502.8-3806.7-4502.9z M-3862.6-4515.4c-10.9,0-19.7-8.9-19.7-19.8
				c0-3.5,0.9-6.9,2.7-9.9c10.3,8.3,23.6,11.9,36.7,9.9v0.1C-3843-4524.2-3851.8-4515.4-3862.6-4515.4L-3862.6-4515.4z
				 M-3616.4-4364.7c-2.3-23.2-11.6-43.4-28.3-61.8c-0.4-0.4-0.8-0.8-1.2-1.2c9.4-13.2,14.5-29.1,14.5-45.3c0-8.7-1.5-17.4-4.4-25.6
				c1.5-2.6,1.6-5.7,0.3-8.4c-13.5-29.3-42.8-49.3-76.8-53.4c11.8-23.2,2.5-51.6-20.7-63.3c-8.6-4.4-18.3-6-27.9-4.6
				c-2.6,0.4-5.2-0.3-7.2-1.8c-20.1-15.4-48.1-15.4-68.3,0c-2.1,1.6-4.7,2.2-7.2,1.8c-6.5-1-13.2-0.5-19.6,1.3
				c-2.3,0.7-3.6,3-2.9,5.3c0.7,2.3,3,3.6,5.3,2.9l0,0c5.2-1.5,10.6-1.9,16-1.1c4.8,0.7,9.7-0.5,13.6-3.5
				c17.1-13.1,40.8-13.1,57.9,0c3.9,3,8.8,4.2,13.6,3.5c21.1-3,40.6,11.7,43.6,32.8c1.3,9-0.7,18.3-5.6,26
				c-23.8-0.9-47.2,6.6-66.1,21.1c-12.3,3.9-25.6,2.7-37-3.4c-4.3-2.4-9.3-2.9-14-1.5c-20.4,6.3-42-5.1-48.3-25.4
				c-1.1-3.7-1.7-7.5-1.7-11.4c0-10.6,4.3-20.7,12-27.9c1.7-1.6,1.7-4.3,0.1-6c-1.6-1.7-4.3-1.7-6-0.2
				c-18.2,17.2-19.7,45.7-3.4,64.7c-8.8,12.8-5.6,30.4,7.2,39.3s30.4,5.6,39.3-7.2c3.6-5.3,5.4-11.6,4.9-18c2-0.2,4,0.2,5.8,1.2
				c9,4.8,19.2,7.1,29.4,6.6c-6.2,6.8-11.3,14.5-15.1,22.9c-1.2,2.6-1,5.7,0.5,8.1c-11.8,34.2,1.4,72.1,34.5,93.8
				c-9.9,10.9-16.4,24.5-18.6,39.1c-1,7.2,4,13.8,11.2,14.8c0.6,0.1,1.2,0.1,1.8,0.1h93.9c2.4,0,4.3-1.9,4.3-4.3
				c0-2.4-1.9-4.3-4.3-4.3l0,0h-93.9c-2.5,0-4.6-2-4.6-4.5c0-0.2,0-0.4,0-0.7c2-13.5,8.2-26.1,17.6-35.9
				c29.2,15.3,63.9,15.5,93.3,0.6c3.5,5,17.2,16.6,19.1,40.6h-11.3c-2.4,0-4.3,1.9-4.3,4.3c0,2.4,1.9,4.3,4.3,4.3h41.3
				c7.2,0,13.1-5.8,13.2-13C-3616.4-4363.8-3616.4-4364.2-3616.4-4364.7L-3616.4-4364.7z M-3846.9-4469.3c-5.7,0-10.3-4.6-10.3-10.3
				c0-5.7,4.6-10.3,10.3-10.3c5.7,0,10.3,4.6,10.3,10.3C-3836.6-4473.9-3841.2-4469.3-3846.9-4469.3L-3846.9-4469.3z
				 M-3846.9-4498.5c-10.4,0-18.9,8.4-18.9,18.9c0,10.4,8.4,18.9,18.9,18.9c10.4,0,18.9-8.4,18.9-18.9c0,0,0,0,0,0
				C-3828.1-4490-3836.5-4498.4-3846.9-4498.5L-3846.9-4498.5z"/>
		</g>
	</g>
</g>
</svg>
