<?xml version="1.0" encoding="utf-8"?>
<!-- Generator: Adobe Illustrator 26.0.1, SVG Export Plug-In . SVG Version: 6.00 Build 0)  -->
<svg version="1.1" id="Layer_1" xmlns="http://www.w3.org/2000/svg" xmlns:xlink="http://www.w3.org/1999/xlink" x="0px" y="0px"
	 viewBox="0 0 300 300" style="enable-background:new 0 0 300 300;" xml:space="preserve">
<style type="text/css">
	.st0{clip-path:url(#SVGID_00000180353790271786272720000012229341213650555277_);}
	.st1{fill:#E16D64;}
	.st2{fill:none;stroke:#E16D64;stroke-width:0.2078;}
</style>
<g>
	<defs>
		<rect id="SVGID_1_" x="10.1" y="10.9" width="279.7" height="279.7"/>
	</defs>
	<clipPath id="SVGID_00000138564222917510664830000006702089721944863624_">
		<use xlink:href="#SVGID_1_"  style="overflow:visible;"/>
	</clipPath>
	<g id="Group_290" style="clip-path:url(#SVGID_00000138564222917510664830000006702089721944863624_);">
		<path id="Path_4142" class="st1" d="M150.8,162.4c-2.5,1.5-5.5,1.5-8,0c-2-1.1-4.5-0.5-5.6,1.5c-1.1,1.9-0.5,4.3,1.4,5.5
			c1.4,0.8,2.9,1.5,4.5,1.8c-0.3,0.5-0.4,1.1-0.4,1.7v6.5c0,2.3,1.8,4.1,4.1,4.1c2.3,0,4.1-1.8,4.1-4.1V173c0-0.6-0.1-1.2-0.4-1.7
			c1.6-0.4,3.1-1,4.5-1.8c1.9-1.2,2.6-3.7,1.4-5.6C155.3,161.8,152.8,161.2,150.8,162.4L150.8,162.4 M191.4,179.6
			c-6.6-2.7-15.2-2.7-19.4-2.7h-0.1c-2.3,0-4.1,1.8-4.1,4.1c0,2.3,1.8,4.1,4.1,4.1h0.1c3.3,0,11.2,0,16.3,2.1
			c2.1,0.9,4.5-0.1,5.3-2.2C194.5,182.8,193.5,180.5,191.4,179.6 M214.9,168.9c-2.3,0-4.1,1.8-4.1,4.1v6.5c0,2.3,1.8,4.1,4.1,4.1
			c2.3,0,4.1-1.8,4.1-4.1V173C219,170.7,217.2,168.9,214.9,168.9C214.9,168.9,214.9,168.9,214.9,168.9 M76.3,52.4
			c7.1,0,12.8,5.7,12.8,12.8c0,7.1-5.7,12.8-12.8,12.8c-7.1,0-12.8-5.7-12.8-12.8c0,0,0,0,0,0C63.5,58.1,69.2,52.4,76.3,52.4
			 M76.3,86.1c11.6,0,21-9.4,21-21s-9.4-21-21-21c-11.6,0-21,9.4-21,21C55.3,76.7,64.7,86.1,76.3,86.1 M123,74.3V56.1
			c0-1.4,1.2-2.6,2.6-2.6h18.2c1.4,0,2.6,1.2,2.6,2.6c0,0,0,0,0,0v18.2c0,1.4-1.2,2.6-2.6,2.6h-18.2C124.1,76.8,123,75.7,123,74.3
			C123,74.3,123,74.3,123,74.3 M143.8,85c5.9,0,10.7-4.8,10.8-10.8V56.1c0-5.9-4.8-10.7-10.8-10.8h-18.2c-5.9,0-10.7,4.8-10.8,10.8
			v18.2c0,5.9,4.8,10.7,10.8,10.8H143.8z M272.2,282.4h-20.6c-0.6-9-3-17.8-7.1-25.8c7.7-3.8,14.7-8.6,20.9-14.5
			c6.2,10.9,10,23,11.2,35.5c0.2,2.4-1.6,4.5-4,4.7C272.4,282.3,272.3,282.4,272.2,282.4 M240.2,249.5c-2.3-3.3-4.7-6.4-7.4-9.4
			c-4.7-5.2-4.3-13.2,0.9-17.9c5.2-4.7,13.2-4.3,17.9,0.9l0,0c3.4,3.7,6.5,7.7,9.4,11.8C254.9,240.9,247.9,245.9,240.2,249.5
			 M221.8,236c-12.7,6.6-26.7,10-41,9.9c-54.4,0-93-46.9-78.1-93.1c0.7,0,1.4-0.1,2.1-0.3c13.7-4,26.9-9.6,39.3-16.7
			c-0.7,9.7,6.6,18.1,16.3,18.8c1,0.1,2,0.1,2.9,0c14.6-1.4,34.7-5.3,48.1-15.5c14,9.2,30.4,14,47.2,14c0.1,0,0.3,0,0.4,0
			c2.1,6.5,3.1,13.3,3.1,20.1c0,14-4.5,27.7-12.7,39.1c-10.8-4-22.8,1.4-26.8,12.2C221.3,228,221,232.1,221.8,236 M102.4,144.4
			c20.4-45,81.7-61.7,126.1-34.3c13.3,8,24,19.8,30.6,33.8c0.2,0.3,0,0.7-0.3,0.8c-0.1,0-0.2,0.1-0.3,0.1l0,0
			c-15.4,0-30.4-4.5-43.2-13.1c-2.6-1.7-6-1.5-8.4,0.4c-12.4,9.9-33.1,13.2-44.4,14.3c-5.2,0.5-9.7-3.3-10.2-8.4
			c0-0.5-0.1-0.9,0-1.4c0-0.9,0.1-1.8,0.2-2.7c0.4-3.7-2.3-7-6.1-7.4c-1.5-0.1-3,0.2-4.2,1c-12.4,7.3-25.7,13.1-39.6,17.2
			c-0.1,0-0.1,0-0.2,0C102.4,144.5,102.4,144.4,102.4,144.4C102.4,144.4,102.4,144.4,102.4,144.4 M48.8,132.4
			c-10.4,0-18.9-8.5-18.9-18.9c0-3.3,0.9-6.6,2.6-9.5c9.9,7.9,22.6,11.4,35.1,9.5v0.1C67.7,124,59.2,132.4,48.8,132.4 M284.7,276.8
			c-2.3-22.2-11.1-41.6-27.1-59.2c-0.4-0.4-0.8-0.8-1.2-1.2c9-12.7,13.9-27.9,13.9-43.4c0-8.3-1.4-16.6-4.2-24.5
			c1.4-2.5,1.5-5.5,0.3-8c-12.9-28-41-47.2-73.5-51.1c11.3-22.2,2.4-49.4-19.9-60.7c-8.2-4.2-17.6-5.7-26.7-4.4
			c-2.4,0.4-4.9-0.3-6.9-1.7c-19.3-14.7-46.1-14.7-65.4,0c-2,1.5-4.5,2.1-6.9,1.7c-6.3-0.9-12.6-0.5-18.7,1.3
			c-2.2,0.6-3.4,2.9-2.8,5.1c0.6,2.2,2.9,3.4,5.1,2.8c5-1.4,10.2-1.8,15.3-1c4.6,0.7,9.3-0.5,13.1-3.3c16.4-12.5,39.1-12.5,55.4,0
			c3.7,2.8,8.4,4,13.1,3.3c20.2-2.8,38.9,11.3,41.7,31.5c1.2,8.7-0.7,17.5-5.4,24.9c-22.8-0.8-45.2,6.3-63.4,20.2
			c-11.8,3.7-24.5,2.5-35.4-3.3c-4.1-2.3-8.9-2.8-13.4-1.4c-19.5,6-40.2-4.9-46.2-24.4c-1.1-3.5-1.7-7.2-1.7-10.9
			c0-10.1,4.1-19.8,11.5-26.8c1.6-1.6,1.7-4.2,0.1-5.8c-1.5-1.6-4.1-1.7-5.7-0.2C12.4,52.7,11,80,26.5,98.2
			c-8.5,12.3-5.4,29.1,6.9,37.6s29.1,5.4,37.6-6.9c3.5-5,5.1-11.1,4.7-17.2c1.9-0.2,3.8,0.2,5.5,1.1c8.6,4.6,18.4,6.8,28.2,6.3
			c-6,6.5-10.9,13.9-14.5,21.9c-1.2,2.5-1,5.4,0.5,7.8c-11.3,32.8,1.3,69.1,33.1,89.9c-9.5,10.5-15.7,23.5-17.8,37.5
			c-1,6.9,3.8,13.2,10.7,14.2c0.6,0.1,1.2,0.1,1.8,0.1h89.9c2.3,0,4.1-1.8,4.1-4.1c0-2.3-1.8-4.1-4.1-4.1l0,0h-89.9
			c-2.4,0-4.4-1.9-4.4-4.4c0-0.2,0-0.4,0-0.6c1.9-12.9,7.8-25,16.9-34.4c28,14.6,61.2,14.8,89.4,0.5c3.3,4.8,16.5,15.9,18.3,38.9
			h-10.8c-2.3,0-4.1,1.8-4.1,4.1c0,2.3,1.8,4.1,4.1,4.1h39.6c6.9,0,12.6-5.6,12.6-12.5C284.7,277.6,284.7,277.2,284.7,276.8
			 M63.9,176.6c-5.5,0-9.9-4.4-9.9-9.9s4.4-9.9,9.9-9.9c5.5,0,9.9,4.4,9.9,9.9C73.8,172.2,69.3,176.6,63.9,176.6 M63.9,148.6
			c-10,0-18.1,8.1-18.1,18.1c0,10,8.1,18.1,18.1,18.1c10,0,18.1-8.1,18.1-18.1c0,0,0,0,0,0C81.9,156.7,73.8,148.7,63.9,148.6"/>
		<path id="Path_4143" class="st2" d="M150.8,162.4c-2.5,1.5-5.5,1.5-8,0c-2-1.1-4.5-0.5-5.6,1.5c-1.1,1.9-0.5,4.3,1.4,5.5
			c1.4,0.8,2.9,1.5,4.5,1.8c-0.3,0.5-0.4,1.1-0.4,1.7v6.5c0,2.3,1.8,4.1,4.1,4.1c2.3,0,4.1-1.8,4.1-4.1l0,0V173
			c0-0.6-0.1-1.2-0.4-1.7c1.6-0.4,3.1-1,4.5-1.8c1.9-1.2,2.6-3.7,1.4-5.6C155.3,161.8,152.8,161.2,150.8,162.4L150.8,162.4
			L150.8,162.4z M191.4,179.6c-6.6-2.7-15.2-2.7-19.4-2.7h-0.1c-2.3,0-4.1,1.8-4.1,4.1c0,2.3,1.8,4.1,4.1,4.1h0.1
			c3.3,0,11.2,0,16.3,2.1c2.1,0.9,4.5-0.1,5.3-2.2C194.5,182.8,193.5,180.5,191.4,179.6z M214.9,168.9c-2.3,0-4.1,1.8-4.1,4.1
			c0,0,0,0,0,0v6.5c0,2.3,1.8,4.1,4.1,4.1c2.3,0,4.1-1.8,4.1-4.1V173C219,170.7,217.2,168.9,214.9,168.9
			C214.9,168.9,214.9,168.9,214.9,168.9L214.9,168.9z M76.3,52.4c7.1,0,12.8,5.7,12.8,12.8c0,7.1-5.7,12.8-12.8,12.8
			c-7.1,0-12.8-5.7-12.8-12.8C63.5,58.1,69.2,52.4,76.3,52.4L76.3,52.4z M76.3,86.1c11.6,0,21-9.4,20.9-21c0-11.6-9.4-21-21-20.9
			c-11.6,0-20.9,9.4-20.9,21C55.3,76.7,64.7,86.1,76.3,86.1L76.3,86.1z M123,74.3V56.1c0-1.4,1.2-2.6,2.6-2.6h18.2
			c1.4,0,2.6,1.2,2.6,2.6c0,0,0,0,0,0v18.2c0,1.4-1.2,2.6-2.6,2.6h-18.2C124.1,76.8,123,75.7,123,74.3L123,74.3z M143.8,85
			c5.9,0,10.7-4.8,10.8-10.8V56.1c0-5.9-4.8-10.7-10.8-10.8h-18.2c-5.9,0-10.7,4.8-10.8,10.8v18.2c0,5.9,4.8,10.7,10.8,10.8H143.8z
			 M272.2,282.4h-20.6c-0.6-9-3-17.8-7.1-25.8c7.7-3.8,14.7-8.6,20.9-14.5c6.2,10.9,10,23,11.2,35.5c0.2,2.4-1.6,4.5-4,4.7
			C272.4,282.3,272.3,282.3,272.2,282.4L272.2,282.4z M240.2,249.5c-2.3-3.3-4.7-6.4-7.4-9.4c-4.7-5.2-4.3-13.2,0.9-17.9
			c5.2-4.7,13.2-4.3,17.9,0.9l0,0c3.4,3.7,6.5,7.7,9.4,11.8C254.9,240.9,247.9,245.9,240.2,249.5z M221.8,236
			c-12.7,6.6-26.7,10-41,9.9c-54.4,0-93-46.9-78.1-93.1c0.7,0,1.4-0.1,2.1-0.3c13.7-4,26.9-9.6,39.3-16.7
			c-0.7,9.7,6.6,18.1,16.3,18.8c1,0.1,2,0.1,2.9,0c14.6-1.4,34.7-5.3,48.1-15.5c14,9.2,30.4,14,47.2,14c0.1,0,0.3,0,0.4,0
			c2.1,6.5,3.1,13.3,3.1,20.1c0,14-4.5,27.7-12.7,39.1c-10.8-4-22.8,1.4-26.8,12.2C221.3,228,221,232.1,221.8,236L221.8,236z
			 M102.4,144.4c20.4-45,81.7-61.7,126.1-34.3c13.3,8,24,19.8,30.6,33.8c0.2,0.3,0,0.7-0.3,0.8c-0.1,0-0.2,0.1-0.3,0.1l0,0
			c-15.4,0-30.4-4.5-43.2-13.1c-2.6-1.7-6-1.5-8.4,0.4c-12.4,9.9-33.1,13.2-44.4,14.3c-5.2,0.5-9.7-3.3-10.2-8.4
			c0-0.5-0.1-0.9,0-1.4c0-0.9,0.1-1.8,0.2-2.7c0.4-3.7-2.3-7-6.1-7.4c-1.5-0.1-3,0.2-4.2,1c-12.4,7.3-25.7,13.1-39.6,17.2
			c-0.1,0-0.1,0-0.1,0C102.4,144.5,102.4,144.5,102.4,144.4z M48.8,132.4c-10.4,0-18.9-8.5-18.8-18.9c0-3.3,0.9-6.6,2.6-9.5
			c9.9,7.9,22.6,11.4,35.1,9.5v0.1C67.7,124,59.2,132.4,48.8,132.4L48.8,132.4z M284.7,276.8c-2.3-22.2-11.1-41.6-27.1-59.2
			c-0.4-0.4-0.8-0.8-1.2-1.2c9-12.7,13.9-27.9,13.9-43.4c0-8.3-1.4-16.6-4.2-24.5c1.4-2.5,1.5-5.5,0.3-8c-12.9-28-41-47.2-73.5-51.1
			c11.3-22.2,2.4-49.4-19.9-60.7c-8.2-4.2-17.6-5.7-26.7-4.4c-2.4,0.4-4.9-0.3-6.9-1.7c-19.3-14.7-46.1-14.7-65.4,0
			c-2,1.5-4.5,2.1-6.9,1.7c-6.3-0.9-12.6-0.5-18.7,1.3c-2.2,0.6-3.4,2.9-2.8,5.1s2.9,3.4,5.1,2.8l0,0c5-1.4,10.2-1.8,15.3-1
			c4.6,0.7,9.3-0.5,13.1-3.3c16.4-12.5,39.1-12.5,55.4,0c3.7,2.8,8.4,4,13.1,3.3c20.2-2.8,38.9,11.3,41.7,31.5
			c1.2,8.7-0.7,17.5-5.4,24.9c-22.8-0.8-45.2,6.3-63.4,20.2c-11.8,3.7-24.5,2.5-35.4-3.3c-4.1-2.3-8.9-2.8-13.4-1.4
			c-19.5,6-40.2-4.9-46.2-24.4c-1.1-3.5-1.6-7.2-1.7-10.9c0-10.1,4.1-19.8,11.5-26.8c1.6-1.6,1.7-4.2,0.1-5.8
			c-1.5-1.6-4.1-1.7-5.7-0.2c-17.4,16.5-18.8,43.8-3.2,62c-8.5,12.3-5.4,29.1,6.9,37.6c12.3,8.5,29.1,5.4,37.6-6.9
			c3.5-5,5.1-11.1,4.7-17.2c1.9-0.2,3.8,0.2,5.5,1.1c8.6,4.6,18.4,6.8,28.2,6.3c-6,6.5-10.9,13.9-14.5,21.9c-1.2,2.5-1,5.4,0.5,7.8
			c-11.3,32.8,1.3,69.1,33.1,89.9c-9.5,10.5-15.7,23.5-17.8,37.5c-1,6.9,3.8,13.2,10.7,14.2c0.6,0.1,1.2,0.1,1.8,0.1h89.9
			c2.3,0,4.1-1.8,4.1-4.1c0-2.3-1.8-4.1-4.1-4.1l0,0h-89.9c-2.4,0-4.4-1.9-4.4-4.4c0-0.2,0-0.4,0-0.6c1.9-12.9,7.8-25,16.9-34.4
			c28,14.6,61.2,14.8,89.4,0.5c3.3,4.8,16.5,15.9,18.3,38.9h-10.8c-2.3,0-4.1,1.8-4.1,4.1c0,2.3,1.8,4.1,4.1,4.1h39.6
			c6.9,0,12.6-5.6,12.6-12.5C284.7,277.6,284.7,277.2,284.7,276.8L284.7,276.8z M63.9,176.6c-5.5,0-9.9-4.4-9.9-9.9
			c0-5.5,4.4-9.9,9.9-9.9c5.5,0,9.9,4.4,9.9,9.9C73.8,172.2,69.3,176.6,63.9,176.6L63.9,176.6z M63.9,148.6
			c-10,0-18.1,8.1-18.1,18.1c0,10,8.1,18.1,18.1,18.1c10,0,18.1-8.1,18.1-18.1c0,0,0,0,0,0C81.9,156.7,73.8,148.7,63.9,148.6
			L63.9,148.6z"/>
	</g>
</g>
</svg>
