<?xml version="1.0" encoding="utf-8"?>
<!-- Generator: Adobe Illustrator 17.0.0, SVG Export Plug-In . SVG Version: 6.00 Build 0)  -->
<!DOCTYPE svg PUBLIC "-//W3C//DTD SVG 1.1//EN" "http://www.w3.org/Graphics/SVG/1.1/DTD/svg11.dtd">
<svg version="1.1" id="Layer_1" xmlns="http://www.w3.org/2000/svg" xmlns:xlink="http://www.w3.org/1999/xlink" x="0px" y="0px"
	 width="500px" height="500px" viewBox="0 0 500 500" enable-background="new 0 0 500 500" xml:space="preserve">
<path fill="#F0F0F0" d="M255.249,53.914c86.419,8.466,172.683,59.638,202.857,141.058c-89.506-30.086-186.769-27.543-274.581,7.179
	c-33.817,13.514-70.022,32.065-104.746,21.089c-21.606-6.83-38.46-24.476-49.231-44.411c-10.771-19.937-16.238-42.231-21.6-64.248
	l-3.718-4.264C82.682,73.099,168.83,45.448,255.249,53.914z"/>
<path fill="#FFFFFF" d="M456.498,195.83c-54.26-45.971-123.558-74.905-194.601-79.964c-15.359-1.094-31.035-0.867-46.048,2.876
	c-14.606,3.761-27.939,11.364-38.613,22.02c-10.152,9.736-19.409,20.87-31.751,27.968c-13.009,7.482-27.994,8.147-42.137,3.626
	c-17.305-5.532-31.589-16.952-45.171-28.605c-15.079-12.938-30.537-26.616-50.216-31.77c-2.384-0.624-1.276-4.288,1.105-3.664
	c34.237,8.967,54.399,41.45,85.414,56.382c14.473,6.968,31.133,9.617,46.028,2.342c13.026-6.361,22.581-17.835,32.775-27.781
	c10.704-10.444,22.535-18.546,36.953-22.937c14.748-4.492,30.448-5.332,45.768-4.636c34.728,1.838,68.951,9.125,101.415,21.593
	c37.13,14.025,71.587,34.298,101.881,59.943C461.175,194.812,458.36,197.408,456.498,195.83L456.498,195.83z"/>
<path fill="#FFFFFF" d="M316.129,167.755c23.108,36.505,59.127,62.959,100.873,74.087c4.137,1.099,2.213,7.462-1.919,6.364
	c-43.421-11.661-80.847-39.267-104.811-77.308C307.991,167.271,313.86,164.147,316.129,167.755L316.129,167.755z"/>
<path fill="#F0F0F0" d="M310.779,449.391c-0.873-1.269-1.746-2.539-2.652-3.809c-11.828-17.004-25.018-33.02-39.439-47.888
	c-1.097-1.167-2.226-2.334-3.354-3.467c-35.127-35.451-76.53-64.072-122.104-84.409c-18.143-8.076-36.874-14.76-56.03-19.994
	c-26.457-7.227-55.718-12.958-77.598-28.058c-2.3-1.55-4.503-3.241-6.594-5.063l-3.69-141.52c0.153-0.326,0.274-0.652,0.427-0.98
	l-0.406-5.644c1.007,0.201,2.047,0.431,3.054,0.632c0.585,0.114,1.17,0.26,1.754,0.374c0.39,0.086,0.78,0.174,1.137,0.229
	c0.13,0.028,0.26,0.058,0.358,0.087c0.357,0.055,0.682,0.145,1.007,0.201c5.817,1.27,11.634,2.583,17.453,3.939
	c0.032-0.001,0.032-0.001,0.065,0.03c44.311,10.445,88.14,24.681,128.414,45.117c1.212,0.615,2.455,1.228,3.669,1.908
	c18.103,9.312,35.414,20.089,51.761,32.221c8.93,6.672,17.516,13.792,25.726,21.333c21.175,19.524,39.148,42.258,53.259,67.367
	c28.123,50.059,39.922,108.555,24.967,163.228C311.579,446.624,311.195,447.992,310.779,449.391z"/>
<path fill="#FFFFFF" d="M308.974,449.12c-15.646-69.374-53.557-134.198-107.234-181.01c-11.605-10.121-24.258-19.377-38.499-25.428
	c-13.926-5.791-29.149-7.748-44.087-5.666c-13.967,1.661-28.062,4.978-42.19,3.215c-14.892-1.858-27.257-10.349-35.827-22.474
	c-10.486-14.835-15.016-32.554-18.844-50.035c-4.25-19.409-8.357-39.637-20.967-55.6c-1.528-1.934,1.563-4.192,3.088-2.26
	c21.938,27.773,18.479,65.847,34.253,96.444c7.36,14.277,19.068,26.422,35.341,29.582c14.23,2.763,28.768-0.644,42.895-2.449
	c14.834-1.894,29.159-1.24,43.314,3.934c14.48,5.293,27.522,14.074,39.334,23.854c26.622,22.376,49.559,48.799,67.973,78.3
	c21.202,33.553,36.508,70.486,45.257,109.2C313.322,451.123,309.511,451.501,308.974,449.12L308.974,449.12z"/>
<path fill="#FFFFFF" d="M382.573,340.362c33.03-28.539,81.871-28.948,115.374-0.965c3.273,2.753-0.851,7.968-4.128,5.211
	c-31.161-26.125-76.71-25.65-107.32,1.117C383.276,348.537,379.369,343.157,382.573,340.362L382.573,340.362z"/>
</svg>
