<?xml version="1.0" encoding="utf-8"?>
<!-- Generator: Adobe Illustrator 17.0.0, SVG Export Plug-In . SVG Version: 6.00 Build 0)  -->
<!DOCTYPE svg PUBLIC "-//W3C//DTD SVG 1.1//EN" "http://www.w3.org/Graphics/SVG/1.1/DTD/svg11.dtd">
<svg version="1.1" id="Layer_1" xmlns="http://www.w3.org/2000/svg" xmlns:xlink="http://www.w3.org/1999/xlink" x="0px" y="0px"
	 width="500px" height="500px" viewBox="0 0 500 500" enable-background="new 0 0 500 500" xml:space="preserve">
<path fill="#F2F2F2" d="M123.836,450.296c72.4,52.157,166.224,54.776,256.916,48.368c12.664-0.893,25.238-1.942,37.696-3.073
	c0.075-0.02,0.174-0.013,0.251-0.032c0.599-0.057,1.199-0.114,1.771-0.148c2.571-0.241,5.144-0.481,7.691-0.723l-0.602,1.148
	l-1.889,3.563c0.679-1.192,1.357-2.36,2.036-3.552c0.2-0.358,0.423-0.714,0.622-1.072c23.494-40.884,46.796-83.27,52.74-129.955
	c6.144-48.457-11.123-103.326-53.77-127.143c-5.593-3.115-11.516-5.595-17.659-7.396c-2.551-0.775-5.136-1.404-7.75-1.96
	c-49.733-11.043-99.002,20.321-110.046,70.054c-3.677,16.558-2.717,33.809,2.774,49.857c-36.158-37.076-29.413-97.223-16.94-147.491
	c12.497-50.266,27.625-106.201,2.208-151.351c-14.129-25.131-38.976-40.723-66.86-47.004c-0.855-0.184-1.71-0.369-2.567-0.528
	c-33.223-6.729-67.762-0.678-96.718,16.947C60.424,52.401,33.04,116.104,24.152,178.506
	C9.832,278.923,41.522,390.991,123.836,450.296z"/>
</svg>
