<?xml version="1.0" encoding="utf-8"?>
<!-- Generator: Adobe Illustrator 26.0.1, SVG Export Plug-In . SVG Version: 6.00 Build 0)  -->
<svg version="1.1" id="Layer_1" xmlns="http://www.w3.org/2000/svg" xmlns:xlink="http://www.w3.org/1999/xlink" x="0px" y="0px"
	 viewBox="0 0 300 300" style="enable-background:new 0 0 300 300;" xml:space="preserve">
<style type="text/css">
	.st0{fill:none;}
	.st1{fill:#E16D64;stroke:#E16D64;stroke-width:3;stroke-miterlimit:10;}
</style>
<path class="st0" d="M176.2,77.9l46-39.8l1,53.1l-39.3,33.9l-10.2-11.9l1.5-2.2c6.3-9.1,7.2-20.8,2.2-30.6L176.2,77.9z"/>
<path class="st1" d="M177.1,79.5c4.9,9.8,4,21.5-2.2,30.6l-1.5,2.2l10.2,11.9l39.3-33.9l-1-53.1l-46,39.8L177.1,79.5z M200.2,60.6
	l18.3-15.8l0.8,44L184,119.3l-6.2-7.2c7-10.1,8-23.2,2.5-34.2L200.2,60.6z M136.5,65.7c9.9-4.9,21.7-4,30.7,2.2l2.2,1.5l11.9-10.2
	L147.4,20l-53.1,1l39.8,46L136.5,65.7z M145.8,23.5l30.5,35.4l-7.2,6.2c-10.1-7-23.2-7.9-34.2-2.5l-33.1-38.3L145.8,23.5z
	 M163.5,120c-9.9,4.9-21.7,4-30.8-2.2l-2.2-1.5l-11.8,10.3l33.8,39.3l53.1-1l-39.8-46L163.5,120z M154.2,162.2l-30.5-35.4l7.1-6.2
	c10.1,7,23.2,8,34.3,2.5l33.1,38.3L154.2,162.2z M236.5,96.4l-1.6-88l-45.6,39.4L153.5,6.5l-88,1.6L105,53.7L63.5,89.4l1.6,88
	l0.1-0.1l45.5-39.3l0,0l31.1,36l-0.3,119.5h16.9l0.3-114.3h0.1l75.6-1.3L195,132.1L236.5,96.4z M226.9,174.5l-71.6,1.2h-0.1L155,290
	h-9.8l0.3-117.3l-34.2-39.6l-0.1,0l0,0l-42.5,36.7L67.2,91l42.7-36.9L73.1,11.5L152,10l36.9,42.7l42.6-36.8l1.4,78.9l-42.8,36.9l0,0
	l6.3,7.3L226.9,174.5z M137.4,76.8h-0.2l-1,0.9c-1.8,1.6-3.2,3.4-4.2,5.4c-0.2,0.3-0.3,0.6-0.5,0.9c-0.1,0.3-0.3,0.5-0.4,0.8
	c-3.2,7.2-2.1,15.8,3.4,22c4,4.5,9.6,6.8,15.2,6.8c4.8,0,9.5-1.7,13.4-5c0.1-0.1,0.2-0.2,0.3-0.2l0.4-0.4c8.4-7.5,9.1-20.5,1.6-28.8
	C158.2,70.9,145.8,70,137.4,76.8z M138.5,80.3c0,0,0.1,0,0.2,0h0c0.1-0.1,0.1-0.1,0.2-0.2c7.2-6,17.8-5,23.8,2.1
	c5.9,7,5.1,17.4-1.7,23.4c-3.2,2.9-7.2,4.3-11.2,4.3c-4.7,0-9.3-1.9-12.7-5.7c-3.9-4.4-5.1-10.2-3.7-15.5c0.1-0.3,0.2-0.6,0.2-0.8
	c0.1-0.3,0.2-0.6,0.3-0.8C134.9,84.5,136.4,82.2,138.5,80.3z M122.8,106.3c-4.9-9.9-4-21.7,2.2-30.7l1.5-2.2l-10.2-11.9L77,95.3
	l1,53.1l24.1-20.7l21.9-19.1L122.8,106.3z M99.8,125.1l-18.4,15.8l-0.8-44L116,66.4l6.2,7.2c-7,10.1-7.9,23.2-2.5,34.2L99.8,125.1z"
	/>
</svg>
