<?xml version="1.0" encoding="utf-8"?>
<!-- Generator: Adobe Illustrator 26.0.1, SVG Export Plug-In . SVG Version: 6.00 Build 0)  -->
<svg version="1.1" id="Layer_1" xmlns="http://www.w3.org/2000/svg" xmlns:xlink="http://www.w3.org/1999/xlink" x="0px" y="0px"
	 viewBox="0 0 300 300" style="enable-background:new 0 0 300 300;" xml:space="preserve">
<style type="text/css">
	.st0{fill:none;}
	.st1{fill:#E16D64;stroke:#FBC8BC;stroke-width:2.1255;}
</style>
<g id="Group_287" transform="translate(-4269.08 -222.84)">
	<rect x="4275.6" y="229.3" class="st0" width="286.9" height="286.9"/>
	<g id="Group_286" transform="translate(4269.08 222.84)">
		<path id="Path_4132" class="st1" d="M261.2,45.5l4.7,13.1c0.2,0.5,0.6,1,1.1,1.2l11.7,5.3c1.1,0.6,1.6,2,1,3.1
			c-0.2,0.4-0.6,0.7-1,1L267,74.5c-0.5,0.2-0.9,0.7-1.1,1.2l-4.7,13.1c-0.3,1-1.3,1.6-2.3,1.3c-0.6-0.2-1.2-0.7-1.3-1.3l-4.7-13.1
			c-0.2-0.5-0.6-1-1.1-1.2l-11.7-5.3c-1.1-0.6-1.6-2-1-3.1c0.2-0.4,0.6-0.7,1-1l11.7-5.3c0.5-0.2,0.9-0.7,1.1-1.2l4.7-13.1
			c0.3-1,1.3-1.6,2.3-1.3C260.5,44.4,261,44.9,261.2,45.5"/>
		<path id="Path_4133" class="st1" d="M86.7,8l3.5,9.7c0.1,0.4,0.4,0.7,0.8,0.9l8.7,3.9c0.8,0.4,1.2,1.5,0.7,2.3
			c-0.2,0.3-0.4,0.5-0.7,0.7L91,29.5c-0.4,0.2-0.7,0.5-0.8,0.9l-3.5,9.7c-0.2,0.7-1,1.2-1.7,1c-0.5-0.1-0.8-0.5-1-1l-3.5-9.7
			c-0.1-0.4-0.4-0.7-0.8-0.9l-8.7-3.9c-0.8-0.4-1.2-1.5-0.7-2.3c0.2-0.3,0.4-0.5,0.7-0.7l8.7-3.9c0.4-0.2,0.7-0.5,0.8-0.9L84,8
			c0.2-0.7,1-1.2,1.7-1C86.2,7.2,86.6,7.5,86.7,8"/>
		<path id="Path_4134" class="st1" d="M228.1,28.3c0,3.8-3.1,6.9-6.9,6.9c-3.8,0-6.9-3.1-6.9-6.9c0-3.8,3.1-6.9,6.9-6.9
			C225,21.5,228.1,24.5,228.1,28.3C228.1,28.3,228.1,28.3,228.1,28.3"/>
		<path id="Path_4135" class="st1" d="M40.9,66.5c0,5.6-4.5,10.1-10.1,10.1s-10.1-4.5-10.1-10.1c0-5.6,4.5-10.1,10.1-10.1
			C36.3,56.4,40.9,60.9,40.9,66.5C40.9,66.5,40.9,66.5,40.9,66.5"/>
		<path id="Path_4136" class="st1" d="M145.5,72.9c-57.8,0-104.6,46.8-104.6,104.6S87.8,282,145.5,282
			c57.8,0,104.6-46.8,104.6-104.6C250,119.7,203.2,72.9,145.5,72.9 M145.5,293.3c-64,0-115.8-51.9-115.8-115.8
			c0-64,51.9-115.8,115.8-115.8c64,0,115.8,51.9,115.8,115.8C261.3,241.4,209.4,293.2,145.5,293.3"/>
		<path id="Path_4137" class="st1" d="M119.4,151.5c-3.1,0-5.6-2.5-5.6-5.6c0,0,0,0,0,0c0-8.6-7-15.7-15.7-15.7
			c-8.6,0-15.7,7-15.7,15.7l0,0c0,3.1-2.5,5.6-5.6,5.6s-5.6-2.5-5.6-5.6c0-14.9,12-26.9,26.9-26.9c14.9,0,26.9,12,26.9,26.9
			C125.1,149,122.5,151.5,119.4,151.5"/>
		<path id="Path_4138" class="st1" d="M214.1,151.5c-3.1,0-5.6-2.5-5.6-5.6c0,0,0,0,0,0c0-8.6-7-15.7-15.7-15.7
			c-8.6,0-15.7,7-15.7,15.7c0,3.1-2.5,5.6-5.6,5.6c-3.1,0-5.6-2.5-5.6-5.6c0,0,0,0,0,0c0-14.9,12-26.9,26.9-26.9
			c14.9,0,26.9,12,26.9,26.9C219.7,149,217.2,151.5,214.1,151.5"/>
		<path id="Path_4139" class="st1" d="M196.6,226.2c-10.1-14.5-29.6-23.8-51.1-23.8s-40.9,9.3-51.1,23.8
			c-10.4-11.3-16.7-25.8-17.9-41h138C213.3,200.4,206.9,214.9,196.6,226.2 M102.8,233.9c7.7-12.3,24.2-20.3,42.7-20.3
			s35,8,42.7,20.3C163.2,253.7,127.9,253.7,102.8,233.9 M220.3,173.9H70.7c-3.1,0-5.6,2.5-5.6,5.6c0,44.4,36,80.5,80.5,80.5
			s80.5-36,80.5-80.5C226,176.4,223.5,173.9,220.3,173.9"/>
	</g>
</g>
</svg>
