<?xml version="1.0" encoding="utf-8"?>
<!-- Generator: Adobe Illustrator 26.0.1, SVG Export Plug-In . SVG Version: 6.00 Build 0)  -->
<svg version="1.1" id="Layer_1" xmlns="http://www.w3.org/2000/svg" xmlns:xlink="http://www.w3.org/1999/xlink" x="0px" y="0px"
	 viewBox="0 0 797.5 834.5" style="enable-background:new 0 0 797.5 834.5;" xml:space="preserve">
<style type="text/css">
	.st0{fill:#7F7F7F;}
	.st1{fill:#339989;}
	.st2{fill:#F9595F;}
	.st3{fill:#200E32;}
</style>
<g>
	<ellipse class="st0" cx="398.8" cy="723.8" rx="308.5" ry="54.5"/>
	<circle class="st1" cx="649.2" cy="688.2" r="43"/>
	<circle class="st1" cx="144.2" cy="673.2" r="43"/>
	<circle class="st1" cx="144.2" cy="616.2" r="31"/>
	<circle class="st1" cx="144.2" cy="568.2" r="22"/>
</g>
<g>
	<circle class="st2" cx="415" cy="348.5" r="292.2"/>
	<circle class="st2" cx="415" cy="348.5" r="241.3"/>
	<circle class="st2" cx="415" cy="348.5" r="197.7"/>
	<circle class="st2" cx="415" cy="348.5" r="141.8"/>
	<path class="st3" d="M364,230.8c8.6,0.3,17,1.8,25.1,4.5l0,0h0.8c0.5,0.3,1,0.5,1.2,0.8c3,1,5.9,2.1,8.6,3.6l0,0l5.2,2.3
		c2.1,1.1,4.5,3.1,5.9,4c1.4,0.8,2.9,1.6,4.1,2.6c15.2-11.6,33.7-17.9,52.8-17.8c8.7,0,17.3,1.2,25.5,4
		c50.6,16.5,68.8,72,53.6,120.5c-8.6,24.8-22.8,47.4-41.3,65.9c-26.5,25.6-55.5,48.4-86.8,68l0,0l-3.4,2.1l-3.6-2.2
		c-31.4-19.5-60.6-42.2-87.3-68c-18.4-18.5-32.5-41-41.3-65.8c-15.5-48.5,2.7-104.1,53.9-120.8c4-1.4,8.1-2.3,12.2-2.9l0,0h1.6
		c3.9-0.6,7.7-0.8,11.5-0.8l0,0H364z M468.3,283.4c-4.2-1.4-8.8,0.8-10.4,5.1c-1.4,4.3,0.8,9,5.1,10.6c6.6,2.5,11,8.9,11,16.1l0,0
		v0.3c-0.2,2.4,0.5,4.6,2,6.4c1.4,1.7,3.6,2.8,5.9,3c4.2-0.1,7.8-3.5,8.1-7.8l0,0v-1.2C490.3,301.4,481.6,288.4,468.3,283.4z"/>
</g>
</svg>
