<?xml version="1.0" encoding="utf-8"?>
<!-- Generator: Adobe Illustrator 26.0.1, SVG Export Plug-In . SVG Version: 6.00 Build 0)  -->
<svg version="1.1" id="Layer_1" xmlns="http://www.w3.org/2000/svg" xmlns:xlink="http://www.w3.org/1999/xlink" x="0px" y="0px"
	 viewBox="0 0 395.1 167.6" style="enable-background:new 0 0 395.1 167.6;" xml:space="preserve">
<style type="text/css">
	.st0{fill:#090808;}
	.st1{fill:#E16D64;}
	.st2{fill:#FFFFFF;}
</style>
<g>
	<path class="st0" d="M529.8-178.2c-0.7,0-1.1,0.2-1.4,0.5c-0.6,0.6-0.6,1.3-0.6,1.3v-1.9v-1.6v-1.4v-2.4c0,0,0.2,1.1,0.8,1.6
		c0.3,0.3,0.6,0.5,1.3,0.5c0,0,9.5,0,9.8,0c0.9,0,1.9-0.7,2.3-1.8l2,5.1L529.8-178.2z"/>
	<path class="st0" d="M539.3-168.2h-9.5c-0.7,0-1.1,0.2-1.4,0.5c-0.6,0.6-0.6,1.3-0.6,1.3v-1.9v-1.6v-1.6v-2.4c0,0,0.2,1.2,0.8,1.6
		c0.3,0.3,0.6,0.5,1.3,0.5c0,0,9.1,0,9.5,0c0,0,2.6,0.1,2.6-2.6c0-2.1-0.6-3.1-0.6-3.1s2.9,1.9,2.6,6
		C543.8-167.9,539.3-168.2,539.3-168.2"/>
	<path class="st0" d="M539.3-158.2H510c-0.7,0-1.1,0.2-1.4,0.5c-0.6,0.6-0.7,1.3-0.7,1.3v-1.9v-1.6v-1.4v-2.4c0,0,0.3,1.2,0.9,1.6
		c0.3,0.3,0.6,0.5,1.3,0.5c0,0,28.9,0,29.2,0c0,0,2.6,0.1,2.6-2.6c0-2.1-0.6-3.1-0.6-3.1s2.9,1.9,2.6,6
		C543.8-157.9,539.3-158.2,539.3-158.2"/>
	<path class="st0" d="M519.5-148.2H510c-0.6,0-1.1,0.2-1.4,0.5c-0.6,0.7-0.7,1.4-0.7,1.4v-1.9v-1.6v-1.5v-2.4c0,0,0.2,1.2,0.8,1.6
		c0.3,0.3,0.6,0.5,1.3,0.5c0,0,9.1,0,9.5,0c0,0,2.6,0.1,2.6-2.6c0-2.1-0.6-3.1-0.6-3.1s2.9,1.9,2.6,6
		C523.9-147.9,519.5-148.2,519.5-148.2"/>
	<path class="st0" d="M519.5-138.1H510c-0.6,0-1.1,0.2-1.4,0.5c-0.6,0.6-0.7,1.3-0.7,1.3v-1.9v-1.6v-1.5v-2.4c0,0,0.2,1.1,0.8,1.6
		c0.3,0.3,0.6,0.5,1.3,0.5c0,0,9.1,0,9.5,0c0,0,2.6,0.1,2.6-2.6c0-2.1-0.6-3.1-0.6-3.1s2.9,1.9,2.6,6
		C523.9-137.8,519.5-138.1,519.5-138.1"/>
	<path class="st0" d="M533.2-189.1c0,0.7,0.2,1.1,0.5,1.4c0.6,0.6,1.3,0.6,1.3,0.6h-1.9h-1.6H530h-2.4c0,0,1.2-0.2,1.6-0.8
		c0.3-0.3,0.5-0.6,0.5-1.3c0,0,0-9.5,0-9.8c0-0.9-0.7-1.9-1.8-2.3l5.1-2L533.2-189.1z"/>
	<path class="st0" d="M543.1-198.6v9.5c0,0.7,0.2,1.1,0.5,1.4c0.6,0.6,1.3,0.6,1.3,0.6H543h-1.6H540h-2.4c0,0,1.2-0.2,1.6-0.8
		c0.3-0.3,0.5-0.6,0.5-1.3c0,0,0-9.1,0-9.5c0,0,0.1-2.6-2.6-2.6c-2.1,0-3.1,0.6-3.1,0.6s1.9-2.9,6-2.6
		C543.4-203,543.1-198.6,543.1-198.6"/>
	<path class="st0" d="M553.1-198.6v29.3c0,0.6,0.2,1.1,0.5,1.4c0.6,0.6,1.3,0.7,1.3,0.7H553h-1.6H550h-2.4c0,0,1.2-0.3,1.6-0.9
		c0.3-0.3,0.5-0.6,0.5-1.3c0,0,0-28.9,0-29.2c0,0,0.1-2.6-2.6-2.6c-2.1,0-3.1,0.6-3.1,0.6s1.9-2.9,6-2.6
		C553.5-203,553.1-198.6,553.1-198.6"/>
	<path class="st0" d="M563.2-178.7v9.5c0,0.7,0.2,1.1,0.5,1.4c0.6,0.6,1.3,0.6,1.3,0.6h-1.9h-1.6H560h-2.4c0,0,1.2-0.2,1.6-0.8
		c0.3-0.3,0.5-0.6,0.5-1.3c0,0,0-9.1,0-9.5c0,0,0.1-2.6-2.6-2.6c-2.1,0-3.1,0.6-3.1,0.6s1.9-2.9,6-2.6
		C563.5-183.1,563.2-178.7,563.2-178.7"/>
	<path class="st0" d="M573.2-178.7v9.5c0,0.7,0.2,1.1,0.5,1.4c0.6,0.6,1.3,0.6,1.3,0.6h-1.9h-1.6h-1.6h-2.4c0,0,1.2-0.2,1.6-0.8
		c0.3-0.3,0.5-0.6,0.5-1.3c0,0,0-9.1,0-9.5c0,0,0.1-2.6-2.6-2.6c-2.1,0-3.1,0.6-3.1,0.6s1.9-2.9,6-2.6
		C573.5-183.1,573.2-178.7,573.2-178.7"/>
	<path class="st0" d="M522.2-192.4c0.7,0,1.1-0.2,1.4-0.5c0.6-0.6,0.6-1.3,0.6-1.3v1.9v1.6v1.4v2.4c0,0-0.2-1.2-0.8-1.6
		c-0.3-0.3-0.6-0.5-1.3-0.5c0,0-9.5,0-9.8,0c-0.9,0-1.9,0.7-2.3,1.8l-2-5.1L522.2-192.4z"/>
	<path class="st0" d="M512.7-202.4h9.5c0.7,0,1.1-0.2,1.4-0.5c0.6-0.6,0.6-1.3,0.6-1.3v1.9v1.6v1.6v2.4c0,0-0.2-1.2-0.8-1.6
		c-0.3-0.3-0.6-0.5-1.3-0.5c0,0-9.1,0-9.5,0c0,0-2.6-0.1-2.6,2.6c0,2.1,0.6,3.1,0.6,3.1s-2.9-1.9-2.6-6
		C508.3-202.7,512.7-202.4,512.7-202.4"/>
	<path class="st0" d="M512.7-212.4H542c0.7,0,1.1-0.2,1.4-0.5c0.6-0.6,0.7-1.3,0.7-1.3v1.9v1.6v1.4v2.4c0,0-0.3-1.2-0.9-1.6
		c-0.3-0.3-0.6-0.5-1.3-0.5c0,0-28.9,0-29.2,0c0,0-2.6-0.1-2.6,2.6c0,2.1,0.6,3.1,0.6,3.1s-2.9-1.9-2.6-6
		C508.3-212.7,512.7-212.4,512.7-212.4"/>
	<path class="st0" d="M532.6-222.4h9.5c0.6,0,1.1-0.2,1.4-0.5c0.6-0.6,0.6-1.3,0.6-1.3v1.9v1.6v1.4v2.4c0,0-0.2-1.2-0.8-1.6
		c-0.3-0.3-0.6-0.5-1.3-0.5c0,0-9.1,0-9.5,0c0,0-2.6-0.1-2.6,2.6c0,2.1,0.6,3.1,0.6,3.1s-2.9-1.9-2.6-6
		C528.2-222.7,532.6-222.4,532.6-222.4"/>
	<path class="st0" d="M532.6-232.4h9.5c0.6,0,1.1-0.2,1.4-0.5c0.6-0.7,0.6-1.4,0.6-1.4v1.9v1.6v1.5v2.4c0,0-0.2-1.2-0.8-1.6
		c-0.3-0.3-0.6-0.5-1.3-0.5c0,0-9.1,0-9.5,0c0,0-2.6-0.1-2.6,2.6c0,2.1,0.6,3.1,0.6,3.1s-2.9-1.9-2.6-6
		C528.2-232.8,532.6-232.4,532.6-232.4"/>
	<path class="st0" d="M518.8-181.6c0-0.7-0.2-1.1-0.5-1.4c-0.6-0.6-1.3-0.6-1.3-0.6h1.9h1.6h1.5h2.4c0,0-1.2,0.2-1.6,0.8
		c-0.3,0.3-0.5,0.6-0.5,1.3c0,0,0,9.5,0,9.8c0,0.9,0.7,1.9,1.8,2.3l-5.1,2L518.8-181.6z"/>
	<path class="st0" d="M508.9-172.1v-9.5c0-0.7-0.2-1.1-0.5-1.4c-0.6-0.6-1.3-0.6-1.3-0.6h1.9h1.6h1.4h2.4c0,0-1.1,0.2-1.6,0.8
		c-0.3,0.3-0.5,0.6-0.5,1.3c0,0,0,9.1,0,9.5c0,0-0.1,2.6,2.6,2.6c2.1,0,3.1-0.6,3.1-0.6s-1.9,2.9-6,2.6
		C508.6-167.6,508.9-172.1,508.9-172.1"/>
	<path class="st0" d="M498.9-172.1v-29.3c0-0.7-0.2-1.1-0.5-1.4c-0.7-0.5-1.4-0.6-1.4-0.6h1.9h1.6h1.5h2.4c0,0-1.2,0.3-1.6,0.9
		c-0.3,0.3-0.5,0.6-0.5,1.3c0,0,0,28.9,0,29.2c0,0-0.1,2.6,2.6,2.6c2.1,0,3.1-0.6,3.1-0.6s-1.9,2.9-6,2.6
		C498.5-167.6,498.9-172.1,498.9-172.1"/>
	<path class="st0" d="M488.8-191.9v-9.5c0-0.7-0.2-1.1-0.5-1.4c-0.6-0.6-1.3-0.6-1.3-0.6h1.9h1.6h1.5h2.4c0,0-1.1,0.2-1.6,0.8
		c-0.3,0.3-0.5,0.6-0.5,1.3c0,0,0,9.1,0,9.5c0,0-0.1,2.6,2.6,2.6c2.1,0,3.1-0.6,3.1-0.6s-1.9,2.9-6,2.6
		C488.5-187.5,488.8-191.9,488.8-191.9"/>
	<path class="st0" d="M478.8-191.9v-9.5c0-0.7-0.2-1.1-0.5-1.4c-0.6-0.6-1.3-0.6-1.3-0.6h1.9h1.6h1.6h2.4c0,0-1.2,0.2-1.6,0.8
		c-0.5,0.3-0.8,0.6-0.8,1.3c0,0,0,9.1,0,9.5c0,0-0.1,2.6,2.6,2.6c2.1,0,3.1-0.6,3.1-0.6s-1.9,2.9-6,2.6
		C478.5-187.5,478.8-191.9,478.8-191.9"/>
</g>
<g>
	<path class="st1" d="M364.8-178.2c-0.7,0-1.1,0.2-1.4,0.5c-0.6,0.6-0.6,1.3-0.6,1.3v-1.9v-1.6v-1.4v-2.4c0,0,0.2,1.1,0.8,1.6
		c0.3,0.3,0.6,0.5,1.3,0.5c0,0,9.5,0,9.8,0c0.9,0,1.9-0.7,2.3-1.8l2,5.1L364.8-178.2z"/>
	<path class="st1" d="M374.3-168.2h-9.5c-0.7,0-1.1,0.2-1.4,0.5c-0.6,0.6-0.6,1.3-0.6,1.3v-1.9v-1.6v-1.6v-2.4c0,0,0.2,1.2,0.8,1.6
		c0.3,0.3,0.6,0.5,1.3,0.5c0,0,9.1,0,9.5,0c0,0,2.6,0.1,2.6-2.6c0-2.1-0.6-3.1-0.6-3.1s2.9,1.9,2.6,6
		C378.8-167.9,374.3-168.2,374.3-168.2"/>
	<path class="st1" d="M374.3-158.2H345c-0.7,0-1.1,0.2-1.4,0.5c-0.6,0.6-0.7,1.3-0.7,1.3v-1.9v-1.6v-1.4v-2.4c0,0,0.3,1.2,0.9,1.6
		c0.3,0.3,0.6,0.5,1.3,0.5c0,0,28.9,0,29.2,0c0,0,2.6,0.1,2.6-2.6c0-2.1-0.6-3.1-0.6-3.1s2.9,1.9,2.6,6
		C378.8-157.9,374.3-158.2,374.3-158.2"/>
	<path class="st1" d="M354.5-148.2H345c-0.6,0-1.1,0.2-1.4,0.5c-0.6,0.7-0.7,1.4-0.7,1.4v-1.9v-1.6v-1.5v-2.4c0,0,0.2,1.2,0.8,1.6
		c0.3,0.3,0.6,0.5,1.3,0.5c0,0,9.1,0,9.5,0c0,0,2.6,0.1,2.6-2.6c0-2.1-0.6-3.1-0.6-3.1s2.9,1.9,2.6,6
		C358.9-147.9,354.5-148.2,354.5-148.2"/>
	<path class="st1" d="M354.5-138.1H345c-0.6,0-1.1,0.2-1.4,0.5c-0.6,0.6-0.7,1.3-0.7,1.3v-1.9v-1.6v-1.5v-2.4c0,0,0.2,1.1,0.8,1.6
		c0.3,0.3,0.6,0.5,1.3,0.5c0,0,9.1,0,9.5,0c0,0,2.6,0.1,2.6-2.6c0-2.1-0.6-3.1-0.6-3.1s2.9,1.9,2.6,6
		C358.9-137.8,354.5-138.1,354.5-138.1"/>
	<path class="st1" d="M368.2-189.1c0,0.7,0.2,1.1,0.5,1.4c0.6,0.6,1.3,0.6,1.3,0.6h-1.9h-1.6H365h-2.4c0,0,1.2-0.2,1.6-0.8
		c0.3-0.3,0.5-0.6,0.5-1.3c0,0,0-9.5,0-9.8c0-0.9-0.7-1.9-1.8-2.3l5.1-2L368.2-189.1z"/>
	<path class="st1" d="M378.1-198.6v9.5c0,0.7,0.2,1.1,0.5,1.4c0.6,0.6,1.3,0.6,1.3,0.6H378h-1.6H375h-2.4c0,0,1.2-0.2,1.6-0.8
		c0.3-0.3,0.5-0.6,0.5-1.3c0,0,0-9.1,0-9.5c0,0,0.1-2.6-2.6-2.6c-2.1,0-3.1,0.6-3.1,0.6s1.9-2.9,6-2.6
		C378.4-203,378.1-198.6,378.1-198.6"/>
	<path class="st1" d="M388.1-198.6v29.3c0,0.6,0.2,1.1,0.5,1.4c0.6,0.6,1.3,0.7,1.3,0.7H388h-1.6H385h-2.4c0,0,1.2-0.3,1.6-0.9
		c0.3-0.3,0.5-0.6,0.5-1.3c0,0,0-28.9,0-29.2c0,0,0.1-2.6-2.6-2.6c-2.1,0-3.1,0.6-3.1,0.6s1.9-2.9,6-2.6
		C388.5-203,388.1-198.6,388.1-198.6"/>
	<path class="st1" d="M398.2-178.7v9.5c0,0.7,0.2,1.1,0.5,1.4c0.6,0.6,1.3,0.6,1.3,0.6h-1.9h-1.6H395h-2.4c0,0,1.2-0.2,1.6-0.8
		c0.3-0.3,0.5-0.6,0.5-1.3c0,0,0-9.1,0-9.5c0,0,0.1-2.6-2.6-2.6c-2.1,0-3.1,0.6-3.1,0.6s1.9-2.9,6-2.6
		C398.5-183.1,398.2-178.7,398.2-178.7"/>
	<path class="st1" d="M408.2-178.7v9.5c0,0.7,0.2,1.1,0.5,1.4c0.6,0.6,1.3,0.6,1.3,0.6h-1.9h-1.6h-1.6h-2.4c0,0,1.2-0.2,1.6-0.8
		c0.3-0.3,0.5-0.6,0.5-1.3c0,0,0-9.1,0-9.5c0,0,0.1-2.6-2.6-2.6c-2.1,0-3.1,0.6-3.1,0.6s1.9-2.9,6-2.6
		C408.5-183.1,408.2-178.7,408.2-178.7"/>
	<path class="st1" d="M357.2-192.4c0.7,0,1.1-0.2,1.4-0.5c0.6-0.6,0.6-1.3,0.6-1.3v1.9v1.6v1.4v2.4c0,0-0.2-1.2-0.8-1.6
		c-0.3-0.3-0.6-0.5-1.3-0.5c0,0-9.5,0-9.8,0c-0.9,0-1.9,0.7-2.3,1.8l-2-5.1L357.2-192.4z"/>
	<path class="st1" d="M347.7-202.4h9.5c0.7,0,1.1-0.2,1.4-0.5c0.6-0.6,0.6-1.3,0.6-1.3v1.9v1.6v1.6v2.4c0,0-0.2-1.2-0.8-1.6
		c-0.3-0.3-0.6-0.5-1.3-0.5c0,0-9.1,0-9.5,0c0,0-2.6-0.1-2.6,2.6c0,2.1,0.6,3.1,0.6,3.1s-2.9-1.9-2.6-6
		C343.3-202.7,347.7-202.4,347.7-202.4"/>
	<path class="st1" d="M347.7-212.4H377c0.7,0,1.1-0.2,1.4-0.5c0.6-0.6,0.7-1.3,0.7-1.3v1.9v1.6v1.4v2.4c0,0-0.3-1.2-0.9-1.6
		c-0.3-0.3-0.6-0.5-1.3-0.5c0,0-28.9,0-29.2,0c0,0-2.6-0.1-2.6,2.6c0,2.1,0.6,3.1,0.6,3.1s-2.9-1.9-2.6-6
		C343.3-212.7,347.7-212.4,347.7-212.4"/>
	<path class="st1" d="M367.6-222.4h9.5c0.6,0,1.1-0.2,1.4-0.5c0.6-0.6,0.6-1.3,0.6-1.3v1.9v1.6v1.4v2.4c0,0-0.2-1.2-0.8-1.6
		c-0.3-0.3-0.6-0.5-1.3-0.5c0,0-9.1,0-9.5,0c0,0-2.6-0.1-2.6,2.6c0,2.1,0.6,3.1,0.6,3.1s-2.9-1.9-2.6-6
		C363.2-222.7,367.6-222.4,367.6-222.4"/>
	<path class="st1" d="M367.6-232.4h9.5c0.6,0,1.1-0.2,1.4-0.5c0.6-0.7,0.6-1.4,0.6-1.4v1.9v1.6v1.5v2.4c0,0-0.2-1.2-0.8-1.6
		c-0.3-0.3-0.6-0.5-1.3-0.5c0,0-9.1,0-9.5,0c0,0-2.6-0.1-2.6,2.6c0,2.1,0.6,3.1,0.6,3.1s-2.9-1.9-2.6-6
		C363.2-232.8,367.6-232.4,367.6-232.4"/>
	<path class="st1" d="M353.8-181.6c0-0.7-0.2-1.1-0.5-1.4c-0.6-0.6-1.3-0.6-1.3-0.6h1.9h1.6h1.5h2.4c0,0-1.2,0.2-1.6,0.8
		c-0.3,0.3-0.5,0.6-0.5,1.3c0,0,0,9.5,0,9.8c0,0.9,0.7,1.9,1.8,2.3l-5.1,2L353.8-181.6z"/>
	<path class="st1" d="M343.9-172.1v-9.5c0-0.7-0.2-1.1-0.5-1.4c-0.6-0.6-1.3-0.6-1.3-0.6h1.9h1.6h1.4h2.4c0,0-1.1,0.2-1.6,0.8
		c-0.3,0.3-0.5,0.6-0.5,1.3c0,0,0,9.1,0,9.5c0,0-0.1,2.6,2.6,2.6c2.1,0,3.1-0.6,3.1-0.6s-1.9,2.9-6,2.6
		C343.6-167.6,343.9-172.1,343.9-172.1"/>
	<path class="st1" d="M333.9-172.1v-29.3c0-0.7-0.2-1.1-0.5-1.4c-0.7-0.5-1.4-0.6-1.4-0.6h1.9h1.6h1.5h2.4c0,0-1.2,0.3-1.6,0.9
		c-0.3,0.3-0.5,0.6-0.5,1.3c0,0,0,28.9,0,29.2c0,0-0.1,2.6,2.6,2.6c2.1,0,3.1-0.6,3.1-0.6s-1.9,2.9-6,2.6
		C333.5-167.6,333.9-172.1,333.9-172.1"/>
	<path class="st1" d="M323.8-191.9v-9.5c0-0.7-0.2-1.1-0.5-1.4c-0.6-0.6-1.3-0.6-1.3-0.6h1.9h1.6h1.5h2.4c0,0-1.1,0.2-1.6,0.8
		c-0.3,0.3-0.5,0.6-0.5,1.3c0,0,0,9.1,0,9.5c0,0-0.1,2.6,2.6,2.6c2.1,0,3.1-0.6,3.1-0.6s-1.9,2.9-6,2.6
		C323.5-187.5,323.8-191.9,323.8-191.9"/>
	<path class="st1" d="M313.8-191.9v-9.5c0-0.7-0.2-1.1-0.5-1.4c-0.6-0.6-1.3-0.6-1.3-0.6h1.9h1.6h1.6h2.4c0,0-1.2,0.2-1.6,0.8
		c-0.5,0.3-0.8,0.6-0.8,1.3c0,0,0,9.1,0,9.5c0,0-0.1,2.6,2.6,2.6c2.1,0,3.1-0.6,3.1-0.6s-1.9,2.9-6,2.6
		C313.5-187.5,313.8-191.9,313.8-191.9"/>
</g>
<g>
	<path class="st2" d="M691.8-178.2c-0.7,0-1.1,0.2-1.4,0.5c-0.6,0.6-0.6,1.3-0.6,1.3v-1.9v-1.6v-1.4v-2.4c0,0,0.2,1.1,0.8,1.6
		c0.3,0.3,0.6,0.5,1.3,0.5c0,0,9.5,0,9.8,0c0.9,0,1.9-0.7,2.3-1.8l2,5.1L691.8-178.2z"/>
	<path class="st2" d="M701.3-168.2h-9.5c-0.7,0-1.1,0.2-1.4,0.5c-0.6,0.6-0.6,1.3-0.6,1.3v-1.9v-1.6v-1.6v-2.4c0,0,0.2,1.2,0.8,1.6
		c0.3,0.3,0.6,0.5,1.3,0.5c0,0,9.1,0,9.5,0c0,0,2.6,0.1,2.6-2.6c0-2.1-0.6-3.1-0.6-3.1s2.9,1.9,2.6,6
		C705.8-167.9,701.3-168.2,701.3-168.2"/>
	<path class="st2" d="M701.3-158.2H672c-0.7,0-1.1,0.2-1.4,0.5c-0.6,0.6-0.7,1.3-0.7,1.3v-1.9v-1.6v-1.4v-2.4c0,0,0.3,1.2,0.9,1.6
		c0.3,0.3,0.6,0.5,1.3,0.5c0,0,28.9,0,29.2,0c0,0,2.6,0.1,2.6-2.6c0-2.1-0.6-3.1-0.6-3.1s2.9,1.9,2.6,6
		C705.8-157.9,701.3-158.2,701.3-158.2"/>
	<path class="st2" d="M681.5-148.2H672c-0.6,0-1.1,0.2-1.4,0.5c-0.6,0.7-0.7,1.4-0.7,1.4v-1.9v-1.6v-1.5v-2.4c0,0,0.2,1.2,0.8,1.6
		c0.3,0.3,0.6,0.5,1.3,0.5c0,0,9.1,0,9.5,0c0,0,2.6,0.1,2.6-2.6c0-2.1-0.6-3.1-0.6-3.1s2.9,1.9,2.6,6
		C685.9-147.9,681.5-148.2,681.5-148.2"/>
	<path class="st2" d="M681.5-138.1H672c-0.6,0-1.1,0.2-1.4,0.5c-0.6,0.6-0.7,1.3-0.7,1.3v-1.9v-1.6v-1.5v-2.4c0,0,0.2,1.1,0.8,1.6
		c0.3,0.3,0.6,0.5,1.3,0.5c0,0,9.1,0,9.5,0c0,0,2.6,0.1,2.6-2.6c0-2.1-0.6-3.1-0.6-3.1s2.9,1.9,2.6,6
		C685.9-137.8,681.5-138.1,681.5-138.1"/>
	<path class="st2" d="M695.2-189.1c0,0.7,0.2,1.1,0.5,1.4c0.6,0.6,1.3,0.6,1.3,0.6h-1.9h-1.6H692h-2.4c0,0,1.2-0.2,1.6-0.8
		c0.3-0.3,0.5-0.6,0.5-1.3c0,0,0-9.5,0-9.8c0-0.9-0.7-1.9-1.8-2.3l5.1-2L695.2-189.1z"/>
	<path class="st2" d="M705.1-198.6v9.5c0,0.7,0.2,1.1,0.5,1.4c0.6,0.6,1.3,0.6,1.3,0.6H705h-1.6H702h-2.4c0,0,1.2-0.2,1.6-0.8
		c0.3-0.3,0.5-0.6,0.5-1.3c0,0,0-9.1,0-9.5c0,0,0.1-2.6-2.6-2.6c-2.1,0-3.1,0.6-3.1,0.6s1.9-2.9,6-2.6
		C705.4-203,705.1-198.6,705.1-198.6"/>
	<path class="st2" d="M715.1-198.6v29.3c0,0.6,0.2,1.1,0.5,1.4c0.6,0.6,1.3,0.7,1.3,0.7H715h-1.6H712h-2.4c0,0,1.2-0.3,1.6-0.9
		c0.3-0.3,0.5-0.6,0.5-1.3c0,0,0-28.9,0-29.2c0,0,0.1-2.6-2.6-2.6c-2.1,0-3.1,0.6-3.1,0.6s1.9-2.9,6-2.6
		C715.5-203,715.1-198.6,715.1-198.6"/>
	<path class="st2" d="M725.2-178.7v9.5c0,0.7,0.2,1.1,0.5,1.4c0.6,0.6,1.3,0.6,1.3,0.6h-1.9h-1.6H722h-2.4c0,0,1.2-0.2,1.6-0.8
		c0.3-0.3,0.5-0.6,0.5-1.3c0,0,0-9.1,0-9.5c0,0,0.1-2.6-2.6-2.6c-2.1,0-3.1,0.6-3.1,0.6s1.9-2.9,6-2.6
		C725.5-183.1,725.2-178.7,725.2-178.7"/>
	<path class="st2" d="M735.2-178.7v9.5c0,0.7,0.2,1.1,0.5,1.4c0.6,0.6,1.3,0.6,1.3,0.6h-1.9h-1.6h-1.6h-2.4c0,0,1.2-0.2,1.6-0.8
		c0.3-0.3,0.5-0.6,0.5-1.3c0,0,0-9.1,0-9.5c0,0,0.1-2.6-2.6-2.6c-2.1,0-3.1,0.6-3.1,0.6s1.9-2.9,6-2.6
		C735.5-183.1,735.2-178.7,735.2-178.7"/>
	<path class="st2" d="M684.2-192.4c0.7,0,1.1-0.2,1.4-0.5c0.6-0.6,0.6-1.3,0.6-1.3v1.9v1.6v1.4v2.4c0,0-0.2-1.2-0.8-1.6
		c-0.3-0.3-0.6-0.5-1.3-0.5c0,0-9.5,0-9.8,0c-0.9,0-1.9,0.7-2.3,1.8l-2-5.1L684.2-192.4z"/>
	<path class="st2" d="M674.7-202.4h9.5c0.7,0,1.1-0.2,1.4-0.5c0.6-0.6,0.6-1.3,0.6-1.3v1.9v1.6v1.6v2.4c0,0-0.2-1.2-0.8-1.6
		c-0.3-0.3-0.6-0.5-1.3-0.5c0,0-9.1,0-9.5,0c0,0-2.6-0.1-2.6,2.6c0,2.1,0.6,3.1,0.6,3.1s-2.9-1.9-2.6-6
		C670.3-202.7,674.7-202.4,674.7-202.4"/>
	<path class="st2" d="M674.7-212.4H704c0.7,0,1.1-0.2,1.4-0.5c0.6-0.6,0.7-1.3,0.7-1.3v1.9v1.6v1.4v2.4c0,0-0.3-1.2-0.9-1.6
		c-0.3-0.3-0.6-0.5-1.3-0.5c0,0-28.9,0-29.2,0c0,0-2.6-0.1-2.6,2.6c0,2.1,0.6,3.1,0.6,3.1s-2.9-1.9-2.6-6
		C670.3-212.7,674.7-212.4,674.7-212.4"/>
	<path class="st2" d="M694.6-222.4h9.5c0.6,0,1.1-0.2,1.4-0.5c0.6-0.6,0.6-1.3,0.6-1.3v1.9v1.6v1.4v2.4c0,0-0.2-1.2-0.8-1.6
		c-0.3-0.3-0.6-0.5-1.3-0.5c0,0-9.1,0-9.5,0c0,0-2.6-0.1-2.6,2.6c0,2.1,0.6,3.1,0.6,3.1s-2.9-1.9-2.6-6
		C690.2-222.7,694.6-222.4,694.6-222.4"/>
	<path class="st2" d="M694.6-232.4h9.5c0.6,0,1.1-0.2,1.4-0.5c0.6-0.7,0.6-1.4,0.6-1.4v1.9v1.6v1.5v2.4c0,0-0.2-1.2-0.8-1.6
		c-0.3-0.3-0.6-0.5-1.3-0.5c0,0-9.1,0-9.5,0c0,0-2.6-0.1-2.6,2.6c0,2.1,0.6,3.1,0.6,3.1s-2.9-1.9-2.6-6
		C690.2-232.8,694.6-232.4,694.6-232.4"/>
	<path class="st2" d="M680.8-181.6c0-0.7-0.2-1.1-0.5-1.4c-0.6-0.6-1.3-0.6-1.3-0.6h1.9h1.6h1.5h2.4c0,0-1.2,0.2-1.6,0.8
		c-0.3,0.3-0.5,0.6-0.5,1.3c0,0,0,9.5,0,9.8c0,0.9,0.7,1.9,1.8,2.3l-5.1,2L680.8-181.6z"/>
	<path class="st2" d="M670.9-172.1v-9.5c0-0.7-0.2-1.1-0.5-1.4c-0.6-0.6-1.3-0.6-1.3-0.6h1.9h1.6h1.4h2.4c0,0-1.1,0.2-1.6,0.8
		c-0.3,0.3-0.5,0.6-0.5,1.3c0,0,0,9.1,0,9.5c0,0-0.1,2.6,2.6,2.6c2.1,0,3.1-0.6,3.1-0.6s-1.9,2.9-6,2.6
		C670.6-167.6,670.9-172.1,670.9-172.1"/>
	<path class="st2" d="M660.9-172.1v-29.3c0-0.7-0.2-1.1-0.5-1.4c-0.7-0.5-1.4-0.6-1.4-0.6h1.9h1.6h1.5h2.4c0,0-1.2,0.3-1.6,0.9
		c-0.3,0.3-0.5,0.6-0.5,1.3c0,0,0,28.9,0,29.2c0,0-0.1,2.6,2.6,2.6c2.1,0,3.1-0.6,3.1-0.6s-1.9,2.9-6,2.6
		C660.5-167.6,660.9-172.1,660.9-172.1"/>
	<path class="st2" d="M650.8-191.9v-9.5c0-0.7-0.2-1.1-0.5-1.4c-0.6-0.6-1.3-0.6-1.3-0.6h1.9h1.6h1.5h2.4c0,0-1.1,0.2-1.6,0.8
		c-0.3,0.3-0.5,0.6-0.5,1.3c0,0,0,9.1,0,9.5c0,0-0.1,2.6,2.6,2.6c2.1,0,3.1-0.6,3.1-0.6s-1.9,2.9-6,2.6
		C650.5-187.5,650.8-191.9,650.8-191.9"/>
	<path class="st2" d="M640.8-191.9v-9.5c0-0.7-0.2-1.1-0.5-1.4c-0.6-0.6-1.3-0.6-1.3-0.6h1.9h1.6h1.6h2.4c0,0-1.2,0.2-1.6,0.8
		c-0.5,0.3-0.8,0.6-0.8,1.3c0,0,0,9.1,0,9.5c0,0-0.1,2.6,2.6,2.6c2.1,0,3.1-0.6,3.1-0.6s-1.9,2.9-6,2.6
		C640.5-187.5,640.8-191.9,640.8-191.9"/>
</g>
<g>
	<path class="st2" d="M939.1,79.8c0,2.3,0.8,3.9,2,5c2.2,2.1,4.7,2.3,4.7,2.3h-6.7h-5.7h-5.6h-8.5c0,0,4.1-0.7,5.9-3
		c1-1.2,1.9-2.3,1.9-4.7c0,0,0-33.9,0-35.2c0-3.2-2.4-6.7-6.6-8.4c0,0,18.3-7.2,18.4-7.3L939.1,79.8z M974.8,45.6l0.1,34.1
		c0,2.3,0.8,3.9,2,5c2.2,2.1,4.7,2.3,4.7,2.3h-6.7h-5.7h-5.6H955c0,0,4.1-0.7,5.9-3c1-1.2,1.9-2.3,1.9-4.7c0,0,0-32.7,0-33.9
		c0,0,0.2-9.2-9.4-9.3c-7.7-0.1-11.1,2.2-11.1,2.2s6.7-10.5,21.6-9.4C975.9,29.8,974.8,45.6,974.8,45.6 M1010.8,45.6l0.1,105.1
		c0,2.3,0.8,3.9,2,5c2.2,2.1,4.7,2.6,4.7,2.6h-6.7h-5.7h-5.6H991c0,0,4.1-1,5.9-3.3c1-1.2,1.9-2.3,1.9-4.7c0,0,0-103.7,0-104.9
		c0,0,0.2-9.2-9.4-9.3c-7.7-0.1-11.1,2.2-11.1,2.2s6.7-10.5,21.6-9.4C1011.9,29.8,1010.8,45.6,1010.8,45.6 M1046.8,117l0.1,34.1
		c0,2.3,0.8,3.9,2,5c2.2,2.1,4.7,2.3,4.7,2.3h-6.7h-5.7h-5.6h-8.5c0,0,4.1-0.7,5.9-3c1-1.2,1.9-2.3,1.9-4.7c0,0,0-32.7,0-33.9
		c0,0,0.2-9.2-9.4-9.3c-7.7-0.1-11.1,2.2-11.1,2.2s6.7-10.5,21.6-9.4C1047.9,101.1,1046.8,117,1046.8,117 M1082.8,117l0.1,34.1
		c0,2.3,0.8,3.9,2,5c2.2,2.1,4.7,2.3,4.7,2.3h-6.7h-5.7h-5.6h-8.5c0,0,4.1-0.7,5.9-3c1-1.2,1.9-2.3,1.9-4.7c0,0,0-32.7,0-33.9
		c0,0,0.2-9.2-9.4-9.3c-7.7-0.1-11.1,2.2-11.1,2.2s6.7-10.5,21.6-9.4C1083.9,101.1,1082.8,117,1082.8,117 M1238.8,151.2
		c0,2.3,0.8,3.9,2,5c2.2,2.1,4.7,2.3,4.7,2.3h-6.7h-5.7h-5.6h-8.5c0,0,4.1-0.7,5.9-3c1-1.2,1.9-2.3,1.9-4.7c0,0,0-33.9,0-35.2
		c0-3.2-2.4-6.7-6.6-8.4c0,0,18.3-7.2,18.4-7.3L1238.8,151.2z M1274.4,117.1l0.1,34.1c0,2.3,0.8,3.9,2,5c2.2,2.1,4.7,2.3,4.7,2.3
		h-6.7h-5.7h-5.6h-8.5c0,0,4.1-0.7,5.9-3c1-1.2,1.9-2.3,1.9-4.7c0,0,0-32.7,0-33.9c0,0,0.2-9.2-9.4-9.3c-7.7-0.1-11.1,2.2-11.1,2.2
		s6.7-10.5,21.6-9.4C1275.6,101.3,1274.4,117.1,1274.4,117.1 M1079.5,79.8c0,2.3,0.8,3.9,2,5c2.2,2.1,4.7,2.3,4.7,2.3h-6.7h-5.7
		h-5.6h-8.5c0,0,4.1-0.7,5.9-3c1-1.2,1.9-2.3,1.9-4.7c0,0,0-33.9,0-35.2c0-3.2-2.4-6.7-6.6-8.4c0,0,18.3-7.2,18.4-7.3L1079.5,79.8z
		 M1045.5,79.8c0,2.3,0.8,3.9,2,5c2.2,2.1,4.7,2.3,4.7,2.3h-6.7h-5.7h-5.6h-8.5c0,0,4.1-0.7,5.9-3c1-1.2,1.9-2.3,1.9-4.7
		c0,0,0-33.9,0-35.2c0-3.2-2.4-6.7-6.6-8.4c0,0,18.3-7.2,18.4-7.3L1045.5,79.8z M1148.7,79.8c0,2.3,0.8,3.9,2,5
		c2.2,2.1,4.7,2.3,4.7,2.3h-6.7h-5.7h-5.6h-8.5c0,0,4.1-0.7,5.9-3c1-1.2,1.9-2.3,1.9-4.7c0,0,0-33.9,0-35.2c0-3.2-2.4-6.7-6.6-8.4
		c0,0,18.3-7.2,18.4-7.3L1148.7,79.8z M1115.2,45.6l0.1,34.1c0,2.3,0.8,3.9,2,5c2.2,2.1,4.7,2.3,4.7,2.3h-6.7h-5.7h-5.6h-8.5
		c0,0,4.1-0.7,5.9-3c1-1.2,1.9-2.3,1.9-4.7c0,0,0-32.7,0-33.9c0,0,0.2-9.2-9.4-9.3c-7.7-0.1-11.1,2.2-11.1,2.2s6.7-10.5,21.6-9.4
		C1116.4,29.8,1115.2,45.6,1115.2,45.6"/>
	<path class="st2" d="M1127.1,158c0,0-16.8-5.6-20.8-28c-4-22.4,6.1-27.4,6.1-27.4s-21.9,8.6-17.5,32.5
		C1099.8,162,1127.1,158,1127.1,158"/>
	<path class="st2" d="M1116.7,101.7c0,0,17.9,5.1,22,27.8c4.1,22.7-7,27.8-7,27.8s23.4-8.8,18.6-32.9
		C1144.8,96.6,1116.7,101.7,1116.7,101.7"/>
	<path class="st2" d="M1192.3,158c0,0-16.8-5.6-20.8-28c-4-22.4,6.1-27.4,6.1-27.4s-21.9,8.6-17.5,32.5
		C1165,162,1192.3,158,1192.3,158"/>
	<path class="st2" d="M1181.9,101.7c0,0,17.9,5.1,22,27.8c4.1,22.7-7,27.8-7,27.8s23.4-8.8,18.6-32.9
		C1210,96.6,1181.9,101.7,1181.9,101.7"/>
	<path class="st2" d="M1033,20L1033,20c-2.9-2.9-2.9-7.5,0-10.3c2.9-2.9,7.5-2.9,10.3,0s2.9,7.5,0,10.3
		C1040.5,22.8,1035.8,22.8,1033,20"/>
	<path class="st2" d="M1135.6,20L1135.6,20c-2.9-2.9-2.9-7.5,0-10.3s7.5-2.9,10.3,0c2.9,2.9,2.9,7.5,0,10.3
		C1143.1,22.8,1138.5,22.8,1135.6,20"/>
</g>
<g>
	<path class="st0" d="M484,79.8c0,2.3,0.8,3.9,2,5c2.2,2.1,4.7,2.3,4.7,2.3H484h-5.7h-5.6h-8.5c0,0,4.1-0.7,5.9-3
		c1-1.2,1.9-2.3,1.9-4.7c0,0,0-33.9,0-35.2c0-3.2-2.4-6.7-6.6-8.4c0,0,18.3-7.2,18.4-7.3L484,79.8z M519.7,45.6l0.1,34.1
		c0,2.3,0.8,3.9,2,5c2.2,2.1,4.7,2.3,4.7,2.3h-6.7h-5.7h-5.6H500c0,0,4.1-0.7,5.9-3c1-1.2,1.9-2.3,1.9-4.7c0,0,0-32.7,0-33.9
		c0,0,0.2-9.2-9.4-9.3c-7.7-0.1-11.1,2.2-11.1,2.2s6.7-10.5,21.6-9.4C520.9,29.8,519.7,45.6,519.7,45.6 M555.7,45.6l0.1,105.1
		c0,2.3,0.8,3.9,2,5c2.2,2.1,4.7,2.6,4.7,2.6h-6.7h-5.7h-5.6H536c0,0,4.1-1,5.9-3.3c1-1.2,1.9-2.3,1.9-4.7c0,0,0-103.7,0-104.9
		c0,0,0.2-9.2-9.4-9.3c-7.7-0.1-11.1,2.2-11.1,2.2s6.7-10.5,21.6-9.4C556.9,29.8,555.7,45.6,555.7,45.6 M591.7,117l0.1,34.1
		c0,2.3,0.8,3.9,2,5c2.2,2.1,4.7,2.3,4.7,2.3h-6.7h-5.7h-5.6H572c0,0,4.1-0.7,5.9-3c1-1.2,1.9-2.3,1.9-4.7c0,0,0-32.7,0-33.9
		c0,0,0.2-9.2-9.4-9.3c-7.7-0.1-11.1,2.2-11.1,2.2s6.7-10.5,21.6-9.4C592.9,101.1,591.7,117,591.7,117 M627.7,117l0.1,34.1
		c0,2.3,0.8,3.9,2,5c2.2,2.1,4.7,2.3,4.7,2.3h-6.7h-5.7h-5.6H608c0,0,4.1-0.7,5.9-3c1-1.2,1.9-2.3,1.9-4.7c0,0,0-32.7,0-33.9
		c0,0,0.2-9.2-9.4-9.3c-7.7-0.1-11.1,2.2-11.1,2.2s6.7-10.5,21.6-9.4C628.9,101.1,627.7,117,627.7,117 M783.7,151.2
		c0,2.3,0.8,3.9,2,5c2.2,2.1,4.7,2.3,4.7,2.3h-6.7H778h-5.6h-8.5c0,0,4.1-0.7,5.9-3c1-1.2,1.9-2.3,1.9-4.7c0,0,0-33.9,0-35.2
		c0-3.2-2.4-6.7-6.6-8.4c0,0,18.3-7.2,18.4-7.3L783.7,151.2z M819.4,117.1l0.1,34.1c0,2.3,0.8,3.9,2,5c2.2,2.1,4.7,2.3,4.7,2.3h-6.7
		h-5.7h-5.6h-8.5c0,0,4.1-0.7,5.9-3c1-1.2,1.9-2.3,1.9-4.7c0,0,0-32.7,0-33.9c0,0,0.2-9.2-9.4-9.3c-7.7-0.1-11.1,2.2-11.1,2.2
		s6.7-10.5,21.6-9.4C820.6,101.3,819.4,117.1,819.4,117.1 M624.5,79.8c0,2.3,0.8,3.9,2,5c2.2,2.1,4.7,2.3,4.7,2.3h-6.7h-5.7h-5.6
		h-8.5c0,0,4.1-0.7,5.9-3c1-1.2,1.9-2.3,1.9-4.7c0,0,0-33.9,0-35.2c0-3.2-2.4-6.7-6.6-8.4c0,0,18.3-7.2,18.4-7.3L624.5,79.8z
		 M590.4,79.8c0,2.3,0.8,3.9,2,5c2.2,2.1,4.7,2.3,4.7,2.3h-6.7h-5.7h-5.6h-8.5c0,0,4.1-0.7,5.9-3c1-1.2,1.9-2.3,1.9-4.7
		c0,0,0-33.9,0-35.2c0-3.2-2.4-6.7-6.6-8.4c0,0,18.3-7.2,18.4-7.3L590.4,79.8z M693.7,79.8c0,2.3,0.8,3.9,2,5
		c2.2,2.1,4.7,2.3,4.7,2.3h-6.7H688h-5.6h-8.5c0,0,4.1-0.7,5.9-3c1-1.2,1.9-2.3,1.9-4.7c0,0,0-33.9,0-35.2c0-3.2-2.4-6.7-6.6-8.4
		c0,0,18.3-7.2,18.4-7.3L693.7,79.8z M660.2,45.6l0.1,34.1c0,2.3,0.8,3.9,2,5c2.2,2.1,4.7,2.3,4.7,2.3h-6.7h-5.7H649h-8.5
		c0,0,4.1-0.7,5.9-3c1-1.2,1.9-2.3,1.9-4.7c0,0,0-32.7,0-33.9c0,0,0.2-9.2-9.4-9.3c-7.7-0.1-11.1,2.2-11.1,2.2s6.7-10.5,21.6-9.4
		C661.3,29.8,660.2,45.6,660.2,45.6"/>
	<path class="st0" d="M672.1,158c0,0-16.8-5.6-20.8-28c-4-22.4,6.1-27.4,6.1-27.4s-21.9,8.6-17.5,32.5
		C644.8,162,672.1,158,672.1,158"/>
	<path class="st0" d="M661.7,101.7c0,0,17.9,5.1,22,27.8c4.1,22.7-7,27.8-7,27.8s23.4-8.8,18.6-32.9
		C689.8,96.6,661.7,101.7,661.7,101.7"/>
	<path class="st0" d="M737.3,158c0,0-16.8-5.6-20.8-28c-4-22.4,6.1-27.4,6.1-27.4s-21.9,8.6-17.5,32.5
		C709.9,162,737.3,158,737.3,158"/>
	<path class="st0" d="M726.8,101.7c0,0,17.9,5.1,22,27.8c4.1,22.7-7,27.8-7,27.8s23.4-8.8,18.6-32.9
		C755,96.6,726.8,101.7,726.8,101.7"/>
	<path class="st0" d="M577.9,20L577.9,20c-2.9-2.9-2.9-7.5,0-10.3c2.9-2.9,7.5-2.9,10.3,0s2.9,7.5,0,10.3
		C585.4,22.8,580.8,22.8,577.9,20"/>
	<path class="st0" d="M680.6,20L680.6,20c-2.9-2.9-2.9-7.5,0-10.3c2.9-2.9,7.5-2.9,10.3,0s2.9,7.5,0,10.3
		C688.1,22.8,683.5,22.8,680.6,20"/>
</g>
<g>
	<path class="st1" d="M34.8,79.8c0,2.3,0.8,3.9,2,5c2.2,2.1,4.7,2.3,4.7,2.3h-6.7H29h-5.6h-8.5c0,0,4.1-0.7,5.9-3
		c1-1.2,1.9-2.3,1.9-4.7c0,0,0-33.9,0-35.2c0-3.2-2.4-6.7-6.6-8.4c0,0,18.3-7.2,18.4-7.3L34.8,79.8z M70.4,45.6l0.1,34.1
		c0,2.3,0.8,3.9,2,5c2.2,2.1,4.7,2.3,4.7,2.3h-6.7h-5.7h-5.6h-8.5c0,0,4.1-0.7,5.9-3c1-1.2,1.9-2.3,1.9-4.7c0,0,0-32.7,0-33.9
		c0,0,0.2-9.2-9.4-9.3C41.4,36,38,38.3,38,38.3s6.7-10.5,21.6-9.4C71.6,29.8,70.4,45.6,70.4,45.6 M106.4,45.6l0.1,105.1
		c0,2.3,0.8,3.9,2,5c2.2,2.1,4.7,2.6,4.7,2.6h-6.7h-5.7h-5.6h-8.5c0,0,4.1-1,5.9-3.3c1-1.2,1.9-2.3,1.9-4.7c0,0,0-103.7,0-104.9
		c0,0,0.2-9.2-9.4-9.3C77.4,36,74,38.3,74,38.3s6.7-10.5,21.6-9.4C107.6,29.8,106.4,45.6,106.4,45.6 M142.4,117l0.1,34.1
		c0,2.3,0.8,3.9,2,5c2.2,2.1,4.7,2.3,4.7,2.3h-6.7h-5.7h-5.6h-8.5c0,0,4.1-0.7,5.9-3c1-1.2,1.9-2.3,1.9-4.7c0,0,0-32.7,0-33.9
		c0,0,0.2-9.2-9.4-9.3c-7.7-0.1-11.1,2.2-11.1,2.2s6.7-10.5,21.6-9.4C143.6,101.1,142.4,117,142.4,117 M178.5,117l0.1,34.1
		c0,2.3,0.8,3.9,2,5c2.2,2.1,4.7,2.3,4.7,2.3h-6.7h-5.7h-5.6h-8.5c0,0,4.1-0.7,5.9-3c1-1.2,1.9-2.3,1.9-4.7c0,0,0-32.7,0-33.9
		c0,0,0.2-9.2-9.4-9.3c-7.7-0.1-11.1,2.2-11.1,2.2s6.7-10.5,21.6-9.4C179.6,101.1,178.5,117,178.5,117 M334.4,151.2
		c0,2.3,0.8,3.9,2,5c2.2,2.1,4.7,2.3,4.7,2.3h-6.7h-5.7h-5.6h-8.5c0,0,4.1-0.7,5.9-3c1-1.2,1.9-2.3,1.9-4.7c0,0,0-33.9,0-35.2
		c0-3.2-2.4-6.7-6.6-8.4c0,0,18.3-7.2,18.4-7.3L334.4,151.2z M370.1,117.1l0.1,34.1c0,2.3,0.8,3.9,2,5c2.2,2.1,4.7,2.3,4.7,2.3h-6.7
		h-5.7h-5.6h-8.5c0,0,4.1-0.7,5.9-3c1-1.2,1.9-2.3,1.9-4.7c0,0,0-32.7,0-33.9c0,0,0.2-9.2-9.4-9.3c-7.7-0.1-11.1,2.2-11.1,2.2
		s6.7-10.5,21.6-9.4C371.3,101.3,370.1,117.1,370.1,117.1 M175.2,79.8c0,2.3,0.8,3.9,2,5c2.2,2.1,4.7,2.3,4.7,2.3h-6.7h-5.7h-5.6
		h-8.5c0,0,4.1-0.7,5.9-3c1-1.2,1.9-2.3,1.9-4.7c0,0,0-33.9,0-35.2c0-3.2-2.4-6.7-6.6-8.4c0,0,18.3-7.2,18.4-7.3L175.2,79.8z
		 M141.1,79.8c0,2.3,0.8,3.9,2,5c2.2,2.1,4.7,2.3,4.7,2.3h-6.7h-5.7h-5.6h-8.5c0,0,4.1-0.7,5.9-3c1-1.2,1.9-2.3,1.9-4.7
		c0,0,0-33.9,0-35.2c0-3.2-2.4-6.7-6.6-8.4c0,0,18.3-7.2,18.4-7.3L141.1,79.8z M244.4,79.8c0,2.3,0.8,3.9,2,5
		c2.2,2.1,4.7,2.3,4.7,2.3h-6.7h-5.7h-5.6h-8.5c0,0,4.1-0.7,5.9-3c1-1.2,1.9-2.3,1.9-4.7c0,0,0-33.9,0-35.2c0-3.2-2.4-6.7-6.6-8.4
		c0,0,18.3-7.2,18.4-7.3L244.4,79.8z M210.9,45.6l0.1,34.1c0,2.3,0.8,3.9,2,5c2.2,2.1,4.7,2.3,4.7,2.3H211h-5.7h-5.6h-8.5
		c0,0,4.1-0.7,5.9-3c1-1.2,1.9-2.3,1.9-4.7c0,0,0-32.7,0-33.9c0,0,0.2-9.2-9.4-9.3c-7.7-0.1-11.1,2.2-11.1,2.2s6.7-10.5,21.6-9.4
		C212.1,29.8,210.9,45.6,210.9,45.6"/>
	<path class="st1" d="M222.8,158c0,0-16.8-5.6-20.8-28c-4-22.4,6.1-27.4,6.1-27.4s-21.9,8.6-17.5,32.5
		C195.5,162,222.8,158,222.8,158"/>
	<path class="st1" d="M212.4,101.7c0,0,17.9,5.1,22,27.8c4.1,22.7-7,27.8-7,27.8s23.4-8.8,18.6-32.9
		C240.5,96.6,212.4,101.7,212.4,101.7"/>
	<path class="st1" d="M288,158c0,0-16.8-5.6-20.8-28c-4-22.4,6.1-27.4,6.1-27.4s-21.9,8.6-17.5,32.5C260.6,162,288,158,288,158"/>
	<path class="st1" d="M277.5,101.7c0,0,17.9,5.1,22,27.8c4.1,22.7-7,27.8-7,27.8s23.4-8.8,18.6-32.9
		C305.7,96.6,277.5,101.7,277.5,101.7"/>
	<path class="st1" d="M128.7,20L128.7,20c-2.9-2.9-2.9-7.5,0-10.3c2.9-2.9,7.5-2.9,10.3,0c2.9,2.9,2.9,7.5,0,10.3
		C136.1,22.8,131.5,22.8,128.7,20"/>
	<path class="st1" d="M231.3,20L231.3,20c-2.9-2.9-2.9-7.5,0-10.3c2.9-2.9,7.5-2.9,10.3,0c2.9,2.9,2.9,7.5,0,10.3
		C238.8,22.8,234.2,22.8,231.3,20"/>
</g>
</svg>
