<?xml version="1.0" encoding="utf-8"?>
<!-- Generator: Adobe Illustrator 26.0.1, SVG Export Plug-In . SVG Version: 6.00 Build 0)  -->
<svg version="1.1" id="Layer_1" xmlns="http://www.w3.org/2000/svg" xmlns:xlink="http://www.w3.org/1999/xlink" x="0px" y="0px"
	 viewBox="0 0 395.1 167.6" style="enable-background:new 0 0 395.1 167.6;" xml:space="preserve">
<style type="text/css">
	.st0{fill:#090808;}
	.st1{fill:#E16D64;}
	.st2{fill:#FFFFFF;}
</style>
<g>
	<path class="st0" d="M80.5-178.2c-0.7,0-1.1,0.2-1.4,0.5c-0.6,0.6-0.6,1.3-0.6,1.3v-1.9v-1.6v-1.4v-2.4c0,0,0.2,1.1,0.8,1.6
		c0.3,0.3,0.6,0.5,1.3,0.5c0,0,9.5,0,9.8,0c0.9,0,1.9-0.7,2.3-1.8l2,5.1L80.5-178.2z"/>
	<path class="st0" d="M90-168.2h-9.5c-0.7,0-1.1,0.2-1.4,0.5c-0.6,0.6-0.6,1.3-0.6,1.3v-1.9v-1.6v-1.6v-2.4c0,0,0.2,1.2,0.8,1.6
		c0.3,0.3,0.6,0.5,1.3,0.5c0,0,9.1,0,9.5,0c0,0,2.6,0.1,2.6-2.6c0-2.1-0.6-3.1-0.6-3.1s2.9,1.9,2.6,6C94.5-167.9,90-168.2,90-168.2"
		/>
	<path class="st0" d="M90-158.2H60.7c-0.7,0-1.1,0.2-1.4,0.5c-0.6,0.6-0.7,1.3-0.7,1.3v-1.9v-1.6v-1.4v-2.4c0,0,0.3,1.2,0.9,1.6
		c0.3,0.3,0.6,0.5,1.3,0.5c0,0,28.9,0,29.2,0c0,0,2.6,0.1,2.6-2.6c0-2.1-0.6-3.1-0.6-3.1s2.9,1.9,2.6,6
		C94.5-157.9,90-158.2,90-158.2"/>
	<path class="st0" d="M70.2-148.2h-9.5c-0.6,0-1.1,0.2-1.4,0.5c-0.6,0.7-0.7,1.4-0.7,1.4v-1.9v-1.6v-1.5v-2.4c0,0,0.2,1.2,0.8,1.6
		c0.3,0.3,0.6,0.5,1.3,0.5c0,0,9.1,0,9.5,0c0,0,2.6,0.1,2.6-2.6c0-2.1-0.6-3.1-0.6-3.1s2.9,1.9,2.6,6
		C74.6-147.9,70.2-148.2,70.2-148.2"/>
	<path class="st0" d="M70.2-138.1h-9.5c-0.6,0-1.1,0.2-1.4,0.5c-0.6,0.6-0.7,1.3-0.7,1.3v-1.9v-1.6v-1.5v-2.4c0,0,0.2,1.1,0.8,1.6
		c0.3,0.3,0.6,0.5,1.3,0.5c0,0,9.1,0,9.5,0c0,0,2.6,0.1,2.6-2.6c0-2.1-0.6-3.1-0.6-3.1s2.9,1.9,2.6,6
		C74.6-137.8,70.2-138.1,70.2-138.1"/>
	<path class="st0" d="M83.9-189.1c0,0.7,0.2,1.1,0.5,1.4c0.6,0.6,1.3,0.6,1.3,0.6h-1.9h-1.6h-1.5h-2.4c0,0,1.2-0.2,1.6-0.8
		c0.3-0.3,0.5-0.6,0.5-1.3c0,0,0-9.5,0-9.8c0-0.9-0.7-1.9-1.8-2.3l5.1-2L83.9-189.1z"/>
	<path class="st0" d="M93.8-198.6v9.5c0,0.7,0.2,1.1,0.5,1.4c0.6,0.6,1.3,0.6,1.3,0.6h-1.9h-1.6h-1.4h-2.4c0,0,1.2-0.2,1.6-0.8
		c0.3-0.3,0.5-0.6,0.5-1.3c0,0,0-9.1,0-9.5c0,0,0.1-2.6-2.6-2.6c-2.1,0-3.1,0.6-3.1,0.6s1.9-2.9,6-2.6
		C94.1-203,93.8-198.6,93.8-198.6"/>
	<path class="st0" d="M103.8-198.6v29.3c0,0.6,0.2,1.1,0.5,1.4c0.6,0.6,1.3,0.7,1.3,0.7h-1.9h-1.6h-1.4h-2.4c0,0,1.2-0.3,1.6-0.9
		c0.3-0.3,0.5-0.6,0.5-1.3c0,0,0-28.9,0-29.2c0,0,0.1-2.6-2.6-2.6c-2.1,0-3.1,0.6-3.1,0.6s1.9-2.9,6-2.6
		C104.2-203,103.8-198.6,103.8-198.6"/>
	<path class="st0" d="M113.9-178.7v9.5c0,0.7,0.2,1.1,0.5,1.4c0.6,0.6,1.3,0.6,1.3,0.6h-1.9h-1.6h-1.5h-2.4c0,0,1.2-0.2,1.6-0.8
		c0.3-0.3,0.5-0.6,0.5-1.3c0,0,0-9.1,0-9.5c0,0,0.1-2.6-2.6-2.6c-2.1,0-3.1,0.6-3.1,0.6s1.9-2.9,6-2.6
		C114.2-183.1,113.9-178.7,113.9-178.7"/>
	<path class="st0" d="M123.9-178.7v9.5c0,0.7,0.2,1.1,0.5,1.4c0.6,0.6,1.3,0.6,1.3,0.6h-1.9h-1.6h-1.6h-2.4c0,0,1.2-0.2,1.6-0.8
		c0.3-0.3,0.5-0.6,0.5-1.3c0,0,0-9.1,0-9.5c0,0,0.1-2.6-2.6-2.6c-2.1,0-3.1,0.6-3.1,0.6s1.9-2.9,6-2.6
		C124.2-183.1,123.9-178.7,123.9-178.7"/>
	<path class="st0" d="M72.9-192.4c0.7,0,1.1-0.2,1.4-0.5c0.6-0.6,0.6-1.3,0.6-1.3v1.9v1.6v1.4v2.4c0,0-0.2-1.2-0.8-1.6
		c-0.3-0.3-0.6-0.5-1.3-0.5c0,0-9.5,0-9.8,0c-0.9,0-1.9,0.7-2.3,1.8l-2-5.1L72.9-192.4z"/>
	<path class="st0" d="M63.4-202.4h9.5c0.7,0,1.1-0.2,1.4-0.5c0.6-0.6,0.6-1.3,0.6-1.3v1.9v1.6v1.6v2.4c0,0-0.2-1.2-0.8-1.6
		c-0.3-0.3-0.6-0.5-1.3-0.5c0,0-9.1,0-9.5,0c0,0-2.6-0.1-2.6,2.6c0,2.1,0.6,3.1,0.6,3.1s-2.9-1.9-2.6-6
		C59-202.7,63.4-202.4,63.4-202.4"/>
	<path class="st0" d="M63.4-212.4h29.3c0.7,0,1.1-0.2,1.4-0.5c0.6-0.6,0.7-1.3,0.7-1.3v1.9v1.6v1.4v2.4c0,0-0.3-1.2-0.9-1.6
		c-0.3-0.3-0.6-0.5-1.3-0.5c0,0-28.9,0-29.2,0c0,0-2.6-0.1-2.6,2.6c0,2.1,0.6,3.1,0.6,3.1s-2.9-1.9-2.6-6
		C59-212.7,63.4-212.4,63.4-212.4"/>
	<path class="st0" d="M83.3-222.4h9.5c0.6,0,1.1-0.2,1.4-0.5c0.6-0.6,0.6-1.3,0.6-1.3v1.9v1.6v1.4v2.4c0,0-0.2-1.2-0.8-1.6
		c-0.3-0.3-0.6-0.5-1.3-0.5c0,0-9.1,0-9.5,0c0,0-2.6-0.1-2.6,2.6c0,2.1,0.6,3.1,0.6,3.1s-2.9-1.9-2.6-6
		C78.9-222.7,83.3-222.4,83.3-222.4"/>
	<path class="st0" d="M83.3-232.4h9.5c0.6,0,1.1-0.2,1.4-0.5c0.6-0.7,0.6-1.4,0.6-1.4v1.9v1.6v1.5v2.4c0,0-0.2-1.2-0.8-1.6
		c-0.3-0.3-0.6-0.5-1.3-0.5c0,0-9.1,0-9.5,0c0,0-2.6-0.1-2.6,2.6c0,2.1,0.6,3.1,0.6,3.1s-2.9-1.9-2.6-6
		C78.9-232.8,83.3-232.4,83.3-232.4"/>
	<path class="st0" d="M69.5-181.6c0-0.7-0.2-1.1-0.5-1.4c-0.6-0.6-1.3-0.6-1.3-0.6h1.9h1.6h1.5h2.4c0,0-1.2,0.2-1.6,0.8
		c-0.3,0.3-0.5,0.6-0.5,1.3c0,0,0,9.5,0,9.8c0,0.9,0.7,1.9,1.8,2.3l-5.1,2L69.5-181.6z"/>
	<path class="st0" d="M59.6-172.1v-9.5c0-0.7-0.2-1.1-0.5-1.4c-0.6-0.6-1.3-0.6-1.3-0.6h1.9h1.6h1.4h2.4c0,0-1.1,0.2-1.6,0.8
		c-0.3,0.3-0.5,0.6-0.5,1.3c0,0,0,9.1,0,9.5c0,0-0.1,2.6,2.6,2.6c2.1,0,3.1-0.6,3.1-0.6s-1.9,2.9-6,2.6
		C59.3-167.6,59.6-172.1,59.6-172.1"/>
	<path class="st0" d="M49.6-172.1v-29.3c0-0.7-0.2-1.1-0.5-1.4c-0.7-0.5-1.4-0.6-1.4-0.6h1.9h1.6h1.5h2.4c0,0-1.2,0.3-1.6,0.9
		c-0.3,0.3-0.5,0.6-0.5,1.3c0,0,0,28.9,0,29.2c0,0-0.1,2.6,2.6,2.6c2.1,0,3.1-0.6,3.1-0.6s-1.9,2.9-6,2.6
		C49.2-167.6,49.6-172.1,49.6-172.1"/>
	<path class="st0" d="M39.5-191.9v-9.5c0-0.7-0.2-1.1-0.5-1.4c-0.6-0.6-1.3-0.6-1.3-0.6h1.9h1.6h1.5h2.4c0,0-1.1,0.2-1.6,0.8
		c-0.3,0.3-0.5,0.6-0.5,1.3c0,0,0,9.1,0,9.5c0,0-0.1,2.6,2.6,2.6c2.1,0,3.1-0.6,3.1-0.6s-1.9,2.9-6,2.6
		C39.2-187.5,39.5-191.9,39.5-191.9"/>
	<path class="st0" d="M29.5-191.9v-9.5c0-0.7-0.2-1.1-0.5-1.4c-0.6-0.6-1.3-0.6-1.3-0.6h1.9h1.6h1.6h2.4c0,0-1.2,0.2-1.6,0.8
		c-0.5,0.3-0.8,0.6-0.8,1.3c0,0,0,9.1,0,9.5c0,0-0.1,2.6,2.6,2.6c2.1,0,3.1-0.6,3.1-0.6s-1.9,2.9-6,2.6
		C29.2-187.5,29.5-191.9,29.5-191.9"/>
</g>
<g>
	<path class="st1" d="M-84.5-178.2c-0.7,0-1.1,0.2-1.4,0.5c-0.6,0.6-0.6,1.3-0.6,1.3v-1.9v-1.6v-1.4v-2.4c0,0,0.2,1.1,0.8,1.6
		c0.3,0.3,0.6,0.5,1.3,0.5c0,0,9.5,0,9.8,0c0.9,0,1.9-0.7,2.3-1.8l2,5.1L-84.5-178.2z"/>
	<path class="st1" d="M-75-168.2h-9.5c-0.7,0-1.1,0.2-1.4,0.5c-0.6,0.6-0.6,1.3-0.6,1.3v-1.9v-1.6v-1.6v-2.4c0,0,0.2,1.2,0.8,1.6
		c0.3,0.3,0.6,0.5,1.3,0.5c0,0,9.1,0,9.5,0c0,0,2.6,0.1,2.6-2.6c0-2.1-0.6-3.1-0.6-3.1s2.9,1.9,2.6,6C-70.5-167.9-75-168.2-75-168.2
		"/>
	<path class="st1" d="M-75-158.2h-29.3c-0.7,0-1.1,0.2-1.4,0.5c-0.6,0.6-0.7,1.3-0.7,1.3v-1.9v-1.6v-1.4v-2.4c0,0,0.3,1.2,0.9,1.6
		c0.3,0.3,0.6,0.5,1.3,0.5c0,0,28.9,0,29.2,0c0,0,2.6,0.1,2.6-2.6c0-2.1-0.6-3.1-0.6-3.1s2.9,1.9,2.6,6
		C-70.5-157.9-75-158.2-75-158.2"/>
	<path class="st1" d="M-94.8-148.2h-9.5c-0.6,0-1.1,0.2-1.4,0.5c-0.6,0.7-0.7,1.4-0.7,1.4v-1.9v-1.6v-1.5v-2.4c0,0,0.2,1.2,0.8,1.6
		c0.3,0.3,0.6,0.5,1.3,0.5c0,0,9.1,0,9.5,0c0,0,2.6,0.1,2.6-2.6c0-2.1-0.6-3.1-0.6-3.1s2.9,1.9,2.6,6
		C-90.4-147.9-94.8-148.2-94.8-148.2"/>
	<path class="st1" d="M-94.8-138.1h-9.5c-0.6,0-1.1,0.2-1.4,0.5c-0.6,0.6-0.7,1.3-0.7,1.3v-1.9v-1.6v-1.5v-2.4c0,0,0.2,1.1,0.8,1.6
		c0.3,0.3,0.6,0.5,1.3,0.5c0,0,9.1,0,9.5,0c0,0,2.6,0.1,2.6-2.6c0-2.1-0.6-3.1-0.6-3.1s2.9,1.9,2.6,6
		C-90.4-137.8-94.8-138.1-94.8-138.1"/>
	<path class="st1" d="M-81.1-189.1c0,0.7,0.2,1.1,0.5,1.4c0.6,0.6,1.3,0.6,1.3,0.6h-1.9h-1.6h-1.5h-2.4c0,0,1.2-0.2,1.6-0.8
		c0.3-0.3,0.5-0.6,0.5-1.3c0,0,0-9.5,0-9.8c0-0.9-0.7-1.9-1.8-2.3l5.1-2L-81.1-189.1z"/>
	<path class="st1" d="M-71.2-198.6v9.5c0,0.7,0.2,1.1,0.5,1.4c0.6,0.6,1.3,0.6,1.3,0.6h-1.9h-1.6h-1.4h-2.4c0,0,1.2-0.2,1.6-0.8
		c0.3-0.3,0.5-0.6,0.5-1.3c0,0,0-9.1,0-9.5c0,0,0.1-2.6-2.6-2.6c-2.1,0-3.1,0.6-3.1,0.6s1.9-2.9,6-2.6
		C-70.9-203-71.2-198.6-71.2-198.6"/>
	<path class="st1" d="M-61.2-198.6v29.3c0,0.6,0.2,1.1,0.5,1.4c0.6,0.6,1.3,0.7,1.3,0.7h-1.9h-1.6h-1.4h-2.4c0,0,1.2-0.3,1.6-0.9
		c0.3-0.3,0.5-0.6,0.5-1.3c0,0,0-28.9,0-29.2c0,0,0.1-2.6-2.6-2.6c-2.1,0-3.1,0.6-3.1,0.6s1.9-2.9,6-2.6
		C-60.8-203-61.2-198.6-61.2-198.6"/>
	<path class="st1" d="M-51.1-178.7v9.5c0,0.7,0.2,1.1,0.5,1.4c0.6,0.6,1.3,0.6,1.3,0.6h-1.9h-1.6h-1.5h-2.4c0,0,1.2-0.2,1.6-0.8
		c0.3-0.3,0.5-0.6,0.5-1.3c0,0,0-9.1,0-9.5c0,0,0.1-2.6-2.6-2.6c-2.1,0-3.1,0.6-3.1,0.6s1.9-2.9,6-2.6
		C-50.8-183.1-51.1-178.7-51.1-178.7"/>
	<path class="st1" d="M-41.1-178.7v9.5c0,0.7,0.2,1.1,0.5,1.4c0.6,0.6,1.3,0.6,1.3,0.6h-1.9h-1.6h-1.6h-2.4c0,0,1.2-0.2,1.6-0.8
		c0.3-0.3,0.5-0.6,0.5-1.3c0,0,0-9.1,0-9.5c0,0,0.1-2.6-2.6-2.6c-2.1,0-3.1,0.6-3.1,0.6s1.9-2.9,6-2.6
		C-40.8-183.1-41.1-178.7-41.1-178.7"/>
	<path class="st1" d="M-92.1-192.4c0.7,0,1.1-0.2,1.4-0.5c0.6-0.6,0.6-1.3,0.6-1.3v1.9v1.6v1.4v2.4c0,0-0.2-1.2-0.8-1.6
		c-0.3-0.3-0.6-0.5-1.3-0.5c0,0-9.5,0-9.8,0c-0.9,0-1.9,0.7-2.3,1.8l-2-5.1L-92.1-192.4z"/>
	<path class="st1" d="M-101.6-202.4h9.5c0.7,0,1.1-0.2,1.4-0.5c0.6-0.6,0.6-1.3,0.6-1.3v1.9v1.6v1.6v2.4c0,0-0.2-1.2-0.8-1.6
		c-0.3-0.3-0.6-0.5-1.3-0.5c0,0-9.1,0-9.5,0c0,0-2.6-0.1-2.6,2.6c0,2.1,0.6,3.1,0.6,3.1s-2.9-1.9-2.6-6
		C-106-202.7-101.6-202.4-101.6-202.4"/>
	<path class="st1" d="M-101.6-212.4h29.3c0.7,0,1.1-0.2,1.4-0.5c0.6-0.6,0.7-1.3,0.7-1.3v1.9v1.6v1.4v2.4c0,0-0.3-1.2-0.9-1.6
		c-0.3-0.3-0.6-0.5-1.3-0.5c0,0-28.9,0-29.2,0c0,0-2.6-0.1-2.6,2.6c0,2.1,0.6,3.1,0.6,3.1s-2.9-1.9-2.6-6
		C-106-212.7-101.6-212.4-101.6-212.4"/>
	<path class="st1" d="M-81.7-222.4h9.5c0.6,0,1.1-0.2,1.4-0.5c0.6-0.6,0.6-1.3,0.6-1.3v1.9v1.6v1.4v2.4c0,0-0.2-1.2-0.8-1.6
		c-0.3-0.3-0.6-0.5-1.3-0.5c0,0-9.1,0-9.5,0c0,0-2.6-0.1-2.6,2.6c0,2.1,0.6,3.1,0.6,3.1s-2.9-1.9-2.6-6
		C-86.1-222.7-81.7-222.4-81.7-222.4"/>
	<path class="st1" d="M-81.7-232.4h9.5c0.6,0,1.1-0.2,1.4-0.5c0.6-0.7,0.6-1.4,0.6-1.4v1.9v1.6v1.5v2.4c0,0-0.2-1.2-0.8-1.6
		c-0.3-0.3-0.6-0.5-1.3-0.5c0,0-9.1,0-9.5,0c0,0-2.6-0.1-2.6,2.6c0,2.1,0.6,3.1,0.6,3.1s-2.9-1.9-2.6-6
		C-86.1-232.8-81.7-232.4-81.7-232.4"/>
	<path class="st1" d="M-95.5-181.6c0-0.7-0.2-1.1-0.5-1.4c-0.6-0.6-1.3-0.6-1.3-0.6h1.9h1.6h1.5h2.4c0,0-1.2,0.2-1.6,0.8
		c-0.3,0.3-0.5,0.6-0.5,1.3c0,0,0,9.5,0,9.8c0,0.9,0.7,1.9,1.8,2.3l-5.1,2L-95.5-181.6z"/>
	<path class="st1" d="M-105.4-172.1v-9.5c0-0.7-0.2-1.1-0.5-1.4c-0.6-0.6-1.3-0.6-1.3-0.6h1.9h1.6h1.4h2.4c0,0-1.1,0.2-1.6,0.8
		c-0.3,0.3-0.5,0.6-0.5,1.3c0,0,0,9.1,0,9.5c0,0-0.1,2.6,2.6,2.6c2.1,0,3.1-0.6,3.1-0.6s-1.9,2.9-6,2.6
		C-105.7-167.6-105.4-172.1-105.4-172.1"/>
	<path class="st1" d="M-115.4-172.1v-29.3c0-0.7-0.2-1.1-0.5-1.4c-0.7-0.5-1.4-0.6-1.4-0.6h1.9h1.6h1.5h2.4c0,0-1.2,0.3-1.6,0.9
		c-0.3,0.3-0.5,0.6-0.5,1.3c0,0,0,28.9,0,29.2c0,0-0.1,2.6,2.6,2.6c2.1,0,3.1-0.6,3.1-0.6s-1.9,2.9-6,2.6
		C-115.8-167.6-115.4-172.1-115.4-172.1"/>
	<path class="st1" d="M-125.5-191.9v-9.5c0-0.7-0.2-1.1-0.5-1.4c-0.6-0.6-1.3-0.6-1.3-0.6h1.9h1.6h1.5h2.4c0,0-1.1,0.2-1.6,0.8
		c-0.3,0.3-0.5,0.6-0.5,1.3c0,0,0,9.1,0,9.5c0,0-0.1,2.6,2.6,2.6c2.1,0,3.1-0.6,3.1-0.6s-1.9,2.9-6,2.6
		C-125.8-187.5-125.5-191.9-125.5-191.9"/>
	<path class="st1" d="M-135.5-191.9v-9.5c0-0.7-0.2-1.1-0.5-1.4c-0.6-0.6-1.3-0.6-1.3-0.6h1.9h1.6h1.6h2.4c0,0-1.2,0.2-1.6,0.8
		c-0.5,0.3-0.8,0.6-0.8,1.3c0,0,0,9.1,0,9.5c0,0-0.1,2.6,2.6,2.6c2.1,0,3.1-0.6,3.1-0.6s-1.9,2.9-6,2.6
		C-135.8-187.5-135.5-191.9-135.5-191.9"/>
</g>
<g>
	<path class="st2" d="M242.5-178.2c-0.7,0-1.1,0.2-1.4,0.5c-0.6,0.6-0.6,1.3-0.6,1.3v-1.9v-1.6v-1.4v-2.4c0,0,0.2,1.1,0.8,1.6
		c0.3,0.3,0.6,0.5,1.3,0.5c0,0,9.5,0,9.8,0c0.9,0,1.9-0.7,2.3-1.8l2,5.1L242.5-178.2z"/>
	<path class="st2" d="M252-168.2h-9.5c-0.7,0-1.1,0.2-1.4,0.5c-0.6,0.6-0.6,1.3-0.6,1.3v-1.9v-1.6v-1.6v-2.4c0,0,0.2,1.2,0.8,1.6
		c0.3,0.3,0.6,0.5,1.3,0.5c0,0,9.1,0,9.5,0c0,0,2.6,0.1,2.6-2.6c0-2.1-0.6-3.1-0.6-3.1s2.9,1.9,2.6,6
		C256.5-167.9,252-168.2,252-168.2"/>
	<path class="st2" d="M252-158.2h-29.3c-0.7,0-1.1,0.2-1.4,0.5c-0.6,0.6-0.7,1.3-0.7,1.3v-1.9v-1.6v-1.4v-2.4c0,0,0.3,1.2,0.9,1.6
		c0.3,0.3,0.6,0.5,1.3,0.5c0,0,28.9,0,29.2,0c0,0,2.6,0.1,2.6-2.6c0-2.1-0.6-3.1-0.6-3.1s2.9,1.9,2.6,6
		C256.5-157.9,252-158.2,252-158.2"/>
	<path class="st2" d="M232.2-148.2h-9.5c-0.6,0-1.1,0.2-1.4,0.5c-0.6,0.7-0.7,1.4-0.7,1.4v-1.9v-1.6v-1.5v-2.4c0,0,0.2,1.2,0.8,1.6
		c0.3,0.3,0.6,0.5,1.3,0.5c0,0,9.1,0,9.5,0c0,0,2.6,0.1,2.6-2.6c0-2.1-0.6-3.1-0.6-3.1s2.9,1.9,2.6,6
		C236.6-147.9,232.2-148.2,232.2-148.2"/>
	<path class="st2" d="M232.2-138.1h-9.5c-0.6,0-1.1,0.2-1.4,0.5c-0.6,0.6-0.7,1.3-0.7,1.3v-1.9v-1.6v-1.5v-2.4c0,0,0.2,1.1,0.8,1.6
		c0.3,0.3,0.6,0.5,1.3,0.5c0,0,9.1,0,9.5,0c0,0,2.6,0.1,2.6-2.6c0-2.1-0.6-3.1-0.6-3.1s2.9,1.9,2.6,6
		C236.6-137.8,232.2-138.1,232.2-138.1"/>
	<path class="st2" d="M245.9-189.1c0,0.7,0.2,1.1,0.5,1.4c0.6,0.6,1.3,0.6,1.3,0.6h-1.9h-1.6h-1.5h-2.4c0,0,1.2-0.2,1.6-0.8
		c0.3-0.3,0.5-0.6,0.5-1.3c0,0,0-9.5,0-9.8c0-0.9-0.7-1.9-1.8-2.3l5.1-2L245.9-189.1z"/>
	<path class="st2" d="M255.8-198.6v9.5c0,0.7,0.2,1.1,0.5,1.4c0.6,0.6,1.3,0.6,1.3,0.6h-1.9h-1.6h-1.4h-2.4c0,0,1.2-0.2,1.6-0.8
		c0.3-0.3,0.5-0.6,0.5-1.3c0,0,0-9.1,0-9.5c0,0,0.1-2.6-2.6-2.6c-2.1,0-3.1,0.6-3.1,0.6s1.9-2.9,6-2.6
		C256.1-203,255.8-198.6,255.8-198.6"/>
	<path class="st2" d="M265.8-198.6v29.3c0,0.6,0.2,1.1,0.5,1.4c0.6,0.6,1.3,0.7,1.3,0.7h-1.9h-1.6h-1.4h-2.4c0,0,1.2-0.3,1.6-0.9
		c0.3-0.3,0.5-0.6,0.5-1.3c0,0,0-28.9,0-29.2c0,0,0.1-2.6-2.6-2.6c-2.1,0-3.1,0.6-3.1,0.6s1.9-2.9,6-2.6
		C266.2-203,265.8-198.6,265.8-198.6"/>
	<path class="st2" d="M275.9-178.7v9.5c0,0.7,0.2,1.1,0.5,1.4c0.6,0.6,1.3,0.6,1.3,0.6h-1.9h-1.6h-1.5h-2.4c0,0,1.2-0.2,1.6-0.8
		c0.3-0.3,0.5-0.6,0.5-1.3c0,0,0-9.1,0-9.5c0,0,0.1-2.6-2.6-2.6c-2.1,0-3.1,0.6-3.1,0.6s1.9-2.9,6-2.6
		C276.2-183.1,275.9-178.7,275.9-178.7"/>
	<path class="st2" d="M285.9-178.7v9.5c0,0.7,0.2,1.1,0.5,1.4c0.6,0.6,1.3,0.6,1.3,0.6h-1.9h-1.6h-1.6h-2.4c0,0,1.2-0.2,1.6-0.8
		c0.3-0.3,0.5-0.6,0.5-1.3c0,0,0-9.1,0-9.5c0,0,0.1-2.6-2.6-2.6c-2.1,0-3.1,0.6-3.1,0.6s1.9-2.9,6-2.6
		C286.2-183.1,285.9-178.7,285.9-178.7"/>
	<path class="st2" d="M234.9-192.4c0.7,0,1.1-0.2,1.4-0.5c0.6-0.6,0.6-1.3,0.6-1.3v1.9v1.6v1.4v2.4c0,0-0.2-1.2-0.8-1.6
		c-0.3-0.3-0.6-0.5-1.3-0.5c0,0-9.5,0-9.8,0c-0.9,0-1.9,0.7-2.3,1.8l-2-5.1L234.9-192.4z"/>
	<path class="st2" d="M225.4-202.4h9.5c0.7,0,1.1-0.2,1.4-0.5c0.6-0.6,0.6-1.3,0.6-1.3v1.9v1.6v1.6v2.4c0,0-0.2-1.2-0.8-1.6
		c-0.3-0.3-0.6-0.5-1.3-0.5c0,0-9.1,0-9.5,0c0,0-2.6-0.1-2.6,2.6c0,2.1,0.6,3.1,0.6,3.1s-2.9-1.9-2.6-6
		C221-202.7,225.4-202.4,225.4-202.4"/>
	<path class="st2" d="M225.4-212.4h29.3c0.7,0,1.1-0.2,1.4-0.5c0.6-0.6,0.7-1.3,0.7-1.3v1.9v1.6v1.4v2.4c0,0-0.3-1.2-0.9-1.6
		c-0.3-0.3-0.6-0.5-1.3-0.5c0,0-28.9,0-29.2,0c0,0-2.6-0.1-2.6,2.6c0,2.1,0.6,3.1,0.6,3.1s-2.9-1.9-2.6-6
		C221-212.7,225.4-212.4,225.4-212.4"/>
	<path class="st2" d="M245.3-222.4h9.5c0.6,0,1.1-0.2,1.4-0.5c0.6-0.6,0.6-1.3,0.6-1.3v1.9v1.6v1.4v2.4c0,0-0.2-1.2-0.8-1.6
		c-0.3-0.3-0.6-0.5-1.3-0.5c0,0-9.1,0-9.5,0c0,0-2.6-0.1-2.6,2.6c0,2.1,0.6,3.1,0.6,3.1s-2.9-1.9-2.6-6
		C240.9-222.7,245.3-222.4,245.3-222.4"/>
	<path class="st2" d="M245.3-232.4h9.5c0.6,0,1.1-0.2,1.4-0.5c0.6-0.7,0.6-1.4,0.6-1.4v1.9v1.6v1.5v2.4c0,0-0.2-1.2-0.8-1.6
		c-0.3-0.3-0.6-0.5-1.3-0.5c0,0-9.1,0-9.5,0c0,0-2.6-0.1-2.6,2.6c0,2.1,0.6,3.1,0.6,3.1s-2.9-1.9-2.6-6
		C240.9-232.8,245.3-232.4,245.3-232.4"/>
	<path class="st2" d="M231.5-181.6c0-0.7-0.2-1.1-0.5-1.4c-0.6-0.6-1.3-0.6-1.3-0.6h1.9h1.6h1.5h2.4c0,0-1.2,0.2-1.6,0.8
		c-0.3,0.3-0.5,0.6-0.5,1.3c0,0,0,9.5,0,9.8c0,0.9,0.7,1.9,1.8,2.3l-5.1,2L231.5-181.6z"/>
	<path class="st2" d="M221.6-172.1v-9.5c0-0.7-0.2-1.1-0.5-1.4c-0.6-0.6-1.3-0.6-1.3-0.6h1.9h1.6h1.4h2.4c0,0-1.1,0.2-1.6,0.8
		c-0.3,0.3-0.5,0.6-0.5,1.3c0,0,0,9.1,0,9.5c0,0-0.1,2.6,2.6,2.6c2.1,0,3.1-0.6,3.1-0.6s-1.9,2.9-6,2.6
		C221.3-167.6,221.6-172.1,221.6-172.1"/>
	<path class="st2" d="M211.6-172.1v-29.3c0-0.7-0.2-1.1-0.5-1.4c-0.7-0.5-1.4-0.6-1.4-0.6h1.9h1.6h1.5h2.4c0,0-1.2,0.3-1.6,0.9
		c-0.3,0.3-0.5,0.6-0.5,1.3c0,0,0,28.9,0,29.2c0,0-0.1,2.6,2.6,2.6c2.1,0,3.1-0.6,3.1-0.6s-1.9,2.9-6,2.6
		C211.2-167.6,211.6-172.1,211.6-172.1"/>
	<path class="st2" d="M201.5-191.9v-9.5c0-0.7-0.2-1.1-0.5-1.4c-0.6-0.6-1.3-0.6-1.3-0.6h1.9h1.6h1.5h2.4c0,0-1.1,0.2-1.6,0.8
		c-0.3,0.3-0.5,0.6-0.5,1.3c0,0,0,9.1,0,9.5c0,0-0.1,2.6,2.6,2.6c2.1,0,3.1-0.6,3.1-0.6s-1.9,2.9-6,2.6
		C201.2-187.5,201.5-191.9,201.5-191.9"/>
	<path class="st2" d="M191.5-191.9v-9.5c0-0.7-0.2-1.1-0.5-1.4c-0.6-0.6-1.3-0.6-1.3-0.6h1.9h1.6h1.6h2.4c0,0-1.2,0.2-1.6,0.8
		c-0.5,0.3-0.8,0.6-0.8,1.3c0,0,0,9.1,0,9.5c0,0-0.1,2.6,2.6,2.6c2.1,0,3.1-0.6,3.1-0.6s-1.9,2.9-6,2.6
		C191.2-187.5,191.5-191.9,191.5-191.9"/>
</g>
<g>
	<path class="st2" d="M489.8,79.8c0,2.3,0.8,3.9,2,5c2.2,2.1,4.7,2.3,4.7,2.3h-6.7h-5.7h-5.6H470c0,0,4.1-0.7,5.9-3
		c1-1.2,1.9-2.3,1.9-4.7c0,0,0-33.9,0-35.2c0-3.2-2.4-6.7-6.6-8.4c0,0,18.3-7.2,18.4-7.3L489.8,79.8z M525.5,45.6l0.1,34.1
		c0,2.3,0.8,3.9,2,5c2.2,2.1,4.7,2.3,4.7,2.3h-6.7h-5.7h-5.6h-8.5c0,0,4.1-0.7,5.9-3c1-1.2,1.9-2.3,1.9-4.7c0,0,0-32.7,0-33.9
		c0,0,0.2-9.2-9.4-9.3c-7.7-0.1-11.1,2.2-11.1,2.2s6.7-10.5,21.6-9.4C526.6,29.8,525.5,45.6,525.5,45.6 M561.5,45.6l0.1,105.1
		c0,2.3,0.8,3.9,2,5c2.2,2.1,4.7,2.6,4.7,2.6h-6.7h-5.7h-5.6h-8.5c0,0,4.1-1,5.9-3.3c1-1.2,1.9-2.3,1.9-4.7c0,0,0-103.7,0-104.9
		c0,0,0.2-9.2-9.4-9.3c-7.7-0.1-11.1,2.2-11.1,2.2s6.7-10.5,21.6-9.4C562.6,29.8,561.5,45.6,561.5,45.6 M597.5,117l0.1,34.1
		c0,2.3,0.8,3.9,2,5c2.2,2.1,4.7,2.3,4.7,2.3h-6.7h-5.7h-5.6h-8.5c0,0,4.1-0.7,5.9-3c1-1.2,1.9-2.3,1.9-4.7c0,0,0-32.7,0-33.9
		c0,0,0.2-9.2-9.4-9.3c-7.7-0.1-11.1,2.2-11.1,2.2s6.7-10.5,21.6-9.4C598.6,101.1,597.5,117,597.5,117 M633.5,117l0.1,34.1
		c0,2.3,0.8,3.9,2,5c2.2,2.1,4.7,2.3,4.7,2.3h-6.7h-5.7h-5.6h-8.5c0,0,4.1-0.7,5.9-3c1-1.2,1.9-2.3,1.9-4.7c0,0,0-32.7,0-33.9
		c0,0,0.2-9.2-9.4-9.3c-7.7-0.1-11.1,2.2-11.1,2.2s6.7-10.5,21.6-9.4C634.7,101.1,633.5,117,633.5,117 M789.5,151.2
		c0,2.3,0.8,3.9,2,5c2.2,2.1,4.7,2.3,4.7,2.3h-6.7h-5.7h-5.6h-8.5c0,0,4.1-0.7,5.9-3c1-1.2,1.9-2.3,1.9-4.7c0,0,0-33.9,0-35.2
		c0-3.2-2.4-6.7-6.6-8.4c0,0,18.3-7.2,18.4-7.3L789.5,151.2z M825.2,117.1l0.1,34.1c0,2.3,0.8,3.9,2,5c2.2,2.1,4.7,2.3,4.7,2.3h-6.7
		h-5.7h-5.6h-8.5c0,0,4.1-0.7,5.9-3c1-1.2,1.9-2.3,1.9-4.7c0,0,0-32.7,0-33.9c0,0,0.2-9.2-9.4-9.3c-7.7-0.1-11.1,2.2-11.1,2.2
		s6.7-10.5,21.6-9.4C826.3,101.3,825.2,117.1,825.2,117.1 M630.3,79.8c0,2.3,0.8,3.9,2,5c2.2,2.1,4.7,2.3,4.7,2.3h-6.7h-5.7H619
		h-8.5c0,0,4.1-0.7,5.9-3c1-1.2,1.9-2.3,1.9-4.7c0,0,0-33.9,0-35.2c0-3.2-2.4-6.7-6.6-8.4c0,0,18.3-7.2,18.4-7.3L630.3,79.8z
		 M596.2,79.8c0,2.3,0.8,3.9,2,5c2.2,2.1,4.7,2.3,4.7,2.3h-6.7h-5.7h-5.6h-8.5c0,0,4.1-0.7,5.9-3c1-1.2,1.9-2.3,1.9-4.7
		c0,0,0-33.9,0-35.2c0-3.2-2.4-6.7-6.6-8.4c0,0,18.3-7.2,18.4-7.3L596.2,79.8z M699.5,79.8c0,2.3,0.8,3.9,2,5
		c2.2,2.1,4.7,2.3,4.7,2.3h-6.7h-5.7h-5.6h-8.5c0,0,4.1-0.7,5.9-3c1-1.2,1.9-2.3,1.9-4.7c0,0,0-33.9,0-35.2c0-3.2-2.4-6.7-6.6-8.4
		c0,0,18.3-7.2,18.4-7.3L699.5,79.8z M665.9,45.6l0.1,34.1c0,2.3,0.8,3.9,2,5c2.2,2.1,4.7,2.3,4.7,2.3H666h-5.7h-5.6h-8.5
		c0,0,4.1-0.7,5.9-3c1-1.2,1.9-2.3,1.9-4.7c0,0,0-32.7,0-33.9c0,0,0.2-9.2-9.4-9.3c-7.7-0.1-11.1,2.2-11.1,2.2s6.7-10.5,21.6-9.4
		C667.1,29.8,665.9,45.6,665.9,45.6"/>
	<path class="st2" d="M677.9,158c0,0-16.8-5.6-20.8-28c-4-22.4,6.1-27.4,6.1-27.4s-21.9,8.6-17.5,32.5
		C650.5,162,677.9,158,677.9,158"/>
	<path class="st2" d="M667.4,101.7c0,0,17.9,5.1,22,27.8c4.1,22.7-7,27.8-7,27.8s23.4-8.8,18.6-32.9
		C695.6,96.6,667.4,101.7,667.4,101.7"/>
	<path class="st2" d="M743,158c0,0-16.8-5.6-20.8-28c-4-22.4,6.1-27.4,6.1-27.4s-21.9,8.6-17.5,32.5C715.7,162,743,158,743,158"/>
	<path class="st2" d="M732.6,101.7c0,0,17.9,5.1,22,27.8c4.1,22.7-7,27.8-7,27.8s23.4-8.8,18.6-32.9
		C760.7,96.6,732.6,101.7,732.6,101.7"/>
	<path class="st2" d="M583.7,20L583.7,20c-2.9-2.9-2.9-7.5,0-10.3c2.9-2.9,7.5-2.9,10.3,0s2.9,7.5,0,10.3
		C591.2,22.8,586.6,22.8,583.7,20"/>
	<path class="st2" d="M686.4,20L686.4,20c-2.9-2.9-2.9-7.5,0-10.3c2.9-2.9,7.5-2.9,10.3,0c2.9,2.9,2.9,7.5,0,10.3
		C693.9,22.8,689.2,22.8,686.4,20"/>
</g>
<g>
	<path class="st0" d="M34.8,79.8c0,2.3,0.8,3.9,2,5c2.2,2.1,4.7,2.3,4.7,2.3h-6.7H29h-5.6h-8.5c0,0,4.1-0.7,5.9-3
		c1-1.2,1.9-2.3,1.9-4.7c0,0,0-33.9,0-35.2c0-3.2-2.4-6.7-6.6-8.4c0,0,18.3-7.2,18.4-7.3L34.8,79.8z M70.4,45.6l0.1,34.1
		c0,2.3,0.8,3.9,2,5c2.2,2.1,4.7,2.3,4.7,2.3h-6.7h-5.7h-5.6h-8.5c0,0,4.1-0.7,5.9-3c1-1.2,1.9-2.3,1.9-4.7c0,0,0-32.7,0-33.9
		c0,0,0.2-9.2-9.4-9.3C41.4,36,38,38.3,38,38.3s6.7-10.5,21.6-9.4C71.6,29.8,70.4,45.6,70.4,45.6 M106.4,45.6l0.1,105.1
		c0,2.3,0.8,3.9,2,5c2.2,2.1,4.7,2.6,4.7,2.6h-6.7h-5.7h-5.6h-8.5c0,0,4.1-1,5.9-3.3c1-1.2,1.9-2.3,1.9-4.7c0,0,0-103.7,0-104.9
		c0,0,0.2-9.2-9.4-9.3C77.4,36,74,38.3,74,38.3s6.7-10.5,21.6-9.4C107.6,29.8,106.4,45.6,106.4,45.6 M142.4,117l0.1,34.1
		c0,2.3,0.8,3.9,2,5c2.2,2.1,4.7,2.3,4.7,2.3h-6.7h-5.7h-5.6h-8.5c0,0,4.1-0.7,5.9-3c1-1.2,1.9-2.3,1.9-4.7c0,0,0-32.7,0-33.9
		c0,0,0.2-9.2-9.4-9.3c-7.7-0.1-11.1,2.2-11.1,2.2s6.7-10.5,21.6-9.4C143.6,101.1,142.4,117,142.4,117 M178.5,117l0.1,34.1
		c0,2.3,0.8,3.9,2,5c2.2,2.1,4.7,2.3,4.7,2.3h-6.7h-5.7h-5.6h-8.5c0,0,4.1-0.7,5.9-3c1-1.2,1.9-2.3,1.9-4.7c0,0,0-32.7,0-33.9
		c0,0,0.2-9.2-9.4-9.3c-7.7-0.1-11.1,2.2-11.1,2.2s6.7-10.5,21.6-9.4C179.6,101.1,178.5,117,178.5,117 M334.4,151.2
		c0,2.3,0.8,3.9,2,5c2.2,2.1,4.7,2.3,4.7,2.3h-6.7h-5.7h-5.6h-8.5c0,0,4.1-0.7,5.9-3c1-1.2,1.9-2.3,1.9-4.7c0,0,0-33.9,0-35.2
		c0-3.2-2.4-6.7-6.6-8.4c0,0,18.3-7.2,18.4-7.3L334.4,151.2z M370.1,117.1l0.1,34.1c0,2.3,0.8,3.9,2,5c2.2,2.1,4.7,2.3,4.7,2.3h-6.7
		h-5.7h-5.6h-8.5c0,0,4.1-0.7,5.9-3c1-1.2,1.9-2.3,1.9-4.7c0,0,0-32.7,0-33.9c0,0,0.2-9.2-9.4-9.3c-7.7-0.1-11.1,2.2-11.1,2.2
		s6.7-10.5,21.6-9.4C371.3,101.3,370.1,117.1,370.1,117.1 M175.2,79.8c0,2.3,0.8,3.9,2,5c2.2,2.1,4.7,2.3,4.7,2.3h-6.7h-5.7h-5.6
		h-8.5c0,0,4.1-0.7,5.9-3c1-1.2,1.9-2.3,1.9-4.7c0,0,0-33.9,0-35.2c0-3.2-2.4-6.7-6.6-8.4c0,0,18.3-7.2,18.4-7.3L175.2,79.8z
		 M141.1,79.8c0,2.3,0.8,3.9,2,5c2.2,2.1,4.7,2.3,4.7,2.3h-6.7h-5.7h-5.6h-8.5c0,0,4.1-0.7,5.9-3c1-1.2,1.9-2.3,1.9-4.7
		c0,0,0-33.9,0-35.2c0-3.2-2.4-6.7-6.6-8.4c0,0,18.3-7.2,18.4-7.3L141.1,79.8z M244.4,79.8c0,2.3,0.8,3.9,2,5
		c2.2,2.1,4.7,2.3,4.7,2.3h-6.7h-5.7h-5.6h-8.5c0,0,4.1-0.7,5.9-3c1-1.2,1.9-2.3,1.9-4.7c0,0,0-33.9,0-35.2c0-3.2-2.4-6.7-6.6-8.4
		c0,0,18.3-7.2,18.4-7.3L244.4,79.8z M210.9,45.6l0.1,34.1c0,2.3,0.8,3.9,2,5c2.2,2.1,4.7,2.3,4.7,2.3H211h-5.7h-5.6h-8.5
		c0,0,4.1-0.7,5.9-3c1-1.2,1.9-2.3,1.9-4.7c0,0,0-32.7,0-33.9c0,0,0.2-9.2-9.4-9.3c-7.7-0.1-11.1,2.2-11.1,2.2s6.7-10.5,21.6-9.4
		C212.1,29.8,210.9,45.6,210.9,45.6"/>
	<path class="st0" d="M222.8,158c0,0-16.8-5.6-20.8-28c-4-22.4,6.1-27.4,6.1-27.4s-21.9,8.6-17.5,32.5
		C195.5,162,222.8,158,222.8,158"/>
	<path class="st0" d="M212.4,101.7c0,0,17.9,5.1,22,27.8c4.1,22.7-7,27.8-7,27.8s23.4-8.8,18.6-32.9
		C240.5,96.6,212.4,101.7,212.4,101.7"/>
	<path class="st0" d="M288,158c0,0-16.8-5.6-20.8-28c-4-22.4,6.1-27.4,6.1-27.4s-21.9,8.6-17.5,32.5C260.6,162,288,158,288,158"/>
	<path class="st0" d="M277.5,101.7c0,0,17.9,5.1,22,27.8c4.1,22.7-7,27.8-7,27.8s23.4-8.8,18.6-32.9
		C305.7,96.6,277.5,101.7,277.5,101.7"/>
	<path class="st0" d="M128.7,20L128.7,20c-2.9-2.9-2.9-7.5,0-10.3c2.9-2.9,7.5-2.9,10.3,0c2.9,2.9,2.9,7.5,0,10.3
		C136.1,22.8,131.5,22.8,128.7,20"/>
	<path class="st0" d="M231.3,20L231.3,20c-2.9-2.9-2.9-7.5,0-10.3c2.9-2.9,7.5-2.9,10.3,0c2.9,2.9,2.9,7.5,0,10.3
		C238.8,22.8,234.2,22.8,231.3,20"/>
</g>
<g>
	<path class="st1" d="M-414.5,79.8c0,2.3,0.8,3.9,2,5c2.2,2.1,4.7,2.3,4.7,2.3h-6.7h-5.7h-5.6h-8.5c0,0,4.1-0.7,5.9-3
		c1-1.2,1.9-2.3,1.9-4.7c0,0,0-33.9,0-35.2c0-3.2-2.4-6.7-6.6-8.4c0,0,18.3-7.2,18.4-7.3L-414.5,79.8z M-378.8,45.6l0.1,34.1
		c0,2.3,0.8,3.9,2,5c2.2,2.1,4.7,2.3,4.7,2.3h-6.7h-5.7h-5.6h-8.5c0,0,4.1-0.7,5.9-3c1-1.2,1.9-2.3,1.9-4.7c0,0,0-32.7,0-33.9
		c0,0,0.2-9.2-9.4-9.3c-7.7-0.1-11.1,2.2-11.1,2.2s6.7-10.5,21.6-9.4C-377.7,29.8-378.8,45.6-378.8,45.6 M-342.8,45.6l0.1,105.1
		c0,2.3,0.8,3.9,2,5c2.2,2.1,4.7,2.6,4.7,2.6h-6.7h-5.7h-5.6h-8.5c0,0,4.1-1,5.9-3.3c1-1.2,1.9-2.3,1.9-4.7c0,0,0-103.7,0-104.9
		c0,0,0.2-9.2-9.4-9.3c-7.7-0.1-11.1,2.2-11.1,2.2s6.7-10.5,21.6-9.4C-341.7,29.8-342.8,45.6-342.8,45.6 M-306.8,117l0.1,34.1
		c0,2.3,0.8,3.9,2,5c2.2,2.1,4.7,2.3,4.7,2.3h-6.7h-5.7h-5.6h-8.5c0,0,4.1-0.7,5.9-3c1-1.2,1.9-2.3,1.9-4.7c0,0,0-32.7,0-33.9
		c0,0,0.2-9.2-9.4-9.3c-7.7-0.1-11.1,2.2-11.1,2.2s6.7-10.5,21.6-9.4C-305.7,101.1-306.8,117-306.8,117 M-270.8,117l0.1,34.1
		c0,2.3,0.8,3.9,2,5c2.2,2.1,4.7,2.3,4.7,2.3h-6.7h-5.7h-5.6h-8.5c0,0,4.1-0.7,5.9-3c1-1.2,1.9-2.3,1.9-4.7c0,0,0-32.7,0-33.9
		c0,0,0.2-9.2-9.4-9.3c-7.7-0.1-11.1,2.2-11.1,2.2s6.7-10.5,21.6-9.4C-269.7,101.1-270.8,117-270.8,117 M-114.8,151.2
		c0,2.3,0.8,3.9,2,5c2.2,2.1,4.7,2.3,4.7,2.3h-6.7h-5.7h-5.6h-8.5c0,0,4.1-0.7,5.9-3c1-1.2,1.9-2.3,1.9-4.7c0,0,0-33.9,0-35.2
		c0-3.2-2.4-6.7-6.6-8.4c0,0,18.3-7.2,18.4-7.3L-114.8,151.2z M-79.2,117.1l0.1,34.1c0,2.3,0.8,3.9,2,5c2.2,2.1,4.7,2.3,4.7,2.3
		h-6.7h-5.7h-5.6h-8.5c0,0,4.1-0.7,5.9-3c1-1.2,1.9-2.3,1.9-4.7c0,0,0-32.7,0-33.9c0,0,0.2-9.2-9.4-9.3c-7.7-0.1-11.1,2.2-11.1,2.2
		s6.7-10.5,21.6-9.4C-78,101.3-79.2,117.1-79.2,117.1 M-274.1,79.8c0,2.3,0.8,3.9,2,5c2.2,2.1,4.7,2.3,4.7,2.3h-6.7h-5.7h-5.6h-8.5
		c0,0,4.1-0.7,5.9-3c1-1.2,1.9-2.3,1.9-4.7c0,0,0-33.9,0-35.2c0-3.2-2.4-6.7-6.6-8.4c0,0,18.3-7.2,18.4-7.3L-274.1,79.8z
		 M-308.1,79.8c0,2.3,0.8,3.9,2,5c2.2,2.1,4.7,2.3,4.7,2.3h-6.7h-5.7h-5.6h-8.5c0,0,4.1-0.7,5.9-3c1-1.2,1.9-2.3,1.9-4.7
		c0,0,0-33.9,0-35.2c0-3.2-2.4-6.7-6.6-8.4c0,0,18.3-7.2,18.4-7.3L-308.1,79.8z M-204.9,79.8c0,2.3,0.8,3.9,2,5
		c2.2,2.1,4.7,2.3,4.7,2.3h-6.7h-5.7h-5.6h-8.5c0,0,4.1-0.7,5.9-3c1-1.2,1.9-2.3,1.9-4.7c0,0,0-33.9,0-35.2c0-3.2-2.4-6.7-6.6-8.4
		c0,0,18.3-7.2,18.4-7.3L-204.9,79.8z M-238.4,45.6l0.1,34.1c0,2.3,0.8,3.9,2,5c2.2,2.1,4.7,2.3,4.7,2.3h-6.7h-5.7h-5.6h-8.5
		c0,0,4.1-0.7,5.9-3c1-1.2,1.9-2.3,1.9-4.7c0,0,0-32.7,0-33.9c0,0,0.2-9.2-9.4-9.3c-7.7-0.1-11.1,2.2-11.1,2.2s6.7-10.5,21.6-9.4
		C-237.2,29.8-238.4,45.6-238.4,45.6"/>
	<path class="st1" d="M-226.5,158c0,0-16.8-5.6-20.8-28c-4-22.4,6.1-27.4,6.1-27.4s-21.9,8.6-17.5,32.5
		C-253.8,162-226.5,158-226.5,158"/>
	<path class="st1" d="M-236.9,101.7c0,0,17.9,5.1,22,27.8c4.1,22.7-7,27.8-7,27.8s23.4-8.8,18.6-32.9
		C-208.8,96.6-236.9,101.7-236.9,101.7"/>
	<path class="st1" d="M-161.3,158c0,0-16.8-5.6-20.8-28c-4-22.4,6.1-27.4,6.1-27.4s-21.9,8.6-17.5,32.5
		C-188.6,162-161.3,158-161.3,158"/>
	<path class="st1" d="M-171.7,101.7c0,0,17.9,5.1,22,27.8c4.1,22.7-7,27.8-7,27.8s23.4-8.8,18.6-32.9
		C-143.6,96.6-171.7,101.7-171.7,101.7"/>
	<path class="st1" d="M-320.6,20L-320.6,20c-2.9-2.9-2.9-7.5,0-10.3c2.9-2.9,7.5-2.9,10.3,0s2.9,7.5,0,10.3
		C-313.1,22.8-317.8,22.8-320.6,20"/>
	<path class="st1" d="M-218,20L-218,20c-2.9-2.9-2.9-7.5,0-10.3c2.9-2.9,7.5-2.9,10.3,0c2.9,2.9,2.9,7.5,0,10.3
		C-210.5,22.8-215.1,22.8-218,20"/>
</g>
</svg>
