<?xml version="1.0" encoding="utf-8"?>
<!-- Generator: Adobe Illustrator 26.0.1, SVG Export Plug-In . SVG Version: 6.00 Build 0)  -->
<svg version="1.1" id="Layer_1" xmlns="http://www.w3.org/2000/svg" xmlns:xlink="http://www.w3.org/1999/xlink" x="0px" y="0px"
	 viewBox="0 0 395.1 167.6" style="enable-background:new 0 0 395.1 167.6;" xml:space="preserve">
<style type="text/css">
	.st0{fill:#090808;}
	.st1{fill:#E16D64;}
	.st2{fill:#FFFFFF;}
</style>
<g>
	<path class="st0" d="M-374.6-178.2c-0.7,0-1.1,0.2-1.4,0.5c-0.6,0.6-0.6,1.3-0.6,1.3v-1.9v-1.6v-1.4v-2.4c0,0,0.2,1.1,0.8,1.6
		c0.3,0.3,0.6,0.5,1.3,0.5c0,0,9.5,0,9.8,0c0.9,0,1.9-0.7,2.3-1.8l2,5.1L-374.6-178.2z"/>
	<path class="st0" d="M-365.1-168.2h-9.5c-0.7,0-1.1,0.2-1.4,0.5c-0.6,0.6-0.6,1.3-0.6,1.3v-1.9v-1.6v-1.6v-2.4c0,0,0.2,1.2,0.8,1.6
		c0.3,0.3,0.6,0.5,1.3,0.5c0,0,9.1,0,9.5,0c0,0,2.6,0.1,2.6-2.6c0-2.1-0.6-3.1-0.6-3.1s2.9,1.9,2.6,6
		C-360.6-167.9-365.1-168.2-365.1-168.2"/>
	<path class="st0" d="M-365.1-158.2h-29.3c-0.7,0-1.1,0.2-1.4,0.5c-0.6,0.6-0.7,1.3-0.7,1.3v-1.9v-1.6v-1.4v-2.4
		c0,0,0.3,1.2,0.9,1.6c0.3,0.3,0.6,0.5,1.3,0.5c0,0,28.9,0,29.2,0c0,0,2.6,0.1,2.6-2.6c0-2.1-0.6-3.1-0.6-3.1s2.9,1.9,2.6,6
		C-360.6-157.9-365.1-158.2-365.1-158.2"/>
	<path class="st0" d="M-384.9-148.2h-9.5c-0.6,0-1.1,0.2-1.4,0.5c-0.6,0.7-0.7,1.4-0.7,1.4v-1.9v-1.6v-1.5v-2.4c0,0,0.2,1.2,0.8,1.6
		c0.3,0.3,0.6,0.5,1.3,0.5c0,0,9.1,0,9.5,0c0,0,2.6,0.1,2.6-2.6c0-2.1-0.6-3.1-0.6-3.1s2.9,1.9,2.6,6
		C-380.5-147.9-384.9-148.2-384.9-148.2"/>
	<path class="st0" d="M-384.9-138.1h-9.5c-0.6,0-1.1,0.2-1.4,0.5c-0.6,0.6-0.7,1.3-0.7,1.3v-1.9v-1.6v-1.5v-2.4c0,0,0.2,1.1,0.8,1.6
		c0.3,0.3,0.6,0.5,1.3,0.5c0,0,9.1,0,9.5,0c0,0,2.6,0.1,2.6-2.6c0-2.1-0.6-3.1-0.6-3.1s2.9,1.9,2.6,6
		C-380.5-137.8-384.9-138.1-384.9-138.1"/>
	<path class="st0" d="M-371.2-189.1c0,0.7,0.2,1.1,0.5,1.4c0.6,0.6,1.3,0.6,1.3,0.6h-1.9h-1.6h-1.5h-2.4c0,0,1.2-0.2,1.6-0.8
		c0.3-0.3,0.5-0.6,0.5-1.3c0,0,0-9.5,0-9.8c0-0.9-0.7-1.9-1.8-2.3l5.1-2L-371.2-189.1z"/>
	<path class="st0" d="M-361.3-198.6v9.5c0,0.7,0.2,1.1,0.5,1.4c0.6,0.6,1.3,0.6,1.3,0.6h-1.9h-1.6h-1.4h-2.4c0,0,1.2-0.2,1.6-0.8
		c0.3-0.3,0.5-0.6,0.5-1.3c0,0,0-9.1,0-9.5c0,0,0.1-2.6-2.6-2.6c-2.1,0-3.1,0.6-3.1,0.6s1.9-2.9,6-2.6
		C-361-203-361.3-198.6-361.3-198.6"/>
	<path class="st0" d="M-351.3-198.6v29.3c0,0.6,0.2,1.1,0.5,1.4c0.6,0.6,1.3,0.7,1.3,0.7h-1.9h-1.6h-1.4h-2.4c0,0,1.2-0.3,1.6-0.9
		c0.3-0.3,0.5-0.6,0.5-1.3c0,0,0-28.9,0-29.2c0,0,0.1-2.6-2.6-2.6c-2.1,0-3.1,0.6-3.1,0.6s1.9-2.9,6-2.6
		C-350.9-203-351.3-198.6-351.3-198.6"/>
	<path class="st0" d="M-341.2-178.7v9.5c0,0.7,0.2,1.1,0.5,1.4c0.6,0.6,1.3,0.6,1.3,0.6h-1.9h-1.6h-1.5h-2.4c0,0,1.2-0.2,1.6-0.8
		c0.3-0.3,0.5-0.6,0.5-1.3c0,0,0-9.1,0-9.5c0,0,0.1-2.6-2.6-2.6c-2.1,0-3.1,0.6-3.1,0.6s1.9-2.9,6-2.6
		C-340.9-183.1-341.2-178.7-341.2-178.7"/>
	<path class="st0" d="M-331.2-178.7v9.5c0,0.7,0.2,1.1,0.5,1.4c0.6,0.6,1.3,0.6,1.3,0.6h-1.9h-1.6h-1.6h-2.4c0,0,1.2-0.2,1.6-0.8
		c0.3-0.3,0.5-0.6,0.5-1.3c0,0,0-9.1,0-9.5c0,0,0.1-2.6-2.6-2.6c-2.1,0-3.1,0.6-3.1,0.6s1.9-2.9,6-2.6
		C-330.9-183.1-331.2-178.7-331.2-178.7"/>
	<path class="st0" d="M-382.2-192.4c0.7,0,1.1-0.2,1.4-0.5c0.6-0.6,0.6-1.3,0.6-1.3v1.9v1.6v1.4v2.4c0,0-0.2-1.2-0.8-1.6
		c-0.3-0.3-0.6-0.5-1.3-0.5c0,0-9.5,0-9.8,0c-0.9,0-1.9,0.7-2.3,1.8l-2-5.1L-382.2-192.4z"/>
	<path class="st0" d="M-391.7-202.4h9.5c0.7,0,1.1-0.2,1.4-0.5c0.6-0.6,0.6-1.3,0.6-1.3v1.9v1.6v1.6v2.4c0,0-0.2-1.2-0.8-1.6
		c-0.3-0.3-0.6-0.5-1.3-0.5c0,0-9.1,0-9.5,0c0,0-2.6-0.1-2.6,2.6c0,2.1,0.6,3.1,0.6,3.1s-2.9-1.9-2.6-6
		C-396.1-202.7-391.7-202.4-391.7-202.4"/>
	<path class="st0" d="M-391.7-212.4h29.3c0.7,0,1.1-0.2,1.4-0.5c0.6-0.6,0.7-1.3,0.7-1.3v1.9v1.6v1.4v2.4c0,0-0.3-1.2-0.9-1.6
		c-0.3-0.3-0.6-0.5-1.3-0.5c0,0-28.9,0-29.2,0c0,0-2.6-0.1-2.6,2.6c0,2.1,0.6,3.1,0.6,3.1s-2.9-1.9-2.6-6
		C-396.1-212.7-391.7-212.4-391.7-212.4"/>
	<path class="st0" d="M-371.8-222.4h9.5c0.6,0,1.1-0.2,1.4-0.5c0.6-0.6,0.6-1.3,0.6-1.3v1.9v1.6v1.4v2.4c0,0-0.2-1.2-0.8-1.6
		c-0.3-0.3-0.6-0.5-1.3-0.5c0,0-9.1,0-9.5,0c0,0-2.6-0.1-2.6,2.6c0,2.1,0.6,3.1,0.6,3.1s-2.9-1.9-2.6-6
		C-376.2-222.7-371.8-222.4-371.8-222.4"/>
	<path class="st0" d="M-371.8-232.4h9.5c0.6,0,1.1-0.2,1.4-0.5c0.6-0.7,0.6-1.4,0.6-1.4v1.9v1.6v1.5v2.4c0,0-0.2-1.2-0.8-1.6
		c-0.3-0.3-0.6-0.5-1.3-0.5c0,0-9.1,0-9.5,0c0,0-2.6-0.1-2.6,2.6c0,2.1,0.6,3.1,0.6,3.1s-2.9-1.9-2.6-6
		C-376.2-232.8-371.8-232.4-371.8-232.4"/>
	<path class="st0" d="M-385.6-181.6c0-0.7-0.2-1.1-0.5-1.4c-0.6-0.6-1.3-0.6-1.3-0.6h1.9h1.6h1.5h2.4c0,0-1.2,0.2-1.6,0.8
		c-0.3,0.3-0.5,0.6-0.5,1.3c0,0,0,9.5,0,9.8c0,0.9,0.7,1.9,1.8,2.3l-5.1,2L-385.6-181.6z"/>
	<path class="st0" d="M-395.5-172.1v-9.5c0-0.7-0.2-1.1-0.5-1.4c-0.6-0.6-1.3-0.6-1.3-0.6h1.9h1.6h1.4h2.4c0,0-1.1,0.2-1.6,0.8
		c-0.3,0.3-0.5,0.6-0.5,1.3c0,0,0,9.1,0,9.5c0,0-0.1,2.6,2.6,2.6c2.1,0,3.1-0.6,3.1-0.6s-1.9,2.9-6,2.6
		C-395.8-167.6-395.5-172.1-395.5-172.1"/>
	<path class="st0" d="M-405.5-172.1v-29.3c0-0.7-0.2-1.1-0.5-1.4c-0.7-0.5-1.4-0.6-1.4-0.6h1.9h1.6h1.5h2.4c0,0-1.2,0.3-1.6,0.9
		c-0.3,0.3-0.5,0.6-0.5,1.3c0,0,0,28.9,0,29.2c0,0-0.1,2.6,2.6,2.6c2.1,0,3.1-0.6,3.1-0.6s-1.9,2.9-6,2.6
		C-405.9-167.6-405.5-172.1-405.5-172.1"/>
	<path class="st0" d="M-415.6-191.9v-9.5c0-0.7-0.2-1.1-0.5-1.4c-0.6-0.6-1.3-0.6-1.3-0.6h1.9h1.6h1.5h2.4c0,0-1.1,0.2-1.6,0.8
		c-0.3,0.3-0.5,0.6-0.5,1.3c0,0,0,9.1,0,9.5c0,0-0.1,2.6,2.6,2.6c2.1,0,3.1-0.6,3.1-0.6s-1.9,2.9-6,2.6
		C-415.9-187.5-415.6-191.9-415.6-191.9"/>
	<path class="st0" d="M-425.6-191.9v-9.5c0-0.7-0.2-1.1-0.5-1.4c-0.6-0.6-1.3-0.6-1.3-0.6h1.9h1.6h1.6h2.4c0,0-1.2,0.2-1.6,0.8
		c-0.5,0.3-0.8,0.6-0.8,1.3c0,0,0,9.1,0,9.5c0,0-0.1,2.6,2.6,2.6c2.1,0,3.1-0.6,3.1-0.6s-1.9,2.9-6,2.6
		C-425.9-187.5-425.6-191.9-425.6-191.9"/>
</g>
<g>
	<path class="st1" d="M-539.6-178.2c-0.7,0-1.1,0.2-1.4,0.5c-0.6,0.6-0.6,1.3-0.6,1.3v-1.9v-1.6v-1.4v-2.4c0,0,0.2,1.1,0.8,1.6
		c0.3,0.3,0.6,0.5,1.3,0.5c0,0,9.5,0,9.8,0c0.9,0,1.9-0.7,2.3-1.8l2,5.1L-539.6-178.2z"/>
	<path class="st1" d="M-530.1-168.2h-9.5c-0.7,0-1.1,0.2-1.4,0.5c-0.6,0.6-0.6,1.3-0.6,1.3v-1.9v-1.6v-1.6v-2.4c0,0,0.2,1.2,0.8,1.6
		c0.3,0.3,0.6,0.5,1.3,0.5c0,0,9.1,0,9.5,0c0,0,2.6,0.1,2.6-2.6c0-2.1-0.6-3.1-0.6-3.1s2.9,1.9,2.6,6
		C-525.6-167.9-530.1-168.2-530.1-168.2"/>
	<path class="st1" d="M-530.1-158.2h-29.3c-0.7,0-1.1,0.2-1.4,0.5c-0.6,0.6-0.7,1.3-0.7,1.3v-1.9v-1.6v-1.4v-2.4
		c0,0,0.3,1.2,0.9,1.6c0.3,0.3,0.6,0.5,1.3,0.5c0,0,28.9,0,29.2,0c0,0,2.6,0.1,2.6-2.6c0-2.1-0.6-3.1-0.6-3.1s2.9,1.9,2.6,6
		C-525.6-157.9-530.1-158.2-530.1-158.2"/>
	<path class="st1" d="M-549.9-148.2h-9.5c-0.6,0-1.1,0.2-1.4,0.5c-0.6,0.7-0.7,1.4-0.7,1.4v-1.9v-1.6v-1.5v-2.4c0,0,0.2,1.2,0.8,1.6
		c0.3,0.3,0.6,0.5,1.3,0.5c0,0,9.1,0,9.5,0c0,0,2.6,0.1,2.6-2.6c0-2.1-0.6-3.1-0.6-3.1s2.9,1.9,2.6,6
		C-545.5-147.9-549.9-148.2-549.9-148.2"/>
	<path class="st1" d="M-549.9-138.1h-9.5c-0.6,0-1.1,0.2-1.4,0.5c-0.6,0.6-0.7,1.3-0.7,1.3v-1.9v-1.6v-1.5v-2.4c0,0,0.2,1.1,0.8,1.6
		c0.3,0.3,0.6,0.5,1.3,0.5c0,0,9.1,0,9.5,0c0,0,2.6,0.1,2.6-2.6c0-2.1-0.6-3.1-0.6-3.1s2.9,1.9,2.6,6
		C-545.5-137.8-549.9-138.1-549.9-138.1"/>
	<path class="st1" d="M-536.2-189.1c0,0.7,0.2,1.1,0.5,1.4c0.6,0.6,1.3,0.6,1.3,0.6h-1.9h-1.6h-1.5h-2.4c0,0,1.2-0.2,1.6-0.8
		c0.3-0.3,0.5-0.6,0.5-1.3c0,0,0-9.5,0-9.8c0-0.9-0.7-1.9-1.8-2.3l5.1-2L-536.2-189.1z"/>
	<path class="st1" d="M-526.3-198.6v9.5c0,0.7,0.2,1.1,0.5,1.4c0.6,0.6,1.3,0.6,1.3,0.6h-1.9h-1.6h-1.4h-2.4c0,0,1.2-0.2,1.6-0.8
		c0.3-0.3,0.5-0.6,0.5-1.3c0,0,0-9.1,0-9.5c0,0,0.1-2.6-2.6-2.6c-2.1,0-3.1,0.6-3.1,0.6s1.9-2.9,6-2.6
		C-526-203-526.3-198.6-526.3-198.6"/>
	<path class="st1" d="M-516.3-198.6v29.3c0,0.6,0.2,1.1,0.5,1.4c0.6,0.6,1.3,0.7,1.3,0.7h-1.9h-1.6h-1.4h-2.4c0,0,1.2-0.3,1.6-0.9
		c0.3-0.3,0.5-0.6,0.5-1.3c0,0,0-28.9,0-29.2c0,0,0.1-2.6-2.6-2.6c-2.1,0-3.1,0.6-3.1,0.6s1.9-2.9,6-2.6
		C-515.9-203-516.3-198.6-516.3-198.6"/>
	<path class="st1" d="M-506.2-178.7v9.5c0,0.7,0.2,1.1,0.5,1.4c0.6,0.6,1.3,0.6,1.3,0.6h-1.9h-1.6h-1.5h-2.4c0,0,1.2-0.2,1.6-0.8
		c0.3-0.3,0.5-0.6,0.5-1.3c0,0,0-9.1,0-9.5c0,0,0.1-2.6-2.6-2.6c-2.1,0-3.1,0.6-3.1,0.6s1.9-2.9,6-2.6
		C-505.9-183.1-506.2-178.7-506.2-178.7"/>
	<path class="st1" d="M-496.2-178.7v9.5c0,0.7,0.2,1.1,0.5,1.4c0.6,0.6,1.3,0.6,1.3,0.6h-1.9h-1.6h-1.6h-2.4c0,0,1.2-0.2,1.6-0.8
		c0.3-0.3,0.5-0.6,0.5-1.3c0,0,0-9.1,0-9.5c0,0,0.1-2.6-2.6-2.6c-2.1,0-3.1,0.6-3.1,0.6s1.9-2.9,6-2.6
		C-495.9-183.1-496.2-178.7-496.2-178.7"/>
	<path class="st1" d="M-547.2-192.4c0.7,0,1.1-0.2,1.4-0.5c0.6-0.6,0.6-1.3,0.6-1.3v1.9v1.6v1.4v2.4c0,0-0.2-1.2-0.8-1.6
		c-0.3-0.3-0.6-0.5-1.3-0.5c0,0-9.5,0-9.8,0c-0.9,0-1.9,0.7-2.3,1.8l-2-5.1L-547.2-192.4z"/>
	<path class="st1" d="M-556.7-202.4h9.5c0.7,0,1.1-0.2,1.4-0.5c0.6-0.6,0.6-1.3,0.6-1.3v1.9v1.6v1.6v2.4c0,0-0.2-1.2-0.8-1.6
		c-0.3-0.3-0.6-0.5-1.3-0.5c0,0-9.1,0-9.5,0c0,0-2.6-0.1-2.6,2.6c0,2.1,0.6,3.1,0.6,3.1s-2.9-1.9-2.6-6
		C-561.1-202.7-556.7-202.4-556.7-202.4"/>
	<path class="st1" d="M-556.7-212.4h29.3c0.7,0,1.1-0.2,1.4-0.5c0.6-0.6,0.7-1.3,0.7-1.3v1.9v1.6v1.4v2.4c0,0-0.3-1.2-0.9-1.6
		c-0.3-0.3-0.6-0.5-1.3-0.5c0,0-28.9,0-29.2,0c0,0-2.6-0.1-2.6,2.6c0,2.1,0.6,3.1,0.6,3.1s-2.9-1.9-2.6-6
		C-561.1-212.7-556.7-212.4-556.7-212.4"/>
	<path class="st1" d="M-536.8-222.4h9.5c0.6,0,1.1-0.2,1.4-0.5c0.6-0.6,0.6-1.3,0.6-1.3v1.9v1.6v1.4v2.4c0,0-0.2-1.2-0.8-1.6
		c-0.3-0.3-0.6-0.5-1.3-0.5c0,0-9.1,0-9.5,0c0,0-2.6-0.1-2.6,2.6c0,2.1,0.6,3.1,0.6,3.1s-2.9-1.9-2.6-6
		C-541.2-222.7-536.8-222.4-536.8-222.4"/>
	<path class="st1" d="M-536.8-232.4h9.5c0.6,0,1.1-0.2,1.4-0.5c0.6-0.7,0.6-1.4,0.6-1.4v1.9v1.6v1.5v2.4c0,0-0.2-1.2-0.8-1.6
		c-0.3-0.3-0.6-0.5-1.3-0.5c0,0-9.1,0-9.5,0c0,0-2.6-0.1-2.6,2.6c0,2.1,0.6,3.1,0.6,3.1s-2.9-1.9-2.6-6
		C-541.2-232.8-536.8-232.4-536.8-232.4"/>
	<path class="st1" d="M-550.6-181.6c0-0.7-0.2-1.1-0.5-1.4c-0.6-0.6-1.3-0.6-1.3-0.6h1.9h1.6h1.5h2.4c0,0-1.2,0.2-1.6,0.8
		c-0.3,0.3-0.5,0.6-0.5,1.3c0,0,0,9.5,0,9.8c0,0.9,0.7,1.9,1.8,2.3l-5.1,2L-550.6-181.6z"/>
	<path class="st1" d="M-560.5-172.1v-9.5c0-0.7-0.2-1.1-0.5-1.4c-0.6-0.6-1.3-0.6-1.3-0.6h1.9h1.6h1.4h2.4c0,0-1.1,0.2-1.6,0.8
		c-0.3,0.3-0.5,0.6-0.5,1.3c0,0,0,9.1,0,9.5c0,0-0.1,2.6,2.6,2.6c2.1,0,3.1-0.6,3.1-0.6s-1.9,2.9-6,2.6
		C-560.8-167.6-560.5-172.1-560.5-172.1"/>
	<path class="st1" d="M-570.5-172.1v-29.3c0-0.7-0.2-1.1-0.5-1.4c-0.7-0.5-1.4-0.6-1.4-0.6h1.9h1.6h1.5h2.4c0,0-1.2,0.3-1.6,0.9
		c-0.3,0.3-0.5,0.6-0.5,1.3c0,0,0,28.9,0,29.2c0,0-0.1,2.6,2.6,2.6c2.1,0,3.1-0.6,3.1-0.6s-1.9,2.9-6,2.6
		C-570.9-167.6-570.5-172.1-570.5-172.1"/>
	<path class="st1" d="M-580.6-191.9v-9.5c0-0.7-0.2-1.1-0.5-1.4c-0.6-0.6-1.3-0.6-1.3-0.6h1.9h1.6h1.5h2.4c0,0-1.1,0.2-1.6,0.8
		c-0.3,0.3-0.5,0.6-0.5,1.3c0,0,0,9.1,0,9.5c0,0-0.1,2.6,2.6,2.6c2.1,0,3.1-0.6,3.1-0.6s-1.9,2.9-6,2.6
		C-580.9-187.5-580.6-191.9-580.6-191.9"/>
	<path class="st1" d="M-590.6-191.9v-9.5c0-0.7-0.2-1.1-0.5-1.4c-0.6-0.6-1.3-0.6-1.3-0.6h1.9h1.6h1.6h2.4c0,0-1.2,0.2-1.6,0.8
		c-0.5,0.3-0.8,0.6-0.8,1.3c0,0,0,9.1,0,9.5c0,0-0.1,2.6,2.6,2.6c2.1,0,3.1-0.6,3.1-0.6s-1.9,2.9-6,2.6
		C-590.9-187.5-590.6-191.9-590.6-191.9"/>
</g>
<g>
	<path class="st2" d="M-212.6-178.2c-0.7,0-1.1,0.2-1.4,0.5c-0.6,0.6-0.6,1.3-0.6,1.3v-1.9v-1.6v-1.4v-2.4c0,0,0.2,1.1,0.8,1.6
		c0.3,0.3,0.6,0.5,1.3,0.5c0,0,9.5,0,9.8,0c0.9,0,1.9-0.7,2.3-1.8l2,5.1L-212.6-178.2z"/>
	<path class="st2" d="M-203.1-168.2h-9.5c-0.7,0-1.1,0.2-1.4,0.5c-0.6,0.6-0.6,1.3-0.6,1.3v-1.9v-1.6v-1.6v-2.4c0,0,0.2,1.2,0.8,1.6
		c0.3,0.3,0.6,0.5,1.3,0.5c0,0,9.1,0,9.5,0c0,0,2.6,0.1,2.6-2.6c0-2.1-0.6-3.1-0.6-3.1s2.9,1.9,2.6,6
		C-198.6-167.9-203.1-168.2-203.1-168.2"/>
	<path class="st2" d="M-203.1-158.2h-29.3c-0.7,0-1.1,0.2-1.4,0.5c-0.6,0.6-0.7,1.3-0.7,1.3v-1.9v-1.6v-1.4v-2.4
		c0,0,0.3,1.2,0.9,1.6c0.3,0.3,0.6,0.5,1.3,0.5c0,0,28.9,0,29.2,0c0,0,2.6,0.1,2.6-2.6c0-2.1-0.6-3.1-0.6-3.1s2.9,1.9,2.6,6
		C-198.6-157.9-203.1-158.2-203.1-158.2"/>
	<path class="st2" d="M-222.9-148.2h-9.5c-0.6,0-1.1,0.2-1.4,0.5c-0.6,0.7-0.7,1.4-0.7,1.4v-1.9v-1.6v-1.5v-2.4c0,0,0.2,1.2,0.8,1.6
		c0.3,0.3,0.6,0.5,1.3,0.5c0,0,9.1,0,9.5,0c0,0,2.6,0.1,2.6-2.6c0-2.1-0.6-3.1-0.6-3.1s2.9,1.9,2.6,6
		C-218.5-147.9-222.9-148.2-222.9-148.2"/>
	<path class="st2" d="M-222.9-138.1h-9.5c-0.6,0-1.1,0.2-1.4,0.5c-0.6,0.6-0.7,1.3-0.7,1.3v-1.9v-1.6v-1.5v-2.4c0,0,0.2,1.1,0.8,1.6
		c0.3,0.3,0.6,0.5,1.3,0.5c0,0,9.1,0,9.5,0c0,0,2.6,0.1,2.6-2.6c0-2.1-0.6-3.1-0.6-3.1s2.9,1.9,2.6,6
		C-218.5-137.8-222.9-138.1-222.9-138.1"/>
	<path class="st2" d="M-209.2-189.1c0,0.7,0.2,1.1,0.5,1.4c0.6,0.6,1.3,0.6,1.3,0.6h-1.9h-1.6h-1.5h-2.4c0,0,1.2-0.2,1.6-0.8
		c0.3-0.3,0.5-0.6,0.5-1.3c0,0,0-9.5,0-9.8c0-0.9-0.7-1.9-1.8-2.3l5.1-2L-209.2-189.1z"/>
	<path class="st2" d="M-199.3-198.6v9.5c0,0.7,0.2,1.1,0.5,1.4c0.6,0.6,1.3,0.6,1.3,0.6h-1.9h-1.6h-1.4h-2.4c0,0,1.2-0.2,1.6-0.8
		c0.3-0.3,0.5-0.6,0.5-1.3c0,0,0-9.1,0-9.5c0,0,0.1-2.6-2.6-2.6c-2.1,0-3.1,0.6-3.1,0.6s1.9-2.9,6-2.6
		C-199-203-199.3-198.6-199.3-198.6"/>
	<path class="st2" d="M-189.3-198.6v29.3c0,0.6,0.2,1.1,0.5,1.4c0.6,0.6,1.3,0.7,1.3,0.7h-1.9h-1.6h-1.4h-2.4c0,0,1.2-0.3,1.6-0.9
		c0.3-0.3,0.5-0.6,0.5-1.3c0,0,0-28.9,0-29.2c0,0,0.1-2.6-2.6-2.6c-2.1,0-3.1,0.6-3.1,0.6s1.9-2.9,6-2.6
		C-188.9-203-189.3-198.6-189.3-198.6"/>
	<path class="st2" d="M-179.2-178.7v9.5c0,0.7,0.2,1.1,0.5,1.4c0.6,0.6,1.3,0.6,1.3,0.6h-1.9h-1.6h-1.5h-2.4c0,0,1.2-0.2,1.6-0.8
		c0.3-0.3,0.5-0.6,0.5-1.3c0,0,0-9.1,0-9.5c0,0,0.1-2.6-2.6-2.6c-2.1,0-3.1,0.6-3.1,0.6s1.9-2.9,6-2.6
		C-178.9-183.1-179.2-178.7-179.2-178.7"/>
	<path class="st2" d="M-169.2-178.7v9.5c0,0.7,0.2,1.1,0.5,1.4c0.6,0.6,1.3,0.6,1.3,0.6h-1.9h-1.6h-1.6h-2.4c0,0,1.2-0.2,1.6-0.8
		c0.3-0.3,0.5-0.6,0.5-1.3c0,0,0-9.1,0-9.5c0,0,0.1-2.6-2.6-2.6c-2.1,0-3.1,0.6-3.1,0.6s1.9-2.9,6-2.6
		C-168.9-183.1-169.2-178.7-169.2-178.7"/>
	<path class="st2" d="M-220.2-192.4c0.7,0,1.1-0.2,1.4-0.5c0.6-0.6,0.6-1.3,0.6-1.3v1.9v1.6v1.4v2.4c0,0-0.2-1.2-0.8-1.6
		c-0.3-0.3-0.6-0.5-1.3-0.5c0,0-9.5,0-9.8,0c-0.9,0-1.9,0.7-2.3,1.8l-2-5.1L-220.2-192.4z"/>
	<path class="st2" d="M-229.7-202.4h9.5c0.7,0,1.1-0.2,1.4-0.5c0.6-0.6,0.6-1.3,0.6-1.3v1.9v1.6v1.6v2.4c0,0-0.2-1.2-0.8-1.6
		c-0.3-0.3-0.6-0.5-1.3-0.5c0,0-9.1,0-9.5,0c0,0-2.6-0.1-2.6,2.6c0,2.1,0.6,3.1,0.6,3.1s-2.9-1.9-2.6-6
		C-234.1-202.7-229.7-202.4-229.7-202.4"/>
	<path class="st2" d="M-229.7-212.4h29.3c0.7,0,1.1-0.2,1.4-0.5c0.6-0.6,0.7-1.3,0.7-1.3v1.9v1.6v1.4v2.4c0,0-0.3-1.2-0.9-1.6
		c-0.3-0.3-0.6-0.5-1.3-0.5c0,0-28.9,0-29.2,0c0,0-2.6-0.1-2.6,2.6c0,2.1,0.6,3.1,0.6,3.1s-2.9-1.9-2.6-6
		C-234.1-212.7-229.7-212.4-229.7-212.4"/>
	<path class="st2" d="M-209.8-222.4h9.5c0.6,0,1.1-0.2,1.4-0.5c0.6-0.6,0.6-1.3,0.6-1.3v1.9v1.6v1.4v2.4c0,0-0.2-1.2-0.8-1.6
		c-0.3-0.3-0.6-0.5-1.3-0.5c0,0-9.1,0-9.5,0c0,0-2.6-0.1-2.6,2.6c0,2.1,0.6,3.1,0.6,3.1s-2.9-1.9-2.6-6
		C-214.2-222.7-209.8-222.4-209.8-222.4"/>
	<path class="st2" d="M-209.8-232.4h9.5c0.6,0,1.1-0.2,1.4-0.5c0.6-0.7,0.6-1.4,0.6-1.4v1.9v1.6v1.5v2.4c0,0-0.2-1.2-0.8-1.6
		c-0.3-0.3-0.6-0.5-1.3-0.5c0,0-9.1,0-9.5,0c0,0-2.6-0.1-2.6,2.6c0,2.1,0.6,3.1,0.6,3.1s-2.9-1.9-2.6-6
		C-214.2-232.8-209.8-232.4-209.8-232.4"/>
	<path class="st2" d="M-223.6-181.6c0-0.7-0.2-1.1-0.5-1.4c-0.6-0.6-1.3-0.6-1.3-0.6h1.9h1.6h1.5h2.4c0,0-1.2,0.2-1.6,0.8
		c-0.3,0.3-0.5,0.6-0.5,1.3c0,0,0,9.5,0,9.8c0,0.9,0.7,1.9,1.8,2.3l-5.1,2L-223.6-181.6z"/>
	<path class="st2" d="M-233.5-172.1v-9.5c0-0.7-0.2-1.1-0.5-1.4c-0.6-0.6-1.3-0.6-1.3-0.6h1.9h1.6h1.4h2.4c0,0-1.1,0.2-1.6,0.8
		c-0.3,0.3-0.5,0.6-0.5,1.3c0,0,0,9.1,0,9.5c0,0-0.1,2.6,2.6,2.6c2.1,0,3.1-0.6,3.1-0.6s-1.9,2.9-6,2.6
		C-233.8-167.6-233.5-172.1-233.5-172.1"/>
	<path class="st2" d="M-243.5-172.1v-29.3c0-0.7-0.2-1.1-0.5-1.4c-0.7-0.5-1.4-0.6-1.4-0.6h1.9h1.6h1.5h2.4c0,0-1.2,0.3-1.6,0.9
		c-0.3,0.3-0.5,0.6-0.5,1.3c0,0,0,28.9,0,29.2c0,0-0.1,2.6,2.6,2.6c2.1,0,3.1-0.6,3.1-0.6s-1.9,2.9-6,2.6
		C-243.9-167.6-243.5-172.1-243.5-172.1"/>
	<path class="st2" d="M-253.6-191.9v-9.5c0-0.7-0.2-1.1-0.5-1.4c-0.6-0.6-1.3-0.6-1.3-0.6h1.9h1.6h1.5h2.4c0,0-1.1,0.2-1.6,0.8
		c-0.3,0.3-0.5,0.6-0.5,1.3c0,0,0,9.1,0,9.5c0,0-0.1,2.6,2.6,2.6c2.1,0,3.1-0.6,3.1-0.6s-1.9,2.9-6,2.6
		C-253.9-187.5-253.6-191.9-253.6-191.9"/>
	<path class="st2" d="M-263.6-191.9v-9.5c0-0.7-0.2-1.1-0.5-1.4c-0.6-0.6-1.3-0.6-1.3-0.6h1.9h1.6h1.6h2.4c0,0-1.2,0.2-1.6,0.8
		c-0.5,0.3-0.8,0.6-0.8,1.3c0,0,0,9.1,0,9.5c0,0-0.1,2.6,2.6,2.6c2.1,0,3.1-0.6,3.1-0.6s-1.9,2.9-6,2.6
		C-263.9-187.5-263.6-191.9-263.6-191.9"/>
</g>
<g>
	<path class="st2" d="M34.8,79.8c0,2.3,0.8,3.9,2,5c2.2,2.1,4.7,2.3,4.7,2.3h-6.7H29h-5.6h-8.5c0,0,4.1-0.7,5.9-3
		c1-1.2,1.9-2.3,1.9-4.7c0,0,0-33.9,0-35.2c0-3.2-2.4-6.7-6.6-8.4c0,0,18.3-7.2,18.4-7.3L34.8,79.8z M70.4,45.6l0.1,34.1
		c0,2.3,0.8,3.9,2,5c2.2,2.1,4.7,2.3,4.7,2.3h-6.7h-5.7h-5.6h-8.5c0,0,4.1-0.7,5.9-3c1-1.2,1.9-2.3,1.9-4.7c0,0,0-32.7,0-33.9
		c0,0,0.2-9.2-9.4-9.3C41.4,36,38,38.3,38,38.3s6.7-10.5,21.6-9.4C71.6,29.8,70.4,45.6,70.4,45.6 M106.4,45.6l0.1,105.1
		c0,2.3,0.8,3.9,2,5c2.2,2.1,4.7,2.6,4.7,2.6h-6.7h-5.7h-5.6h-8.5c0,0,4.1-1,5.9-3.3c1-1.2,1.9-2.3,1.9-4.7c0,0,0-103.7,0-104.9
		c0,0,0.2-9.2-9.4-9.3C77.4,36,74,38.3,74,38.3s6.7-10.5,21.6-9.4C107.6,29.8,106.4,45.6,106.4,45.6 M142.4,117l0.1,34.1
		c0,2.3,0.8,3.9,2,5c2.2,2.1,4.7,2.3,4.7,2.3h-6.7h-5.7h-5.6h-8.5c0,0,4.1-0.7,5.9-3c1-1.2,1.9-2.3,1.9-4.7c0,0,0-32.7,0-33.9
		c0,0,0.2-9.2-9.4-9.3c-7.7-0.1-11.1,2.2-11.1,2.2s6.7-10.5,21.6-9.4C143.6,101.1,142.4,117,142.4,117 M178.5,117l0.1,34.1
		c0,2.3,0.8,3.9,2,5c2.2,2.1,4.7,2.3,4.7,2.3h-6.7h-5.7h-5.6h-8.5c0,0,4.1-0.7,5.9-3c1-1.2,1.9-2.3,1.9-4.7c0,0,0-32.7,0-33.9
		c0,0,0.2-9.2-9.4-9.3c-7.7-0.1-11.1,2.2-11.1,2.2s6.7-10.5,21.6-9.4C179.6,101.1,178.5,117,178.5,117 M334.4,151.2
		c0,2.3,0.8,3.9,2,5c2.2,2.1,4.7,2.3,4.7,2.3h-6.7h-5.7h-5.6h-8.5c0,0,4.1-0.7,5.9-3c1-1.2,1.9-2.3,1.9-4.7c0,0,0-33.9,0-35.2
		c0-3.2-2.4-6.7-6.6-8.4c0,0,18.3-7.2,18.4-7.3L334.4,151.2z M370.1,117.1l0.1,34.1c0,2.3,0.8,3.9,2,5c2.2,2.1,4.7,2.3,4.7,2.3h-6.7
		h-5.7h-5.6h-8.5c0,0,4.1-0.7,5.9-3c1-1.2,1.9-2.3,1.9-4.7c0,0,0-32.7,0-33.9c0,0,0.2-9.2-9.4-9.3c-7.7-0.1-11.1,2.2-11.1,2.2
		s6.7-10.5,21.6-9.4C371.3,101.3,370.1,117.1,370.1,117.1 M175.2,79.8c0,2.3,0.8,3.9,2,5c2.2,2.1,4.7,2.3,4.7,2.3h-6.7h-5.7h-5.6
		h-8.5c0,0,4.1-0.7,5.9-3c1-1.2,1.9-2.3,1.9-4.7c0,0,0-33.9,0-35.2c0-3.2-2.4-6.7-6.6-8.4c0,0,18.3-7.2,18.4-7.3L175.2,79.8z
		 M141.1,79.8c0,2.3,0.8,3.9,2,5c2.2,2.1,4.7,2.3,4.7,2.3h-6.7h-5.7h-5.6h-8.5c0,0,4.1-0.7,5.9-3c1-1.2,1.9-2.3,1.9-4.7
		c0,0,0-33.9,0-35.2c0-3.2-2.4-6.7-6.6-8.4c0,0,18.3-7.2,18.4-7.3L141.1,79.8z M244.4,79.8c0,2.3,0.8,3.9,2,5
		c2.2,2.1,4.7,2.3,4.7,2.3h-6.7h-5.7h-5.6h-8.5c0,0,4.1-0.7,5.9-3c1-1.2,1.9-2.3,1.9-4.7c0,0,0-33.9,0-35.2c0-3.2-2.4-6.7-6.6-8.4
		c0,0,18.3-7.2,18.4-7.3L244.4,79.8z M210.9,45.6l0.1,34.1c0,2.3,0.8,3.9,2,5c2.2,2.1,4.7,2.3,4.7,2.3H211h-5.7h-5.6h-8.5
		c0,0,4.1-0.7,5.9-3c1-1.2,1.9-2.3,1.9-4.7c0,0,0-32.7,0-33.9c0,0,0.2-9.2-9.4-9.3c-7.7-0.1-11.1,2.2-11.1,2.2s6.7-10.5,21.6-9.4
		C212.1,29.8,210.9,45.6,210.9,45.6"/>
	<path class="st2" d="M222.8,158c0,0-16.8-5.6-20.8-28c-4-22.4,6.1-27.4,6.1-27.4s-21.9,8.6-17.5,32.5
		C195.5,162,222.8,158,222.8,158"/>
	<path class="st2" d="M212.4,101.7c0,0,17.9,5.1,22,27.8c4.1,22.7-7,27.8-7,27.8s23.4-8.8,18.6-32.9
		C240.5,96.6,212.4,101.7,212.4,101.7"/>
	<path class="st2" d="M288,158c0,0-16.8-5.6-20.8-28c-4-22.4,6.1-27.4,6.1-27.4s-21.9,8.6-17.5,32.5C260.6,162,288,158,288,158"/>
	<path class="st2" d="M277.5,101.7c0,0,17.9,5.1,22,27.8c4.1,22.7-7,27.8-7,27.8s23.4-8.8,18.6-32.9
		C305.7,96.6,277.5,101.7,277.5,101.7"/>
	<path class="st2" d="M128.7,20L128.7,20c-2.9-2.9-2.9-7.5,0-10.3c2.9-2.9,7.5-2.9,10.3,0c2.9,2.9,2.9,7.5,0,10.3
		C136.1,22.8,131.5,22.8,128.7,20"/>
	<path class="st2" d="M231.3,20L231.3,20c-2.9-2.9-2.9-7.5,0-10.3c2.9-2.9,7.5-2.9,10.3,0c2.9,2.9,2.9,7.5,0,10.3
		C238.8,22.8,234.2,22.8,231.3,20"/>
</g>
<g>
	<path class="st0" d="M-420.3,79.8c0,2.3,0.8,3.9,2,5c2.2,2.1,4.7,2.3,4.7,2.3h-6.7h-5.7h-5.6h-8.5c0,0,4.1-0.7,5.9-3
		c1-1.2,1.9-2.3,1.9-4.7c0,0,0-33.9,0-35.2c0-3.2-2.4-6.7-6.6-8.4c0,0,18.3-7.2,18.4-7.3L-420.3,79.8z M-384.6,45.6l0.1,34.1
		c0,2.3,0.8,3.9,2,5c2.2,2.1,4.7,2.3,4.7,2.3h-6.7h-5.7h-5.6h-8.5c0,0,4.1-0.7,5.9-3c1-1.2,1.9-2.3,1.9-4.7c0,0,0-32.7,0-33.9
		c0,0,0.2-9.2-9.4-9.3c-7.7-0.1-11.1,2.2-11.1,2.2s6.7-10.5,21.6-9.4C-383.4,29.8-384.6,45.6-384.6,45.6 M-348.6,45.6l0.1,105.1
		c0,2.3,0.8,3.9,2,5c2.2,2.1,4.7,2.6,4.7,2.6h-6.7h-5.7h-5.6h-8.5c0,0,4.1-1,5.9-3.3c1-1.2,1.9-2.3,1.9-4.7c0,0,0-103.7,0-104.9
		c0,0,0.2-9.2-9.4-9.3c-7.7-0.1-11.1,2.2-11.1,2.2s6.7-10.5,21.6-9.4C-347.4,29.8-348.6,45.6-348.6,45.6 M-312.6,117l0.1,34.1
		c0,2.3,0.8,3.9,2,5c2.2,2.1,4.7,2.3,4.7,2.3h-6.7h-5.7h-5.6h-8.5c0,0,4.1-0.7,5.9-3c1-1.2,1.9-2.3,1.9-4.7c0,0,0-32.7,0-33.9
		c0,0,0.2-9.2-9.4-9.3c-7.7-0.1-11.1,2.2-11.1,2.2s6.7-10.5,21.6-9.4C-311.4,101.1-312.6,117-312.6,117 M-276.6,117l0.1,34.1
		c0,2.3,0.8,3.9,2,5c2.2,2.1,4.7,2.3,4.7,2.3h-6.7h-5.7h-5.6h-8.5c0,0,4.1-0.7,5.9-3c1-1.2,1.9-2.3,1.9-4.7c0,0,0-32.7,0-33.9
		c0,0,0.2-9.2-9.4-9.3c-7.7-0.1-11.1,2.2-11.1,2.2s6.7-10.5,21.6-9.4C-275.4,101.1-276.6,117-276.6,117 M-120.6,151.2
		c0,2.3,0.8,3.9,2,5c2.2,2.1,4.7,2.3,4.7,2.3h-6.7h-5.7h-5.6h-8.5c0,0,4.1-0.7,5.9-3c1-1.2,1.9-2.3,1.9-4.7c0,0,0-33.9,0-35.2
		c0-3.2-2.4-6.7-6.6-8.4c0,0,18.3-7.2,18.4-7.3L-120.6,151.2z M-84.9,117.1l0.1,34.1c0,2.3,0.8,3.9,2,5c2.2,2.1,4.7,2.3,4.7,2.3
		h-6.7h-5.7h-5.6h-8.5c0,0,4.1-0.7,5.9-3c1-1.2,1.9-2.3,1.9-4.7c0,0,0-32.7,0-33.9c0,0,0.2-9.2-9.4-9.3c-7.7-0.1-11.1,2.2-11.1,2.2
		s6.7-10.5,21.6-9.4C-83.8,101.3-84.9,117.1-84.9,117.1 M-279.8,79.8c0,2.3,0.8,3.9,2,5c2.2,2.1,4.7,2.3,4.7,2.3h-6.7h-5.7h-5.6
		h-8.5c0,0,4.1-0.7,5.9-3c1-1.2,1.9-2.3,1.9-4.7c0,0,0-33.9,0-35.2c0-3.2-2.4-6.7-6.6-8.4c0,0,18.3-7.2,18.4-7.3L-279.8,79.8z
		 M-313.9,79.8c0,2.3,0.8,3.9,2,5c2.2,2.1,4.7,2.3,4.7,2.3h-6.7h-5.7h-5.6h-8.5c0,0,4.1-0.7,5.9-3c1-1.2,1.9-2.3,1.9-4.7
		c0,0,0-33.9,0-35.2c0-3.2-2.4-6.7-6.6-8.4c0,0,18.3-7.2,18.4-7.3L-313.9,79.8z M-210.6,79.8c0,2.3,0.8,3.9,2,5
		c2.2,2.1,4.7,2.3,4.7,2.3h-6.7h-5.7h-5.6h-8.5c0,0,4.1-0.7,5.9-3c1-1.2,1.9-2.3,1.9-4.7c0,0,0-33.9,0-35.2c0-3.2-2.4-6.7-6.6-8.4
		c0,0,18.3-7.2,18.4-7.3L-210.6,79.8z M-244.1,45.6l0.1,34.1c0,2.3,0.8,3.9,2,5c2.2,2.1,4.7,2.3,4.7,2.3h-6.7h-5.7h-5.6h-8.5
		c0,0,4.1-0.7,5.9-3c1-1.2,1.9-2.3,1.9-4.7c0,0,0-32.7,0-33.9c0,0,0.2-9.2-9.4-9.3c-7.7-0.1-11.1,2.2-11.1,2.2s6.7-10.5,21.6-9.4
		C-243,29.8-244.1,45.6-244.1,45.6"/>
	<path class="st0" d="M-232.2,158c0,0-16.8-5.6-20.8-28c-4-22.4,6.1-27.4,6.1-27.4s-21.9,8.6-17.5,32.5
		C-259.6,162-232.2,158-232.2,158"/>
	<path class="st0" d="M-242.7,101.7c0,0,17.9,5.1,22,27.8c4.1,22.7-7,27.8-7,27.8s23.4-8.8,18.6-32.9
		C-214.5,96.6-242.7,101.7-242.7,101.7"/>
	<path class="st0" d="M-167.1,158c0,0-16.8-5.6-20.8-28c-4-22.4,6.1-27.4,6.1-27.4s-21.9,8.6-17.5,32.5
		C-194.4,162-167.1,158-167.1,158"/>
	<path class="st0" d="M-177.5,101.7c0,0,17.9,5.1,22,27.8c4.1,22.7-7,27.8-7,27.8s23.4-8.8,18.6-32.9
		C-149.4,96.6-177.5,101.7-177.5,101.7"/>
	<path class="st0" d="M-326.4,20L-326.4,20c-2.9-2.9-2.9-7.5,0-10.3c2.9-2.9,7.5-2.9,10.3,0c2.9,2.9,2.9,7.5,0,10.3
		C-318.9,22.8-323.5,22.8-326.4,20"/>
	<path class="st0" d="M-223.7,20L-223.7,20c-2.9-2.9-2.9-7.5,0-10.3c2.9-2.9,7.5-2.9,10.3,0c2.9,2.9,2.9,7.5,0,10.3
		C-216.2,22.8-220.9,22.8-223.7,20"/>
</g>
<g>
	<path class="st1" d="M-869.6,79.8c0,2.3,0.8,3.9,2,5c2.2,2.1,4.7,2.3,4.7,2.3h-6.7h-5.7h-5.6h-8.5c0,0,4.1-0.7,5.9-3
		c1-1.2,1.9-2.3,1.9-4.7c0,0,0-33.9,0-35.2c0-3.2-2.4-6.7-6.6-8.4c0,0,18.3-7.2,18.4-7.3L-869.6,79.8z M-833.9,45.6l0.1,34.1
		c0,2.3,0.8,3.9,2,5c2.2,2.1,4.7,2.3,4.7,2.3h-6.7h-5.7h-5.6h-8.5c0,0,4.1-0.7,5.9-3c1-1.2,1.9-2.3,1.9-4.7c0,0,0-32.7,0-33.9
		c0,0,0.2-9.2-9.4-9.3c-7.7-0.1-11.1,2.2-11.1,2.2s6.7-10.5,21.6-9.4C-832.7,29.8-833.9,45.6-833.9,45.6 M-797.9,45.6l0.1,105.1
		c0,2.3,0.8,3.9,2,5c2.2,2.1,4.7,2.6,4.7,2.6h-6.7h-5.7h-5.6h-8.5c0,0,4.1-1,5.9-3.3c1-1.2,1.9-2.3,1.9-4.7c0,0,0-103.7,0-104.9
		c0,0,0.2-9.2-9.4-9.3c-7.7-0.1-11.1,2.2-11.1,2.2s6.7-10.5,21.6-9.4C-796.7,29.8-797.9,45.6-797.9,45.6 M-761.9,117l0.1,34.1
		c0,2.3,0.8,3.9,2,5c2.2,2.1,4.7,2.3,4.7,2.3h-6.7h-5.7h-5.6h-8.5c0,0,4.1-0.7,5.9-3c1-1.2,1.9-2.3,1.9-4.7c0,0,0-32.7,0-33.9
		c0,0,0.2-9.2-9.4-9.3c-7.7-0.1-11.1,2.2-11.1,2.2s6.7-10.5,21.6-9.4C-760.7,101.1-761.9,117-761.9,117 M-725.9,117l0.1,34.1
		c0,2.3,0.8,3.9,2,5c2.2,2.1,4.7,2.3,4.7,2.3h-6.7h-5.7h-5.6h-8.5c0,0,4.1-0.7,5.9-3c1-1.2,1.9-2.3,1.9-4.7c0,0,0-32.7,0-33.9
		c0,0,0.2-9.2-9.4-9.3c-7.7-0.1-11.1,2.2-11.1,2.2s6.7-10.5,21.6-9.4C-724.7,101.1-725.9,117-725.9,117 M-569.9,151.2
		c0,2.3,0.8,3.9,2,5c2.2,2.1,4.7,2.3,4.7,2.3h-6.7h-5.7h-5.6h-8.5c0,0,4.1-0.7,5.9-3c1-1.2,1.9-2.3,1.9-4.7c0,0,0-33.9,0-35.2
		c0-3.2-2.4-6.7-6.6-8.4c0,0,18.3-7.2,18.4-7.3L-569.9,151.2z M-534.2,117.1l0.1,34.1c0,2.3,0.8,3.9,2,5c2.2,2.1,4.7,2.3,4.7,2.3
		h-6.7h-5.7h-5.6h-8.5c0,0,4.1-0.7,5.9-3c1-1.2,1.9-2.3,1.9-4.7c0,0,0-32.7,0-33.9c0,0,0.2-9.2-9.4-9.3c-7.7-0.1-11.1,2.2-11.1,2.2
		s6.7-10.5,21.6-9.4C-533,101.3-534.2,117.1-534.2,117.1 M-729.1,79.8c0,2.3,0.8,3.9,2,5c2.2,2.1,4.7,2.3,4.7,2.3h-6.7h-5.7h-5.6
		h-8.5c0,0,4.1-0.7,5.9-3c1-1.2,1.9-2.3,1.9-4.7c0,0,0-33.9,0-35.2c0-3.2-2.4-6.7-6.6-8.4c0,0,18.3-7.2,18.4-7.3L-729.1,79.8z
		 M-763.2,79.8c0,2.3,0.8,3.9,2,5c2.2,2.1,4.7,2.3,4.7,2.3h-6.7h-5.7h-5.6h-8.5c0,0,4.1-0.7,5.9-3c1-1.2,1.9-2.3,1.9-4.7
		c0,0,0-33.9,0-35.2c0-3.2-2.4-6.7-6.6-8.4c0,0,18.3-7.2,18.4-7.3L-763.2,79.8z M-659.9,79.8c0,2.3,0.8,3.9,2,5
		c2.2,2.1,4.7,2.3,4.7,2.3h-6.7h-5.7h-5.6h-8.5c0,0,4.1-0.7,5.9-3c1-1.2,1.9-2.3,1.9-4.7c0,0,0-33.9,0-35.2c0-3.2-2.4-6.7-6.6-8.4
		c0,0,18.3-7.2,18.4-7.3L-659.9,79.8z M-693.4,45.6l0.1,34.1c0,2.3,0.8,3.9,2,5c2.2,2.1,4.7,2.3,4.7,2.3h-6.7h-5.7h-5.6h-8.5
		c0,0,4.1-0.7,5.9-3c1-1.2,1.9-2.3,1.9-4.7c0,0,0-32.7,0-33.9c0,0,0.2-9.2-9.4-9.3c-7.7-0.1-11.1,2.2-11.1,2.2s6.7-10.5,21.6-9.4
		C-692.3,29.8-693.4,45.6-693.4,45.6"/>
	<path class="st1" d="M-681.5,158c0,0-16.8-5.6-20.8-28c-4-22.4,6.1-27.4,6.1-27.4s-21.9,8.6-17.5,32.5
		C-708.8,162-681.5,158-681.5,158"/>
	<path class="st1" d="M-691.9,101.7c0,0,17.9,5.1,22,27.8c4.1,22.7-7,27.8-7,27.8s23.4-8.8,18.6-32.9
		C-663.8,96.6-691.9,101.7-691.9,101.7"/>
	<path class="st1" d="M-616.3,158c0,0-16.8-5.6-20.8-28c-4-22.4,6.1-27.4,6.1-27.4s-21.9,8.6-17.5,32.5
		C-643.7,162-616.3,158-616.3,158"/>
	<path class="st1" d="M-626.8,101.7c0,0,17.9,5.1,22,27.8c4.1,22.7-7,27.8-7,27.8s23.4-8.8,18.6-32.9
		C-598.6,96.6-626.8,101.7-626.8,101.7"/>
	<path class="st1" d="M-775.7,20L-775.7,20c-2.9-2.9-2.9-7.5,0-10.3s7.5-2.9,10.3,0s2.9,7.5,0,10.3C-768.2,22.8-772.8,22.8-775.7,20
		"/>
	<path class="st1" d="M-673,20L-673,20c-2.9-2.9-2.9-7.5,0-10.3c2.9-2.9,7.5-2.9,10.3,0s2.9,7.5,0,10.3
		C-665.5,22.8-670.1,22.8-673,20"/>
</g>
</svg>
