<?xml version="1.0" encoding="utf-8"?>
<!-- Generator: Adobe Illustrator 26.0.1, SVG Export Plug-In . SVG Version: 6.00 Build 0)  -->
<svg version="1.1" id="Layer_1" xmlns="http://www.w3.org/2000/svg" xmlns:xlink="http://www.w3.org/1999/xlink" x="0px" y="0px"
	 viewBox="0 0 395.07 167.65" style="enable-background:new 0 0 395.07 167.65;" xml:space="preserve">
<style type="text/css">
	.st0{fill:#FFFFFF;}
</style>
<g>
	<circle class="st0" cx="133.34" cy="15.81" r="8"/>
	<circle class="st0" cx="238.1" cy="15.81" r="8"/>
	<path class="st0" d="M74.2,37.12c7.46-6.2,15.61-9.12,24.1-5.53c8.49,3.59,7.09,12.31,7.11,19.67c0.09,31.33,0.07,62.65,0.01,93.98
		c-0.01,5.12-0.08,10.19,3.06,15.23c-6.48,0-12.07,0-18.59,0c4-5.69,3.56-11.62,3.55-17.5c-0.03-28.72-0.01-57.43-0.02-86.15
		C93.42,38.38,93.41,38.38,74.2,37.12z"/>
	<path class="st0" d="M36.79,37.41c8.74-6.28,16.77-9.91,25.28-5.7c8.02,3.96,6.49,12.52,6.88,19.94
		c0.64,12.16-2.18,24.55,2.2,36.56c-0.43,0.17-1.08,0.54-1.78,0.67c-10.73,1.91-16.83,0.03-13.59-13.18
		c1.64-6.7,0.3-14.11,0.29-21.2C56.04,38.09,55.81,37.87,36.79,37.41z"/>
	<path class="st0" d="M148.01,109.08c7.85-6.99,16.01-8.85,23.9-5.51c7.68,3.25,6.87,11.51,7.19,18.58
		c0.56,12.52-1.56,25.17,1.75,37.82c-5.39,1.6-10.95,0.69-16.6,0.59c4.19-14.52,2.62-29.17,1.7-43.59
		C165.35,107.58,156.14,110,148.01,109.08z"/>
	<path class="st0" d="M343.37,108.9c7.32-6.02,15.27-8.72,23.38-5.35c8.33,3.46,7.43,11.92,7.74,19.46
		c0.5,12.44-1.99,25.07,2.22,37.68c-5.84,0-11.76,0-17.55,0c4.94-14.9,3.47-30.02,1.66-44.79
		C359.72,106.94,349.96,110.77,343.37,108.9z"/>
	<path class="st0" d="M112.42,108.76c6.98-7.01,14.83-8.07,22.41-5.34c7.83,2.83,6.74,10.63,6.91,17.34
		c0.23,8.91,0.83,17.82,1,26.73c0.27,13.71,0.17,13.72-15.03,12.77c4.4-14.02,2.27-28.38,1.88-42.54
		C129.32,107.8,119.67,110.18,112.42,108.76z"/>
	<path class="st0" d="M143.24,88.76c-6.7,0-11.91,0-17.1,0c2.6-16.29,3.54-32.43-0.14-48.54c-0.36-1.57-2.94-3.35-0.39-4.47
		c4.35-1.91,8.56-5.15,13.59-4.34c2.83,0.45,1.81,3.66,1.83,5.69c0.1,12.25,0.13,24.51,0.02,36.77
		C141,78.66,141.24,83.37,143.24,88.76z"/>
	<path class="st0" d="M35.82,88.75c-7.13,0-12.72,0-17.68,0c1.97-16.43,3.85-32.66-0.76-48.85c-0.45-1.57-2.93-3.14,0.08-4.34
		c4.15-1.65,8.35-3.65,12.69-4.14c2.76-0.31,2.11,3.34,2.14,5.39c0.18,12.69,0.29,25.39,0.34,38.08
		C32.64,79.36,32.25,83.86,35.82,88.75z"/>
	<path class="st0" d="M323.74,160.63c2.15-16.09,2.42-31.81-0.07-47.57c-0.28-1.8-3.93-3.81-0.7-5.26c4.32-1.95,8.56-5.34,13.61-4.3
		c2.61,0.54,1.52,3.81,1.54,5.86c0.1,12.69,0,25.38,0.08,38.07c0.03,4.37-0.95,9,3.82,13.19
		C334.81,160.63,328.89,160.63,323.74,160.63z"/>
	<path class="st0" d="M193.27,90.17c4.64-16.57,2.98-31.46,2.01-46.13c-0.53-8.02-8.65-6.17-15.28-6.36
		c6.27-6.59,12.88-9.4,20.08-6.3c6.39,2.75,6.32,9.8,6.58,15.65c0.54,12.66,1.41,25.43,0.36,38
		C206.34,93.18,198.45,86.73,193.27,90.17z"/>
	<path class="st0" d="M178.52,88.71c-6.79,0-12.01,0-17.06,0c2.14-16.82,5.62-33.43-1.63-49.71c-0.58-1.3-1.91-2.69,0.31-3.31
		c4.63-1.29,8.61-5.01,13.69-4.21c2.25,0.36,1.44,3.08,1.46,4.76c0.08,12.66,0.17,25.33-0.01,37.99
		C175.21,79.15,175.8,83.8,178.52,88.71z"/>
	<path class="st0" d="M248.14,88.71c-5.5,0-10.73,0-15.96,0c1.79-17.53,4.69-35.08-2.2-52.39c15.95-7.2,15.64-7.19,16.05,10.52
		C246.34,60.72,243.95,74.74,248.14,88.71z"/>
	<path class="st0" d="M299.56,155.89c7.9-18.57,2.68-35.46-15.88-51.4c13.25-2.26,24.16,4.14,28.96,16.99
		C317.96,135.72,313.19,148.3,299.56,155.89z"/>
	<path class="st0" d="M234.89,154.26c4.63-20.66-0.28-37.68-18.71-50.23c16.27-1.06,26.31,5.62,30.67,19.43
		C250.87,136.19,246.91,146.99,234.89,154.26z"/>
	<path class="st0" d="M287.81,160.14c-16.89-0.41-24.61-5.47-28.81-17.99c-4.72-14.06-1.7-23.99,11.17-34.12
		C265.99,128.88,269.14,146.82,287.81,160.14z"/>
	<path class="st0" d="M211.24,159.16c-12.74-2.23-18.15-11.17-19.96-22.55c-1.87-11.82,1.08-22.06,12.96-28.72
		c-4.78,20.09-1.47,37.36,14.75,50.86C216.49,160.48,213.88,160.11,211.24,159.16z"/>
	<path class="st0" d="M211.24,159.16c2.58-0.14,5.16-0.28,7.75-0.42c1.59,0.35,3.46,1.22,0.66,2.13
		C216.89,161.76,213.66,161.55,211.24,159.16z"/>
</g>
</svg>
