<?xml version="1.0" encoding="utf-8"?>
<!-- Generator: Adobe Illustrator 26.0.1, SVG Export Plug-In . SVG Version: 6.00 Build 0)  -->
<svg version="1.1" id="Layer_1" xmlns="http://www.w3.org/2000/svg" xmlns:xlink="http://www.w3.org/1999/xlink" x="0px" y="0px"
	 viewBox="0 0 500 500" style="enable-background:new 0 0 500 500;" xml:space="preserve">
<style type="text/css">
	.st0{fill:#FFFFFF;}
	.st1{fill:#E16E64;}
	.st2{fill:#F37B88;}
	.st3{fill:#0A0909;}
	.st4{fill:#C0BFBF;}
	.st5{fill:#8E8D8D;}
	.st6{fill:#0B0A0A;}
</style>
<path class="st0" d="M421.5,3.3c24.7-0.1,49.3-0.1,74-0.3c3.9,0,5.4,1.1,4.9,4.9c-0.2,1.6,0,3.2,0,4.8c0,158.2-0.1,316.4,0.2,474.6
	c0,8-1.8,11.1-9.9,9.8c-3.7-0.6-7.5-0.3-11.2-0.3c-7.3-2.7-8.7-8.8-8.8-15.5c-0.1-17.3,0-34.7-0.1-52c0-4.6-0.3-9.1-1.9-13.4
	c-1.8-5-4.7-8.9-9.9-10.9c-2.2-0.8-4.8-1.2-5.5-4c3-3.7,7.2-2.1,10.9-2.7c2.5-0.1,3.2-1.7,3.2-3.9c0.1-8.8,0-17.6,0-26.4
	c0-8.5,0-16.9,0-25.4c0-9.1,0-18.2,0-27.3c0-8.6,0-17.2,0-25.8c0-9.6,0-19.3,0-28.9c0-8.6,0-17.2,0-25.8c0-9.6,0-19.3,0-28.9
	c0-8.6,0-17.2,0-25.8c0-9.6,0-19.2,0-28.7c0.1-8.3,0-16.6,0-24.9c-1-5.7,2.5-12-2.5-17.2c-8.7-1.7-17.6-0.3-26.3-0.9
	c-6.1-0.2-12.4,1.6-17.9-2.4c-2.2-3.4-1.9-7.2-1.9-10.9c-0.1-26.8-0.1-53.6,0-80.4C418.9,10.8,418.3,6.6,421.5,3.3z"/>
<path class="st1" d="M421.5,3.3c0,34.2,0,68.3,0,102.5c-2.3,2.7-5.4,2.4-8.5,2.5c-9.5,0.3-19,0.3-28.6,0.1c-8.6,0.2-17.1,0.3-25.7,0
	c-9.6,0.2-19.1,0.3-28.7,0c-3.5-0.1-7.3,0.6-10.1-2.5c0-34.2,0-68.3,0-102.5C353.8,3.3,387.6,3.3,421.5,3.3z"/>
<path class="st0" d="M442.3,496.7c-7.5,0-15,0-22.5,0c-7-1.8-8.7-7.1-8.8-13.5c-0.1-16.6,0-33.1,0-49.7c0-5.1-0.4-10.1-1.7-15.1
	c-1.5-6-4.7-10.6-10.4-13.4c-2-1-5.7-1.1-4.6-5.1c5.6-3.1,11.6-1.2,17.5-1.8c8.9,0,17.8,0,26.7,0c3.3,0.2,6.7-0.4,9.8,1.5
	c1.4,5.7-3.5,4.1-5.9,4.6c-6.7,1.3-12.7,3.7-17.8,9c3.3,1,6-0.4,8.8-0.5c12-0.4,19.9,5.7,20.5,17.7c0.9,17.4,0.7,34.8,0.1,52.3
	C453.7,491.2,450.7,494.2,442.3,496.7z"/>
<path class="st0" d="M382.8,496.7c-7.5,0-15,0-22.5,0c-5.6-1.6-8.6-5.3-8.7-11c-0.4-26.8-0.4-53.5,0-80.3c0-1.6,0.5-3.2,1.4-4.6
	c1-1.3,2.3-2,3.9-2.3c8.9-0.6,17.8-0.4,26.7-0.2c1.4,0.1,2.8,0.6,3.9,1.5c0.5,4.6-3.4,3.9-5.8,4.5c-6.6,1.5-12.6,4-17.5,9.3
	c3,0.2,5.5-0.8,8.1-1c13.5-0.6,20.7,6,20.8,19.4c0.1,16.9,0,33.7,0,50.6C393.1,490.1,390.6,495.3,382.8,496.7z"/>
<path class="st1" d="M382.8,496.7c6-3.4,8.6-8.1,8.3-15.5c-0.7-16-0.2-32-0.2-48c0-14.8-9.5-21.8-23.8-17.7c-3,0.8-5.8,1.9-10.3,3.4
	c7.4-10.4,15.5-16.1,26.7-16.9c1.5-0.1,3.3,0.5,4.2-1.4c2.2-2.1,4.3-2.1,6.5,0c15.8,4.8,18.3,11.2,19.1,28.2
	c0.8,17.4,0.5,34.8,0,52.2c-0.2,6.5,0.9,11.9,6.6,15.6C407.5,496.7,395.1,496.7,382.8,496.7z"/>
<path class="st1" d="M442.3,496.7c7.5-3.6,10-9.8,9.8-17.9c-0.4-15-0.1-30-0.1-45c0-14.9-9.1-22.2-23.3-18.3
	c-3.3,0.9-6.8,0.1-10,2.1c5.3-9.3,13.1-14.2,23.4-15.6c2.2-0.3,4.9,1.2,6.6-1.4c1.6-1.6,3.3-1.6,4.9,0c14.9,4.7,19.3,11,19.3,27.5
	c0,16.9,0.3,33.8-0.1,50.6c-0.2,7.2,1.4,13,6.6,17.9C467,496.7,454.7,496.7,442.3,496.7z"/>
<path class="st1" d="M353.8,400.6c0,26.8,0.2,53.6-0.2,80.4c-0.1,6.5,0.9,11.9,6.6,15.7c-12.9,0-25.8,0-38.7,0
	c8.1-3.1,10-9.3,9.8-17.5c-0.4-26.2-0.2-52.3-0.2-78.5C338.8,396.8,346.3,396.8,353.8,400.6z"/>
<path class="st2" d="M0,482.5c23.8,0,47.7,0.4,71.5-0.2c8.3-0.2,11.8,1.9,10.3,10.4c-0.2,1.3,0,2.7,0,4c-25.7,0.1-51.5,0.1-77.2,0.3
	c-3.8,0-5.4-1-5-4.9C0,488.9-0.1,485.7,0,482.5z"/>
<path class="st3" d="M162.1,496.9c0.1-2.9,0.3-5.9,0.2-8.8c-0.2-3.6,0.1-5.8,4.9-5.8c4.8,0,5.1,2.2,4.9,5.8
	c-0.2,2.9,0.1,5.8,0.2,8.8C168.8,496.9,165.4,496.9,162.1,496.9z"/>
<path class="st3" d="M92.9,496.9c0.1-2.9,0.3-5.9,0.2-8.8c-0.2-3.6,0.1-5.8,4.9-5.8c4.8,0,5.1,2.2,4.9,5.8c-0.2,2.9,0.1,5.8,0.2,8.8
	C99.6,496.9,96.2,496.9,92.9,496.9z"/>
<path class="st3" d="M144.4,496.9c0.1-2.9,0.3-5.9,0.2-8.8c-0.2-3.6,0.1-5.8,4.9-5.8c4.8,0,5.1,2.2,4.9,5.8
	c-0.2,2.9,0.1,5.8,0.2,8.8C151.1,496.9,147.7,496.9,144.4,496.9z"/>
<path class="st3" d="M110.6,496.9c0.1-2.9,0.3-5.9,0.2-8.8c-0.2-3.6,0.1-5.8,4.9-5.8c4.8,0,5.1,2.2,4.9,5.8
	c-0.2,2.9,0.1,5.8,0.2,8.8C117.3,496.9,113.9,496.9,110.6,496.9z"/>
<path class="st4" d="M274.8,106.2c9.8,0,19.5,0,29.3,0c2.4,2.6,2.3,6,2.1,9.1c-0.3,6,2.6,7.9,8.2,7.8c4.8-0.1,9.6-0.7,14.3,1
	c0.9,0.4,1.5,1,2,1.9c2.1,8,1.7,16,0.3,24.1c-0.4,0.9-1,1.5-1.8,2.1c-5.4,2.2-11,1.1-16.5,1.3c-4.2,0.2-6.5,1.8-6.4,6.2
	c0,0.5,0,1.1,0,1.6c-0.1,18.5-0.7,16.5,15.3,16.6c2.4,0,4.8,0.1,7.1,1c0.9,0.4,1.5,1,2.1,1.8c2.1,8,1.8,16.1,0.3,24.1
	c-0.4,0.9-1,1.5-1.8,2.1c-5.4,2.2-11,1.1-16.5,1.3c-4.2,0.2-6.5,1.8-6.4,6.2c0,0.5,0,1.1,0,1.6c-0.1,18.5-0.7,16.5,15.3,16.6
	c2.4,0,4.8,0.1,7.1,1c0.9,0.4,1.5,1,2.1,1.8c2.1,8,1.8,16.1,0.3,24.1c-0.4,0.9-1,1.5-1.8,2.1c-5.4,2.2-11,1.1-16.5,1.3
	c-4.2,0.2-6.5,1.8-6.4,6.2c0,0.5,0,1.1,0,1.6c-0.1,18.5-0.7,16.5,15.3,16.6c2.4,0,4.8,0.1,7.1,1c0.9,0.4,1.5,1,2.1,1.8
	c2.1,8,1.8,16,0.3,24.1c-0.4,0.9-1,1.5-1.8,2.1c-5.1,2.2-10.5,1.2-15.7,1.3c-4.9,0-7.6,1.8-7.3,7c0.1,1.1,0,2.1,0,3.2
	c-0.1,12.5-0.1,12.4,12.2,12.6c3.4,0,6.9-0.3,10.3,1c0.9,0.4,1.5,1,2,1.8c2.1,8,1.7,16,0.3,24c-0.4,0.9-0.9,1.5-1.7,2.1
	c-5.1,2.2-10.5,1.3-15.8,1.3c-4.9,0.1-7.3,1.8-7.4,7c-0.1,20.1-0.5,17.2,15.4,17.4c1.9,0,3.7,0,5.6,0.5c0.9,0.2,1.7,0.6,2.4,1.2
	c1,1.2,1.1,2.4,0.2,3.7c-9.2,0-18.5,0-27.7,0c-5.5-2.8-11.3-0.8-17-1.4c-3.6-0.4-7.4,1-10.6-1.6c-3.6-9.1-2.2-18.3-1.1-27.5
	c0.4-0.9,0.9-1.6,1.7-2.2c5.6-2.6,11.6-1.4,17.4-1.5c5.5,0,7.9-2.2,7.5-7.7c-0.2-2.4-0.1-4.8-0.1-7.2c0-4.4-2.3-6.1-6.5-6.3
	c-5.8-0.3-11.8,0.8-17.5-1.1c-0.9-0.4-1.5-1-2.1-1.9c-2.1-8.5-1.8-17.1-0.3-25.6c0.4-0.9,1-1.6,1.8-2.1c5.4-2.2,11-1.3,16.6-1.3
	c5.6,0.1,8.6-1.8,8.1-7.8c-0.1-1.6-0.1-3.2,0-4.8c0.5-6.1-2-8.8-8.2-8.6c-5.3,0.1-10.7,0.8-15.8-1c-0.9-0.4-1.5-1.1-2-1.9
	c-2.1-9-1.7-18.1-0.3-27.2c0.4-0.9,1-1.6,1.7-2.1c4.6-2.1,9.4-1.3,14.2-1.4c10.3-0.2,10.6-0.4,10.5-11c0-1.1,0,0.3,0-0.8
	c-0.1-8.5-0.7-9.1-9-9.4c-5-0.2-10.1,0.7-15.1-1.1c-0.9-0.4-1.5-1.1-2-1.9c-2.1-9-1.7-18.1-0.3-27.2c0.4-0.9,1-1.6,1.7-2.1
	c4.6-2.1,9.4-1.3,14.2-1.4c10.3-0.2,10.6-0.4,10.5-11c0-1.1,0,0.3,0-0.8c-0.1-8.5-0.7-9.1-9-9.4c-5-0.2-10.1,0.7-15.1-1.1
	c-0.9-0.4-1.5-1.1-2-1.9c-2.1-9-1.7-18.1-0.3-27.2c0.4-0.9,1-1.6,1.7-2.1c4.6-2.1,9.4-1.3,14.2-1.4c10.3-0.2,10.6-0.4,10.5-11
	c0-0.5-0.1-1.1,0-1.6c0.6-6.1-2-8.8-8.2-8.6c-5.3,0.1-10.7,0.8-15.9-1c-0.9-0.4-1.5-1.1-2-1.9C272.3,118.4,271.2,112.2,274.8,106.2z
	"/>
<path class="st1" d="M199.3,295.5c11.9-4.6,22.2-8.6,33.8-13.1c0,7.9,0,14.8,0,21.6c0,19,0.2,38-0.1,57.1c-0.2,8.6,1,15.8,10.1,19.7
	c-14.1,0-28.3,0-44.9,0c12.6-4.6,14.7-12.7,14.2-22.9c-0.6-12.6-0.7-25.2,0-37.8C212.9,309.7,210.6,301.3,199.3,295.5z"/>
<path class="st5" d="M329.7,125.4c-2.4,0-4.7,0-7.1,0c-19.1,0-19.1,0-18.5-19.1c5.3-0.1,10.6-0.3,15.9-0.4c3.2,0.1,6.5,0.3,9.7,0.4
	C333.3,112.6,333.3,119,329.7,125.4z"/>
<path class="st1" d="M268.4,302.2c-9.3-8.2-19.8-4.2-30.8-2.3c7.3-12.2,18.8-15,30.7-17c2.2,1.7,2.3,4.2,2.4,6.7
	C270.7,294,271.9,298.5,268.4,302.2z"/>
<path class="st5" d="M268.8,289.5c-0.1-2.2-0.3-4.3-0.4-6.5c0.1-7.4,0.3-14.9,0.4-22.3c2-1.9,4.1-2,6.3-0.2c0,9.7,0,19.4,0,29
	C272.9,291.3,270.8,291.1,268.8,289.5z"/>
<path class="st5" d="M275,151c0,9.7,0,19.4,0,29c-2.2,1.8-4.2,1.7-6.3-0.2c0-9.5,0-19.1,0-28.6C270.7,149.4,272.8,149.2,275,151z"/>
<path class="st5" d="M275,205.7c0,9.7,0,19.4,0,29c-2.2,1.8-4.2,1.7-6.3-0.2c0-9.5,0-19.1,0-28.6C270.7,204.1,272.8,203.9,275,205.7
	z"/>
<path class="st5" d="M275,368.2c0,9.7-0.1,19.4-0.1,29c-0.3,0.3-0.6,0.5-0.9,0.8c-2,0.9-3.8,0.8-5.3-1c-0.1-5.3-0.3-10.6-0.4-15.9
	c-1.1-1.6-1.1-3.2,0-4.9c0.1-2.6,0.3-5.2,0.4-7.9C270.7,366.6,272.8,366.4,275,368.2z"/>
<path class="st5" d="M275,315.1c0,9.1,0,18.3,0,27.4c-2.2,1.8-4.2,1.7-6.3-0.2c0-9,0-18,0-27C270.7,313.5,272.8,313.3,275,315.1z"/>
<path class="st4" d="M275,205.7c-2.1,0.1-4.2,0.1-6.3,0.2c0-8.7,0-17.4,0-26.1c2.1,0.1,4.2,0.1,6.3,0.2c0,0-0.1-0.1-0.1-0.1
	C278.8,188.6,278.8,197.2,275,205.7L275,205.7z"/>
<path class="st4" d="M275,315.1c-2.1,0.1-4.2,0.1-6.3,0.2c-0.1-4.4-0.2-8.7-0.3-13.1c0.1-4.3,0.2-8.5,0.3-12.8c2.1,0,4.2,0,6.2,0
	c0,0-0.1-0.1-0.1-0.1C278.8,298,278.8,306.6,275,315.1L275,315.1z"/>
<path class="st4" d="M268.7,342.4c2.1,0.1,4.2,0.1,6.3,0.2c0,0-0.1-0.1-0.1-0.1c3.9,8.6,3.9,17.2,0,25.8c0,0,0.1-0.1,0.1-0.1
	c-2.1,0.1-4.2,0.1-6.3,0.2C268.7,359.7,268.7,351,268.7,342.4z"/>
<path class="st4" d="M268.7,234.6c2.1,0.1,4.2,0.1,6.3,0.2c0,0-0.1-0.1-0.1-0.1c3.9,8.6,3.9,17.2,0,25.8c0,0,0.1-0.1,0.1-0.1
	c-2.1,0.1-4.2,0.1-6.3,0.2C268.7,251.9,268.7,243.2,268.7,234.6z"/>
<path class="st4" d="M275,151c-2.1,0.1-4.2,0.1-6.3,0.2c0-8.7,0-17.4,0-26.1c2.2-1.7,4.2-1.5,6.3,0.2l-0.1-0.1
	C278.8,133.9,278.8,142.5,275,151L275,151z"/>
<path class="st5" d="M275,125.4c-2.1-0.1-4.2-0.1-6.3-0.2c-0.1-4.5,0.2-8.9-0.3-13.3c-0.5-5.2,1.8-6.6,6.4-5.6
	C274.9,112.6,274.9,119,275,125.4z"/>
<path class="st5" d="M329.8,400.2c-0.1-1-0.1-2-0.2-3.1c8-4.4,16.5-2.6,24.8-1.5c2.1,0.3,4.1,1.8,2.4,4.6c-1,0.1-2,0.3-3,0.4
	c-7.5,0-15.1,0-22.6,0C330.8,400.5,330.3,400.4,329.8,400.2z"/>
<path class="st5" d="M274.9,397.3c7.1,0,14.2-0.1,21.2,0c2.3,0,5.6-1.3,6,3c-9,0-18,0-27,0C274,399.3,274,398.2,274.9,397.3
	L274.9,397.3z"/>
<path class="st1" d="M268.3,376.3c0,1.6,0,3.2,0,4.9c-2.8,0-5.6,0-9.1,0C262.2,378.3,265,376.8,268.3,376.3z"/>
<path class="st2" d="M225,208.7c-4.9,0-9.8,0-14.7,0C215.4,207,220.5,207.1,225,208.7z"/>
<path class="st4" d="M275,397.2c0,1,0.1,2,0.1,3.1c-2.5-0.3-6.2,1.8-6.4-3.2C270.8,397.1,272.9,397.1,275,397.2z"/>
<path class="st4" d="M469.5,125.1c0,8.7,0,17.4,0,26.2c-1.1,9.5-1.1,19,0,28.5c0,8.7,0,17.4,0,26.2c-1.1,9.5-1.1,19,0,28.5
	c0,8.7,0,17.4,0,26.2c-1.1,9.5-1.1,19,0,28.5c0,8.7,0,17.4,0,26.2c-1.1,9-1,18,0,26.9c0,8.7,0,17.4,0,26.2c-1.1,9.5-1.1,19,0,28.5
	c0.2,2.4-0.8,3.5-3.2,3.2c-5.8-2.9-11.9-0.8-17.8-1.4c-2.9-0.3-5.8,0.3-8.6-0.6c-0.9-0.4-1.5-1.1-2-2c-1.8-9-1.7-18-0.1-27
	c0.4-0.9,1-1.6,1.8-2.1c4.6-2,9.4-1.2,14.1-1.3c10.3-0.2,10.6-0.4,10.5-11c-0.1-9.5-0.5-9.9-9.8-10.2c-4.8-0.1-9.6,0.6-14.2-1
	c-0.9-0.4-1.5-1-2-1.9c-2.1-8.5-1.8-17.1-0.3-25.6c0.4-0.9,1-1.6,1.8-2.1c5.4-2.2,11-1.3,16.6-1.3c5.6,0.1,8.6-1.8,8.1-7.8
	c-0.1-1.6-0.1-3.2,0-4.8c0.5-6.1-2-8.8-8.2-8.6c-5.3,0.1-10.7,0.8-15.8-1c-0.9-0.4-1.5-1.1-2-1.9c-2.1-9-1.7-18.1-0.3-27.2
	c0.4-0.9,1-1.6,1.7-2.1c4.6-2.1,9.4-1.3,14.2-1.4c10.3-0.2,10.6-0.4,10.5-11c0-1.1,0,0.3,0-0.8c-0.1-8.5-0.7-9.1-9-9.4
	c-5-0.2-10.1,0.7-15.1-1.1c-0.9-0.4-1.5-1.1-2-1.9c-2.1-9-1.7-18.1-0.3-27.2c0.4-0.9,1-1.6,1.7-2.1c4.6-2.1,9.4-1.3,14.2-1.4
	c10.3-0.2,10.6-0.4,10.5-11c0-1.1,0,0.3,0-0.8c-0.1-8.5-0.7-9.1-9-9.4c-5-0.2-10.1,0.7-15.1-1.1c-0.9-0.4-1.5-1.1-2-1.9
	c-2.1-9-1.7-18.1-0.3-27.2c0.4-0.9,1-1.6,1.7-2.1c4.6-2.1,9.4-1.3,14.2-1.4c10.3-0.2,10.6-0.4,10.5-11c0-0.5-0.1-1.1,0-1.6
	c0.6-6.1-2-8.8-8.2-8.6c-5.3,0.1-10.7,0.8-15.9-1c-0.9-0.4-1.5-1.1-2-1.9c-1.5-6.2-2.6-12.4,0.9-18.4c9.8,0,19.5,0,29.3,0
	C470,112.4,467.8,118.9,469.5,125.1z"/>
<path class="st5" d="M439,106.2c0.1,6.4,0.1,12.8,0.2,19.1c-7.5,4.4-15.6,2.7-23.4,1.5c-3.8-0.6-4.6-4.2-4.7-7.5
	c-0.2-4.5-1.1-9.2,2.3-13.1c2.7-0.1,5.4-0.3,8.1-0.4C427.3,105.9,433.1,106.1,439,106.2z"/>
<path class="st5" d="M439.1,397.2c7.1,0,14.2-0.1,21.2,0.1c2.3,0.1,5.6-1.3,6,3c-4.2,0.1-8.5,0.3-12.7,0.4c-1.6,0-3.3,0-4.9,0
	c-3.2-0.1-6.3-0.3-9.5-0.4C438.2,399.3,438.3,398.3,439.1,397.2z"/>
<path class="st5" d="M469.5,289.2c-2.3-9.5-2.3-19,0-28.5C469.5,270.2,469.5,279.7,469.5,289.2z"/>
<path class="st5" d="M469.5,234.5c-2.3-9.5-2.3-19,0-28.5C469.5,215.5,469.5,225,469.5,234.5z"/>
<path class="st5" d="M469.5,179.8c-2.3-9.5-2.3-19,0-28.5C469.5,160.8,469.5,170.3,469.5,179.8z"/>
<path class="st5" d="M469.5,397c-2.3-9.5-2.3-19,0-28.5C469.5,378,469.5,387.5,469.5,397z"/>
<path class="st5" d="M469.5,342.3c-2.4-9-2.4-18,0-26.9C469.5,324.4,469.5,333.3,469.5,342.3z"/>
<path class="st5" d="M469.5,125.1c-3-6.1-0.8-12.6-1.3-18.9C471.3,112.3,469.1,118.8,469.5,125.1z"/>
<path class="st4" d="M439.1,397.2c0.1,1,0.1,2,0.2,3.1c-9.2,0-18.5,0-27.7,0c-5.8-2.9-11.9-0.8-17.8-1.4c-2.9-0.3-5.8,0.3-8.6-0.6
	c-0.9-0.4-1.5-1.1-2-2c-1.8-9-1.7-18-0.1-27c0.4-0.9,1-1.6,1.8-2.1c4.6-2,9.4-1.2,14.1-1.3c10.3-0.2,10.6-0.4,10.5-11
	c-0.1-9.5-0.5-9.9-9.8-10.2c-4.8-0.1-9.6,0.6-14.2-1c-0.9-0.4-1.5-1-2-1.9c-2.1-8.5-1.8-17.1-0.3-25.6c0.4-0.9,1-1.6,1.8-2.1
	c5.4-2.2,11-1.3,16.6-1.3c5.6,0.1,8.6-1.8,8.1-7.8c-0.1-1.6-0.1-3.2,0-4.8c0.5-6.1-2-8.8-8.2-8.6c-5.3,0.1-10.7,0.8-15.8-1
	c-0.9-0.4-1.5-1.1-2-1.9c-2.1-9-1.7-18.1-0.3-27.2c0.4-0.9,1-1.6,1.7-2.1c4.6-2.1,9.4-1.3,14.2-1.4c10.3-0.2,10.6-0.4,10.5-11
	c0-1.1,0,0.3,0-0.8c-0.1-8.5-0.7-9.1-9-9.4c-5-0.2-10.1,0.7-15.1-1.1c-0.9-0.4-1.5-1.1-2-1.9c-2.1-9-1.7-18.1-0.3-27.2
	c0.4-0.9,1-1.6,1.7-2.1c4.6-2.1,9.4-1.3,14.2-1.4c10.3-0.2,10.6-0.4,10.5-11c0-1.1,0,0.3,0-0.8c-0.1-8.5-0.7-9.1-9-9.4
	c-5-0.2-10.1,0.7-15.1-1.1c-0.9-0.4-1.5-1.1-2-1.9c-2.1-9-1.7-18.1-0.3-27.2c0.4-0.9,1-1.6,1.7-2.1c4.6-2.1,9.4-1.3,14.2-1.4
	c10.3-0.2,10.6-0.4,10.5-11c0-0.5-0.1-1.1,0-1.6c0.6-6.1-2-8.8-8.2-8.6c-5.3,0.1-10.7,0.8-15.9-1c-0.9-0.4-1.5-1.1-2-1.9
	c-1.5-6.2-2.7-12.5,1.1-18.4c9.6,0,19.3,0,28.9,0c0.1,19.1,0.1,19.1,19.4,19.1c2.1,0,4.3,0,6.4,0c0,0-0.1-0.1-0.1-0.1
	c3.9,8.6,3.9,17.2,0,25.8l0.1-0.1c-4.7,3.8-10.3,2.4-15.5,2.4c-5.8,0-8.4,2.4-7.9,8.2c0.1,1.1,0,2.1,0,3.2c0,12.7,0,12.6,12.7,12.9
	c3.7,0.1,7.6-0.4,10.7,2.4l-0.1-0.1c3.9,8.6,3.9,17.2,0,25.8l0.1-0.1c-4.7,3.8-10.3,2.4-15.5,2.4c-5.8,0-8.4,2.4-7.9,8.2
	c0.1,1.1,0,2.1,0,3.2c0,12.7,0,12.6,12.7,12.9c3.7,0.1,7.6-0.4,10.7,2.4l-0.1-0.1c3.9,8.6,3.9,17.2,0,25.8l0.1-0.1
	c-4.7,3.8-10.3,2.4-15.5,2.4c-5.8,0-8.4,2.4-7.9,8.2c0.1,1.1,0,2.1,0,3.2c0,12.7,0,12.6,12.7,12.9c3.7,0.1,7.6-0.4,10.7,2.4
	l-0.1-0.1c3.9,8.6,3.9,17.2,0,25.8l0.1-0.1c-4.7,3.8-10.3,2.4-15.5,2.4c-5.8,0-8.4,2.3-7.9,8.2c0.2,1.9,0.2,3.8,0,5.6
	c-0.7,6.5,2.1,9.2,8.8,9c4.9-0.2,10.2-1.3,14.7,2.3l-0.1-0.1c3.9,8.6,3.9,17.2,0,25.8l0.1-0.1c-4.7,3.8-10.3,2.4-15.5,2.4
	c-5.8,0-8.4,2.4-7.9,8.2c0.1,1.1,0,2.1,0,3.2c0,12.7,0,12.6,12.7,12.9C432.2,394.9,436.1,394.5,439.1,397.2L439.1,397.2z"/>
<path class="st4" d="M356.9,400.2c-0.4-4.2-3.7-2.9-6-3c-7.1-0.2-14.2-0.1-21.2-0.1c0,0,0.1,0.1,0.1,0.1c-4-9.7-4-19.4,0-29.1
	l-0.1,0.1c5.2-4,11.3-2,17.1-2.4c7.4-0.5,7.9-1.1,7.9-10.5c0-9.4-0.5-10-7.9-10.5c-5.7-0.4-11.8,1.6-17.1-2.4l0.1,0.1
	c-4-9.1-4-18.3,0-27.4l-0.1,0.1c5.2-4,11.3-2,17.1-2.4c7.4-0.5,7.9-1.1,7.9-10.5c0-9.4-0.5-10-7.9-10.5c-5.7-0.4-11.8,1.6-17.1-2.4
	l0.1,0.1c-4-9.7-4-19.4,0-29.1l-0.1,0.1c5.2-4,11.3-2,17.1-2.4c7.4-0.5,7.9-1.1,7.9-10.5s-0.5-10-7.9-10.5
	c-5.7-0.4-11.8,1.6-17.1-2.4l0.1,0.1c-4-9.7-4-19.4,0-29.1l-0.1,0.1c5.2-4,11.3-2,17.1-2.4c7.4-0.5,7.9-1.1,7.9-10.5
	c0-9.4-0.5-10-7.9-10.5c-5.7-0.4-11.8,1.6-17.1-2.4l0.1,0.1c-4-9.7-4-19.4,0-29.1l-0.1,0.1c5.2-4,11.3-2,17.1-2.4
	c7.4-0.5,7.9-1.1,7.9-10.5c0-9.4-0.5-10-7.9-10.5c-5.7-0.4-11.8,1.6-17.1-2.4c0,0,0.1,0.1,0.1,0.1c0-6.4,0-12.7,0-19.1
	c9.6,0,19.3,0,28.9,0c2.7,2.8,2.5,6.3,2.4,9.7c-0.1,5.2,2.5,6.8,7.3,7c5.4,0.2,11.2-1.5,16.1,2.4l-0.1-0.1c3.9,8.6,3.9,17.2,0,25.8
	l0.1-0.1c-4.7,3.8-10.3,2.4-15.5,2.4c-5.8,0-8.4,2.4-7.9,8.2c0.1,1.1,0,2.1,0,3.2c0,12.7,0,12.6,12.7,12.9c3.7,0.1,7.6-0.4,10.7,2.4
	l-0.1-0.1c3.9,8.6,3.9,17.2,0,25.8l0.1-0.1c-4.7,3.8-10.3,2.4-15.5,2.4c-5.8,0-8.4,2.4-7.9,8.2c0.1,1.1,0,2.1,0,3.2
	c0,12.7,0,12.6,12.7,12.9c3.7,0.1,7.6-0.4,10.7,2.4l-0.1-0.1c3.9,8.6,3.9,17.2,0,25.8l0.1-0.1c-4.7,3.8-10.3,2.4-15.5,2.4
	c-5.8,0-8.4,2.4-7.9,8.2c0.1,1.1,0,2.1,0,3.2c0,12.7,0,12.6,12.7,12.9c3.7,0.1,7.6-0.4,10.7,2.4l-0.1-0.1c3.9,8.6,3.9,17.2,0,25.8
	l0.1-0.1c-4.7,3.8-10.3,2.4-15.5,2.4c-5.8,0-8.4,2.3-7.9,8.2c0.2,1.9,0.2,3.8,0,5.6c-0.7,6.5,2.1,9.2,8.8,9
	c4.9-0.2,10.2-1.3,14.7,2.3l-0.1-0.1c3.9,8.6,3.9,17.2,0,25.8l0.1-0.1c-4.7,3.8-10.3,2.4-15.5,2.4c-5.8,0-8.4,2.4-7.9,8.2
	c0.1,1.1,0,2.1,0,3.2c0,12.7,0,12.6,12.7,12.9c3.7,0.1,7.6-0.4,10.7,2.4l-0.1-0.1c1,1,1,2,0.2,3.1
	C375.3,400.2,366.1,400.2,356.9,400.2z"/>
<path class="st5" d="M384.5,125.4c-6.4,0-12.9-0.3-19.3,0c-4.7,0.2-7-1.2-6.6-6.3c0.3-4.3,0-8.6,0-12.9c8.6,0,17.2,0,25.8,0
	C384.5,112.6,384.5,119,384.5,125.4z"/>
<path class="st5" d="M384.6,400.2c-0.1-1-0.1-2-0.2-3.1c7.1,0,14.2-0.1,21.3,0.1c2.3,0.1,5.6-1.3,6,3c-5.8,0.1-11.7,0.3-17.5,0.4
	c-2.2,0-4.3,0-6.5,0C386.6,400.5,385.6,400.4,384.6,400.2z"/>
<path class="st5" d="M329.7,151c0,9.7,0,19.4,0,29.1c-6.7,0-13.3-0.2-20,0c-3.9,0.1-6-0.9-5.8-5.3c0.2-6.1,0.2-12.3,0-18.4
	c-0.2-4.4,2-5.4,5.8-5.3C316.4,151.2,323.1,151,329.7,151z"/>
<path class="st5" d="M329.7,205.7c0,9.7,0,19.4,0,29.1c-6.7,0-13.3-0.2-20,0c-3.9,0.1-6-0.9-5.8-5.3c0.2-6.1,0.2-12.3,0-18.4
	c-0.2-4.4,2-5.4,5.8-5.3C316.4,205.9,323.1,205.7,329.7,205.7z"/>
<path class="st5" d="M329.7,260.4c0,9.7,0,19.4,0,29.1c-6.7,0-13.3-0.2-20,0c-3.9,0.1-6-0.9-5.8-5.3c0.2-6.1,0.2-12.3,0-18.4
	c-0.2-4.4,2-5.4,5.8-5.3C316.4,260.6,323.1,260.4,329.7,260.4z"/>
<path class="st5" d="M329.7,368.2c0,9.7,0,19.4,0,29.1c-6.7,0-13.3-0.2-20,0c-3.9,0.1-6-0.9-5.8-5.3c0.2-6.1,0.2-12.3,0-18.4
	c-0.2-4.4,2-5.4,5.8-5.3C316.4,368.4,323.1,368.2,329.7,368.2z"/>
<path class="st5" d="M274.9,260.5c0-8.6,0-17.2,0-25.8c7.5,0,15.1-0.8,22.4,0.3c10,1.4,4,9.7,4.7,14.7c0.5,3.5,3.9,10.5-4.6,10.8
	C289.9,260.6,282.4,260.5,274.9,260.5z"/>
<path class="st5" d="M329.6,234.7c7.5,0,15.1-0.8,22.4,0.3c10,1.4,4,9.7,4.7,14.7c0.5,3.5,3.9,10.5-4.6,10.8
	c-7.5,0.2-14.9,0.1-22.4,0.1C329.6,251.9,329.6,243.3,329.6,234.7z"/>
<path class="st5" d="M329.6,342.5c7.5,0,15.1-0.8,22.4,0.3c10,1.4,4,9.7,4.7,14.7c0.5,3.5,3.9,10.5-4.6,10.8
	c-7.5,0.2-14.9,0.1-22.4,0.1C329.6,359.7,329.6,351.1,329.6,342.5z"/>
<path class="st5" d="M274.9,368.3c0-8.6,0-17.2,0-25.8c7.5,0,15.1-0.8,22.4,0.3c10,1.4,4,9.7,4.7,14.7c0.5,3.5,3.9,10.5-4.6,10.8
	C289.9,368.4,282.4,368.3,274.9,368.3z"/>
<path class="st5" d="M329.7,315.1c0,9.1,0,18.3,0,27.4c-6.4,0-12.8-0.2-19.2,0c-4.6,0.2-7.6-1-6.5-6.1c1.5-7-4.6-16.8,3.6-20.7
	C313.7,312.9,322.3,315.2,329.7,315.1z"/>
<path class="st5" d="M274.9,151.1c0-8.6,0-17.2,0-25.8c7.5,0,15.1-0.8,22.4,0.3c10,1.4,4,9.7,4.7,14.7c0.5,3.5,3.9,10.5-4.6,10.8
	C289.9,151.2,282.4,151.1,274.9,151.1z"/>
<path class="st5" d="M329.6,125.3c7.5,0,15.1-0.8,22.4,0.3c10,1.4,4,9.7,4.7,14.7c0.5,3.5,3.9,10.5-4.6,10.8
	c-7.5,0.2-14.9,0.1-22.4,0.1C329.6,142.5,329.6,133.9,329.6,125.3z"/>
<path class="st5" d="M329.6,289.4c7.5,0,15.1-0.8,22.4,0.3c10,1.4,4,9.7,4.7,14.7c0.5,3.5,3.9,10.5-4.6,10.8
	c-7.5,0.2-14.9,0.1-22.4,0.1C329.6,306.6,329.6,298,329.6,289.4z"/>
<path class="st5" d="M274.9,315.2c0-8.6,0-17.2,0-25.8c7.5,0,15.1-0.8,22.4,0.3c10,1.4,4,9.7,4.7,14.7c0.5,3.5,3.9,10.5-4.6,10.8
	C289.9,315.3,282.4,315.2,274.9,315.2z"/>
<path class="st5" d="M274.9,205.8c0-8.6,0-17.2,0-25.8c7.5,0,15.1-0.8,22.4,0.3c10,1.4,4,9.7,4.7,14.7c0.5,3.5,3.9,10.5-4.6,10.8
	C289.9,205.9,282.4,205.8,274.9,205.8z"/>
<path class="st5" d="M329.6,180c7.5,0,15.1-0.8,22.4,0.3c10,1.4,4,9.7,4.7,14.7c0.5,3.5,3.9,10.5-4.6,10.8
	c-7.5,0.2-14.9,0.1-22.4,0.1C329.6,197.2,329.6,188.6,329.6,180z"/>
<path class="st5" d="M439.2,180.1c-6.7,0-13.3-0.2-20,0c-3.9,0.1-6-0.9-5.8-5.3c0.2-6.1,0.2-12.3,0-18.4c-0.2-4.4,2-5.4,5.8-5.3
	c6.7,0.2,13.3,0,20,0C439.2,160.7,439.2,170.4,439.2,180.1z"/>
<path class="st5" d="M439.2,234.8c-6.7,0-13.3-0.2-20,0c-3.9,0.1-6-0.9-5.8-5.3c0.2-6.1,0.2-12.3,0-18.4c-0.2-4.4,2-5.4,5.8-5.3
	c6.7,0.2,13.3,0,20,0C439.2,215.4,439.2,225.1,439.2,234.8z"/>
<path class="st5" d="M439.2,289.5c-6.7,0-13.3-0.2-20,0c-3.9,0.1-6-0.9-5.8-5.3c0.2-6.1,0.2-12.3,0-18.4c-0.2-4.4,2-5.4,5.8-5.3
	c6.7,0.2,13.3,0,20,0C439.2,270.1,439.2,279.8,439.2,289.5z"/>
<path class="st5" d="M439.2,397.3c-6.7,0-13.3-0.2-20,0c-3.9,0.1-6-0.9-5.8-5.3c0.2-6.1,0.2-12.3,0-18.4c-0.2-4.4,2-5.4,5.8-5.3
	c6.7,0.2,13.3,0,20,0C439.2,377.9,439.2,387.6,439.2,397.3z"/>
<path class="st5" d="M439.1,260.5c0-8.6,0-17.2,0-25.8c7.5,0,15.1-0.8,22.4,0.3c10,1.4,4,9.7,4.7,14.7c0.5,3.5,3.9,10.5-4.6,10.8
	C454,260.6,446.6,260.5,439.1,260.5z"/>
<path class="st5" d="M439.1,368.3c0-8.6,0-17.2,0-25.8c7.5,0,15.1-0.8,22.4,0.3c10,1.4,4,9.7,4.7,14.7c0.5,3.5,3.9,10.5-4.6,10.8
	C454,368.4,446.6,368.3,439.1,368.3z"/>
<path class="st5" d="M439.2,342.6c-6.4,0-12.8-0.2-19.2,0c-4.6,0.2-7.6-1-6.5-6.1c1.5-7-4.6-16.8,3.6-20.7
	c6.1-2.9,14.7-0.6,22.2-0.7C439.2,324.3,439.2,333.4,439.2,342.6z"/>
<path class="st5" d="M439.1,151.1c0-8.6,0-17.2,0-25.8c7.5,0,15.1-0.8,22.4,0.3c10,1.4,4,9.7,4.7,14.7c0.5,3.5,3.9,10.5-4.6,10.8
	C454,151.2,446.6,151.1,439.1,151.1z"/>
<path class="st5" d="M439.1,315.2c0-8.6,0-17.2,0-25.8c7.5,0,15.1-0.8,22.4,0.3c10,1.4,4,9.7,4.7,14.7c0.5,3.5,3.9,10.5-4.6,10.8
	C454,315.3,446.6,315.2,439.1,315.2z"/>
<path class="st5" d="M439.1,205.8c0-8.6,0-17.2,0-25.8c7.5,0,15.1-0.8,22.4,0.3c10,1.4,4,9.7,4.7,14.7c0.5,3.5,3.9,10.5-4.6,10.8
	C454,205.9,446.6,205.8,439.1,205.8z"/>
<path class="st5" d="M384.5,180.1c-6.7,0-13.3-0.2-20,0c-3.9,0.1-6-0.9-5.8-5.3c0.2-6.1,0.2-12.3,0-18.4c-0.2-4.4,2-5.4,5.8-5.3
	c6.7,0.2,13.3,0,20,0C384.5,160.7,384.5,170.4,384.5,180.1z"/>
<path class="st5" d="M384.5,234.8c-6.7,0-13.3-0.2-20,0c-3.9,0.1-6-0.9-5.8-5.3c0.2-6.1,0.2-12.3,0-18.4c-0.2-4.4,2-5.4,5.8-5.3
	c6.7,0.2,13.3,0,20,0C384.5,215.4,384.5,225.1,384.5,234.8z"/>
<path class="st5" d="M384.5,289.5c-6.7,0-13.3-0.2-20,0c-3.9,0.1-6-0.9-5.8-5.3c0.2-6.1,0.2-12.3,0-18.4c-0.2-4.4,2-5.4,5.8-5.3
	c6.7,0.2,13.3,0,20,0C384.5,270.1,384.5,279.8,384.5,289.5z"/>
<path class="st5" d="M384.5,397.3c-6.7,0-13.3-0.2-20,0c-3.9,0.1-6-0.9-5.8-5.3c0.2-6.1,0.2-12.3,0-18.4c-0.2-4.4,2-5.4,5.8-5.3
	c6.7,0.2,13.3,0,20,0C384.5,377.9,384.5,387.6,384.5,397.3z"/>
<path class="st5" d="M384.4,260.5c0-8.6,0-17.2,0-25.8c7.5,0,15.1-0.8,22.4,0.3c10,1.4,4,9.7,4.7,14.7c0.5,3.5,3.9,10.5-4.6,10.8
	C399.3,260.6,391.8,260.5,384.4,260.5z"/>
<path class="st5" d="M384.4,368.3c0-8.6,0-17.2,0-25.8c7.5,0,15.1-0.8,22.4,0.3c10,1.4,4,9.7,4.7,14.7c0.5,3.5,3.9,10.5-4.6,10.8
	C399.3,368.4,391.8,368.3,384.4,368.3z"/>
<path class="st5" d="M384.5,342.6c-6.4,0-12.8-0.2-19.2,0c-4.6,0.2-7.6-1-6.5-6.1c1.5-7-4.6-16.8,3.6-20.7
	c6.1-2.9,14.7-0.6,22.2-0.7C384.5,324.3,384.5,333.4,384.5,342.6z"/>
<path class="st5" d="M384.4,151.1c0-8.6,0-17.2,0-25.8c7.5,0,15.1-0.8,22.4,0.3c10,1.4,4,9.7,4.7,14.7c0.5,3.5,3.9,10.5-4.6,10.8
	C399.3,151.2,391.8,151.1,384.4,151.1z"/>
<path class="st5" d="M384.4,315.2c0-8.6,0-17.2,0-25.8c7.5,0,15.1-0.8,22.4,0.3c10,1.4,4,9.7,4.7,14.7c0.5,3.5,3.9,10.5-4.6,10.8
	C399.3,315.3,391.8,315.2,384.4,315.2z"/>
<path class="st5" d="M384.4,205.8c0-8.6,0-17.2,0-25.8c7.5,0,15.1-0.8,22.4,0.3c10,1.4,4,9.7,4.7,14.7c0.5,3.5,3.9,10.5-4.6,10.8
	C399.3,205.9,391.8,205.8,384.4,205.8z"/>
<path class="st1" d="M394.7,66.7c-4.7,0.4-9.4,0.6-7.1,7.9C385.1,65.6,385.1,65.6,394.7,66.7z"/>
<path class="st1" d="M375,83.7c0-5.4,0-9.4,0-14.8C377.4,74.3,377.4,78.2,375,83.7z"/>
<path class="st1" d="M380.4,96.4c1.3,0.2,2.4,0.5,2.1,1.9c-0.1,0.5-1.4,1.2-1.6,1c-0.8-0.5-1.4-1.3-2.1-2.1
	C379.3,96.9,379.9,96.6,380.4,96.4z"/>
<path class="st1" d="M385.4,87.5c-2.3,1.2-4.4,1.2-6.8,0.1C380.9,86.3,383.1,86.4,385.4,87.5z"/>
<path class="st1" d="M382.8,80.9c-0.2,1.2-0.2,2.5-1.7,2.2c-0.5-0.1-1.3-1.2-1.2-1.5c0.4-0.8,1.2-1.5,1.9-2.2
	C382.2,80,382.5,80.5,382.8,80.9z"/>
<path class="st1" d="M389.4,56.9c1.1-0.9,1.7-1.7,2.6-2.1c0.4-0.2,1.5,0.5,1.6,1c0.3,1.3-0.7,1.8-1.8,1.8
	C391.2,57.6,390.6,57.3,389.4,56.9z"/>
<path class="st1" d="M366,40.3c-0.7-4.2-2.9-8.3-1.7-14.1C368.1,31.5,366.1,36.1,366,40.3z"/>
<path class="st1" d="M354.5,34.3c1.7,10.6,1.7,10.6-7.6,9.8C354.3,44.6,354.2,39.3,354.5,34.3z"/>
<path class="st1" d="M362.6,23.4c-6.2-1-7.9,2.6-7.6,9.7C352.3,23.9,354.5,20.8,362.6,23.4z"/>
<path class="st1" d="M342.7,40.6c0-5.8,0-9.8,0-15.3C345.2,30.9,345,34.8,342.7,40.6z"/>
<path class="st1" d="M350.2,53c0.3,0.3,0.8,0.7,1.2,1.1c-0.8,0.6-1.5,1.3-2.3,1.8c-0.2,0.1-1.3-0.8-1.3-1.3
	C347.6,53.1,348.9,53.1,350.2,53z"/>
<g>
	<path class="st6" d="M360.8,47c-0.3,0-0.5,0.1-0.7,0.2c-0.3,0.3-0.3,0.6-0.3,0.6V47v-0.8v-0.7v-1.2c0,0,0.1,0.5,0.4,0.8
		c0.1,0.1,0.3,0.2,0.6,0.2c0,0,4.7,0,4.8,0c0.4,0,0.9-0.3,1.1-0.9l1,2.5L360.8,47z"/>
	<path class="st6" d="M365.4,51.9h-4.7c-0.3,0-0.5,0.1-0.7,0.2c-0.3,0.3-0.3,0.6-0.3,0.6v-0.9v-0.8v-0.8v-1.2c0,0,0.1,0.6,0.4,0.8
		c0.1,0.1,0.3,0.2,0.6,0.2c0,0,4.5,0,4.7,0c0,0,1.3,0,1.3-1.3c0-1-0.3-1.5-0.3-1.5s1.4,0.9,1.3,2.9
		C367.6,52.1,365.4,51.9,365.4,51.9"/>
	<path class="st6" d="M365.4,56.8H351c-0.3,0-0.5,0.1-0.7,0.2c-0.3,0.3-0.3,0.6-0.3,0.6v-0.9V56v-0.7v-1.2c0,0,0.1,0.6,0.4,0.8
		c0.1,0.1,0.3,0.2,0.6,0.2c0,0,14.2,0,14.3,0c0,0,1.3,0,1.3-1.3c0-1-0.3-1.5-0.3-1.5s1.4,0.9,1.3,2.9
		C367.6,57,365.4,56.8,365.4,56.8"/>
	<path class="st6" d="M355.7,61.8H351c-0.3,0-0.5,0.1-0.7,0.2c-0.3,0.3-0.3,0.7-0.3,0.7v-0.9V61v-0.7V59c0,0,0.1,0.6,0.4,0.8
		c0.1,0.1,0.3,0.2,0.6,0.2c0,0,4.5,0,4.7,0c0,0,1.3,0,1.3-1.3c0-1-0.3-1.5-0.3-1.5s1.4,0.9,1.3,2.9
		C357.9,61.9,355.7,61.8,355.7,61.8"/>
	<path class="st6" d="M355.7,66.7H351c-0.3,0-0.5,0.1-0.7,0.2c-0.3,0.3-0.3,0.6-0.3,0.6v-0.9v-0.8v-0.7V64c0,0,0.1,0.5,0.4,0.8
		c0.1,0.1,0.3,0.2,0.6,0.2c0,0,4.5,0,4.7,0c0,0,1.3,0,1.3-1.3c0-1-0.3-1.5-0.3-1.5s1.4,0.9,1.3,2.9
		C357.9,66.9,355.7,66.7,355.7,66.7"/>
	<path class="st6" d="M362.4,41.7c0,0.3,0.1,0.5,0.2,0.7c0.3,0.3,0.6,0.3,0.6,0.3h-0.9h-0.8h-0.7h-1.2c0,0,0.6-0.1,0.8-0.4
		c0.1-0.1,0.2-0.3,0.2-0.6c0,0,0-4.7,0-4.8c0-0.4-0.3-0.9-0.9-1.1l2.5-1L362.4,41.7z"/>
	<path class="st6" d="M367.3,37v4.7c0,0.3,0.1,0.5,0.2,0.7c0.3,0.3,0.6,0.3,0.6,0.3h-0.9h-0.8h-0.7h-1.2c0,0,0.6-0.1,0.8-0.4
		c0.1-0.1,0.2-0.3,0.2-0.6c0,0,0-4.5,0-4.7c0,0,0-1.3-1.3-1.3c-1,0-1.5,0.3-1.5,0.3s0.9-1.4,2.9-1.3C367.4,34.8,367.3,37,367.3,37"
		/>
	<path class="st6" d="M372.2,37v14.4c0,0.3,0.1,0.5,0.2,0.7c0.3,0.3,0.6,0.3,0.6,0.3h-0.9h-0.8h-0.7h-1.2c0,0,0.6-0.1,0.8-0.4
		c0.1-0.1,0.2-0.3,0.2-0.6c0,0,0-14.2,0-14.3c0,0,0-1.3-1.3-1.3c-1,0-1.5,0.3-1.5,0.3s0.9-1.4,2.9-1.3C372.4,34.8,372.2,37,372.2,37
		"/>
	<path class="st6" d="M377.2,46.8v4.7c0,0.3,0.1,0.5,0.2,0.7c0.3,0.3,0.6,0.3,0.6,0.3h-0.9h-0.8h-0.7h-1.2c0,0,0.6-0.1,0.8-0.4
		c0.1-0.1,0.2-0.3,0.2-0.6c0,0,0-4.5,0-4.7c0,0,0-1.3-1.3-1.3c-1,0-1.5,0.3-1.5,0.3s0.9-1.4,2.9-1.3
		C377.3,44.6,377.2,46.8,377.2,46.8"/>
	<path class="st6" d="M382.1,46.8v4.7c0,0.3,0.1,0.5,0.2,0.7c0.3,0.3,0.6,0.3,0.6,0.3H382h-0.8h-0.8h-1.2c0,0,0.6-0.1,0.8-0.4
		c0.1-0.1,0.2-0.3,0.2-0.6c0,0,0-4.5,0-4.7c0,0,0-1.3-1.3-1.3c-1,0-1.5,0.3-1.5,0.3s0.9-1.4,2.9-1.3
		C382.2,44.6,382.1,46.8,382.1,46.8"/>
	<path class="st6" d="M357,40c0.3,0,0.5-0.1,0.7-0.2c0.3-0.3,0.3-0.6,0.3-0.6v0.9v0.8v0.7v1.2c0,0-0.1-0.6-0.4-0.8
		c-0.1-0.1-0.3-0.2-0.6-0.2c0,0-4.7,0-4.8,0c-0.4,0-0.9,0.3-1.1,0.9l-1-2.5L357,40z"/>
	<path class="st6" d="M352.4,35.1h4.7c0.3,0,0.5-0.1,0.7-0.2c0.3-0.3,0.3-0.6,0.3-0.6v0.9V36v0.8v1.2c0,0-0.1-0.6-0.4-0.8
		c-0.1-0.1-0.3-0.2-0.6-0.2c0,0-4.5,0-4.7,0c0,0-1.3,0-1.3,1.3c0,1,0.3,1.5,0.3,1.5s-1.4-0.9-1.3-2.9
		C350.2,35,352.4,35.1,352.4,35.1"/>
	<path class="st6" d="M352.4,30.2h14.4c0.3,0,0.5-0.1,0.7-0.2c0.3-0.3,0.3-0.6,0.3-0.6v0.9v0.8v0.7v1.2c0,0-0.1-0.6-0.4-0.8
		c-0.1-0.1-0.3-0.2-0.6-0.2c0,0-14.2,0-14.3,0c0,0-1.3,0-1.3,1.3c0,1,0.3,1.5,0.3,1.5s-1.4-0.9-1.3-2.9
		C350.2,30.1,352.4,30.2,352.4,30.2"/>
	<path class="st6" d="M362.1,25.3h4.7c0.3,0,0.5-0.1,0.7-0.2c0.3-0.3,0.3-0.6,0.3-0.6v0.9v0.8v0.7V28c0,0-0.1-0.6-0.4-0.8
		c-0.1-0.1-0.3-0.2-0.6-0.2c0,0-4.5,0-4.7,0c0,0-1.3,0-1.3,1.3c0,1,0.3,1.5,0.3,1.5s-1.4-0.9-1.3-2.9
		C360,25.2,362.1,25.3,362.1,25.3"/>
	<path class="st6" d="M362.1,20.4h4.7c0.3,0,0.5-0.1,0.7-0.2c0.3-0.3,0.3-0.7,0.3-0.7v0.9v0.8v0.7v1.2c0,0-0.1-0.6-0.4-0.8
		c-0.1-0.1-0.3-0.2-0.6-0.2c0,0-4.5,0-4.7,0c0,0-1.3,0-1.3,1.3c0,1,0.3,1.5,0.3,1.5s-1.4-0.9-1.3-2.9
		C360,20.2,362.1,20.4,362.1,20.4"/>
	<path class="st6" d="M355.4,45.3c0-0.3-0.1-0.5-0.2-0.7c-0.3-0.3-0.6-0.3-0.6-0.3h0.9h0.8h0.7h1.2c0,0-0.6,0.1-0.8,0.4
		c-0.1,0.1-0.2,0.3-0.2,0.6c0,0,0,4.7,0,4.8c0,0.4,0.3,0.9,0.9,1.1l-2.5,1L355.4,45.3z"/>
	<path class="st6" d="M350.5,50v-4.7c0-0.3-0.1-0.5-0.2-0.7c-0.3-0.3-0.6-0.3-0.6-0.3h0.9h0.8h0.7h1.2c0,0-0.5,0.1-0.8,0.4
		c-0.1,0.1-0.2,0.3-0.2,0.6c0,0,0,4.5,0,4.7c0,0,0,1.3,1.3,1.3c1,0,1.5-0.3,1.5-0.3s-0.9,1.4-2.9,1.3C350.3,52.2,350.5,50,350.5,50"
		/>
	<path class="st6" d="M345.6,50V35.6c0-0.3-0.1-0.5-0.2-0.7c-0.3-0.2-0.7-0.3-0.7-0.3h0.9h0.8h0.7h1.2c0,0-0.6,0.1-0.8,0.4
		c-0.1,0.1-0.2,0.3-0.2,0.6c0,0,0,14.2,0,14.3c0,0,0,1.3,1.3,1.3c1,0,1.5-0.3,1.5-0.3s-0.9,1.4-2.9,1.3
		C345.4,52.2,345.6,50,345.6,50"/>
	<path class="st6" d="M340.6,40.3v-4.7c0-0.3-0.1-0.5-0.2-0.7c-0.3-0.3-0.6-0.3-0.6-0.3h0.9h0.8h0.7h1.2c0,0-0.5,0.1-0.8,0.4
		c-0.1,0.1-0.2,0.3-0.2,0.6c0,0,0,4.5,0,4.7c0,0,0,1.3,1.3,1.3c1,0,1.5-0.3,1.5-0.3s-0.9,1.4-2.9,1.3
		C340.5,42.4,340.6,40.3,340.6,40.3"/>
	<path class="st6" d="M335.7,40.3v-4.7c0-0.3-0.1-0.5-0.2-0.7c-0.3-0.3-0.6-0.3-0.6-0.3h0.9h0.8h0.8h1.2c0,0-0.6,0.1-0.8,0.4
		c-0.2,0.1-0.4,0.3-0.4,0.6c0,0,0,4.5,0,4.7c0,0,0,1.3,1.3,1.3c1,0,1.5-0.3,1.5-0.3s-0.9,1.4-2.9,1.3
		C335.6,42.4,335.7,40.3,335.7,40.3"/>
</g>
<g>
	<path class="st6" d="M393.1,79.3c-0.3,0-0.5,0.1-0.7,0.2c-0.3,0.3-0.3,0.6-0.3,0.6v-0.9v-0.8v-0.7v-1.2c0,0,0.1,0.5,0.4,0.8
		c0.1,0.1,0.3,0.2,0.6,0.2c0,0,4.7,0,4.8,0c0.4,0,0.9-0.3,1.1-0.9l1,2.5L393.1,79.3z"/>
	<path class="st6" d="M397.8,84.3h-4.7c-0.3,0-0.5,0.1-0.7,0.2c-0.3,0.3-0.3,0.6-0.3,0.6v-0.9v-0.8v-0.8v-1.2c0,0,0.1,0.6,0.4,0.8
		c0.1,0.1,0.3,0.2,0.6,0.2c0,0,4.5,0,4.7,0c0,0,1.3,0,1.3-1.3c0-1-0.3-1.5-0.3-1.5s1.4,0.9,1.3,2.9C400,84.4,397.8,84.3,397.8,84.3"
		/>
	<path class="st6" d="M397.8,89.2h-14.4c-0.3,0-0.5,0.1-0.7,0.2c-0.3,0.3-0.3,0.6-0.3,0.6v-0.9v-0.8v-0.7v-1.2c0,0,0.1,0.6,0.4,0.8
		c0.1,0.1,0.3,0.2,0.6,0.2c0,0,14.2,0,14.3,0c0,0,1.3,0,1.3-1.3c0-1-0.3-1.5-0.3-1.5s1.4,0.9,1.3,2.9
		C400,89.3,397.8,89.2,397.8,89.2"/>
	<path class="st6" d="M388,94.1h-4.7c-0.3,0-0.5,0.1-0.7,0.2c-0.3,0.3-0.3,0.7-0.3,0.7v-0.9v-0.8v-0.7v-1.2c0,0,0.1,0.6,0.4,0.8
		c0.1,0.1,0.3,0.2,0.6,0.2c0,0,4.5,0,4.7,0c0,0,1.3,0,1.3-1.3c0-1-0.3-1.5-0.3-1.5s1.4,0.9,1.3,2.9C390.2,94.2,388,94.1,388,94.1"/>
	<path class="st6" d="M388,99h-4.7c-0.3,0-0.5,0.1-0.7,0.2c-0.3,0.3-0.3,0.6-0.3,0.6V99v-0.8v-0.7v-1.2c0,0,0.1,0.5,0.4,0.8
		c0.1,0.1,0.3,0.2,0.6,0.2c0,0,4.5,0,4.7,0c0,0,1.3,0,1.3-1.3c0-1-0.3-1.5-0.3-1.5s1.4,0.9,1.3,2.9C390.2,99.2,388,99,388,99"/>
	<path class="st6" d="M394.8,74c0,0.3,0.1,0.5,0.2,0.7c0.3,0.3,0.6,0.3,0.6,0.3h-0.9h-0.8h-0.7H392c0,0,0.6-0.1,0.8-0.4
		c0.1-0.1,0.2-0.3,0.2-0.6c0,0,0-4.7,0-4.8c0-0.4-0.3-0.9-0.9-1.1l2.5-1L394.8,74z"/>
	<path class="st6" d="M399.6,69.3V74c0,0.3,0.1,0.5,0.2,0.7c0.3,0.3,0.6,0.3,0.6,0.3h-0.9h-0.8h-0.7h-1.2c0,0,0.6-0.1,0.8-0.4
		c0.1-0.1,0.2-0.3,0.2-0.6c0,0,0-4.5,0-4.7c0,0,0-1.3-1.3-1.3c-1,0-1.5,0.3-1.5,0.3s0.9-1.4,2.9-1.3
		C399.8,67.2,399.6,69.3,399.6,69.3"/>
	<path class="st6" d="M404.5,69.3v14.4c0,0.3,0.1,0.5,0.2,0.7c0.3,0.3,0.6,0.3,0.6,0.3h-0.9h-0.8H403h-1.2c0,0,0.6-0.1,0.8-0.4
		c0.1-0.1,0.2-0.3,0.2-0.6c0,0,0-14.2,0-14.3c0,0,0-1.3-1.3-1.3c-1,0-1.5,0.3-1.5,0.3s0.9-1.4,2.9-1.3
		C404.7,67.2,404.5,69.3,404.5,69.3"/>
	<path class="st6" d="M409.5,79.1v4.7c0,0.3,0.1,0.5,0.2,0.7c0.3,0.3,0.6,0.3,0.6,0.3h-0.9h-0.8h-0.7h-1.2c0,0,0.6-0.1,0.8-0.4
		c0.1-0.1,0.2-0.3,0.2-0.6c0,0,0-4.5,0-4.7c0,0,0-1.3-1.3-1.3c-1,0-1.5,0.3-1.5,0.3s0.9-1.4,2.9-1.3
		C409.6,76.9,409.5,79.1,409.5,79.1"/>
	<path class="st6" d="M414.4,79.1v4.7c0,0.3,0.1,0.5,0.2,0.7c0.3,0.3,0.6,0.3,0.6,0.3h-0.9h-0.8h-0.8h-1.2c0,0,0.6-0.1,0.8-0.4
		c0.1-0.1,0.2-0.3,0.2-0.6c0,0,0-4.5,0-4.7c0,0,0-1.3-1.3-1.3c-1,0-1.5,0.3-1.5,0.3s0.9-1.4,2.9-1.3
		C414.5,76.9,414.4,79.1,414.4,79.1"/>
	<path class="st6" d="M389.4,72.4c0.3,0,0.5-0.1,0.7-0.2c0.3-0.3,0.3-0.6,0.3-0.6v0.9v0.8v0.7v1.2c0,0-0.1-0.6-0.4-0.8
		c-0.1-0.1-0.3-0.2-0.6-0.2c0,0-4.7,0-4.8,0c-0.4,0-0.9,0.3-1.1,0.9l-1-2.5L389.4,72.4z"/>
	<path class="st6" d="M384.7,67.5h4.7c0.3,0,0.5-0.1,0.7-0.2c0.3-0.3,0.3-0.6,0.3-0.6v0.9v0.8v0.8v1.2c0,0-0.1-0.6-0.4-0.8
		c-0.1-0.1-0.3-0.2-0.6-0.2c0,0-4.5,0-4.7,0c0,0-1.3,0-1.3,1.3c0,1,0.3,1.5,0.3,1.5s-1.4-0.9-1.3-2.9
		C382.5,67.3,384.7,67.5,384.7,67.5"/>
	<path class="st6" d="M384.7,62.6h14.4c0.3,0,0.5-0.1,0.7-0.2c0.3-0.3,0.3-0.6,0.3-0.6v0.9v0.8v0.7v1.2c0,0-0.1-0.6-0.4-0.8
		c-0.1-0.1-0.3-0.2-0.6-0.2c0,0-14.2,0-14.3,0c0,0-1.3,0-1.3,1.3c0,1,0.3,1.5,0.3,1.5s-1.4-0.9-1.3-2.9
		C382.5,62.4,384.7,62.6,384.7,62.6"/>
	<path class="st6" d="M394.5,57.6h4.7c0.3,0,0.5-0.1,0.7-0.2c0.3-0.3,0.3-0.6,0.3-0.6v0.9v0.8v0.7v1.2c0,0-0.1-0.6-0.4-0.8
		c-0.1-0.1-0.3-0.2-0.6-0.2c0,0-4.5,0-4.7,0c0,0-1.3,0-1.3,1.3c0,1,0.3,1.5,0.3,1.5s-1.4-0.9-1.3-2.9
		C392.3,57.5,394.5,57.6,394.5,57.6"/>
	<path class="st6" d="M394.5,52.7h4.7c0.3,0,0.5-0.1,0.7-0.2c0.3-0.3,0.3-0.7,0.3-0.7v0.9v0.8v0.7v1.2c0,0-0.1-0.6-0.4-0.8
		c-0.1-0.1-0.3-0.2-0.6-0.2c0,0-4.5,0-4.7,0c0,0-1.3,0-1.3,1.3c0,1,0.3,1.5,0.3,1.5s-1.4-0.9-1.3-2.9
		C392.3,52.5,394.5,52.7,394.5,52.7"/>
	<path class="st6" d="M387.7,77.7c0-0.3-0.1-0.5-0.2-0.7c-0.3-0.3-0.6-0.3-0.6-0.3h0.9h0.8h0.7h1.2c0,0-0.6,0.1-0.8,0.4
		c-0.1,0.1-0.2,0.3-0.2,0.6c0,0,0,4.7,0,4.8c0,0.4,0.3,0.9,0.9,1.1l-2.5,1L387.7,77.7z"/>
	<path class="st6" d="M382.8,82.3v-4.7c0-0.3-0.1-0.5-0.2-0.7c-0.3-0.3-0.6-0.3-0.6-0.3h0.9h0.8h0.7h1.2c0,0-0.5,0.1-0.8,0.4
		c-0.1,0.1-0.2,0.3-0.2,0.6c0,0,0,4.5,0,4.7c0,0,0,1.3,1.3,1.3c1,0,1.5-0.3,1.5-0.3s-0.9,1.4-2.9,1.3
		C382.7,84.6,382.8,82.3,382.8,82.3"/>
	<path class="st6" d="M377.9,82.3V68c0-0.3-0.1-0.5-0.2-0.7C377.3,67,377,67,377,67h0.9h0.8h0.7h1.2c0,0-0.6,0.1-0.8,0.4
		c-0.1,0.1-0.2,0.3-0.2,0.6c0,0,0,14.2,0,14.3c0,0,0,1.3,1.3,1.3c1,0,1.5-0.3,1.5-0.3s-0.9,1.4-2.9,1.3
		C377.7,84.6,377.9,82.3,377.9,82.3"/>
	<path class="st6" d="M373,72.6V68c0-0.3-0.1-0.5-0.2-0.7c-0.3-0.3-0.6-0.3-0.6-0.3h0.9h0.8h0.7h1.2c0,0-0.5,0.1-0.8,0.4
		c-0.1,0.1-0.2,0.3-0.2,0.6c0,0,0,4.5,0,4.7c0,0,0,1.3,1.3,1.3c1,0,1.5-0.3,1.5-0.3s-0.9,1.4-2.9,1.3C372.8,74.8,373,72.6,373,72.6"
		/>
	<path class="st6" d="M368,72.6V68c0-0.3-0.1-0.5-0.2-0.7c-0.3-0.3-0.6-0.3-0.6-0.3h0.9h0.8h0.8h1.2c0,0-0.6,0.1-0.8,0.4
		c-0.2,0.1-0.4,0.3-0.4,0.6c0,0,0,4.5,0,4.7c0,0,0,1.3,1.3,1.3c1,0,1.5-0.3,1.5-0.3s-0.9,1.4-2.9,1.3C367.9,74.8,368,72.6,368,72.6"
		/>
</g>
<rect x="-3.4" y="482" class="st1" width="86" height="28.1"/>
<rect x="92" y="482" class="st3" width="10.8" height="27.4"/>
<rect x="110.4" y="482" class="st3" width="10.8" height="27.4"/>
<rect x="126.3" y="482" class="st3" width="10.8" height="27.4"/>
<rect x="144" y="482" class="st3" width="10.8" height="27.4"/>
<rect x="161.2" y="482" class="st3" width="10.8" height="27.4"/>
<rect x="265.2" y="105.1" class="st3" width="209.5" height="295.9"/>
</svg>
