<?xml version="1.0" encoding="utf-8"?>
<!-- Generator: Adobe Illustrator 26.0.1, SVG Export Plug-In . SVG Version: 6.00 Build 0)  -->
<svg version="1.1" id="Layer_1" xmlns="http://www.w3.org/2000/svg" xmlns:xlink="http://www.w3.org/1999/xlink" x="0px" y="0px"
	 viewBox="0 0 478.2 470" style="enable-background:new 0 0 478.2 470;" xml:space="preserve">
<style type="text/css">
	.st0{fill:#E16E64;}
	.st1{fill:#0A0909;}
	.st2{fill:#FFFFFF;}
	.st3{fill:#FBC8BD;}
	.st4{fill:#C0BFBF;}
	.st5{fill:#8E8D8D;}
	.st6{fill:#8F8D8D;}
</style>
<path class="st0" d="M70.2,233.4c-23.5-1.1-46.4-5.1-67.8-15.3c-1.6-0.8-3.3-1.1-5-1.7c0-38.3-0.1-76.6-0.1-114.9
	c1.4-2.1,3.6-3.4,5.9-4.8c-2-0.7-4.5,0.5-5.9-1.8c0-30.7,0-61.4-0.3-92C-3-2.2-1.2-3.3,3.3-3c4.6,0.4,9.3,0.1,13.9,0.2
	c0.1,0.5,0.2,1.1-0.1,1.5C7,8.6,6.8,9,12.8,21.6c1.2,2.5,2.7,4.5-0.4,6.7c-3.1,2.2-1.8,5-0.6,7.6c1.4,3.2,3.8,2.5,6.5,2
	C28,36,37.9,37,47.7,37.2c2.4,0,4.4,1.3,6.8,2.8c-0.6-4-0.1-7.8-0.6-12c-10.3,1.2-20.5,0.8-30.7,0.7c-6.8-0.1-10.3-3.8-10.7-10.4
	c-0.3-6.1,3-10.2,9.7-10.6C30.4,7,38.7,7.3,47,7.5c3,0.1,5.5,1.3,7.5,3.5c0-4.7-1.7-9.7,2-13.8c5.6,0,11.2,0,16.8,0
	c-0.9,3.3-1.3,6.2-0.6,10c2.1,11.7,3.6,23.8-1.4,34.8c2.9-1.1,7.1,0.2,11-0.6c-2.8-13.6-1.5-27.2-1.1-40.8c0-1.3,0.9-2.4,1.9-3.3
	c2,0,3.9,0,5.9,0c0.1,3.2,1.6,4.3,4.8,4.2c4.7-0.1,8.1,2.6,9,7.1c1.8,9.7,1.6,19.5,0.1,29.3c-0.2,1.5-1.2,2.9-3.5,4
	c4.9-0.2,9-0.3,12.9-0.1c-3.7-14.7-0.9-29.8-2.7-44.5c3.5,0,7,0,10.5,0c-0.2,2.7,0.7,4.1,3.8,4.3c6.7,0.4,9.4,4.8,9.4,11
	c0.2,26.3,0.1,52.7,0.1,79c0,4.5-2.2,7.9-4.3,11.4c-2.7,6-6.6,10.8-13.1,12.9c-0.8-0.3-1.5-0.8-2-1.5c-1.4-1.8-2.2-4-3.4-6.2
	c-2.1,9.9-4.7,12.3-14.7,12.4c-25.1,0.2-50.2,0.1-75.4,0.1c-3.7,0-7.1-1-11-2.3c-1,3.7-0.2,7.2-0.9,11.8c3.7-2.8,7.3-3.1,10.9-3.1
	c25.4-0.1,50.8-0.1,76.1,0c2.1,0,4.1,0.1,6.1,0.9c5.2,5.7-1.9,8.5-3.1,12.6c-5.6,8.8-11,17.8-14.5,27.8c-2,4.1-3.3,8.4-4.6,12.7
	c-1.3,4.2-2.2,8.4-3.1,12.7c-2.2,9.1-3.7,18.4-3.8,27.8C72.4,225.6,73.5,229.9,70.2,233.4z"/>
<path class="st0" d="M222.8-2.7c9.1,20.7,15.2,42.1,15.6,64.9c-0.5,0.7-1.2,1.3-2,1.6c-8.5,1.2-17.1,1.8-25.7,3.2
	c-2.5,0.4-4.9,0.6-7.3-0.3c-0.9-0.5-1.7-1.1-2.3-2c-6.9-10.7-10.3-11.6-22.3-5.2c3.4,0,6.7-0.7,9.4,1.5c2.6,2.1,3.9,4.7,2.9,8.1
	c-1.4,2.8-4.3,3.4-6.8,4.4c-3.8,0.9-7.2,4-11.5,1.8c-1.7-1.8-1.6-4.3-1.9-6.5c-2.1-13.7-8.5-16.6-21-9.7c10.4,0.9,12.7,3.3,12.7,14
	c0,2.6,0.1,5.2-0.5,7.7c-0.6,2-2,3.2-3.7,4.3c-2.4,1.3-4.9,2.4-7.1,4.1c-3.5,1.4-6.6,6.8-10.8,1.1c-1.1-3.3-0.9-6.7-0.9-10
	c-0.2-27.6,0.4-55.3-0.5-82.9C166.9-2.8,194.9-2.7,222.8-2.7z"/>
<path class="st1" d="M56.5-2.8c0,5.7,0,11.4,0,19c-3.4-5.7-7.2-7.1-12.2-6.8c-7.5,0.4-15,0.1-22.5,0.1c-5.7,0-8,3.2-7.4,8.4
	c0.5,4.4,0.5,9.3,7.5,8.8c7.5-0.5,15-0.2,22.5-0.1c4.3,0.1,8.5,0.2,11.7-5.1c0,8.4,0,15.3,0,23.8c-2.9-5.2-6.4-6.8-11.2-6.5
	c-7,0.4-14,0.1-21,0.1c-1.6,0-3.1,0.2-4.7,0.1c-3-0.2-4.2,5.8-6.6,3.1C9.8,39,7.8,34.3,6.9,30c-1.2-5.7,4.5-2,6.6-4
	C10.4,21,6.3,16.4,6.4,9.7C6.5,2.1,11.2-0.8,17.2-2.8C30.3-2.8,43.4-2.8,56.5-2.8z"/>
<path class="st2" d="M480.8,440.3c0.1,9.8,0,19.7,0.3,29.5c0.1,3.7-1,4.8-4.8,4.8c-13.5-0.3-26.9-0.2-40.4-0.3
	c-1.4-1.5-1.4-3.2-1-5.1c3-17.1,22.1-32.1,39.4-30.9C476.7,438.3,479,438.5,480.8,440.3z"/>
<path class="st1" d="M139-2.8c2.3,2.9,3,6.1,3,9.9c-0.1,28.3,0.1,56.6,0.2,84.9c-0.9,5.9-6.7,6.9-10.2,10.3
	c-1.3,0.7-2.5,1.5-4.1,0.8c-0.4-0.6-3.5-0.3-1.3-1.6c4.4-2.6,4.6-6.3,4.5-10.5c-0.1-24.6-0.4-49.1,0.1-73.7
	c0.3-13.9-2.3-15.6-16.8-12.9c-0.5-4.3,3.9-4.7,5.6-7.2C126.3-2.8,132.6-2.8,139-2.8z"/>
<path class="st3" d="M480.8,440.3c-26.1-0.2-40.9,11-44.8,33.9c-3.7,0-7.3,0-11,0c2.1-25.3,23-44.8,48.1-44.8c2.6,0,5.2,0,7.7,0
	C480.8,433,480.8,436.6,480.8,440.3z"/>
<path class="st1" d="M109.4-2.8c5.7,11,2.1,22.8,2.8,34.2c0.3,4.8,0.3,9.1,7.3,12.1c-9.1,0-16,0-24.5,0c5.8-2.9,6.9-6.9,6.6-11.9
	c-0.4-4.6-0.1-9.3-0.1-14c0-14.3-2-15.9-16.5-13.7c-0.8-3.5,3.6-4,3.9-6.8C95.7-2.8,102.5-2.8,109.4-2.8z"/>
<path class="st1" d="M82.9-2.8c-0.1,12.2,0.1,24.3-0.3,36.5c-0.2,4.5,2.2,7,5.9,9.8c-7.8,0-14.7,0-21.6,0c7.5-8,7-33.5-0.9-42.5
	c2.4-1.3,4.7-2.5,7.1-3.8C76.5-2.8,79.7-2.8,82.9-2.8z"/>
<path class="st1" d="M-2.7,94.9c3.3,1.2,6.3-1.4,10-1.2c-2,4.8-5.6,6.8-10,7.8C-2.7,99.2-2.7,97.1-2.7,94.9z"/>
<path class="st4" d="M130.8,101.1c3.8-3,7.5-6.1,11.3-9.1c3.6-0.5,5.8-3.7,9-4.9c2.1-0.9,4.7-0.7,6.1-3c1.2-1,2.3-2,3.5-3
	c3.4-3.5,7.5-5.9,12.5-6.2c4,0.9,6.7-3.3,10.6-2.9c3.4,5.1,3.2,10.2,0,15.4l0.1-0.1c-4.5,3.6-9.9,2.3-14.9,2.3
	c-5.7,0-8.1,2.3-7.7,7.9c0.1,1,0,2.1,0,3.1c0,12.2,0,12.2,12.3,12.5c3.6,0.1,7.3-0.4,10.3,2.4l-0.1-0.1c3.8,8.3,3.8,16.6,0,25
	l0.1-0.1c-4.5,3.6-9.9,2.3-14.9,2.3c-5.7,0-8.1,2.3-7.7,7.9c0.1,1,0,2.1,0,3.1c0,12.2,0,12.2,12.3,12.5c3.6,0.1,7.3-0.4,10.3,2.4
	l-0.1-0.1c3.8,8.3,3.8,16.6,0,25l0.1-0.1c-4.5,3.6-9.9,2.3-14.9,2.3c-5.7,0-8.1,2.3-7.7,7.9c0.1,1,0,2.1,0,3.1
	c0,12.2,0,12.2,12.3,12.5c3.6,0.1,7.3-0.4,10.3,2.4l-0.1-0.1c3.8,8.3,3.8,16.6,0,25l0.1-0.1c-4.5,3.6-9.9,2.3-14.9,2.3
	c-5.7,0-8.1,2.3-7.7,7.9c0.1,1,0,2.1,0,3.1c0,12.2,0,12.2,12.3,12.5c3.6,0.1,7.3-0.4,10.3,2.4l-0.1-0.1c3.8,8.3,3.8,16.6,0,25
	l0.1-0.1c-4.5,3.6-9.9,2.3-15,2.3c-5.7,0-8.1,2.2-7.7,7.9c0.2,1.8,0.2,3.6,0,5.4c-0.6,6.3,2,8.9,8.5,8.7c4.8-0.2,9.9-1.2,14.2,2.3
	l-0.1-0.1c3.8,8.3,3.8,16.6,0,25l0.1-0.1c-4.5,3.6-9.9,2.3-14.9,2.3c-5.7,0-8.1,2.3-7.7,7.9c0.1,1,0,2.1,0,3.1
	c0,12.2,0,12.2,12.3,12.5c3.6,0.1,7.3-0.4,10.3,2.4l-0.1-0.1c2.9,4.1,3.2,8.1,0.2,12.3c-19.7-6.3-37.3-16.3-53.2-29.5
	c-1.9-3.3-2.4-6.7-0.8-10.2c0.5-0.8,1.1-1.3,1.9-1.7c4.5-1.5,9.2-0.9,13.8-1c9-0.2,9.4-0.5,9.4-9.8c0-0.3,0-0.6,0-0.8
	c-0.1-9.2-0.6-9.7-9.5-9.9c-4.6-0.1-9.3,0.6-13.8-1c-0.8-0.4-1.5-1-2-1.8c-2-8.2-1.7-16.5-0.3-24.7c0.4-0.8,0.9-1.5,1.7-2
	c5.2-2.2,10.7-1.3,16-1.2c5.4,0.1,8.3-1.8,7.8-7.6c-0.1-1.5-0.1-3.1,0-4.6c0.5-5.9-1.9-8.5-8-8.3c-5.1,0.1-10.3,0.8-15.3-1
	c-0.8-0.4-1.5-1-2-1.8c-2-8.7-1.7-17.5-0.3-26.2c0.4-0.8,0.9-1.5,1.7-2c4.4-2,9.1-1.2,13.7-1.3c9.9-0.2,10.2-0.4,10.2-10.6
	c0-1,0,0.3,0-0.8c-0.1-8.2-0.7-8.8-8.7-9.1c-4.9-0.2-9.8,0.6-14.6-1c-0.8-0.4-1.5-1-2-1.8c-2-8.7-1.7-17.5-0.3-26.2
	c0.4-0.8,0.9-1.5,1.7-2c4.4-2,9.1-1.2,13.7-1.3c9.9-0.2,10.2-0.4,10.2-10.6c0-1,0,0.3,0-0.8c-0.1-8.2-0.7-8.8-8.7-9.1
	c-4.9-0.2-9.8,0.6-14.6-1c-0.8-0.4-1.5-1-2-1.8c-2-8.7-1.7-17.5-0.3-26.2c0.4-0.8,0.9-1.5,1.7-2c4.7-2.1,9.6-1.2,14.4-1.3
	c9-0.2,9.4-0.5,9.4-9.8c0-10.2-0.3-10.5-10.2-10.6c-4.3-0.1-8.8,0.5-13-1c-0.8-0.4-1.5-1-2-1.8C128.1,110,128.6,105.5,130.8,101.1z"
	/>
<path class="st4" d="M316,79.7c4.2,2.5,8.5,4.9,12.7,7.4c-8.3,4.7-10.8,11.3-8.6,21.4c0.9,4.2,3.8,4.2,7,4.4
	c5.3,0.5,10.9-1.3,15.8,2.2c3.4,7.7,2.1,15.7,1.1,23.6c-0.3,0.9-0.9,1.6-1.6,2.1c-5.1,2.4-10.6,1.3-16,1.4c-4.5,0.1-6.7,2.1-6.5,6.6
	c0,1,0-0.3,0,0.8c-0.1,18.2-0.7,16.1,14.7,16.2c2.3,0,4.6,0.1,6.9,1c0.8,0.4,1.5,1,2,1.8c2.1,7.7,1.7,15.5,0.3,23.3
	c-0.4,0.8-1,1.5-1.7,2c-5.2,2.2-10.6,1.1-16,1.3c-4,0.2-6.3,1.7-6.2,6c0,0.5,0,1,0,1.5c-0.1,17.9-0.7,16,14.8,16
	c2.3,0,4.6,0.1,6.8,1c0.8,0.4,1.5,1,2,1.8c2.1,7.7,1.7,15.5,0.3,23.3c-0.4,0.8-1,1.5-1.7,2c-5.2,2.2-10.6,1.1-16,1.3
	c-4,0.2-6.3,1.7-6.2,6c0,0.5,0,1,0,1.5c-0.1,17.9-0.7,16,14.8,16c2.3,0,4.6,0.1,6.8,1c0.8,0.4,1.5,1,2,1.8
	c2.1,7.7,1.7,15.5,0.3,23.3c-0.4,0.8-1,1.5-1.7,2c-5.2,2.2-10.7,1.1-16.1,1.3c-4.1,0.2-6.3,1.9-6.1,6.1c0,0.5,0,1,0,1.5
	c-0.6,14-0.6,14,13.6,14.3c2.8,0.1,5.7-0.1,8.4,1.1c0.8,0.5,1.4,1.1,1.9,2c1.5,7.9,2.2,15.8-0.5,23.6c-3.3,3.3-7.6,2.5-11.6,2.6
	c-11.7,0.2-11.7,0.2-11.7,12.1c0,4.6,0,9.2,2.6,13.3c-0.4,4.5-3.4,4.6-6.8,4.2c-4.8-2.3-10-1.3-15.1-1.6c-3.8-0.2-7.8,0.5-11-2.3
	l0.1,0.1c-3.9-9.4-3.9-18.7,0-28.1l-0.1,0.1c5.1-3.9,11-2,16.5-2.4c7.2-0.5,7.7-1,7.7-10.1c0-9.1-0.5-9.6-7.7-10.1
	c-5.5-0.4-11.4,1.5-16.5-2.4l0.1,0.1c-3.9-8.8-3.9-17.7,0-26.5l-0.1,0.1c5.1-3.9,11-2,16.5-2.4c7.2-0.5,7.7-1,7.7-10.1
	c0-9.1-0.5-9.6-7.7-10.1c-5.5-0.4-11.4,1.5-16.5-2.4l0.1,0.1c-3.9-9.4-3.9-18.7,0-28.1l-0.1,0.1c5.1-3.9,11-2,16.5-2.4
	c7.2-0.5,7.7-1,7.7-10.1c0-9.1-0.5-9.6-7.7-10.1c-5.5-0.4-11.4,1.5-16.5-2.4l0.1,0.1c-3.9-9.4-3.9-18.7,0-28.1l-0.1,0.1
	c5.1-3.9,11-2,16.5-2.4c7.2-0.5,7.7-1,7.7-10.1c0-9.1-0.5-9.6-7.7-10.1c-5.5-0.4-11.4,1.5-16.5-2.4l0.1,0.1
	c-3.9-9.4-3.9-18.7,0-28.1l-0.1,0.1c5.1-3.9,11-2,16.5-2.4c7.2-0.5,7.7-1,7.7-10.1c0-9.1-0.5-9.6-7.7-10.1
	c-5.5-0.4-11.4,1.5-16.5-2.4l0.1,0.1c-3.9-9.4-3.9-18.7,0-28.1l-0.1,0.1c4.5-3.6,9.7-2.2,14.7-2.2C309.3,85.1,313.3,84.2,316,79.7z"
	/>
<path class="st0" d="M316.3,381.2c2.4-0.2,4.5-1.2,6.1-3c5.6-5.6,12.9-8.8,19.1-13.6c6.5-4.3,11.8-9.7,17.2-15.3
	c3.3-3.1,6.4-6.3,9.6-9.6c4.5-4.8,8.2-10.2,11.8-15.7c5.4-7.3,9.4-15.5,13.4-23.7c0.3-0.6,0.7-1.2,1.1-1.8c0.7-0.8,1.6-1.4,2.7-1.4
	c14.7,8.9,22.3,22.9,25.9,38.8c6.6,28.8-3.2,53-26.1,70.4c-29.4,22.4-75.1,15.9-96.2-14.7c-0.4-0.6-1.2-1-1.8-1.4
	C302.9,383.7,309.9,383.1,316.3,381.2z"/>
<path class="st4" d="M82.7,168c2.2-10.6,8.4-19.1,14-28c5.4-1.3,6.3-5.7,7-10.2c1.5-6.9,5.4-11.7,12-14.5c0.4,0,0.8-0.1,1.2-0.2
	c4.7-2.3,9.5-3.3,14.1,0.2l-0.1-0.1c3.8,8.3,3.8,16.6,0,25l0.1-0.1c-4.5,3.6-9.9,2.3-14.9,2.3c-5.7,0-8.1,2.3-7.7,7.9
	c0.1,1,0,2.1,0,3.1c0,12.2,0,12.2,12.3,12.5c3.6,0.1,7.3-0.4,10.3,2.4l-0.1-0.1c3.8,8.3,3.8,16.6,0,25l0.1-0.1
	c-4.5,3.6-9.9,2.3-14.9,2.3c-5.7,0-8.1,2.3-7.7,7.9c0.1,1,0,2.1,0,3.1c0,12.2,0,12.2,12.3,12.5c3.6,0.1,7.3-0.4,10.3,2.4l-0.1-0.1
	c3.8,8.3,3.8,16.6,0,25l0.1-0.1c-4.5,3.6-9.9,2.3-14.9,2.3c-5.7,0-8.1,2.3-7.7,7.9c0.1,1,0,2.1,0,3.1c0,12.2,0,12.2,12.3,12.5
	c3.6,0.1,7.3-0.4,10.3,2.4l-0.1-0.1c3.8,8.3,3.8,16.6,0,25l0.1-0.1c-4.5,3.6-9.9,2.3-15,2.3c-5.7,0-8.1,2.2-7.7,7.9
	c0.2,1.8,0.2,3.6,0,5.4c-0.6,6.3,2,8.9,8.5,8.7c4.8-0.2,9.9-1.2,14.2,2.3l-0.1-0.1c3.8,8.3,3.8,16.6,0,25l0.1-0.1
	c-3.6,3-7.3,2.3-10.9,0c-6.3-4.7-11.5-10.3-15.6-17.1c-1-3.3-2.2-6.6-6-7.6c-5.5-8.4-11-16.8-14.3-26.4c3.1-3.3,7.2-2.5,10.9-2.4
	c5.3,0.1,7.5-2.3,7.2-7.5c-0.1-1.5-0.1-3.1,0-4.6c0.5-5.9-2-8.3-8-8.3c-5.5,0-11.4,1.4-16.6-1.9c-2.8-8.8-2.4-17.8-1-26.8
	c0.3-0.9,0.9-1.6,1.6-2.2c5.4-2.6,11.1-1.4,16.7-1.5c5.1,0,7.8-1.8,7.4-7.2c-0.1-1.3,0-2.6,0-3.8c-0.1-8.6-0.7-9.2-9.1-9.4
	c-4.8-0.2-9.8,0.7-14.5-1.2c-0.8-0.5-1.4-1.2-1.9-2c-1.5-9-2.4-18,0.7-26.9c4.5-3.7,9.8-2.3,14.9-2.4c9.3-0.3,9.7-0.6,9.8-9.6
	c0.1-10-0.3-10.4-9.3-10.8C89.4,170.3,85.6,171,82.7,168z"/>
<path class="st4" d="M381.2,325.2c-3.6,5.5-6.7,11.4-12.1,15.6c-1.1-0.8-1.6-2-1.9-3.2c-2.4-9.9-2.4-9.9-12.9-10.1
	c-4.1-0.1-8.3,0.7-11.8-2.3l0.1,0.1c-3.9-8.8-3.9-17.7,0-26.5l-0.1,0.1c5.1-3.9,11-2,16.5-2.4c7.2-0.5,7.7-1,7.7-10.1
	c0-9.1-0.5-9.6-7.7-10.1c-5.5-0.4-11.4,1.5-16.5-2.4l0.1,0.1c-3.9-9.4-3.9-18.7,0-28.1l-0.1,0.1c5.1-3.9,11-2,16.5-2.4
	c7.2-0.5,7.7-1,7.7-10.1c0-9.1-0.5-9.6-7.7-10.1c-5.5-0.4-11.4,1.5-16.5-2.4l0.1,0.1c-3.9-9.4-3.9-18.7,0-28.1l-0.1,0.1
	c5.1-3.9,11-2,16.5-2.4c7.2-0.5,7.7-1,7.7-10.1c0-9.1-0.5-9.6-7.7-10.1c-5.5-0.4-11.4,1.5-16.5-2.4l0.1,0.1
	c-3.9-9.4-3.9-18.7,0-28.1l-0.1,0.1c4.8-3.7,10.5-2.3,15.8-2.3c5.7,0,8.8-1.7,8.5-7.9c-0.2-3-0.3-6.3,2.4-8.6
	c5.9,5.3,9.8,12,14,18.6c-9.9,2.1-11.1,8.9-10.5,17.7c0.4,5.8,2.1,8.4,8.2,8.3c5-0.1,10.4-1.2,15.1,2c3,7.8,2.2,15.8,1,23.7
	c-0.3,0.9-0.9,1.6-1.6,2.1c-5.1,2.5-10.6,1.3-16,1.5c-4.5,0.1-6.7,2-6.5,6.6c0,1,0-0.3,0,0.8c-0.1,18.2-0.7,16.1,14.7,16.2
	c2.3,0,4.6,0.1,6.9,1c0.8,0.4,1.5,1,2,1.8c2.1,7.7,1.7,15.5,0.3,23.3c-0.4,0.8-1,1.5-1.7,2c-4.9,2.1-10.2,1.2-15.3,1.2
	c-4.9,0-7.2,2-6.9,7c0,0.5,0,1,0,1.5c0,16.2-0.7,15,14.4,15.1c2.6,0,5.2,0,7.6,1.1c0.8,0.5,1.4,1.1,1.9,2c2.4,8.2,0.9,16.1-1.2,24
	l0.1-0.1c-4.6,3.6-10,2.2-15,2.2c-5.7,0-7.8,2.3-7.8,7.9C372.7,316,372.1,323,381.2,325.2z"/>
<path class="st5" d="M263.1,64.1c-0.1,7.3,3.1,16.7-1.2,21.5c-4.5,4.9-14,1.1-21.3,1.7c-1.3,0.1-2.6,0-3.8,0.1c0-8.2,0-16.5,0-24.7
	c0.5-0.1,1.1-0.3,1.6-0.4C246.6,62.7,255,61.8,263.1,64.1z"/>
<path class="st5" d="M369.2,121.3c-1.1,6,2.7,13.8-1.8,17.7c-4.3,3.6-11.8,0.8-18,1.1c-2.3,0.1-4.6,0-6.9,0.1c0-8.3,0.1-16.6,0.1-25
	c0.3-0.3,0.7-0.6,1-1c6.5-2,12.9-2.1,19.3,0.8C365,117.2,367.1,119.2,369.2,121.3z"/>
<path class="st5" d="M342.6,115.2c-5.9,0-11.9-0.4-17.8,0.1c-6.1,0.5-7.8-2-7.2-7.6c0.3-3.1,0.1-6.2,0.1-9.3c0-11,0-11,11-11.4
	c5.1,2.5,9.7,5.7,14,9.4C345.5,102.8,346.4,109.1,342.6,115.2L342.6,115.2z"/>
<path class="st6" d="M77.7,273.9c7.2,0,14.4,0.1,21.6-0.1c4.1-0.1,5.2,1.5,5.4,5.4c1,18.9,1.1,18.9-20.5,19.7
	c-4.6-7.7-6.1-16.6-8.6-25.1C76.3,273.3,77,273.3,77.7,273.9z"/>
<path class="st6" d="M395.9,168c-6.7,0-13.3-0.1-20,0.1c-4,0.1-5.6-1.5-5.3-5.4c0.2-3.1,0-6.2,0-9.2c0-13.1,0-13.1,12.6-13.6
	c6.6,8.5,10.5,18.5,14.8,28.2C397.3,168.7,396.5,168.6,395.9,168z"/>
<path class="st5" d="M236.7,378c6.6,0,13.3,0.3,19.9,0c4.8-0.2,7.1,1.1,6.7,6.4c-0.4,4.6-0.2,9.2-0.2,13.8
	c-8.6,1.8-17.4,2.2-26.1,1.6C236.9,392.4,236.8,385.2,236.7,378z"/>
<path class="st5" d="M184,390.3c-0.1-4.1-0.1-8.2-0.2-12.3c6.4,0,12.8,0.4,19.1-0.1c5.5-0.4,8.2,1.1,7.5,7.1
	c-0.4,3.8-0.2,7.6-0.2,11.4C201.1,396.2,192.5,393.5,184,390.3z"/>
<path class="st4" d="M406.2,192.9c0.8,9.5,4.4,18.6,3.1,28.3c-4.7,3.1-9.3,2.8-13.9-0.2l0.1,0.1c-3.9-9.4-3.9-18.7,0-28.1l-0.1,0.1
	C399,190.2,402.5,190.7,406.2,192.9z"/>
<path class="st5" d="M395.4,220.9c4.6,0.1,9.2,0.1,13.9,0.2c0,8.2,0,16.4,0,24.6c-4.6,3.3-9.2,3.4-13.9,0.2
	C395.4,237.6,395.4,229.3,395.4,220.9z"/>
<path class="st5" d="M316,79.7c1.2,6-1.2,8.2-7.3,7.7c-6.3-0.5-12.7-0.1-19-0.1c0-5.7,0-11.4,0-17.1C299.2,71.2,307.1,76.7,316,79.7
	z"/>
<path class="st4" d="M395.4,245.9c4.6-0.1,9.2-0.1,13.9-0.2c-0.1,9.7-2.4,19-4.7,28.3c-3.1,2.4-6.2,2.2-9.2-0.2l0.1,0.1
	C391.6,264.5,391.6,255.2,395.4,245.9L395.4,245.9z"/>
<path class="st5" d="M316.3,381.2c-4.9,4.6-11.9,5.1-17.2,9c-3.1,0.6-6.3,1.2-9.4,1.8c0-4.7,0-9.4,0-14c6.9,0,13.8,0,20.8,0.1
	C312.9,378.1,315.8,377.4,316.3,381.2z"/>
<path class="st1" d="M455.1,163.3c-8,0-14.9,0-22.8,0c3.2-6,5.9-11.4,9-16.7c1.4-2.4,3.5-2.2,4.8,0.1
	C449.1,151.8,451.8,157,455.1,163.3z"/>
<path class="st1" d="M455.3,130.4c-8.1,0-15,0-22,0c-0.1-0.8-0.3-1.5-0.1-1.8c4.3-5.1,5.9-11.9,11-16.4
	C447.6,118,451.1,123.6,455.3,130.4z"/>
<path class="st1" d="M455,193.9c-1.5,0.4-2.2,0.7-2.9,0.7c-6.1,0-12.3,0-18.7,0c1.8-7.2,6.6-12.4,10.1-19.6
	C447.4,181.4,451,187.3,455,193.9z"/>
<path class="st4" d="M342.5,115.3c0.1-6.3,0.2-12.6,0.2-18.8c7.8,5.1,14.1,11.7,20.2,18.6C356.1,115.1,349.3,115.2,342.5,115.3z"/>
<path class="st4" d="M70.2,233.4c0.1-4.1,0.2-8.2,0.3-12.3c2.5-2.2,5.1-2,7.6,0l-0.1-0.1c3.8,8.3,3.8,16.6,0,25l0.1-0.1
	c-2.5,2-5,2.3-7.6,0.2C70.4,241.8,70.3,237.6,70.2,233.4z"/>
<path class="st5" d="M406.2,192.9c-3.6,0.1-7.2,0.1-10.7,0.2c0.1-8.3,0.3-16.7,0.4-25c0.7,0,1.4,0.1,2.1,0.1
	C400.7,176.4,403.4,184.6,406.2,192.9z"/>
<path class="st5" d="M70.5,246c2.5-0.1,5.1-0.1,7.6-0.2c-0.1,9.4-0.3,18.7-0.4,28.1c-0.7,0-1.4-0.1-2.1-0.1
	C72.6,264.8,71.2,255.5,70.5,246z"/>
<path class="st5" d="M395.4,273.8c3.1,0.1,6.1,0.1,9.2,0.2c-2.5,7.7-4.9,15.4-7.4,23.2c-0.6,0.5-1.2,1.1-1.8,1.6
	C395.4,290.5,395.4,282.1,395.4,273.8z"/>
<path class="st5" d="M120.1,350.1c3.6,0,7.3,0,10.9,0c-0.1,3.6-0.1,7.2-0.2,10.7C126.6,357.9,123.1,354.2,120.1,350.1z"/>
<path class="st5" d="M98.5,325.3c6.9-1.4,6.1,3.4,6,7.6C102.5,330.4,100.5,327.9,98.5,325.3z"/>
<path class="st1" d="M115.7,115.3c-3.8,4.6-7.5,9.2-11.3,13.8c-0.3,0.9-0.8,1-1.4,0.4c-29-0.1-57.9-0.1-86.9-0.3
	c-4.1,0-6.6,1.9-9.1,6.6c0-8.6,0-15.6,0-24.7c3.8,7.4,9,7.4,14.5,7.3c23.8-0.1,47.6-0.1,71.4-0.1c14.9,0,16.8-2.2,13.8-17.2
	C112.7,104.4,114.1,109.9,115.7,115.3z"/>
<path class="st1" d="M37.2,93.7c-4.4,7.6-14.1,11.3-21.2,8.5c-4.7-1.9-6.4-5.5-6.3-10.3c0-8.3-0.1-16.6,0.1-24.8
	c0.1-5.2-0.4-10.1-6-13.7c8.1,0,15,0,23.6,0c-6.2,3.9-7.3,8.7-6.8,14.3c0.3,4.1,0.1,8.3,0.1,12.4C20.5,94.7,22.6,96.4,37.2,93.7z"/>
<path class="st1" d="M106.4,70.5c7.6,6.6,10.2,13.5,8.8,21.4c-0.9,5.4-5.1,7.9-10.7,7.8c-8.8-0.1-17.6,0.1-26.3-0.1
	c-4.8-0.1-9.2,0-12.1,7.2c0-9.2,0-16.2,0-25.3c3.8,7.5,9,7.6,14.4,7.3c4.1-0.2,8.3,0,12.4,0C107.7,88.8,109.5,86.7,106.4,70.5z"/>
<path class="st1" d="M6.8,165.8c0-9,0-15.9,0-22.5c11.8,8.4,25,5.3,37.5,3.1c8.5-1.5,2.9-9.7,3.4-14.9c6.4,3,10.5,12.3,8.5,19.6
	c-1.9,6.7-7,8-13.2,7.8c-8-0.2-16,0.1-24-0.1C14,158.5,9.7,159.1,6.8,165.8z"/>
<path class="st1" d="M47.3,160.8c7.4,4.7,11,13.9,8.5,20.8c-1.8,5-5.7,6.9-10.8,6.8c-9.1-0.1-18.1,0.2-27.2-0.1
	c-4.5-0.2-8,0.9-10.8,6.2c0-8.2,0-15.1,0-23.8c3.1,7.5,8.4,7.1,13.8,6.9c4.7-0.2,9.3,0,14,0C48.5,177.4,50.7,174.6,47.3,160.8z"/>
<path class="st5" d="M82.7,168c1.3,0,2.6,0.1,3.9,0.1c18.8,0.2,18.6,0.1,18.1,19c-0.1,5-2.1,6.1-6.5,5.9c-6.7-0.3-13.4-0.1-20.1-0.1
	c-0.3-0.3-0.6-0.7-0.9-1c-1-3.9,0.2-7.6,0.8-11.4C78.7,176,79.5,171.5,82.7,168z"/>
<path class="st1" d="M35.7,53.1c5,0,11.2,0,17.4,0c0.7,0,1.4,0.2,3.4,0.6C49.1,57.7,50,64,50.1,70c0.1,5.9,0,11.9,0.1,17.8
	c0,0.5,0.4,1.1,0.2,1.5c-1.6,3.8,9.4,3.7,2.8,8.6c-2.9,2.2-7,2.7-10.6,4c-0.7,0.2-1.4,0.4-2.6,0.8C36.7,86.4,43.2,69.2,35.7,53.1z"
	/>
<path class="st1" d="M109.3,53c2.3,5.9,4.2,10.8,6.6,17.1c-13.5,0-26.2,0.2-38.9-0.1c-4.5-0.1-8,0.9-10.8,6.2c0-8.1,0-15,0-21.8
	C73.6,61.9,102.5,61.5,109.3,53z"/>
<path class="st5" d="M78.1,221c-2.5,0-5.1,0-7.6,0c-0.4-9.7,0.8-19.1,4.4-28.2c1.1-0.8,2.2-0.8,3.2,0.2c0,0-0.1-0.1-0.1-0.1
	C78.1,202.3,78.1,211.7,78.1,221z"/>
<path class="st5" d="M131,115.3c-4.7-0.1-9.4-0.2-14.1-0.2c3.6-4,7.3-8,10.9-12c1-0.7,2-1.3,3-2C130.9,105.8,131,110.6,131,115.3z"
	/>
<path class="st5" d="M103,129.5c0.5-0.2,1-0.3,1.4-0.4c-0.2,5.3,2.9,12.9-7.7,10.9C98.8,136.5,100.9,133,103,129.5z"/>
<path class="st4" d="M78.1,193c-1.1-0.1-2.1-0.1-3.2-0.2c0-4.3,0.9-8.5,3-12.3C78,184.7,78.1,188.9,78.1,193z"/>
<path class="st5" d="M183.8,87.3c0-5.1,0-10.2,0-15.4c2.2-1.1,4.3-2.3,6.5-3.4c3.7-2.9,7.9-3.7,12.5-3.1c2.4,0,4.9,0,7.3-0.1
	c0.8,21.8,0.8,21.8-20.9,21.9C187.4,87.3,185.6,87.3,183.8,87.3z"/>
<path class="st1" d="M173.3,74.8c-3.8,2.8-7.8,5.1-12.5,6.2c-0.1-3.3-0.2-6.7-0.2-10c-0.1-9.1-2.7-11-11.8-8.9c-1.4,0.3-3,0-4.9,0
	c3.8-6.7,9.8-8.6,16.2-8.9c7.3-0.4,11.9,5.1,12.8,13.9C173.2,69.7,173.2,72.3,173.3,74.8z"/>
<path class="st1" d="M202.8,65.5c-3.8,2.3-8,3.2-12.5,3.1c-0.2-2.3-0.6-4.4-2.5-6.2c-2.3-2.1-4.9-1.9-7.3-1.2
	c-2.2,0.7-4.3,1.7-7,0.7c4.4-6.3,10.9-8.6,17.8-8.5C198.5,53.5,201.7,58.9,202.8,65.5z"/>
<path class="st5" d="M157.3,84.1c-0.2,4.7-3.7,2.7-6.1,3C152.8,85.4,154.9,84.4,157.3,84.1z"/>
<path class="st5" d="M236.8,350c0,9.4,0,18.7,0,28.1c-6.4,0-12.9-0.2-19.3,0c-3.7,0.1-5.8-0.9-5.6-5.1c0.2-5.9,0.2-11.9,0-17.8
	c-0.2-4.3,1.9-5.2,5.6-5.1C223.9,350.2,230.4,350,236.8,350z"/>
<path class="st5" d="M183.9,115.3c-6.4,0-12.9-0.2-19.3,0c-3.7,0.1-5.8-0.9-5.6-5.1c0.2-5.9,0.2-11.9,0-17.8
	c-0.2-4.3,1.9-5.2,5.6-5.1c6.4,0.2,12.9,0,19.3,0C183.9,96.6,183.9,105.9,183.9,115.3z"/>
<path class="st5" d="M236.8,87.2c0,9.4,0,18.7,0,28.1c-6.4,0-12.9-0.2-19.3,0c-3.7,0.1-5.8-0.9-5.6-5.1c0.2-5.9,0.2-11.9,0-17.8
	c-0.2-4.3,1.9-5.2,5.6-5.1C223.9,87.4,230.4,87.2,236.8,87.2z"/>
<path class="st5" d="M183.9,168.2c-6.4,0-12.9-0.2-19.3,0c-3.7,0.1-5.8-0.9-5.6-5.1c0.2-5.9,0.2-11.9,0-17.8
	c-0.2-4.3,1.9-5.2,5.6-5.1c6.4,0.2,12.9,0,19.3,0C183.9,149.5,183.9,158.8,183.9,168.2z"/>
<path class="st5" d="M236.8,140.1c0,9.4,0,18.7,0,28.1c-6.4,0-12.9-0.2-19.3,0c-3.7,0.1-5.8-0.9-5.6-5.1c0.2-5.9,0.2-11.9,0-17.8
	c-0.2-4.3,1.9-5.2,5.6-5.1C223.9,140.3,230.4,140.1,236.8,140.1z"/>
<path class="st5" d="M183.9,221c-6.4,0-12.9-0.2-19.3,0c-3.7,0.1-5.8-0.9-5.6-5.1c0.2-5.9,0.2-11.9,0-17.8c-0.2-4.3,1.9-5.2,5.6-5.1
	c6.4,0.2,12.9,0,19.3,0C183.9,202.3,183.9,211.7,183.9,221z"/>
<path class="st5" d="M183.9,273.9c-6.4,0-12.9-0.2-19.3,0c-3.7,0.1-5.8-0.9-5.6-5.1c0.2-5.9,0.2-11.9,0-17.8
	c-0.2-4.3,1.9-5.2,5.6-5.1c6.4,0.2,12.9,0,19.3,0C183.9,255.2,183.9,264.5,183.9,273.9z"/>
<path class="st5" d="M236.8,245.8c0,9.4,0,18.7,0,28.1c-6.4,0-12.9-0.2-19.3,0c-3.7,0.1-5.8-0.9-5.6-5.1c0.2-5.9,0.2-11.9,0-17.8
	c-0.2-4.3,1.9-5.2,5.6-5.1C223.9,246,230.4,245.8,236.8,245.8z"/>
<path class="st5" d="M183.9,378.1c-6.4,0-12.9-0.2-19.3,0c-3.7,0.1-5.8-0.9-5.6-5.1c0.2-5.9,0.2-11.9,0-17.8
	c-0.2-4.3,1.9-5.2,5.6-5.1c6.4,0.2,12.9,0,19.3,0C183.9,359.4,183.9,368.7,183.9,378.1z"/>
<path class="st5" d="M183.8,245.9c0-8.3,0-16.6,0-25c7.2,0,14.6-0.7,21.6,0.2c9.7,1.3,3.8,9.4,4.5,14.2c0.5,3.4,3.8,10.1-4.5,10.4
	C198.3,246,191.1,245.9,183.8,245.9z"/>
<path class="st5" d="M236.7,220.9c7.2,0,14.6-0.7,21.6,0.2c9.7,1.3,3.8,9.4,4.5,14.2c0.5,3.4,3.8,10.1-4.5,10.4
	c-7.2,0.2-14.4,0.1-21.7,0.1C236.7,237.6,236.7,229.3,236.7,220.9z"/>
<path class="st5" d="M236.7,325.1c7.2,0,14.6-0.7,21.6,0.2c9.7,1.3,3.8,9.4,4.5,14.2c0.5,3.4,3.8,10.1-4.5,10.4
	c-7.2,0.2-14.4,0.1-21.7,0.1C236.7,341.8,236.7,333.5,236.7,325.1z"/>
<path class="st5" d="M183.8,350.1c0-8.3,0-16.6,0-25c7.2,0,14.6-0.7,21.6,0.2c9.7,1.3,3.8,9.4,4.5,14.2c0.5,3.4,3.8,10.1-4.5,10.4
	C198.3,350.2,191.1,350.1,183.8,350.1z"/>
<path class="st5" d="M236.8,298.7c0,8.8,0,17.7,0,26.5c-6.2,0-12.4-0.2-18.6,0c-4.4,0.2-7.3-1-6.3-5.9c1.4-6.8-4.4-16.2,3.5-20
	C221.3,296.6,229.6,298.7,236.8,298.7z"/>
<path class="st5" d="M183.9,325.2c-6.2,0-12.4-0.2-18.6,0c-4.4,0.2-7.3-1-6.3-5.9c1.4-6.8-4.4-16.2,3.5-20
	c5.9-2.8,14.2-0.6,21.4-0.7C183.9,307.5,183.9,316.4,183.9,325.2z"/>
<path class="st5" d="M183.8,140.2c0-8.3,0-16.6,0-25c7.2,0,14.6-0.7,21.6,0.2c9.7,1.3,3.8,9.4,4.5,14.2c0.5,3.4,3.8,10.1-4.5,10.4
	C198.3,140.3,191.1,140.2,183.8,140.2z"/>
<path class="st5" d="M236.7,115.2c7.2,0,14.6-0.7,21.6,0.2c9.7,1.3,3.8,9.4,4.5,14.2c0.5,3.4,3.8,10.1-4.5,10.4
	c-7.2,0.2-14.4,0.1-21.7,0.1C236.7,131.9,236.7,123.5,236.7,115.2z"/>
<path class="st5" d="M236.7,273.8c7.2,0,14.6-0.7,21.6,0.2c9.7,1.3,3.8,9.4,4.5,14.2c0.5,3.4,3.8,10.1-4.5,10.4
	c-7.2,0.2-14.4,0.1-21.7,0.1C236.7,290.5,236.7,282.1,236.7,273.8z"/>
<path class="st5" d="M183.8,298.8c0-8.3,0-16.6,0-25c7.2,0,14.6-0.7,21.6,0.2c9.7,1.3,3.8,9.4,4.5,14.2c0.5,3.4,3.8,10.1-4.5,10.4
	C198.3,298.9,191.1,298.8,183.8,298.8z"/>
<path class="st5" d="M289.7,350c0,9.4,0,18.7,0,28.1c-6.4,0-12.9-0.2-19.3,0c-3.7,0.1-5.8-0.9-5.6-5.1c0.2-5.9,0.2-11.9,0-17.8
	c-0.2-4.3,1.9-5.2,5.6-5.1C276.8,350.2,283.3,350,289.7,350z"/>
<path class="st5" d="M289.7,87.2c0,9.4,0,18.7,0,28.1c-6.4,0-12.9-0.2-19.3,0c-3.7,0.1-5.8-0.9-5.6-5.1c0.2-5.9,0.2-11.9,0-17.8
	c-0.2-4.3,1.9-5.2,5.6-5.1C276.8,87.4,283.3,87.2,289.7,87.2z"/>
<path class="st5" d="M289.7,193c0,9.4,0,18.7,0,28.1c-6.4,0-12.9-0.2-19.3,0c-3.7,0.1-5.8-0.9-5.6-5.1c0.2-5.9,0.2-11.9,0-17.8
	c-0.2-4.3,1.9-5.2,5.6-5.1C276.8,193.1,283.3,193,289.7,193z"/>
<path class="st5" d="M289.7,245.8c0,9.4,0,18.7,0,28.1c-6.4,0-12.9-0.2-19.3,0c-3.7,0.1-5.8-0.9-5.6-5.1c0.2-5.9,0.2-11.9,0-17.8
	c-0.2-4.3,1.9-5.2,5.6-5.1C276.8,246,283.3,245.8,289.7,245.8z"/>
<path class="st5" d="M289.7,140.1c0,9.4,0,18.7,0,28.1c-6.4,0-12.9-0.2-19.3,0c-3.7,0.1-5.8-0.9-5.6-5.1c0.2-5.9,0.2-11.9,0-17.8
	c-0.2-4.3,1.9-5.2,5.6-5.1C276.8,140.3,283.3,140.1,289.7,140.1z"/>
<path class="st5" d="M289.6,220.9c7.2,0,14.6-0.7,21.6,0.2c9.7,1.3,3.8,9.4,4.5,14.2c0.5,3.4,3.8,10.1-4.5,10.4
	c-7.2,0.2-14.4,0.1-21.7,0.1C289.6,237.6,289.6,229.3,289.6,220.9z"/>
<path class="st5" d="M289.6,325.1c7.2,0,14.6-0.7,21.6,0.2c9.7,1.3,3.8,9.4,4.5,14.2c0.5,3.4,3.8,10.1-4.5,10.4
	c-7.2,0.2-14.4,0.1-21.7,0.1C289.6,341.8,289.6,333.5,289.6,325.1z"/>
<path class="st5" d="M289.7,298.7c0,8.8,0,17.7,0,26.5c-6.2,0-12.4-0.2-18.6,0c-4.4,0.2-7.3-1-6.3-5.9c1.4-6.8-4.4-16.2,3.5-20
	C274.2,296.6,282.5,298.7,289.7,298.7z"/>
<path class="st5" d="M289.6,115.2c7.2,0,14.6-0.7,21.6,0.2c9.7,1.3,3.8,9.4,4.5,14.2c0.5,3.4,3.8,10.1-4.5,10.4
	c-7.2,0.2-14.4,0.1-21.7,0.1C289.6,131.9,289.6,123.5,289.6,115.2z"/>
<path class="st5" d="M289.6,273.8c7.2,0,14.6-0.7,21.6,0.2c9.7,1.3,3.8,9.4,4.5,14.2c0.5,3.4,3.8,10.1-4.5,10.4
	c-7.2,0.2-14.4,0.1-21.7,0.1C289.6,290.5,289.6,282.1,289.6,273.8z"/>
<path class="st5" d="M289.6,168.1c7.2,0,14.6-0.7,21.6,0.2c9.7,1.3,3.8,9.4,4.5,14.2c0.5,3.4,3.8,10.1-4.5,10.4
	c-7.2,0.2-14.4,0.1-21.7,0.1C289.6,184.7,289.6,176.4,289.6,168.1z"/>
<path class="st5" d="M131,168.2c-6.4,0-12.9-0.2-19.3,0c-3.7,0.1-5.8-0.9-5.6-5.1c0.2-5.9,0.2-11.9,0-17.8c-0.2-4.3,1.9-5.2,5.6-5.1
	c6.4,0.2,12.9,0,19.3,0C131,149.5,131,158.8,131,168.2z"/>
<path class="st5" d="M131,221c-6.4,0-12.9-0.2-19.3,0c-3.7,0.1-5.8-0.9-5.6-5.1c0.2-5.9,0.2-11.9,0-17.8c-0.2-4.3,1.9-5.2,5.6-5.1
	c6.4,0.2,12.9,0,19.3,0C131,202.3,131,211.7,131,221z"/>
<path class="st5" d="M131,273.9c-6.4,0-12.9-0.2-19.3,0c-3.7,0.1-5.8-0.9-5.6-5.1c0.2-5.9,0.2-11.9,0-17.8c-0.2-4.3,1.9-5.2,5.6-5.1
	c6.4,0.2,12.9,0,19.3,0C131,255.2,131,264.5,131,273.9z"/>
<path class="st5" d="M131,245.9c0-8.3,0-16.6,0-25c7.2,0,14.6-0.7,21.6,0.2c9.7,1.3,3.8,9.4,4.5,14.2c0.5,3.4,3.8,10.1-4.5,10.4
	C145.4,246,138.2,245.9,131,245.9z"/>
<path class="st5" d="M131,350.1c0-8.3,0-16.6,0-25c7.2,0,14.6-0.7,21.6,0.2c9.7,1.3,3.8,9.4,4.5,14.2c0.5,3.4,3.8,10.1-4.5,10.4
	C145.4,350.2,138.2,350.1,131,350.1z"/>
<path class="st5" d="M131,325.2c-6.2,0-12.4-0.2-18.6,0c-4.4,0.2-7.3-1-6.3-5.9c1.4-6.8-4.4-16.2,3.5-20c5.9-2.8,14.2-0.6,21.4-0.7
	C131,307.5,131,316.4,131,325.2z"/>
<path class="st5" d="M131,140.2c0-8.3,0-16.6,0-25c7.2,0,14.6-0.7,21.6,0.2c9.7,1.3,3.8,9.4,4.5,14.2c0.5,3.4,3.8,10.1-4.5,10.4
	C145.4,140.3,138.2,140.2,131,140.2z"/>
<path class="st5" d="M131,298.8c0-8.3,0-16.6,0-25c7.2,0,14.6-0.7,21.6,0.2c9.7,1.3,3.8,9.4,4.5,14.2c0.5,3.4,3.8,10.1-4.5,10.4
	C145.4,298.9,138.2,298.8,131,298.8z"/>
<path class="st5" d="M131,193c0-8.3,0-16.6,0-25c7.2,0,14.6-0.7,21.6,0.2c9.7,1.3,3.8,9.4,4.5,14.2c0.5,3.4,3.8,10.1-4.5,10.4
	C145.4,193.2,138.2,193,131,193z"/>
<path class="st5" d="M342.6,140.1c0,9.4,0,18.7,0,28.1c-6.4,0-12.9-0.2-19.3,0c-3.7,0.1-5.8-0.9-5.6-5.1c0.2-5.9,0.2-11.9,0-17.8
	c-0.2-4.3,1.9-5.2,5.6-5.1C329.7,140.3,336.2,140.1,342.6,140.1z"/>
<path class="st5" d="M342.6,193c0,9.4,0,18.7,0,28.1c-6.4,0-12.9-0.2-19.3,0c-3.7,0.1-5.8-0.9-5.6-5.1c0.2-5.9,0.2-11.9,0-17.8
	c-0.2-4.3,1.9-5.2,5.6-5.1C329.7,193.1,336.2,193,342.6,193z"/>
<path class="st5" d="M342.6,245.8c0,9.4,0,18.7,0,28.1c-6.4,0-12.9-0.2-19.3,0c-3.7,0.1-5.8-0.9-5.6-5.1c0.2-5.9,0.2-11.9,0-17.8
	c-0.2-4.3,1.9-5.2,5.6-5.1C329.7,246,336.2,245.8,342.6,245.8z"/>
<path class="st5" d="M342.5,220.9c7.2,0,14.6-0.7,21.6,0.2c9.7,1.3,3.8,9.4,4.5,14.2c0.5,3.4,3.8,10.1-4.5,10.4
	c-7.2,0.2-14.4,0.1-21.7,0.1C342.5,237.6,342.5,229.3,342.5,220.9z"/>
<path class="st5" d="M342.6,298.7c0,8.8,0,17.7,0,26.5c-6.2,0-12.4-0.2-18.6,0c-4.4,0.2-7.3-1-6.3-5.9c1.4-6.8-4.4-16.2,3.5-20
	C327.1,296.6,335.4,298.7,342.6,298.7z"/>
<path class="st5" d="M342.5,168.1c7.2,0,14.6-0.7,21.6,0.2c9.7,1.3,3.8,9.4,4.5,14.2c0.5,3.4,3.8,10.1-4.5,10.4
	c-7.2,0.2-14.4,0.1-21.7,0.1C342.5,184.7,342.5,176.4,342.5,168.1z"/>
<path class="st5" d="M342.5,273.8c7.2,0,14.6-0.7,21.6,0.2c9.7,1.3,3.8,9.4,4.5,14.2c0.5,3.4,3.8,10.1-4.5,10.4
	c-7.2,0.2-14.4,0.1-21.7,0.1C342.5,290.5,342.5,282.1,342.5,273.8z"/>
<path class="st5" d="M342.5,325.1c6.1,0,12.3,0.4,18.4-0.1c6.3-0.5,9,1.5,8.1,8c-0.3,2.5,0,5.1,0.1,7.7c-2.7,3.6-5.8,6.8-9.4,9.4
	c-5.2,2.7-10.6,2.8-16.1,0.9c-0.3-0.3-0.7-0.6-1-1C342.6,341.8,342.6,333.5,342.5,325.1z"/>
<path class="st5" d="M342.7,365.6c-6.5,4.6-12.6,10-20.3,12.5c-3,0-4.9-0.9-4.7-4.4c0.2-6.2,0.2-12.4,0-18.6
	c-0.2-4.3,1.9-5.3,5.6-5.2c6.4,0.2,12.9,0.1,19.4,0.1c0,0-0.1-0.1-0.1-0.1C346.2,355.2,345.3,360.4,342.7,365.6z"/>
<path class="st5" d="M381.2,325.2c-11.6-0.3-10.6,1.7-10.6-10.8c0-15.7,0-15.7,15.7-15.7c3.1,0,6.2,0,9.2,0
	C392.2,308.3,387.3,317.1,381.2,325.2z"/>
<path class="st4" d="M342.7,365.6c-0.1-5.2-0.1-10.4-0.2-15.6c5.7,0.1,11.5,0.1,17.2,0.2C355,356.3,349.3,361.5,342.7,365.6z"/>
<path class="st5" d="M78.1,245.9c0-8.3,0-16.6,0-25c7.2,0,14.6-0.7,21.6,0.2c9.7,1.3,3.8,9.4,4.5,14.2c0.5,3.4,3.8,10.1-4.5,10.4
	C92.5,246,85.3,245.9,78.1,245.9z"/>
<path class="st5" d="M395.5,193c0,9.4,0,18.7,0,28.1c-6.4,0-12.9-0.2-19.3,0c-3.7,0.1-5.8-0.9-5.6-5.1c0.2-5.9,0.2-11.9,0-17.8
	c-0.2-4.3,1.9-5.2,5.6-5.1C382.6,193.1,389.1,193,395.5,193z"/>
<ellipse class="st1" cx="239.1" cy="235" rx="186.6" ry="180.1"/>
<path class="st1" d="M395.5,245.8c0,9.4,0,18.7,0,28.1c-6.4,0-12.9-0.2-19.3,0c-3.7,0.1-5.8-0.9-5.6-5.1c0.2-5.9,0.2-11.9,0-17.8
	c-0.2-4.3,1.9-5.2,5.6-5.1C382.6,246,389.1,245.8,395.5,245.8z"/>
</svg>
