<?xml version="1.0" encoding="utf-8"?>
<!-- Generator: Adobe Illustrator 26.0.1, SVG Export Plug-In . SVG Version: 6.00 Build 0)  -->
<svg version="1.1" id="Layer_1" xmlns="http://www.w3.org/2000/svg" xmlns:xlink="http://www.w3.org/1999/xlink" x="0px" y="0px"
	 viewBox="0 0 600 300" style="enable-background:new 0 0 600 300;" xml:space="preserve">
<style type="text/css">
	.st0{clip-path:url(#SVGID_00000137092700513265476250000014324882494719153550_);}
	.st1{fill:#E16D64;stroke:#FBC8BC;stroke-width:2.135;}
	.st2{clip-path:url(#SVGID_00000088847373164186922070000012369625898536233916_);}
	.st3{fill:#E16D64;}
	.st4{stroke:#FBC8BC;stroke-width:8.7359;}
	.st5{clip-path:url(#SVGID_00000046336241536342374540000015995941884643901844_);}
	.st6{fill:none;stroke:#E16D64;stroke-width:0.2169;}
	.st7{fill:none;}
</style>
<g id="Group_287" transform="translate(-600.578 3144.16)">
	<g>
		<g>
			<g>
				<defs>
					<rect id="SVGID_1_" x="9485.2" y="-3426.3" width="288.2" height="288.2"/>
				</defs>
				<clipPath id="SVGID_00000176038358656733015320000017222329267729203642_">
					<use xlink:href="#SVGID_1_"  style="overflow:visible;"/>
				</clipPath>
				
					<g id="Group_286" transform="translate(4269.08 222.84)" style="clip-path:url(#SVGID_00000176038358656733015320000017222329267729203642_);">
					<path id="Path_4132" class="st1" d="M-3066.3-4055.5l4.7,13.2c0.2,0.5,0.6,1,1.1,1.2l11.7,5.3c1.1,0.6,1.6,2,1,3.2
						c-0.2,0.4-0.6,0.7-1,1l-11.7,5.3c-0.5,0.2-0.9,0.7-1.1,1.2l-4.7,13.2c-0.3,1-1.3,1.6-2.3,1.3c-0.6-0.2-1.2-0.7-1.3-1.3
						l-4.7-13.2c-0.2-0.5-0.6-1-1.1-1.2l-11.7-5.3c-1.1-0.6-1.6-2-1-3.2c0.2-0.4,0.6-0.7,1-1l11.7-5.3c0.5-0.2,0.9-0.7,1.1-1.2
						l4.7-13.2c0.3-1,1.3-1.6,2.3-1.3C-3067-4056.6-3066.5-4056.1-3066.3-4055.5"/>
					<path id="Path_4133" class="st1" d="M-3241.6-4093.1l3.5,9.8c0.1,0.4,0.4,0.7,0.8,0.9l8.7,3.9c0.8,0.5,1.2,1.5,0.7,2.3
						c-0.2,0.3-0.4,0.6-0.7,0.7l-8.7,3.9c-0.4,0.2-0.7,0.5-0.8,0.9l-3.5,9.8c-0.2,0.8-1,1.2-1.7,1c-0.5-0.1-0.9-0.5-1-1l-3.5-9.8
						c-0.1-0.4-0.4-0.7-0.8-0.9l-8.7-3.9c-0.8-0.5-1.2-1.5-0.7-2.3c0.2-0.3,0.4-0.6,0.7-0.7l8.7-3.9c0.4-0.2,0.7-0.5,0.8-0.9
						l3.5-9.8c0.2-0.8,1-1.2,1.7-1C-3242.1-4094-3241.7-4093.6-3241.6-4093.1"/>
					<path id="Path_4134" class="st1" d="M-3099.5-4072.7c0,3.8-3.1,6.9-6.9,6.9c-3.8,0-6.9-3.1-6.9-6.9c0-3.8,3.1-6.9,6.9-6.9
						C-3102.6-4079.6-3099.5-4076.5-3099.5-4072.7L-3099.5-4072.7"/>
					<path id="Path_4135" class="st1" d="M-3287.6-4034.3c0,5.6-4.6,10.2-10.2,10.2s-10.2-4.6-10.2-10.2c0-5.6,4.6-10.2,10.2-10.2
						C-3292.2-4044.5-3287.6-4040-3287.6-4034.3L-3287.6-4034.3"/>
					<path id="Path_4136" class="st1" d="M-3182.5-4028c-58,0-105,47-105,105s47,105,105,105s105-47,105-105
						C-3077.5-3980.9-3124.5-4027.9-3182.5-4028 M-3182.5-3806.6c-64.3,0-116.3-52.1-116.3-116.4c0-64.3,52.1-116.3,116.4-116.3
						c64.2,0,116.3,52.1,116.3,116.3C-3066.2-3858.7-3118.3-3806.6-3182.5-3806.6"/>
					<path id="Path_4137" class="st1" d="M-3208.7-3949c-3.1,0-5.6-2.5-5.6-5.6l0,0c0-8.7-7-15.7-15.7-15.7s-15.7,7-15.7,15.7l0,0
						c0,3.1-2.5,5.7-5.7,5.7c-3.1,0-5.7-2.5-5.7-5.7c0-14.9,12.1-27,27-27s27,12.1,27,27C-3203-3951.5-3205.6-3949-3208.7-3949"/>
					<path id="Path_4138" class="st1" d="M-3113.6-3949c-3.1,0-5.6-2.5-5.6-5.6l0,0c0-8.7-7-15.7-15.7-15.7s-15.7,7-15.7,15.7
						c0,3.1-2.5,5.7-5.6,5.7s-5.7-2.5-5.7-5.6l0,0c0-14.9,12.1-27,27-27s27,12.1,27,27C-3108-3951.5-3110.5-3949-3113.6-3949"/>
					<path id="Path_4139" class="st1" d="M-3131.2-3874c-10.2-14.6-29.8-23.9-51.3-23.9s-41.1,9.4-51.3,23.9
						c-10.4-11.4-16.8-25.9-18-41.2h138.6C-3114.5-3899.8-3120.8-3885.3-3131.2-3874 M-3225.4-3866.2c7.7-12.4,24.3-20.4,42.9-20.4
						s35.2,8.1,42.9,20.4C-3164.8-3846.4-3200.2-3846.4-3225.4-3866.2 M-3107.3-3926.5h-150.3c-3.1,0-5.6,2.5-5.6,5.6
						c0,44.6,36.2,80.8,80.8,80.8s80.8-36.2,80.8-80.8C-3101.7-3924-3104.2-3926.5-3107.3-3926.5"/>
				</g>
			</g>
		</g>
	</g>
</g>
<g id="Group_289" transform="translate(-433.537 3143.921)">
	<g>
		<g>
			<g>
				<defs>
					<rect id="SVGID_00000019656432237683822730000016726798830690081693_" x="9218.6" y="-4708.1" width="294.8" height="294.8"/>
				</defs>
				<clipPath id="SVGID_00000096060073195487035390000009015909615015606202_">
					<use xlink:href="#SVGID_00000019656432237683822730000016726798830690081693_"  style="overflow:visible;"/>
				</clipPath>
				
					<g id="Group_288" transform="translate(4381.04 223.08)" style="clip-path:url(#SVGID_00000096060073195487035390000009015909615015606202_);">
					<path id="Path_4140" class="st3" d="M-3796.5-5259.7c10.4,7.2,23.8,8.2,35.1,2.6l33.9,39.3l-45.1,0.8l-31.3-36.3
						L-3796.5-5259.7z M-3847.1-5238.9l-0.8-45.1l36.3-31.3l6.4,7.4c-7.2,10.4-8.1,23.8-2.6,35.1l-20.5,17.7L-3847.1-5238.9z
						 M-3781-5359.3l31.3,36.3l-7.4,6.4c-10.4-7.2-23.8-8.1-35.1-2.6l-33.9-39.3L-3781-5359.3z M-3706.4-5337.5l0.8,45.1l-36.3,31.3
						l-6.4-7.4c7.2-10.4,8.2-23.8,2.6-35.1l20.5-17.7L-3706.4-5337.5z M-3788.1-5301.3c7.1-6.4,18.1-5.8,24.5,1.3
						c6.4,7.1,5.8,18.1-1.3,24.5c-0.2,0.1-0.3,0.3-0.5,0.4l0,0c-7.1,6.4-18.1,5.8-24.5-1.3c-6.4-7.1-5.8-18.1,1.3-24.5
						C-3788.4-5301-3788.2-5301.1-3788.1-5301.3 M-3730.6-5248l42.4-36.6l-1.6-90.2l-46.8,40.4l-36.6-42.4l-90.2,1.6l40.4,46.8
						l-42.4,36.6l1.6,90.2l46.8-40.4l31.8,36.9l-0.3,122.5h17.3l0.3-117.2l77.6-1.4L-3730.6-5248z"/>
					<path id="Path_4141" class="st4" d="M-3796.5-5259.7c10.4,7.2,23.8,8.2,35.1,2.6l33.9,39.3l-45.1,0.8l-31.3-36.3
						L-3796.5-5259.7z M-3847.1-5238.9l-0.8-45.1l36.3-31.3l6.4,7.4c-7.2,10.4-8.1,23.8-2.6,35.1l-20.5,17.7L-3847.1-5238.9z
						 M-3781-5359.3l31.3,36.3l-7.4,6.4c-10.4-7.2-23.8-8.1-35.1-2.6l-33.9-39.3L-3781-5359.3z M-3706.4-5337.5l0.8,45.1l-36.3,31.3
						l-6.4-7.4c7.2-10.4,8.2-23.8,2.6-35.1l20.5-17.7L-3706.4-5337.5z M-3788.1-5301.3c7.3-6.1,18.3-5.2,24.4,2.2
						c6,7.2,5.2,17.8-1.8,24l0,0c-7.1,6.4-18.1,5.7-24.5-1.4s-5.7-18.1,1.4-24.5C-3788.4-5301-3788.2-5301.2-3788.1-5301.3z
						 M-3730.6-5248l42.4-36.6l-1.6-90.2l-46.8,40.4l-36.6-42.4l-90.2,1.6l40.4,46.8l-42.4,36.6l1.6,90.2l46.8-40.4l31.9,36.9
						l-0.3,122.5h17.3l0.3-117.2l77.6-1.4L-3730.6-5248z"/>
				</g>
			</g>
		</g>
	</g>
</g>
<g id="Group_291" transform="translate(-265.396 3145.002)">
	<g>
		<g>
			<g>
				<defs>
					<rect id="SVGID_00000004508290758170181680000006591575312819513751_" x="9594.7" y="-4709.8" width="292" height="292"/>
				</defs>
				<clipPath id="SVGID_00000172412668728123465600000007030582739371718576_">
					<use xlink:href="#SVGID_00000004508290758170181680000006591575312819513751_"  style="overflow:visible;"/>
				</clipPath>
				
					<g id="Group_290" transform="translate(4492.4 222)" style="clip-path:url(#SVGID_00000172412668728123465600000007030582739371718576_);">
					<path id="Path_4142" class="st3" d="M-3735.6-5217.6c-2.6,1.5-5.8,1.5-8.4,0c-2-1.2-4.7-0.5-5.8,1.6c-1.1,2-0.5,4.5,1.4,5.8
						c1.5,0.9,3.1,1.5,4.7,1.9c-0.3,0.6-0.4,1.2-0.4,1.8v6.8c0,2.4,1.9,4.3,4.3,4.3c2.4,0,4.3-1.9,4.3-4.3v-6.8
						c0-0.6-0.1-1.3-0.4-1.8c1.7-0.4,3.3-1,4.7-1.9c2-1.2,2.7-3.8,1.5-5.9C-3731-5218.2-3733.6-5218.8-3735.6-5217.6L-3735.6-5217.6
						 M-3693.3-5199.6c-6.9-2.8-15.8-2.8-20.2-2.8h-0.1c-2.4,0-4.3,1.9-4.3,4.3s1.9,4.3,4.3,4.3h0.1c3.5,0,11.7,0,17.1,2.2
						c2.2,0.9,4.7-0.2,5.6-2.3C-3690.1-5196.2-3691.1-5198.7-3693.3-5199.6 M-3668.7-5210.8c-2.4,0-4.3,1.9-4.3,4.3v6.8
						c0,2.4,1.9,4.3,4.3,4.3c2.4,0,4.3-1.9,4.3-4.3v-6.8C-3664.5-5208.9-3666.4-5210.8-3668.7-5210.8L-3668.7-5210.8
						 M-3813.5-5332.4c7.4,0,13.3,6,13.3,13.3c0,7.4-6,13.3-13.3,13.3c-7.4,0-13.3-6-13.3-13.3l0,0
						C-3826.8-5326.4-3820.8-5332.4-3813.5-5332.4 M-3813.5-5297.2c12.1,0,21.9-9.8,21.9-21.9s-9.8-21.9-21.9-21.9
						c-12.1,0-21.9,9.8-21.9,21.9C-3835.3-5307-3825.5-5297.2-3813.5-5297.2 M-3764.7-5309.6v-19c0-1.5,1.2-2.7,2.7-2.7h19
						c1.5,0,2.7,1.2,2.7,2.7l0,0v19c0,1.5-1.2,2.7-2.7,2.7h-19C-3763.5-5306.9-3764.7-5308.1-3764.7-5309.6L-3764.7-5309.6
						 M-3743-5298.4c6.2,0,11.2-5,11.2-11.2v-19c0-6.2-5-11.2-11.2-11.2h-19c-6.2,0-11.2,5-11.2,11.2v19c0,6.2,5,11.2,11.2,11.2
						H-3743z M-3609-5092.4h-21.5c-0.6-9.4-3.1-18.6-7.4-26.9c8-3.9,15.4-9,21.9-15.1c6.4,11.4,10.4,24,11.7,37.1
						c0.2,2.5-1.6,4.7-4.1,4.9C-3608.7-5092.4-3608.8-5092.4-3609-5092.4 M-3642.3-5126.7c-2.3-3.4-4.9-6.7-7.7-9.8
						c-4.9-5.4-4.5-13.7,0.9-18.6s13.7-4.5,18.6,0.9l0,0c3.5,3.9,6.8,8,9.8,12.4C-3627-5135.6-3634.3-5130.5-3642.3-5126.7
						 M-3661.5-5140.8c-13.2,6.8-27.9,10.4-42.7,10.3c-56.8,0-97.1-49-81.6-97.2c0.7,0,1.5-0.1,2.2-0.3c14.3-4.2,28.1-10,41-17.4
						c-0.7,10.1,6.9,18.9,17,19.6c1,0.1,2,0.1,3.1,0c15.3-1.5,36.3-5.5,50.2-16.2c14.7,9.6,31.8,14.6,49.3,14.6c0.2,0,0.3,0,0.5,0
						c2.2,6.8,3.3,13.9,3.3,21c0,14.7-4.7,28.9-13.3,40.8c-11.2-4.2-23.8,1.5-28,12.7C-3662.1-5149.1-3662.4-5144.9-3661.5-5140.8
						 M-3786.2-5236.4c21.3-47,85.3-64.4,131.6-35.9c13.9,8.4,25,20.7,31.9,35.3c0.2,0.3,0,0.7-0.3,0.9c-0.1,0-0.2,0.1-0.3,0.1l0,0
						c-16.1,0-31.8-4.7-45.1-13.6c-2.7-1.8-6.2-1.6-8.7,0.4c-13,10.3-34.6,13.7-46.3,14.9c-5.4,0.5-10.2-3.4-10.7-8.8
						c0-0.5-0.1-1,0-1.5c0-0.9,0.1-1.9,0.2-2.8c0.4-3.9-2.5-7.3-6.3-7.7c-1.5-0.2-3.1,0.2-4.4,1c-13,7.7-26.9,13.7-41.3,17.9
						c-0.1,0-0.1,0-0.2,0C-3786.2-5236.3-3786.2-5236.3-3786.2-5236.4L-3786.2-5236.4 M-3842.1-5248.9c-10.9,0-19.7-8.9-19.7-19.7
						c0-3.5,0.9-6.9,2.7-9.9c10.3,8.3,23.6,11.9,36.7,9.9v0.1C-3822.4-5257.7-3831.2-5248.9-3842.1-5248.9 M-3595.9-5098.2
						c-2.3-23.2-11.6-43.4-28.3-61.8c-0.4-0.4-0.8-0.8-1.2-1.2c9.4-13.2,14.5-29.1,14.5-45.3c0-8.7-1.5-17.4-4.4-25.6
						c1.5-2.6,1.6-5.7,0.3-8.4c-13.5-29.3-42.8-49.3-76.8-53.4c11.8-23.2,2.5-51.6-20.7-63.3c-8.6-4.4-18.3-6-27.9-4.6
						c-2.6,0.4-5.2-0.3-7.2-1.8c-20.1-15.4-48.1-15.4-68.2,0c-2.1,1.6-4.7,2.2-7.2,1.8c-6.5-1-13.2-0.5-19.6,1.3
						c-2.3,0.7-3.6,3-2.9,5.3s3,3.6,5.3,2.9c5.2-1.5,10.6-1.9,16-1.1c4.8,0.7,9.7-0.5,13.6-3.5c17.1-13.1,40.8-13.1,57.9,0
						c3.9,3,8.8,4.2,13.6,3.5c21.1-3,40.6,11.7,43.6,32.8c1.3,9-0.7,18.3-5.6,26c-23.8-0.9-47.2,6.6-66.1,21.1
						c-12.3,3.9-25.6,2.7-37-3.4c-4.3-2.4-9.3-2.9-14-1.5c-20.4,6.3-42-5.1-48.3-25.4c-1.1-3.7-1.7-7.5-1.7-11.4
						c0-10.6,4.3-20.7,12-27.9c1.7-1.6,1.7-4.3,0.1-6c-1.6-1.7-4.3-1.7-6-0.2c-18.2,17.2-19.7,45.7-3.4,64.7
						c-8.8,12.8-5.6,30.4,7.2,39.3s30.4,5.6,39.3-7.2c3.6-5.3,5.4-11.6,4.9-18c2-0.2,4,0.2,5.8,1.2c9,4.8,19.2,7.1,29.4,6.6
						c-6.2,6.8-11.3,14.5-15.1,22.9c-1.2,2.6-1,5.7,0.5,8.1c-11.8,34.2,1.4,72.1,34.5,93.8c-9.9,10.9-16.4,24.5-18.5,39.1
						c-1,7.2,4,13.8,11.2,14.8c0.6,0.1,1.2,0.1,1.8,0.1h93.9c2.4,0,4.3-1.9,4.3-4.3s-1.9-4.3-4.3-4.3l0,0h-93.9
						c-2.5,0-4.6-2-4.6-4.5c0-0.2,0-0.4,0-0.7c2-13.5,8.2-26.1,17.6-35.9c29.2,15.3,63.9,15.5,93.3,0.6c3.5,5,17.2,16.6,19.1,40.6
						h-11.3c-2.4,0-4.3,1.9-4.3,4.3s1.9,4.3,4.3,4.3h41.3c7.2,0,13.1-5.8,13.1-13.1C-3595.9-5097.3-3595.9-5097.8-3595.9-5098.2
						 M-3826.4-5202.8c-5.7,0-10.3-4.6-10.3-10.3c0-5.7,4.6-10.3,10.3-10.3s10.3,4.6,10.3,10.3
						C-3816.1-5207.4-3820.7-5202.8-3826.4-5202.8 M-3826.4-5231.9c-10.4,0-18.9,8.4-18.9,18.9c0,10.4,8.4,18.9,18.9,18.9
						c10.4,0,18.9-8.4,18.9-18.9l0,0C-3807.6-5223.5-3816-5231.9-3826.4-5231.9"/>
					<path id="Path_4143" class="st6" d="M-3735.6-5217.6c-2.6,1.5-5.8,1.5-8.4,0c-2-1.2-4.7-0.5-5.8,1.6c-1.1,2-0.5,4.5,1.4,5.8
						c1.5,0.9,3.1,1.5,4.7,1.9c-0.3,0.6-0.4,1.2-0.4,1.8v6.8c0,2.4,1.9,4.3,4.3,4.3c2.4,0,4.3-1.9,4.3-4.3l0,0v-6.8
						c0-0.6-0.1-1.3-0.4-1.8c1.7-0.4,3.3-1,4.7-1.9c2-1.2,2.7-3.8,1.5-5.9C-3731-5218.2-3733.6-5218.8-3735.6-5217.6L-3735.6-5217.6
						L-3735.6-5217.6z M-3693.3-5199.6c-6.9-2.8-15.8-2.8-20.2-2.8h-0.1c-2.4,0-4.3,1.9-4.3,4.3s1.9,4.3,4.3,4.3h0.1
						c3.5,0,11.7,0,17.1,2.2c2.2,0.9,4.7-0.2,5.6-2.3C-3690.1-5196.2-3691.1-5198.7-3693.3-5199.6z M-3668.7-5210.8
						c-2.4,0-4.3,1.9-4.3,4.3l0,0v6.8c0,2.4,1.9,4.3,4.3,4.3c2.4,0,4.3-1.9,4.3-4.3v-6.8
						C-3664.5-5208.9-3666.4-5210.8-3668.7-5210.8L-3668.7-5210.8L-3668.7-5210.8z M-3813.5-5332.4c7.4,0,13.3,6,13.3,13.3
						c0,7.4-6,13.3-13.3,13.3c-7.4,0-13.3-6-13.3-13.3C-3826.8-5326.5-3820.8-5332.4-3813.5-5332.4L-3813.5-5332.4z M-3813.5-5297.2
						c12.1,0,21.9-9.8,21.9-21.9s-9.8-21.9-21.9-21.9c-12.1,0-21.9,9.8-21.9,21.9C-3835.3-5307-3825.5-5297.2-3813.5-5297.2
						L-3813.5-5297.2z M-3764.7-5309.6v-19c0-1.5,1.2-2.7,2.7-2.7h19c1.5,0,2.7,1.2,2.7,2.7l0,0v19c0,1.5-1.2,2.7-2.7,2.7h-19
						C-3763.5-5306.9-3764.7-5308.1-3764.7-5309.6L-3764.7-5309.6z M-3743-5298.4c6.2,0,11.2-5,11.2-11.2v-19
						c0-6.2-5-11.2-11.2-11.2h-19c-6.2,0-11.2,5-11.2,11.2v19c0,6.2,5,11.2,11.2,11.2H-3743z M-3609-5092.4h-21.5
						c-0.6-9.4-3.1-18.6-7.4-26.9c8-3.9,15.4-9,21.9-15.1c6.4,11.4,10.4,24,11.7,37.1c0.2,2.5-1.6,4.7-4.1,4.9
						C-3608.7-5092.4-3608.8-5092.4-3609-5092.4L-3609-5092.4z M-3642.3-5126.7c-2.3-3.4-4.9-6.7-7.7-9.8
						c-4.9-5.4-4.5-13.7,0.9-18.6s13.7-4.5,18.6,0.9l0,0c3.5,3.9,6.8,8,9.8,12.4C-3627-5135.6-3634.3-5130.5-3642.3-5126.7z
						 M-3661.5-5140.8c-13.2,6.8-27.9,10.4-42.7,10.3c-56.8,0-97.1-49-81.6-97.2c0.7,0,1.5-0.1,2.2-0.3c14.3-4.2,28.1-10,41-17.4
						c-0.7,10.1,6.9,18.9,17,19.6c1,0.1,2,0.1,3.1,0c15.3-1.5,36.3-5.5,50.2-16.2c14.7,9.6,31.8,14.6,49.3,14.6c0.2,0,0.3,0,0.5,0
						c2.2,6.8,3.3,13.9,3.3,21c0,14.7-4.7,28.9-13.3,40.8c-11.2-4.2-23.8,1.5-28,12.7C-3662.1-5149.1-3662.4-5144.9-3661.5-5140.8
						L-3661.5-5140.8z M-3786.2-5236.4c21.3-47,85.3-64.4,131.6-35.9c13.9,8.4,25,20.7,31.9,35.3c0.2,0.3,0,0.7-0.3,0.9
						c-0.1,0-0.2,0.1-0.3,0.1l0,0c-16.1,0-31.8-4.7-45.1-13.6c-2.7-1.8-6.2-1.6-8.7,0.4c-13,10.3-34.6,13.7-46.3,14.9
						c-5.4,0.5-10.2-3.4-10.7-8.8c0-0.5-0.1-1,0-1.5c0-0.9,0.1-1.9,0.2-2.8c0.4-3.9-2.5-7.3-6.3-7.7c-1.5-0.2-3.1,0.2-4.4,1
						c-13,7.7-26.9,13.7-41.3,17.9c-0.1,0-0.1,0-0.2,0S-3786.2-5236.3-3786.2-5236.4z M-3842.1-5248.9c-10.9,0-19.7-8.9-19.7-19.8
						c0-3.5,0.9-6.9,2.7-9.9c10.3,8.3,23.6,11.9,36.7,9.9v0.1C-3822.5-5257.7-3831.3-5248.9-3842.1-5248.9L-3842.1-5248.9z
						 M-3595.9-5098.2c-2.3-23.2-11.6-43.4-28.3-61.8c-0.4-0.4-0.8-0.8-1.2-1.2c9.4-13.2,14.5-29.1,14.5-45.3
						c0-8.7-1.5-17.4-4.4-25.6c1.5-2.6,1.6-5.7,0.3-8.4c-13.5-29.3-42.8-49.3-76.8-53.4c11.8-23.2,2.5-51.6-20.7-63.3
						c-8.6-4.4-18.3-6-27.9-4.6c-2.6,0.4-5.2-0.3-7.2-1.8c-20.1-15.4-48.1-15.4-68.3,0c-2.1,1.6-4.7,2.2-7.2,1.8
						c-6.5-1-13.2-0.5-19.6,1.3c-2.3,0.7-3.6,3-2.9,5.3c0.7,2.3,3,3.6,5.3,2.9l0,0c5.2-1.5,10.6-1.9,16-1.1
						c4.8,0.7,9.7-0.5,13.6-3.5c17.1-13.1,40.8-13.1,57.9,0c3.9,3,8.8,4.2,13.6,3.5c21.1-3,40.6,11.7,43.6,32.8
						c1.3,9-0.7,18.3-5.6,26c-23.8-0.9-47.2,6.6-66.1,21.1c-12.3,3.9-25.6,2.7-37-3.4c-4.3-2.4-9.3-2.9-14-1.5
						c-20.4,6.3-42-5.1-48.3-25.4c-1.1-3.7-1.7-7.5-1.7-11.4c0-10.6,4.3-20.7,12-27.9c1.7-1.6,1.7-4.3,0.1-6c-1.6-1.7-4.3-1.7-6-0.2
						c-18.2,17.2-19.7,45.7-3.4,64.7c-8.8,12.8-5.6,30.4,7.2,39.3s30.4,5.6,39.3-7.2c3.6-5.3,5.4-11.6,4.9-18c2-0.2,4,0.2,5.8,1.2
						c9,4.8,19.2,7.1,29.4,6.6c-6.2,6.8-11.3,14.5-15.1,22.9c-1.2,2.6-1,5.7,0.5,8.1c-11.8,34.2,1.4,72.1,34.5,93.8
						c-9.9,10.9-16.4,24.5-18.6,39.1c-1,7.2,4,13.8,11.2,14.8c0.6,0.1,1.2,0.1,1.8,0.1h93.9c2.4,0,4.3-1.9,4.3-4.3s-1.9-4.3-4.3-4.3
						l0,0h-93.9c-2.5,0-4.6-2-4.6-4.5c0-0.2,0-0.4,0-0.7c2-13.5,8.2-26.1,17.6-35.9c29.2,15.3,63.9,15.5,93.3,0.6
						c3.5,5,17.2,16.6,19.1,40.6h-11.3c-2.4,0-4.3,1.9-4.3,4.3s1.9,4.3,4.3,4.3h41.3c7.2,0,13.1-5.8,13.2-13
						C-3595.9-5097.3-3595.9-5097.7-3595.9-5098.2L-3595.9-5098.2z M-3826.4-5202.8c-5.7,0-10.3-4.6-10.3-10.3
						c0-5.7,4.6-10.3,10.3-10.3s10.3,4.6,10.3,10.3C-3816.1-5207.4-3820.7-5202.8-3826.4-5202.8L-3826.4-5202.8z M-3826.4-5232
						c-10.4,0-18.9,8.4-18.9,18.9c0,10.4,8.4,18.9,18.9,18.9c10.4,0,18.9-8.4,18.9-18.9l0,0C-3807.6-5223.5-3816-5231.9-3826.4-5232
						L-3826.4-5232z"/>
				</g>
			</g>
		</g>
	</g>
</g>
<g id="Group_207" transform="translate(-272.04 -140.76)">
	<rect x="284.4" y="171.1" class="st7" width="575.3" height="239.4"/>
	<g id="Group_206" transform="translate(272.04 140.76)">
		<path id="Path_4059" class="st3" d="M193.7,80.6l-0.9,0.9c1.7,4.6,0.3,9.4,0.9,14.2c-1.7,2-3.5,4.1-5.4,6.1
			c-1.9,2.7,0.3,5.2,0.6,7.9c0,0.8,1.3,1.9,2.2,2.2c2.1,0.8,2.5,2,2.4,4.2c1.7,1.4,3.5,3,5.5,4.7c0.6,3,1.3,6.5,2.4,9.8
			c0.6,2.2,0.6,3.9-0.9,6.1c3.2,2.5,4,6.1,3.8,9.9c0,1.7,0.3,3.6-0.2,5.2c-0.5,1.4,1.9,2.2,0.3,3.9c-0.9,1.1-0.3,3.3-0.3,5
			c0,1.1,0.5,2,0.8,3.3c-0.8,0.5-1.9,1.1-3,1.7v3.9c3.6,2.8,3.3,8.3,6.3,12c2.7,0.3,5.5,0.8,8.1,1.1c1.1,1.7,2.1,3.1,3.3,4.9
			c-0.9,0.8-1.8,1.5-2.8,2.2c-8.9,5.5-17.9,11-26.7,16.7c-4.1,2.7-8.2,5.7-11.4,9.6c-1.7,2.2-4.3,2.4-6.5,3.1
			c-2.8,0.9-6,0.8-8.9,1.4c-1.3,0.2-2.4,0.8-4.1,1.4v-6.1c-3.5-1.4-6.6-2.7-10.7-4.2c-0.9-1.1-3.2-2.4-4-4.9c-0.5-1.1-1.4-2-2.5-2.5
			c-5.4-2.5-9.5-6.6-14.2-9.6c-5.7-3.6-10.9-7.7-16.4-11.5c-11.4-7.7-22.8-15.6-34-23.3c-0.9-0.6-1.9-0.9-3-1.6v-10.2
			c3.2-2.2,6.3-4.9,9.8-7.1c0.8-0.5,2.4,0.2,4.1,0.5c0.2-0.2,0.4-0.5,0.6-0.8c4-1.4,6.8-2.5,9.6-3.5c1.1-2.8,2.4-4.9,5.8-4.7
			c1.1-2.8,5.1-1.4,6.3-4.1l-2.1-2c1.1-2.5,3.2-3.3,5.5-3.5c0.2-0.8,0.3-1.4,0.5-2h12.3c0.6-1.7,1.1-3.3,1.7-5.2
			c-2.5-1.6-3.6-4.4-4.6-7.2c0.2-0.2,0.6-0.6,0.6-0.8c-0.6-4.6-1.1-8.7-1.7-13.4c2.8-1.9,6.3-4.1,9.6-6.3c0.3,0.3,0.6,0.6,0.8,0.9
			c2.7,0.2,3.3-2.5,5.4-3.5c2.1-0.8,4-2,6-3.3h9.2c0.7-0.7,1.4-1.4,2.1-2.2c2.4-0.8,5.1,0.5,7.7-1.3c1.4-0.9,4-0.3,6,0.9
			c4.3,2.7,7.7,0.5,11.4-1.9c2.2,0.8,4.6,1.7,7,0C189.9,79,191.8,79.9,193.7,80.6"/>
		<path id="Path_4060" class="st3" d="M472.5,235.8c-9.8-0.8-18.2-1.6-27.2-2.4c-0.8,1.6-1.9,3.9-2.8,6c-1.7-2.4-4-5-6-7.7
			c-1-1.3-2-2.7-2.8-4.1c-1.6-2.8-2.8-5.8-4.3-8.8c-0.9-2.2-2.7-4-4.9-5c-4.9-2.2-5.7-4.6-7.6-10.2c-0.9-2.7-0.3-4.6,0.5-6.8
			c-3.2-4.6-4-10.5-9-14c-1.3-0.3-2.5-0.8-3.8-1.1c-0.5-2-0.9-3.6-1.4-5.2c-0.5-1.4-0.8-2.8-1.7-3.9c-4.9-6.3-8.7-13.2-13-20.1
			c-0.9-0.2-2.1-0.3-3.2-0.5c1.7-2.4,0.5-5,1.3-8c1.3,0.5,2.5,1.1,4,1.3c1.6,0.2,3.2,0,4.9,0c1.4-1.9,2.8-3.9,4.3-5.8h3.6
			c1.7-1.9,3.5-3.6,5.5-5.7c-1.9-2.5-4-5.2-6.2-8.2c6.6-0.8,12.6-4.7,19.6-3.8c3.6,2.7,8.2,4.1,12,6.8c2.7,1.9,4.9,4.6,7.9,6.1
			c3.6,2,6.5,5.4,9.6,8.2c1.6,1.4,3.5,1.9,5.5,2.4c5.7,1.4,11.4,0.9,17.1,1.1c0.6,1.4,1.3,2.8,2.1,4.4h5.1c0.5,0.6,1.3,1.1,1.4,1.9
			c0.6,3.5,3.3,5.4,5.5,7.7c2.1,2.2,4,4.6,5.8,6.8c-0.6,0.9-0.9,1.4-1.4,2c2.8,5.4,4.6,11.8,11.1,14.8c2.2,3.3,4.4,6.8,7.1,10.5
			c5.8,0.8,12.2,1.7,19.4,2.8c0.2,0.3,0.9,1.4,1.7,2.7c1.3,5-3.2,9.4-2.8,15.1c-6.6,2.4-13.4,4.6-20.1,6.9c-0.5,0.2-0.9,0.6-1.6,0.6
			c-3.8,0.5-7.7,0.3-11.2,1.3c-4.1,1.1-8.4,0.8-12.5,2.8c-4.4,2-6.6,5.5-9.2,9.1c-0.5,0.6-0.9,1.3-1.9,2.4
			C472.8,236.8,472.5,235.5,472.5,235.8"/>
		<path id="Path_4061" class="st3" d="M570.8,137.3c0,0.6-0.3,1.3,0,1.7c2.8,3.9,5.7,7.9,8.2,11.6c3.6,0.6,3.6,0.6,5.8,4.2v5.8
			c0.8,0.3,1.6,0.8,2.4,1.1v1.4c-1.6,0.3-3.3,0.5-4.7,1.1c-1.4,0.6-2.8,1.9-4.4,3c-0.6,2.4-1.3,5-2.1,8.2c-4.7-2.5-10-2.7-15.3-2.5
			c-1.7,0-3.6-0.9-5.4-1.1c-1.7-0.2-3.3-0.2-4.9-1.1c-0.8-0.5-1.9,0-3,0c-0.9-3.3-1.9-6.6-2.8-9.9c-4-3-7.4-1.6-11.2,0.5
			c-2.5,1.4-5.2,3.8-8.7,1.3c-0.9-0.6-2.7-0.2-3.6-0.2c-2.4-1.4-4.4-2.7-6.8-4.1c-1.1-4.1-5.7-3.8-9.8-6.5c-1.4-2.8-3.3-6.9-5.4-11
			c0.2,0,0.2,0,0.3-0.2c-1.7-2.2-3.5-4.4-5.4-6.9l-2.4,1.4c-2.4,0.2-2.4-2-3.2-3.5h-2.4c-0.8,1.1-1.6,2.4-2.4,3.6
			c-0.9-0.9-1.9-1.9-3-3v-3.8c-0.9-0.3-1.4-0.3-2.5-0.6c0.3-1.7,0.5-3.5,0.9-6.5c-0.8-1.3-2.2-3.6-3.6-6.1c-0.7,0-1.5,0-2.2-0.2
			c-1.4-1.3-3-2.5-5.1-4.1c-1.4-2-3.2-4.7-5.2-7.7v-4.1c1.6-2,3.2-4.2,4.7-6.3l-1.4-2.4l1.4-2.4c-0.2-0.5-0.3-0.9-0.6-1.1
			c-6.5-1.1-7.3-7.1-10-11.5c2.4-2.4-1.3-2.7-1.6-4.4c-0.5-4.7-2.5-9.3-2.2-13.9c0.8-1.4,1.3-2.4,1.9-3.6c0.9,1.6,1.7,3.1,2.8,4.2
			s2.7,1.9,4.4,3h6.5c3.2-2.4,6.3-4.7,9.6-6.9c2.4,2.7-0.9,4.9-0.5,7.1c2.5,2,4.7,4.1,7.1,6.1c0,1.4,0.2,2.7,0.2,3.9
			c1.9,2.2,4.7,3.2,7.6,2.8c1.3,1.3,2.5,2.2,3.5,3.5c2.5,3.6,7,3.3,10.4,4.6c1.3,0.5,3.3-0.5,4.7-1.1c3.5-1.6,7.1-1.1,10.9-1.1
			c0.5-0.9,1.1-2,1.6-3.1c-0.3-0.3-0.6-0.6-1.3-1.3c5.4,0.3,7-4.4,10.6-7.4c1.6,0,4.1,0.8,5.7-0.2c2.2-1.3,4.1-0.6,5.8-0.9
			c0.8,1.3,1.4,2.4,2.1,3.5h4c0.6,0.8,1.3,1.9,1.6,2.4h5.8c1.7,1.7,3,3.3,4.6,4.7c1.4,1.3,3,2.2,4.9,3.6h4.9c0,2.7,0.2,5.4,0,8
			c-0.2,2.7-0.6,5.4-1.1,8c-0.7,0.1-1.4,0.3-2.1,0.6c-0.6,3.6-3.2,7.2-0.5,11.2c-2.5,1.9-0.2,3.6,0.2,5.5c0.6,3.6,1.1,7.4,1.6,11
			c2.2,0.6,4.6,1.3,6.8,1.9C577.2,132.1,573.5,134.3,570.8,137.3"/>
		<path id="Path_4062" class="st3" d="M206.1,141.8c-0.6-1.3-1.4-2.7-2.2-4.1c2.2-2.2,4.3-4.3,6.3-6.3c-0.5-2.2-0.9-3.9-1.4-6
			c2.4-3.8,6.5-5.8,10.4-7.9c-0.5-1.9-0.8-3.6-1.4-6c2.8,1.4,5.1,2.5,7.3,3.8c2.1-0.3,4-1.1,6-1.1c1.7,0,3.5,0.9,6,1.7l1.7,1.7h3.2
			c2.8,1.4,1.9,3.6,2.2,5.4c1.1,1.1,2.1,2.5,3.3,3.3c1.6,0.9,3,2,5.1,2c5.4,0,10.1,2,14.2,5.5c1.4,1.1,2.9,2,4.4,2.8
			c3.8-0.3,6-2.7,7.7-5c1.1-1.6,2.8-3.5,0.9-6c-0.8-1.3-0.5-3.3-0.5-4.9c1.9-1.9,3.5-3.5,5.4-5.4c0.9,0,2.2,0.3,3.2,0
			c7.7-2,8.7-1.7,13.1,4.4c4.1,0.9,8.4,1.1,12.8,2.4c-0.9,1.7-1.6,3-2.2,4.4c1.4,1.7,1.4,4.1,0.5,6.1c-1.3,3-1.1,5.8-0.2,8.8
			c0.5,1.4,0.5,3,0.5,4.6v67.8c-1.9,0.2-3.6,0.2-5.7,0.3c-0.6,1.1-1.3,2.2-1.7,3.1c-8.9-4.6-17.9-9.1-26.7-13.9
			c-4-2-7.9-3.9-11.5-6.3c-3.8-2.4-8.2-3.5-11.5-6.5c-1.6-1.4-4-1.7-6.2-2.8c-4,2-8.1,4.1-12.5,6.3l-3.5-3.5c-4.1-1.1-7.7-2-11.5-3
			c-0.9-1.9-2.2-3.9-3.5-6.3c-2.7-0.6-5.2-1.3-8.4-2c-1.7-3.5-3.8-7.4-6-11.6c1.3-1.3,2.5-2.5,4-3.9c-1.7-2.8-2.2-5.7-0.2-8.5
			C205,151.1,207.3,146.4,206.1,141.8"/>
		<path id="Path_4063" class="st3" d="M343.7,132.1c5.4-3.1,12.8-5.8,16.8-6c1.7,1.1,3.5,2.4,5.2,3.5c2.4,0,5.1,0.2,7.6,0
			c2.2-0.2,4.4-0.8,6.6-1.3c2.1,3.3,1.9,7.4,4,10.7c0.5,0.8-0.2,2.2-0.3,3.3c-0.8,3.5-1.6,6.8-2.4,10.5h-2.1c-1.6-1.7-3.2-3.5-4.6-5
			c1.1-2.8-1.9-3.9-2.7-6c-0.8-1.7-0.2-4.9-3.8-5.4c-0.6,1.4-1.3,3.1-2.1,4.9c1.6,1.6,3.2,2.8,3,5.2c0,0.5,0.6,0.9,0.9,1.3
			c4.9,6.5,7.1,14.3,10.6,21.4c1.9,3.9,4,7.7,6,11.6c0.5,0.9,1.3,1.9,2.4,3.5c-0.2,2.2,0.3,5,1.1,8c0.9,3.3,4.3,3.5,6.5,6.3
			c-6.5,0-12.5,0.2-18.5,0s-12,0.9-18.2-0.9c-0.2,0.5-0.3,1.1-0.6,1.9c-14.2,1.7-28.6-1.6-43.3-0.8c0-1.6-0.2-3-0.2-4.6V145
			c0-1.9,0.5-3.6-0.8-5.5c-0.8-0.9-0.9-3.5-0.2-4.4c1.9-2.7,0.5-5.7,1.3-8.7c1.6-0.5,3.8-1.9,5.4-1.4c2.2,0.8,4.7,0.3,6.6,1.1
			c4.1,1.7,8.2,2.8,12.5,3.9C341.3,130.4,342.3,131.3,343.7,132.1"/>
		<path id="Path_4064" class="st3" d="M453.5,74.5c-0.6-0.4-1.2-0.9-1.7-1.4c-1.7,0.2-3.5,2.8-5.5,0.3c-2.4,0.2-4.7,0.3-7.7,0.6
			c0.2,0-0.3-0.3-0.9-0.8c-0.7,0.7-1.3,1.4-1.9,2.2h-9.2c-2.7,1.4-4.6,2.4-7,3.6c-3.3,0.2-7.1,0.8-10.3-2.2c-3,1.9-3,1.9-12.2,1.4
			c-0.2,1.1-0.3,2.2-0.6,3.9c-0.8-2-1.3-3.5-2.1-5.5c-2.2,1.4-4,2.5-5.7,3.6c-1.7-1-3.5-2-5.4-2.8c-3.3,5.8-8.9,6.8-14.2,7.9
			c-1.1-1.6-2.1-3.5-3.3-4.6c-1.4-1.1-3.3-1.6-5.2-2.5h-7.3c0,1.4-0.2,2.8-0.2,4.1c-1.4,0.6-2.7,1.3-4.3,1.9
			c-0.6-0.4-1.2-0.8-1.9-1.1c-0.6-0.3-1.4-0.5-2.1-0.8v-2.8c-1.4-0.2-2.8-0.3-4.6-0.5c-0.6-0.9-1.3-2-2.1-3.5
			c-0.9,0.5-1.9,0.9-3.2,1.6c-0.3-0.8-0.6-1.5-1.1-2.2c-0.6-0.8-1.4-1.4-2.2-2.4v-4.9c-1.1-0.2-2.1-0.2-3.5-0.3
			c1.4-0.9,2.5-1.9,3.8-2.8c-0.9-0.5-1.7-0.6-2.7-1.1c0.3-0.8,0.8-1.6,1.1-2.5c-0.6-1.3-1.4-2.7-2.2-3.9c0.5-1.1,0.9-2,1.7-3.6h-6.5
			c0.3-3.3,3-4.1,4.3-6c2.4,0.5,4.7,1.7,6.3,1.1c3.5-1.4,6.8-0.6,10.4-1.1c0.2-0.5,0.5-1.3,0.6-1.9c1.9-0.5,3.8-1.1,5.8-1.6v-1.1
			c-2.1-0.6-4-1.3-6-1.9v-0.5c2.5,0,5.1-0.3,7.4,0.2s4.7,1.4,7.6,0.9c3.6-4.7,9-7.1,14.9-9c1.1-0.3,2.2-0.2,3.2,0.3
			c2.7,0.9,5.2,0.9,7.7-0.3c0.6,0.9,1.4,2,2.2,3.1h4.9c0.6,1.1,1.3,2.2,2.1,3.5h5.1c2.2,2.2,5.1,2,7.4,2.8c2.5,0.8,4.4,1.1,7-0.2
			c1.7-0.8,4.4-0.6,6.6,0.5c1.1,0.6,3,0.5,4.3-0.2c2.7-1.1,5.2-2.5,8.4-4.1c2.2-0.5,5.2,1.1,7.6-0.8l6.8,6.8c-0.3,0.6-0.8,1.3-1.3,2
			c0.5,1.6,0.9,3.1,1.6,4.9c1.7,0.2,3.6,0.2,5.5,0.3c0.2,2.8-2.1,3.1-3.8,3.8c0.5,2,1.1,3.9,1.4,5.7c0.3,1.7,0.5,3.6,0.8,6.3
			c-0.2,0.5-0.6,1.7-1.3,3.3c0.9,0.3,1.7,0.5,2.5,0.8C453.6,72.3,453.5,73.4,453.5,74.5"/>
		<path id="Path_4065" class="st3" d="M97.2,176.6H86.8c0.8,4.6-1.1,8.8,1.3,13.1c0.2,0.2,0,0.3,0,0.6c0.3,5.8,0.8,11.8,1.3,17.6
			c0.2,2.4,0.8,4.7,1.1,7.1s-0.8,5,1.3,7.1c0.2,0.2,0,0.3,0,0.6c0.5,6.3,0.9,12.6,1.4,19.4c0.5,0.5,1.4,1.1,2.2,1.7v2.7l-1.7,1.7
			h-8.7c-2.7,0-5.5,0.2-8.2,0c-2.8-0.2-5.8,0.8-8.7-1.4c-0.9,0.8-1.9,1.7-3,2.7c-1.4-0.3-3.2-0.6-5.5-1.1c-0.5,0.2-1.7,0.6-3.2,1.1
			c-1.3-1.1-2.2-1.9-3.2-2.8c-2.4,1.4-4.1,3-3.8,6.5c-1.9-0.8-4-1.1-4.6-2.2c-1.6-2.5-4.6-3.9-5.1-7.4c-0.9,0-1.7-0.2-2.7-0.2
			c-1.1-1.1-2.2-2.2-3.8-3.8c-4,0.3-8.4,0.8-13.1,1.3c-0.2-0.2-0.6-0.8-1.3-1.4c0.6-1.1,1.3-2.4,2.1-3.9v-6c0-2,0-3.9-0.9-6
			c-0.8-1.5-0.9-3.3-0.3-4.9c1.1-2.8-0.6-5.8-1.3-8.5c-1.1-0.7-2.2-1.4-3.3-2l0.3-0.6h26.1c0.8-0.8,1.3-1.3,1.6-1.6
			c-1.6-4.1-0.5-8.2-0.8-12.1c2.7-1.4,5.4-2.7,8.2-4.1V171h23.7v-9C81.9,166.9,89.2,171.4,97.2,176.6"/>
		<path id="Path_4066" class="st3" d="M415,109.6c4.7-2.8,9.5-5.4,13.9-8.2c1.4-0.9,2.4-2.7,3.3-3.6c0.8-3.1-0.9-6.1,1.3-8.7
			c-0.5-2-0.9-3.9-1.4-6.3h3c2.5-2.5,4.9-4.9,7.3-7.6c2.7,0.5,5.5,1.1,8.5,1.7c0.4,0.8,0.8,1.5,1.1,2.4c1.2-0.5,2.4-1.1,3.5-1.7
			c1.7,5,4,9.9,8.9,12.1c0.8,4.7-2.8,7.1-4.7,10.4c0.4,0.6,0.8,1.1,1.1,1.7c-0.3,0.5-0.8,1.1-1.1,1.6c1.3,3.1,4.9,5,4.9,8.8
			c0,0.6,1.3,1.9,1.9,1.9c3.8,0.2,5.5,3.6,8.4,5.4c1.1,0.6,1.7,2.4,2.5,3.6c-2.1,1.6-0.8,3.9-0.9,5c1.3,2.7,2.4,4.7,3.5,7.1h-6.5
			c-1.6,3-3,5.7-4.6,8.8c-4-0.5-7.7-0.9-11.4-1.6c-1.3-0.2-2.5-0.7-3.5-1.6c-3-2.4-5.8-4.9-8.7-7.4c-5.7-4.9-11.5-9.4-18.5-12.4
			c-2.5-1.1-5.2-1.7-8.1-2.5C416.7,116.3,415.8,113.2,415,109.6"/>
		<path id="Path_4067" class="st3" d="M94.4,88.2l6.2,6.1c3,0,6-0.2,9.2,0c3,0.2,5.8,0.8,9,1.3c0.8,1.3,1.6,2.5,2.5,4.1
			c0,1.3,0.3,3.1,0,4.7c-0.3,1.7,1.7,3,0.3,5c-0.5,0.8,0.6,3.1,1.6,4.4c0.9,1.4,2.5,2.4,1.6,4.7h-10.9c-0.4,0.8-0.7,1.6-0.9,2.4
			c-1.7,0.5-4,1.3-6.5,2v5.7c-4,2.5-8.9,2.8-10.3,7.9c-4.1,0.8-8.2,1.4-12.5,2.5c-1.4,0.3-2.5,1.4-3.8,2.4c-2.8,1.9-5.5,3.9-8.2,5.8
			v8H43.3v-0.8c1.7-0.2,3.5-0.3,5.4-0.3C59,148,61.5,145.3,66.9,137c-0.5-4.1-1.1-8.3-1.6-12.4c1.4-1.3,2.5-2.4,3.8-3.5v-3.1
			c0.8-2.4,3.5-2.8,3.8-5.4c0-0.6,1.3-1.4,2.1-1.7c0.9-0.5,2.1-0.8,3-1.3c8.7-4.2,10.4-6.5,13.8-16.2C92.4,91.6,93.3,89.8,94.4,88.2
			"/>
		<path id="Path_4068" class="st3" d="M445.8,238c0.3-0.8,0.9-1.7,1.4-2.7c2.1,2.2,4.7,0.8,7.1,1.1c2.7,0.3,5.2,0.2,7.9,1.1
			c2.2,0.8,5.1,0.2,7.4,0.2c1.4,1.1,2.2,3.3,5.4,1.7c0.9-1.3,3-3.1,4.1-5.4c2.1-4.6,6.5-5.5,10.1-6.6c3.5-0.9,7.3-1.9,11.2-1.6
			c2.4,0.2,4.7-0.8,7-1.3c2.4,5.5,4.6,10.7,7,16.2c-1.4,0.2-2.4,0.3-4,0.6c-0.8,1.9-1.9,3.9-3,6.6c-4.7,2.3-9.7,4-14.9,5
			c-3,0.6-5.7,3.3-9.6,5.7h-3.5c-9.6,5.7-9.2,4.9-15.7,4.7c-1.9,1.4-3.8,2.8-5.8,4.4c-1.9,0.5-4,0.9-6.5,1.6l-5.1-2.5
			c1.1-5.2-1.1-9.9-2.5-14.3c-0.8-2.8-1.3-4.9,0-7.2c0-0.2-0.5-0.5-0.6-0.6c1.3-1.1,2.4-2.4,3.6-3.5
			C446.7,240.2,446.3,239.1,445.8,238"/>
		<path id="Path_4069" class="st3" d="M538,185.1c-0.5-1.6-0.9-2.8-1.6-4.7c1-0.2,2.1-0.3,3.2-0.3c1.1,3.3,4,4.9,5.5,6.8
			c4,1.1,7.6,2,10.1,2.7c3.6,2.8,4.3,7.4,8.4,8.7c-1.3,2.2-2.7,4.4-4,6.5c-3.5,0.3-3,3.8-4.6,5.8c-1.3,0-2.5,0.2-3.8,0.2
			c-2.1,3.6-3.6,7.1-2.8,10.7c-2.4,1.3-4.4,2.4-6.6,3.3c-2.5,1.1-0.6,4.7-4.4,5.8h-3.2c-3.6,1.3-2.8,5-5.1,6.9
			c-2.1-0.8-3.8-1.7-6.2,0c-1.4,1.1-3.8,1.3-5.7,1.9c-1.6-2.7-3.3-4.9-4.4-7.4c-1.1-2.4-1.7-5-2.7-7.9c5.1-1.7,9.8-3.8,14.7-5
			c4-1.1,6.6-3,7.6-7.1c0.8-3.1,2.1-6.1,2.8-9.3c0.4-1.7,0-3.4-1.1-4.7c-2.5-3.6-0.8-7.1,0.6-10.5
			C535.1,186.4,536.5,186.1,538,185.1"/>
		<path id="Path_4070" class="st3" d="M48.1,188c-3.2,1.6-5.7,3-8.5,4.4v12.3H13.8c0.3-1.3,0.8-2.5,1.3-4.4c1.9-1.9,3.8-4.2,4.6-7.9
			c1.3-4.9,5.4-8.2,9.2-11.6c-1.4-3.9,2.2-6.8,2.4-10.7c1.7-1.4,3-3.5,5.5-4.4c1.4-0.6,2.8-1.9,2.7-4.1c0-1.1,0.9-2.4,1.6-3.5h30
			v10.1c0.2,0,0,0.2-0.2,0.2c-0.1,0.1-0.3,0.2-0.5,0.2H47.7C48.1,174.9,48.1,181.4,48.1,188"/>
		<path id="Path_4071" class="st3" d="M436.2,78.9c-1.3,0.6-2.7,1.3-4.9,2.2c-0.3,1.6-0.7,3.2-1.3,4.7c-0.5,1.4,1.1,2.4,0.6,3.9
			c-0.4,1.3-0.6,2.6-0.5,3.9c-0.2,3.1-1.3,5.2-4.4,6.9c-9,5-17.7,10.5-27,16.2c-1.4-0.8-3.5-1.7-5.5-2.8c0.6-0.5,0.8-0.8,1.4-1.3
			c-2.5-2.2-0.9-5,0.5-6c1.9-1.4,2.4-3.6,4.4-4.7c-2.1-1.7-0.2-7.4-6.6-4.7c0.9-2,1.4-3,1.7-3.9c-0.5-1.3-0.9-2.7-1.3-3.5
			c2.4-2,4.3-3.8,6.3-5.5c-0.5-0.9-0.8-1.7-1.3-2.7c3.3-0.6,6.6,0.5,9.6-1.3c0.9-0.6,2.7-0.2,4,0.2c7,1.7,8.7,1.4,15.2-2.5h8.9
			C436.1,78.4,436.1,78.6,436.2,78.9"/>
		<path id="Path_4072" class="st3" d="M209.6,82.2c-1.6,0.9-0.5,3-0.9,4.4l4.9,4.9c-0.9,4.1-4.6,6.3-7,9.1v5.5
			c2.1,0.8,4.1,1.6,6.3,2.4c0.8,1.3,1.7,2.7,3,4.4v3.3c-3,2.5-6.3,5.2-9.6,8c0.5,1.9,0.8,3.6,1.4,6.1c-1.2,0.7-2.4,1.3-3.6,1.9
			c-0.8-3.1-1.7-7.2-3-12.4c-1.7-2-5.4-4.2-6.3-8.5c-0.2-0.6-0.9-1.3-1.6-1.7c-0.5-0.2-1-0.4-1.6-0.5c-0.5-1.6-0.9-3.1-1.6-5
			c2.2-0.6,1.9-3.3,4.3-4.4c1.1-0.6,1.9-2.8,1.7-5c-0.3-4.7,0-9.4,0-13.9c2.5-1.7,4.9-3.5,7.4-5.4C205.7,77.3,208.2,79,209.6,82.2"
			/>
		<path id="Path_4073" class="st3" d="M388.7,142.3c-0.5-0.9-1.3-1.7-1.1-2.5c0.2-1.4,0.8-2.8,1.1-4.2c0.2-1.4,0.5-2.9,0.9-4.2
			c0.9-2.7,1.9-5.7,1.4-8.8c-0.3-2,0-4.3,0-6.8c1.7,0.9,3,2,4.6,2.7c1.5,0.5,3.1,0.8,4.7,0.9c4.6-2.8,7.9-6.1,12.6-7.6
			c0.6,3,1.1,5.5,1.7,8.2c-5.2,0.9-10.3,2.8-16,4.4c2.5,3,4.6,5.5,6.6,8c-0.9,1.6-1.7,3-2.5,4.4c-1.4,0-2.8,0.2-4.1,0.2
			c-1.3,1.9-2.7,3.6-4,5.5C392.7,142.3,390.9,142.3,388.7,142.3"/>
		<path id="Path_4074" class="st3" d="M535.8,173.2h2.8c-0.2,3-3,3.5-4.4,5v4.6c-0.8,0.8-1.6,1.7-2.4,2.5l0.8,0.8
			c-0.8,2.5-1.6,5-2.5,7.9c-5.1,1.4-10.1-2-14.7-1.1c-2.5-2.5-4.7-4.7-6.6-6.6c1.5-0.3,3-0.7,4.4-1.3c1.7-0.6,2.7,0.3,4.1,0.8
			c1.6,0.6,3.5,0.2,5.2,0.2c2.4-0.9,4.1-2.5,5.7-4.9C530.1,178,533.2,175.7,535.8,173.2"/>
		<path id="Path_4075" class="st3" d="M324.9,39.4c0.7-0.1,1.4-0.3,2.1-0.5c0.2-1.7,0.8-3.5-0.9-5l3.8-1.9c1.9,0.5,3.6,1.1,5.4,1.6
			c0.8,2.4,2.5,4.1,5.7,5c-3.6,0.5-6.6,0.9-9.3,1.3c-0.8,1.4-1.4,2.5-2.2,3.9c-0.6-0.5-1.3-0.8-1.7-1.1c-1.1,0.5-2.2,0.9-3.3,1.3
			c-0.2-0.2-0.4-0.4-0.5-0.6c0.9-0.5,1.9-1.1,2.5-1.4C325.5,40.5,325.2,40,324.9,39.4"/>
		<path id="Path_4076" class="st3" d="M475.7,143.1c0.7,0.2,1.4,0.4,2.1,0.5c0.5,0.1,1,0.2,1.6,0.2c0.3,1.4,0.8,2.8,1.1,4.3h-3
			c-0.2-0.8-0.3-1.7-0.5-3c-1.7-0.6-3.6-1.3-5.4-1.7c0.8-1.7,1.7-3.3,2.7-5.2h4.6C477.9,139.8,476.9,141.5,475.7,143.1"/>
		<path id="Path_4077" class="st3" d="M367.1,95.6c1.7-0.6,3.3-1.1,4.9-1.7c0.2-0.6,0.4-1.2,0.5-1.9c0.6,0.5,1.1,0.8,1.6,1.1
			c1.3-0.3,2.5-0.8,4-1.3c-0.2,4.7-4.3,4.2-6.5,5.7C370.2,98.6,368.7,97.8,367.1,95.6"/>
		<path id="Path_4078" class="st3" d="M502.9,169.5l1.4,1.4c-1.4,1.9-1.6,3.9,0.6,5.5c-1.4,1.4-2.5,2.4-4.1,3.9
			C501.3,176.5,500.2,172.9,502.9,169.5"/>
		<path id="Path_4079" class="st3" d="M390.9,108c0.5-6.1,1.7-7.7,5.4-6.9c-1.1,1.3-2.2,2.4-3,3.5
			C392.4,105.6,391.6,106.8,390.9,108"/>
		<path id="Path_4080" class="st3" d="M388.6,119.7c0,1.4-0.2,2.5-0.5,2.5s-0.5-1.1-0.5-2.5c0-1.4,0.2-2.5,0.5-2.5
			S388.6,118.3,388.6,119.7"/>
		<path id="Path_4081" class="st3" d="M394.6,82.8c0.8,0,1.6-0.2,2.2-0.2c0,0.3,0,0.5,0.2,0.8l-2.4,0.5L394.6,82.8z"/>
		<path id="Path_4082" class="st3" d="M342.7,39.7c0,0.2-0.4,0.3-0.8,0.3s-0.8-0.1-0.8-0.3s0.4-0.3,0.8-0.3
			C342.4,39.4,342.7,39.5,342.7,39.7"/>
		<path id="Path_4083" class="st3" d="M453.9,74.2c0.3,0.3,0.6,0.5,0.9,0.8l-0.3,0.3c-0.3-0.3-0.5-0.6-0.8-0.9L453.9,74.2z"/>
		<path id="Path_4084" class="st3" d="M435.8,77.8c0.3-0.3,0.5-0.6,0.8-0.9l0.3,0.3c-0.3,0.3-0.6,0.5-0.9,0.8
			C436,77.9,435.9,77.8,435.8,77.8C435.8,77.8,435.8,77.8,435.8,77.8"/>
		<path id="Path_4085" class="st3" d="M193.3,80.1c0.3-0.3,0.5-0.6,0.8-0.9l0.3,0.3c-0.3,0.3-0.6,0.5-0.9,0.8L193.3,80.1z"/>
		<path id="Path_4086" class="st3" d="M211,80.1c0.3-0.3,0.5-0.6,0.8-0.9l0.3,0.3c-0.3,0.3-0.6,0.5-0.9,0.8
			C211.2,80.2,211.1,80.1,211,80.1C211.1,80.1,211,80.1,211,80.1"/>
		<path id="Path_4087" class="st3" d="M209.9,81.4l1.1-1.1C210.7,80.7,210.3,81.1,209.9,81.4"/>
		<path id="Path_4088" class="st3" d="M394.7,83.9c-0.3,0.3-0.5,0.6-0.8,0.9l-0.3-0.3c0.3-0.3,0.6-0.5,0.9-0.8L394.7,83.9z"/>
		<path id="Path_4089" class="st3" d="M391.1,107.4c-0.3,0.3-0.5,0.6-0.8,0.9L390,108c0.3-0.3,0.6-0.5,0.9-0.8
			C391,107.2,391.1,107.3,391.1,107.4C391.1,107.4,391.1,107.4,391.1,107.4"/>
	</g>
</g>
</svg>
