<?xml version="1.0" encoding="utf-8"?>
<!-- Generator: Adobe Illustrator 26.0.1, SVG Export Plug-In . SVG Version: 6.00 Build 0)  -->
<svg version="1.1" id="Layer_1" xmlns="http://www.w3.org/2000/svg" xmlns:xlink="http://www.w3.org/1999/xlink" x="0px" y="0px"
	 viewBox="0 0 300 300" style="enable-background:new 0 0 300 300;" xml:space="preserve">
<style type="text/css">
	.st0{fill:#D85550;}
	.st1{fill:#FFFFFF;}
	.st2{fill:#030504;}
	.st3{fill:#0B0B0C;}
	.st4{fill:#FEFEFE;}
	.st5{fill:#116DA4;}
	.st6{fill:#408FCC;}
	.st7{fill:#0B0B0B;}
</style>
<g id="Layer_12" transform="translate(-274.997 -265.951)">
	<g id="Path_4155" transform="translate(291.483 282.437)">
		<g id="Group_4687">
			<path id="Path_4202" class="st0" d="M478,90.3L490.6,61c3.9-9,2.6-19.4-3.3-27.3L478,21.3c-12.4,0-24.1,5.9-31.6,15.8l-3,3.9
				l-3-3.9c-7.5-9.9-19.1-15.8-31.6-15.8l-9.3,12.4c-5.9,7.9-7.1,18.3-3.3,27.3L409,90.3l0,0c27.5,27.2,33.7,27.3,33.7,27.3
				C460.1,117.9,478,90.3,478,90.3L478,90.3z"/>
		</g>
	</g>
	<g id="Group_4688" transform="translate(274.997 265.951)">
		<path id="Path_4235" class="st1" d="M426.6,109.3l18.4,14.2l12.5,10.5l2.3,2l34.6-28.3l13.8,26.3l5.9,13.5l10.2,29l9.9,46.1
			l3.6,32.9v27l-2.3,2.6l-33.9,6.3l-31.6,2.6h-18.1l-28-2.6l-24-3.6l-17.8-2.6l-2-5.9l4.9-54.7l8.2-39.2l19.4-53.3l8.9-18.4l2.3-4.3
			L426.6,109.3z"/>
		<path id="Path_4203" class="st2" d="M380.2,288.1c52.4,13.2,107.3,13.2,159.7,0c1.8-0.4,3-2.1,2.9-3.9l-1.2-26
			c-2.6-51.6-16.5-102-40.7-147.7l-2.1-3.9L510.6,79c4.4-10.3,3-22.1-3.7-31.1l-8.5-11.4V4.4h-7.6v29.8l-1,0.1
			c-11.3,1.3-21.7,6.9-28.9,15.8l-0.9,1.1l-0.9-1.1c-7.2-8.9-17.5-14.5-28.9-15.8l-1-0.1V4.4h-7.6v32.1l-8.5,11.4
			c-4,5.4-6.2,12-6.3,18.8c0,4.2,0.9,8.4,2.5,12.3l11.9,27.7l-2.1,3.9c-24.2,45.7-38.1,96.1-40.7,147.6l-1.2,26
			C377.2,286,378.4,287.6,380.2,288.1z M416.4,76c-1.3-2.9-1.9-6.1-1.9-9.3c0-5.1,1.7-10.1,4.7-14.2l8.1-10.8l0.6,0
			c10.3,0.7,19.8,5.9,26,14.2l3,3.9c1.3,1.7,3.7,2,5.3,0.8c0.3-0.2,0.5-0.5,0.8-0.8l3-4c6.2-8.3,15.7-13.4,26-14.2l0.6,0l8.1,10.8
			c5.1,6.8,6.1,15.7,2.8,23.5l-12.4,28.7L460,131.4l-31.5-27.1L416.4,76z M386.1,258.5c2.5-50.5,16.1-99.8,39.8-144.4l0.7-1.2
			l1.1,0.8l29.9,25.6c1.4,1.2,3.5,1.2,5,0l30.9-26.5l0.6,1.3c23.7,44.7,37.3,94,39.8,144.5l1.1,22.9l-0.9,0.2
			c-6.3,1.5-12.8,2.8-19.9,4.1l-1.2,0.2l-1.6-24.1c-2.1-30.9-8-61.5-17.7-91l-7.3,2.4c9.5,28.8,15.3,58.8,17.4,89.1l1.6,24.7
			l-1.3,0.2c-3.3,0.5-6.6,1-10,1.3l-1.1,0.1l-3-33.2c-0.5-5.1-1.1-10.1-1.8-14.9l-7.5,1.2c0.7,4.8,1.3,9.6,1.7,14.4l3,33.2l-1.1,0.1
			c-6.4,0.5-12.8,0.8-19.2,0.9l-1.1,0v-29.4h-7.6v29.4l-1.1,0c-6.4-0.1-12.8-0.4-19.2-0.9l-1.1-0.1l3-33.2c0.4-4.8,1-9.6,1.7-14.4
			l-7.5-1.2c-0.7,4.7-1.3,9.7-1.8,14.9l-3,33.2l-1.1-0.1c-4.5-0.5-9.3-1.1-15.2-2.1l-1-0.2l1.6-24c2-30.3,7.9-60.2,17.4-89.1
			l-7.3-2.4c-9.7,29.5-15.7,60-17.7,91l-1.6,23.2l-1.2-0.2c-5.6-1-10.3-2-15-3.1l-0.9-0.2L386.1,258.5z"/>
	</g>
	<g id="Group_4689" transform="translate(304.105 360.469)">
		
			<rect id="Rectangle_215" x="401.8" y="109.6" transform="matrix(0.2167 -0.9762 0.9762 0.2167 213.0756 492.3713)" class="st2" width="23" height="7.6"/>
	</g>
</g>
<g id="Group_4720" transform="translate(-175.085 -262.328)">
	<g id="Group_4690" transform="translate(175.227 262.328)">
		<path id="Path_4204" class="st3" d="M110.7,1.3h2.2c3.1,0.6,6.4,0.6,9.5,0h1.7c0.2,0.7,0.8,0.4,1.3,0.5c7.7,0.5,15.3,1.7,22.8,3.8
			c4.9,1.4,10.1,2.3,14.2,5.9c5.4,4.9,10.5,10,12.2,17.4c0.3,1.7,1.4,3.1,3,3.7c7.6,3.7,15,7.5,22.6,11.2c2.1,0.9,3.7,2.8,4.3,5
			c3.5,10.9,7.2,21.7,10.8,32.5c0.3,1.5,1.7,2.5,3.2,2.2c22.3-0.1,44.5,0,66.8-0.1c1.8-0.3,3.6,0.7,4.3,2.4c0,7.2,0,14.5,0.1,21.7
			c-0.2,3.8-0.2,7.7-0.1,11.5c-0.1,4.9-0.3,9.8-0.4,14.7c-0.3,15.3-0.6,30.7-0.9,46c-0.4,23.6-0.9,47.2-1.3,70.8
			c-0.3,14.5-0.5,28.9-0.8,43.4c0.2,1.9-1,3.8-2.9,4.2c-5.4,0-10.8-0.1-16.2-0.1c-7.1,0-14.1,0.1-21.2,0.1c-1.8-0.5-3-2.2-2.9-4.1
			c-1.1-14.3-2.1-28.6-3.2-42.8c-1.1-13.9-2.1-27.8-3.2-41.8v-0.1l-0.1-1.2c0.1-1.8-0.1-3.6-0.5-5.3c-0.5,1.1-0.6,2.4-0.4,3.6
			c-0.7,7.8-1.3,15.6-1.9,23.4c-1.6,21.5-3.2,42.9-4.8,64.4c0.1,1.8-1.1,3.4-2.8,3.9l-37.7,0c-1.8-0.6-2.9-2.3-2.7-4.2
			c0-2.6-0.1-5.2-0.1-7.8c-0.2-13-0.4-25.9-0.7-38.9c-0.5-24-0.9-48.1-1.4-72.1c-0.2-8.8-0.4-17.6-0.6-26.3
			c0.2-3.7,0.1-7.4-0.1-11.1v-12l-0.5,0v12l0,11.4c0,0.9-0.1,1.7-0.1,2.6c0,12,0,24,0,36c0,3.7,0.1,7.5,0.1,11.2
			c-2.3,4.8-4.7,9.5-7,14.3c-0.7,1.9-2.6,3-4.6,2.8c-35.3,0-70.5,0-105.7,0c-2.1,0.2-4.1-1.1-4.9-3.1c-1.9-4-3.9-8-6-12
			c-0.6-1.2-0.9-2.6-0.9-3.9c0-30.5,0-61,0-91.5v-2c-2.1,6.1-3.8,12.2-5.6,18.3c-1.1,3.6-1.6,7.3-1.5,11.1c0.1,21.3,0,42.5,0,63.8
			c0,1,0,2-0.2,3c-1.1,4.3-2.2,8.7-3.3,13c-0.2,2-1.9,3.5-3.9,3.4c-0.1,0-0.3,0-0.4-0.1c-6.8,0-13.6,0-20.3,0
			c-2,0.4-3.9-0.9-4.2-2.9c0-0.1,0-0.3-0.1-0.4c-1.1-4.5-2.3-8.9-3.4-13.4c0-22,0-43.9,0-65.9c0-7.4,0-14.8-0.1-22.2
			C17.3,90.3,24.3,69,31.4,47.8c0.5-1.5,1.5-2.8,3-3.4c8.1-4,16.2-8.1,24.3-12.2c0.9-0.4,1.7-0.8,1.9-2.1c0.7-4.1,2.5-7.9,5.2-11
			C69.6,14.6,73.5,10,79.3,8C89,4.7,99,2.6,109.2,1.8C109.7,1.8,110.4,2.1,110.7,1.3z M175.1,130.3V70.9c0-5.1,0-5,5.1-5
			c1.7,0,2.3,0.4,2.2,2.2c-0.4,4.6,0.1,9.3,1.5,13.7c0.5,1.3,0.9,2,2.5,2c6.6-0.1,13.1-0.1,19.7,0c1.6,0,1.9-0.3,1.4-1.9
			c-3.3-9.7-6.6-19.5-9.8-29.3c-0.3-1-1-1.9-2-2.4c-7.3-3.6-14.6-7.2-21.9-10.9c-1.1-0.7-2.6-0.5-3.4,0.5
			c-5.5,5.1-11.9,9.2-18.7,12.3c-1.2,0.4-1.9,1.6-1.7,2.8c0,16.5,0.1,33,0,49.5c0,4.8,0,4.8-4.8,4.9c-2,0.1-2.5-0.4-2.5-2.5
			c0.1-16.4,0-32.7,0.1-49.1c0-1.6-0.1-2.1-2-1.6c-15.1,4.3-31,4.3-46.1,0c-1.8-0.5-2.1-0.2-2.1,1.6c0.1,15.6,0,31.2,0,46.7
			c0,4.8,0,4.6-4.7,4.8c-2.1,0.1-2.6-0.6-2.6-2.6c0.1-17.2,0-34.5,0.1-51.7c0-1.2,0-2.2-1.4-2.8c-7-3.1-13.5-7.3-19.1-12.5
			c-0.8-0.9-2.2-1.1-3.3-0.4c-7.1,3.6-14.2,7.1-21.3,10.6c-1.4,0.6-2.4,1.8-2.8,3.3C31,72.6,24.4,92.2,17.9,111.8
			c-0.4,0.9-0.5,1.9-0.6,2.9c0,26,0,52.1,0,78.1c0,1.7,0.6,2,2.1,2c5.7-0.1,11.4-0.1,17.1,0c2,0,2.4-0.5,2.4-2.4
			c-0.1-21.4,0-42.8-0.1-64.2c0-1.4,0.2-2.9,0.5-4.3c3.2-11.2,6.6-22.4,9.6-33.7c1.8-6.5,4.6-12.7,4.2-19.7c-0.3-4.6,0-4.5,4.6-4.7
			c2.2-0.1,2.7,0.6,2.7,2.8c-0.1,41.2-0.1,82.5-0.1,123.7c0,1.9,0.4,2.5,2.4,2.5c36.6-0.1,73.3-0.1,109.9,0c1.9,0,2.4-0.4,2.4-2.4
			C175,171.7,175,151,175.1,130.3L175.1,130.3z M280.2,198c0.2-4,0.5-10.8,0.8-19.2c1.4-42.9,0.7-42.3,0.9-51.2
			c0.1-6.9,0.2-13.8,0.5-20.7c0.1-1.6-0.6-1.7-1.9-1.7c-10.6,0-21.2,0.1-31.8,0c-1.6,0-2.1,0.4-2.1,2c0.1,7.6,0,15.3,0,22.9
			c0,1-0.1,2-0.3,3c-1.6,5.8-7.5,9.2-13.3,7.6c-4.7-1.3-8-5.6-8-10.5c0-7.7,0-15.4,0-23.1c0-1.5-0.4-1.9-1.9-1.9
			c-10.6,0.1-21.2,0.1-31.8,0c-1.5,0-2,0.3-1.9,1.9c0.4,19.6,0.8,39.2,1.2,58.8c0.3,13.2,0.5,26.4,0.8,39.6
			c0.3,16.9,0.6,33.7,0.9,50.6c0.2,11.2,0.4,22.3,0.6,33.5c0,1.4,0.3,1.9,1.8,1.8c2.4-0.1,4.8-0.1,7.1,0c1.4,0.1,1.9-0.3,1.9-1.7
			c0-4,0.2-8.1,0.3-12.1c0.3-13,0.6-26.1,0.9-39.1c0.4-20.7,0.9-41.5,1.3-62.2c0.3-12.7,0.6-25.4,0.9-38c0.1-4.4,0.2-4.2,4.8-4.4
			c2.2-0.1,2.6,0.6,2.5,2.7c-0.5,16.7-0.8,33.4-1.2,50.1c-0.3,14.2-0.6,28.4-0.9,42.6c-0.4,20.2-0.9,40.5-1.4,60.7
			c0,1.2,0.3,1.5,1.4,1.5c2.5-0.1,5.1-0.1,7.6,0c1.5,0.1,1.8-0.6,1.9-1.9c1-13.4,2-26.9,3-40.3c1.4-18.7,2.8-37.4,4.2-56
			c0.9-11.9,1.8-23.8,2.7-35.8c0.1-1.4,0-2-1.7-2c-5.1,0-5-0.1-5.1-5c0-1.9,0.6-2.2,2.3-2.2c5.4,0.1,10.8,0,16.2,0
			c3.1,0,3.1,0,3.1,3.1c0,4.1,0,4.3-4.2,4.1c-2.2-0.1-2.6,0.5-2.4,2.6c1,11.3,1.8,22.7,2.6,34c0.9,12.6,1.8,25.1,2.7,37.7
			c1,13.2,2,26.3,3,39.4c0.5,6.8,1.1,13.7,1.6,20.5c0.1,1.2,0.4,1.8,1.8,1.7c2.6-0.1,5.2-0.1,7.8,0c1,0,1.4-0.3,1.3-1.4
			c-0.2-2.1-0.2-4.2-0.3-6.3c-0.3-13.4-0.6-26.8-0.9-40.2c-0.4-18.5-0.8-37-1.2-55.5c-0.3-16.2-0.7-32.4-1-48.6
			c-0.1-5.8-0.1-5.7,5.6-5.6c1.3,0,1.7,0.4,1.7,1.7c0.2,10.1,0.5,20.2,0.7,30.2c0.3,13.2,0.6,26.4,0.9,39.5
			c0.5,20.9,0.9,41.8,1.3,62.7c0.2,7.1,0.3,14.3,0.4,21.4c0,1.5,0.3,2.2,2,2.1c1.9-0.2,3.7,0,5.6,0c3.1,0,3.1,0,3.2-3.1
			c0.4-23.4,1.6-46.8,1.3-70.2C280.1,213.3,280.1,206.4,280.2,198L280.2,198z M116.8,8.9c-6,0.1-12,0.7-18,1.8
			c-4.6,0.8-9.2,1.9-13.6,3.3c-0.7,0.2-1.7,0.3-1.1,1.5c3,5.9,5.5,12.1,10.4,16.8c6.8,6.6,14.9,11.6,22.3,17.4
			c0.6,0.5,1.4,0.5,2-0.1c6.7-5.1,13.7-9.9,20.1-15.3c5.7-4.8,8.8-11.4,12.1-18c0.8-1.5,0.6-2.1-1.1-2.6
			C139.1,10.6,128,8.9,116.8,8.9L116.8,8.9z M172.6,202H67.8c-5.1,0-5,0-2.8,4.6c0.6,1.6,2.2,2.6,3.9,2.4
			c22.6-0.1,45.3-0.1,67.9-0.1h30.5c0.9,0,1.8,0.2,2.4-1C170.5,206.1,171.5,204.3,172.6,202L172.6,202z M235.7,97.8h16.6
			c5,0,4.9,0,5-5c0-1.7-0.5-2-2.1-2c-11.9,0.1-23.8,0-35.6,0c-5.3,0-5.2,0-5.2,5.3c0,1.5,0.5,1.8,1.9,1.8
			C222.8,97.8,229.2,97.8,235.7,97.8L235.7,97.8z M91.8,40.8c-6.6-6.1-10.5-13.7-14.1-21.5c0-0.1-0.1-0.1-0.1-0.2
			c-0.3-0.8-0.7-1-1.4-0.4c-3.7,3.1-6.4,7.1-8.1,11.6c-0.4,0.9-0.2,1.9,0.5,2.5c4.6,4.1,9.7,7.7,15.1,10.7c1.4,0.7,1.8,0.4,1.7-1.1
			c-0.2-1.3,0.4-1.8,1.7-1.7C88.7,40.9,90.2,40.8,91.8,40.8L91.8,40.8z M143.2,40.8c2.1,0,3.5,0,5,0c1.3-0.1,2.1,0.2,1.9,1.8
			c-0.2,1.6,0.4,1.6,1.7,1c5.2-2.8,10.1-6.2,14.5-10.1c1.1-0.8,1.5-2.3,0.9-3.6c-1.6-4.1-4.1-7.7-7.4-10.5c-1-1-1.5-0.9-2.2,0.4
			c-1.5,3.1-3.1,6.2-4.7,9.2C150.3,33.4,147,37.4,143.2,40.8L143.2,40.8z M239.4,118.1v-7.8c0-5.3,0-5.2-5.3-5.2
			c-1.4,0-1.8,0.4-1.8,1.8c0.1,7.3,0,14.7,0,22.1c0,0.9,0.1,1.7,0.4,2.5c0.5,1.3,1.8,2.2,3.3,2c1.4,0,2.7-0.9,3.1-2.3
			c0.2-0.9,0.4-1.8,0.3-2.8C239.5,125,239.4,121.5,239.4,118.1z M198.3,97.8h3.7c5.4,0,5.4,0,5.3-5.4c0-1.4-0.5-1.6-1.8-1.6
			c-3.6,0.1-7.2,0-10.8,0c-5.4,0-5.4,0-5.3,5.4c0,1.4,0.6,1.7,1.8,1.6C193.5,97.8,195.9,97.8,198.3,97.8L198.3,97.8z M273.5,97.8
			h3.7c5.4,0,5.4,0,5.2-5.5c0-1.3-0.5-1.5-1.7-1.5c-3.7,0.1-7.3,0-11,0c-5.4,0-5.4,0-5.2,5.5c0,1.3,0.5,1.6,1.6,1.5
			C268.6,97.8,271.1,97.8,273.5,97.8L273.5,97.8z M28.3,202h-4.3c-5.7,0-5.7,0-4.1,5.6c0.1,0.9,1,1.6,1.9,1.5c0,0,0,0,0.1,0
			c2.9-0.1,5.8,0,8.6,0c5.6,0,5.6,0,6.8-5.4c0-0.1,0-0.1,0.1-0.2c0.4-1.1,0-1.4-1.1-1.4C33.6,202.1,30.9,202,28.3,202z M92.6,41.1
			c0,2.1,0,3.6,0,5.2c0,0.7,0.1,1.3,0.9,1.5c3.6,1.4,7.4,2.2,11.3,2.4L92.6,41.1z"/>
	</g>
	<g id="Group_4691" transform="translate(274.809 356.431)">
		<path id="Path_4205" class="st4" d="M126.4,204.2c1.7-0.5,2.9-2.1,2.8-3.9c1.6-21.5,3.1-42.9,4.8-64.4c0.6-7.8,1.3-15.6,1.9-23.4
			c0.1-0.4,0.3-0.8,0.5-1.3c0.3,1.1-0.1,2.2,0.4,3.1l0.1,1.2l-0.1,0l0.1,0c1.1,13.9,2.1,27.8,3.2,41.8c1.1,14.3,2.2,28.6,3.2,42.8
			c-0.1,1.9,1.1,3.6,2.9,4.1l-0.2,0l0,0.2h-19.5l0-0.2L126.4,204.2z"/>
	</g>
	<g id="Group_4692" transform="translate(301.182 316.717)">
		<path id="Path_4206" class="st4" d="M157.2,244c1.9-0.5,3.1-2.3,2.9-4.2c0.2-14.5,0.5-28.9,0.8-43.4c0.4-23.6,0.9-47.2,1.3-70.8
			c0.3-15.3,0.6-30.7,0.9-46c0.1-4.9,0.3-9.8,0.4-14.7l0.4,0.2c0,59.1,0,118.1,0,177.2c0,1.6-0.4,2.2-2,2c-1.5-0.1-3-0.1-4.6,0
			l0.1-0.2L157.2,244z"/>
	</g>
	<g id="Group_4693" transform="translate(175.085 313.029)">
		<path id="Path_4207" class="st5" d="M10,60.5c0.1,0.1,0.2,0.2,0.3,0.3c0,7.4,0.1,14.8,0.1,22.2c0,22,0,43.9,0,65.9
			c-0.1,0.1-0.2,0.2-0.3,0.3V60.5z"/>
	</g>
	<g id="Group_4694" transform="translate(257.328 399.339)">
		<path id="Path_4208" class="st5" d="M143.9,161.3l0.2,0.1l0,0.2H106c0-0.1,0.1-0.2,0.2-0.3L143.9,161.3z"/>
	</g>
	<g id="Group_4695" transform="translate(283.857 399.307)">
		<path id="Path_4209" class="st5" d="M174.6,161.4l0.2,0l-0.1,0.2H137l0-0.2l0.2,0c7.1,0,14.1-0.1,21.2-0.1
			C163.8,161.2,169.1,161.3,174.6,161.4z"/>
	</g>
	<g id="Group_4696" transform="translate(304.083 301.252)">
		<path id="Path_4210" class="st5" d="M160.6,47.1l0.3-0.3v22.1c-0.1,0-0.2,0-0.3-0.1C160.7,61.5,160.6,54.3,160.6,47.1z"/>
	</g>
	<g id="Group_4697" transform="translate(304.009 311.403)">
		<path id="Path_4211" class="st6" d="M160.7,58.6c0.1,0.1,0.2,0.1,0.3,0.1v11.7l-0.4-0.2C160.5,66.3,160.5,62.4,160.7,58.6z"/>
	</g>
	<g id="Group_4698" transform="translate(222.595 262.328)">
		<path id="Path_4212" class="st5" d="M75,1.3c-3.1,0.6-6.4,0.6-9.5,0H75z"/>
	</g>
	<g id="Group_4699" transform="translate(178.495 279.532)">
		<path id="Path_4213" class="st0" d="M171.8,113.1c0,20.7,0,41.4,0,62.1c0,1.9-0.5,2.4-2.4,2.4c-36.6-0.1-73.3-0.1-109.9,0
			c-2,0-2.4-0.6-2.4-2.5c0.1-41.2,0.1-82.5,0.1-123.7c0-2.2-0.5-2.8-2.7-2.8c-4.6,0.2-4.8,0.1-4.6,4.7c0.4,7-2.5,13.2-4.2,19.7
			c-3,11.3-6.4,22.5-9.6,33.7c-0.4,1.4-0.6,2.8-0.5,4.3c0,21.4,0,42.8,0.1,64.2c0,1.9-0.4,2.5-2.4,2.4c-5.7-0.1-11.4-0.1-17.1,0
			c-1.5,0-2.1-0.2-2.1-2c0.1-26,0.1-52.1,0-78.1c0-1,0.2-2,0.6-2.9c6.6-19.6,13.1-39.2,19.6-58.8c0.4-1.4,1.4-2.6,2.8-3.3
			c7.1-3.5,14.2-7,21.3-10.6c1-0.7,2.4-0.6,3.3,0.4c5.7,5.2,12.1,9.4,19.1,12.5c1.4,0.6,1.4,1.6,1.4,2.8c0,17.2,0,34.5-0.1,51.7
			c0,2.1,0.5,2.7,2.6,2.6c4.7-0.1,4.7,0,4.7-4.8c0-15.6,0-31.2,0-46.7c0-1.8,0.3-2.1,2.1-1.6c15.1,4.2,31,4.2,46.1,0
			c1.8-0.5,2,0,2,1.6c0,16.4,0,32.7-0.1,49.1c0,2,0.6,2.5,2.5,2.5c4.8-0.1,4.8,0,4.8-4.9c0-16.5,0-33,0-49.5
			c-0.2-1.2,0.5-2.4,1.7-2.8c6.9-3.1,13.2-7.2,18.7-12.3c0.8-1,2.3-1.2,3.4-0.5c7.3,3.7,14.5,7.3,21.9,10.9c1,0.5,1.7,1.3,2,2.4
			c3.2,9.8,6.5,19.6,9.8,29.3c0.5,1.6,0.2,1.9-1.4,1.9c-6.6-0.1-13.1-0.1-19.7,0c-1.6,0-2-0.6-2.5-2c-1.4-4.4-2-9-1.5-13.7
			c0.1-1.8-0.6-2.2-2.2-2.2c-5.1,0-5.1,0-5.1,5L171.8,113.1z M114.4,170.5c15.3,0,30.7,0,46,0c3,0,4.2-1.2,4.2-4.2
			c0-6.8,0-13.7,0-20.5c0.1-1.3-0.4-2.6-1.4-3.5c-7-6.9-13.9-13.8-20.8-20.8c-0.8-0.8-1.9-1.3-3.1-1.3c-16.6,0-33.3,0-49.9,0
			c-1.2,0-2.3,0.4-3.1,1.3c-6.9,6.9-13.9,13.8-20.8,20.8c-1,1-1.5,2.3-1.5,3.7c0.1,6.6,0,13.3,0,19.9c0,3.5,1.1,4.7,4.6,4.7
			C84,170.6,99.2,170.5,114.4,170.5z"/>
	</g>
	<g id="Group_4700" transform="translate(257.938 310.194)">
		<path id="Path_4214" class="st1" d="M197.5,150.1c0,6.6,0.1,13.3,0,19.9c-0.4,23.4-0.8,46.8-1.3,70.2c-0.1,3.1-0.1,3.1-3.2,3.1
			c-1.9,0-3.8-0.1-5.6,0c-1.7,0.2-2-0.6-2-2.1c-0.1-7.1-0.3-14.3-0.4-21.4c-0.4-20.9-0.9-41.8-1.3-62.7c-0.3-13.2-0.6-26.4-0.9-39.5
			c-0.2-10.1-0.5-20.2-0.7-30.2c0-1.3-0.5-1.7-1.7-1.7c-5.7-0.1-5.7-0.1-5.6,5.6c0.4,16.2,0.7,32.4,1,48.6c0.4,18.5,0.8,37,1.2,55.5
			c0.3,13.4,0.6,26.8,0.9,40.2c0,2.1,0.1,4.2,0.3,6.3c0.1,1.1-0.3,1.4-1.3,1.4c-2.6,0-5.2-0.1-7.8,0c-1.4,0.1-1.7-0.5-1.8-1.7
			c-0.5-6.8-1-13.7-1.6-20.5c-1-13.2-2-26.3-3-39.4c-0.9-12.6-1.8-25.1-2.7-37.7c-0.8-11.4-1.7-22.7-2.6-34
			c-0.2-2.1,0.3-2.7,2.4-2.6c4.2,0.2,4.2,0.1,4.2-4.1c0-3.1,0-3.1-3.1-3.1c-5.4,0-10.8,0.1-16.2,0c-1.7,0-2.4,0.3-2.3,2.2
			c0.1,5,0,5.1,5.1,5c1.7,0,1.8,0.7,1.7,2c-0.9,11.9-1.8,23.8-2.7,35.8c-1.4,18.7-2.8,37.4-4.2,56c-1,13.4-2,26.9-3,40.3
			c-0.1,1.3-0.3,2-1.9,1.9c-2.5-0.1-5-0.1-7.6,0c-1.1,0-1.5-0.3-1.4-1.5c0.5-20.2,1-40.5,1.4-60.7c0.3-14.2,0.6-28.4,0.9-42.6
			c0.4-16.7,0.7-33.4,1.2-50.1c0.1-2-0.4-2.7-2.5-2.7c-4.6,0.1-4.7,0-4.8,4.4c-0.4,12.7-0.6,25.3-0.9,38
			c-0.5,20.7-0.9,41.5-1.3,62.2c-0.3,13-0.6,26.1-0.9,39.1c-0.1,4-0.3,8.1-0.3,12.1c0,1.5-0.5,1.8-1.9,1.7c-2.4-0.1-4.8-0.1-7.1,0
			c-1.5,0.1-1.8-0.5-1.8-1.8c-0.1-11.2-0.4-22.3-0.6-33.5c-0.3-16.9-0.6-33.7-0.9-50.6c-0.2-13.2-0.5-26.4-0.8-39.6
			c-0.4-19.6-0.8-39.2-1.2-58.8c0-1.6,0.5-1.9,1.9-1.9c10.6,0.1,21.2,0.1,31.8,0c1.5,0,1.9,0.4,1.9,1.9c-0.1,7.7-0.1,15.4,0,23.1
			c0,6,4.8,10.8,10.8,10.9c4.9,0,9.2-3.3,10.5-8c0.2-1,0.3-2,0.3-3c0-7.6,0.1-15.3,0-22.9c0-1.7,0.5-2,2.1-2
			c10.6,0.1,21.2,0.1,31.8,0c1.3,0,2,0.1,1.9,1.7c-0.2,6.9-0.3,13.8-0.5,20.7c-0.3,17.1-0.6,34.2-0.9,51.2c-0.1,6.4,0,12.8,0,19.2
			L197.5,150.1z"/>
	</g>
	<g id="Group_4701" transform="translate(209.259 265.815)">
		<path id="Path_4215" class="st0" d="M82.8,5.4c11.2,0.1,22.3,1.7,33,5c1.7,0.5,1.9,1.1,1.1,2.6c-3.3,6.5-6.3,13.1-12.1,18
			c-6.4,5.4-13.4,10.2-20.1,15.3c-0.5,0.6-1.4,0.6-2,0.1c-7.4-5.9-15.5-10.8-22.3-17.4c-4.8-4.7-7.4-10.9-10.4-16.8
			c-0.6-1.2,0.4-1.3,1.1-1.5c4.5-1.4,9-2.5,13.6-3.3C70.7,6.1,76.7,5.5,82.8,5.4z"/>
	</g>
	<g id="Group_4702" transform="translate(199.866 354.935)">
		<path id="Path_4216" class="st0" d="M148,109.4c-1.1,2.3-2.1,4.1-2.9,6c-0.5,1.2-1.4,1-2.4,1h-30.5c-22.6,0-45.3,0-67.9,0.1
			c-1.7,0.2-3.3-0.8-3.9-2.4c-2.2-4.7-2.3-4.6,2.8-4.6L148,109.4L148,109.4z"/>
	</g>
	<g id="Group_4703" transform="translate(269.455 303.617)">
		<path id="Path_4217" class="st1" d="M141.5,56.5c-6.5,0-13,0-19.4,0c-1.3,0-1.9-0.3-1.9-1.8c0-5.3-0.1-5.3,5.2-5.3
			c11.9,0,23.8,0,35.6,0c1.5,0,2.1,0.3,2.1,2c-0.1,5,0,5-5,5L141.5,56.5z"/>
	</g>
	<g id="Group_4704" transform="translate(201.856 270.231)">
		<path id="Path_4218" class="st0" d="M67.5,35c-0.3,1.4-0.5,2.8-0.7,4.3l0,0.6l0,0c3.3,1.4-6.5-2.7-9.7-4.2
			C51.6,32.8,46.6,29.2,42,25c-0.7-0.6-1-1.7-0.5-2.5C43,18,45.8,14,49.5,10.9c0.7-0.7,1.1-0.4,1.4,0.4c0,0.1,0.1,0.1,0.1,0.2
			c1.9,4.2,4.1,8.4,6.6,12.3c0,0,0.9,1.3,8.4,9.4l0,0L67.5,35z"/>
	</g>
	<g id="Group_4705" transform="translate(230.771 270.32)">
		<path id="Path_4219" class="st0" d="M75,42.3c6.7-4.1,12.7-9.1,17.9-15c0.6-0.7,0.9-1.1,1.3-1.7c3-4.4,5.6-9.1,7.8-13.9
			c0.1-0.3,0.4-0.9,0.9-1c0.3-0.1,0.7,0.2,1.2,0.7c3.3,2.8,5.8,6.5,7.4,10.5c0.6,1.3,0.2,2.8-0.9,3.6c-4.4,4-9.2,7.4-14.5,10.1
			c-6.3,2.9-11.3,4.7-11.2,4.8c0.7-0.1,1.4-0.4,2.1-0.7C83,40.3,79,41.2,75,42.3z"/>
	</g>
	<g id="Group_4706" transform="translate(277.707 310.199)">
		<path id="Path_4220" class="st1" d="M137,70.2c0,3.5,0,6.9,0,10.4c0,0.9-0.1,1.9-0.3,2.8c-0.4,1.4-1.6,2.3-3.1,2.3
			c-1.4,0.1-2.7-0.7-3.3-2c-0.3-0.8-0.5-1.7-0.4-2.5c0-7.3,0-14.7,0-22.1c0-1.4,0.4-1.8,1.8-1.8c5.3,0,5.3-0.1,5.3,5.2L137,70.2z"/>
	</g>
	<g id="Group_4707" transform="translate(257.895 303.621)">
		<path id="Path_4221" class="st1" d="M115.6,56.5c-2.4,0-4.7-0.1-7.1,0c-1.2,0-1.8-0.2-1.8-1.6c-0.1-5.4-0.1-5.4,5.3-5.4
			c3.6,0,7.2,0,10.8,0c1.2,0,1.7,0.2,1.8,1.6c0.1,5.4,0.1,5.4-5.3,5.4H115.6z"/>
	</g>
	<g id="Group_4708" transform="translate(292.567 303.623)">
		<path id="Path_4222" class="st1" d="M156.2,56.5c-2.4,0-4.9,0-7.3,0c-1.2,0-1.6-0.3-1.6-1.5c-0.2-5.5-0.2-5.5,5.2-5.5
			c3.7,0,7.3,0,11,0c1.1,0,1.6,0.2,1.7,1.5c0.2,5.5,0.2,5.5-5.2,5.5L156.2,56.5z"/>
	</g>
	<g id="Group_4709" transform="translate(179.264 354.929)">
		<path id="Path_4223" class="st0" d="M24.2,109.4c2.7,0,5.3,0,8,0c1.1,0,1.5,0.3,1.1,1.4c0,0.1,0,0.1-0.1,0.2
			c-1.2,5.4-1.2,5.4-6.8,5.4c-2.9,0-5.8,0-8.6,0c-0.9,0.2-1.8-0.5-1.9-1.4c0,0,0,0,0-0.1c-1.6-5.6-1.6-5.6,4.1-5.6L24.2,109.4z"/>
	</g>
	<g id="Group_4710" transform="translate(213.264 280.672)">
		<path id="Path_4224" class="st0" d="M55.5,29.5c-0.8-0.3-0.9-0.8-0.9-1.5c0-1.6,0-3.1,0-5.2l12.2,9.1"/>
	</g>
	<g id="Group_4711" transform="translate(254.554 330.607)">
		<path id="Path_4225" class="st5" d="M103.1,81c0,16.2,0,32.4,0,48.6c0,0.4-0.1,0.8-0.2,1.2c0-3.7-0.1-7.5-0.1-11.2c0-12,0-24,0-36
			c0-0.9,0.1-1.7,0.1-2.6L103.1,81z"/>
	</g>
	<g id="Group_4715" transform="translate(279.576 358.418)">
		<path id="Path_4229" class="st6" d="M132.1,113.6l-0.1,0L132.1,113.6L132.1,113.6z"/>
	</g>
	<g id="Group_4716" transform="translate(201.621 325.167)">
		<path id="Path_4230" class="st3" d="M91.3,124.9c-15.2,0-30.4,0-45.6,0c-3.5,0-4.6-1.1-4.6-4.7c0-6.6,0-13.3,0-19.9
			c-0.1-1.4,0.5-2.7,1.5-3.7c7-6.9,13.9-13.8,20.8-20.8c0.8-0.8,1.9-1.3,3.1-1.3c16.6,0,33.3,0,49.9,0c1.2,0,2.3,0.4,3.1,1.3
			c6.9,6.9,13.9,13.8,20.8,20.8c0.9,0.9,1.4,2.2,1.4,3.5c0,6.8,0,13.7,0,20.5c0,3-1.2,4.2-4.2,4.2C122,124.9,106.6,124.9,91.3,124.9
			z M91.3,117.6c13.6,0,27.3,0,40.9,0c1.6,0,2.1-0.4,2.1-2c-0.1-4.2-0.1-8.4,0-12.5c0-1.1-0.4-2.1-1.2-2.8c-5.7-5.6-11.4-11.3-17-17
			c-0.8-0.9-1.9-1.3-3-1.3c-14.5,0-29,0-43.5,0c-1.2,0-2.3,0.4-3,1.3c-5.6,5.7-11.3,11.3-17,16.9c-0.8,0.7-1.2,1.8-1.2,2.8
			c0.1,4.1,0.1,8.2,0,12.3c-0.1,1.8,0.5,2.3,2.3,2.3C64.2,117.6,77.7,117.6,91.3,117.6L91.3,117.6z"/>
	</g>
	<g id="Group_4717" transform="translate(204.996 328.527)">
		<path id="Path_4231" class="st0" d="M87.9,114.2c-13.6,0-27.1,0-40.7,0c-1.8,0-2.4-0.4-2.3-2.3c0.1-4.1,0.1-8.2,0-12.3
			c-0.1-1.1,0.4-2.1,1.2-2.8c5.7-5.6,11.4-11.3,17-16.9c0.8-0.9,1.9-1.3,3-1.3c14.5,0,29,0,43.5,0c1.1,0,2.3,0.4,3,1.3
			c5.6,5.7,11.3,11.3,17,17c0.8,0.7,1.2,1.8,1.2,2.8c-0.1,4.2-0.1,8.4,0,12.5c0,1.7-0.5,2-2.1,2C115.2,114.2,101.5,114.2,87.9,114.2
			z"/>
	</g>
</g>
<g id="Group_4723" transform="translate(20374.078 -3792.306)">
	<path id="Path_4232" class="st1" d="M-20336.9,4158.2h228v31.6l28.1,156.5l-127.4,17.5l-15.9-53.2l-15.6,54.6l-129.4-18.9
		l32.2-158.7V4158.2z"/>
	<g id="Layer_32" transform="translate(-20374.078 3792.306)">
		<g id="Rectangle_200" transform="translate(74.268 1.342)">
			<rect id="Rectangle_212" x="115.3" y="364.6" class="st0" width="14.9" height="44.6"/>
		</g>
		<g id="Rectangle_201" transform="translate(36.819 1.342)">
			<rect id="Rectangle_213" x="58.7" y="364.6" class="st0" width="14.9" height="44.6"/>
		</g>
		<g id="Path_4173_00000048485088229756639070000017646632771750981805_" transform="translate(88.065 13.17)">
			<path id="Path_4178" class="st0" d="M175.8,432h8.2l-8.2-49.5h-39.6v9.9C136.2,414.3,154,432,175.8,432
				C175.8,432,175.8,432,175.8,432L175.8,432z"/>
		</g>
		<g id="Path_4174_00000153671116966917582630000010681835464179415937_" transform="translate(9.883 13.17)">
			<path id="Path_4179" class="st0" d="M26.2,432H18l8.3-49.5h39.6v9.9C65.8,414.3,48.1,432,26.2,432z"/>
		</g>
		<g id="Path_4175_00000033349125052276886610000014639590875625527937_" transform="translate(58.5 13.17)">
			<path id="Path_4180" class="st0" d="M91.5,382.5h19.8v59.4c0,10.9-8.9,19.8-19.8,19.8c0,0,0,0,0,0l0,0V382.5z"/>
		</g>
		<g id="Group_4673" transform="translate(0 0)">
			<path id="Path_4181" class="st2" d="M151.6,521.3l10,53.3c0.3,1.8,2,3,3.8,2.7c0,0,0,0,0,0l128.8-19.8c1.8-0.3,3.1-2,2.8-3.9
				l-29.7-158.4v-29.3c0-1.9-1.5-3.4-3.4-3.4H36.1c-1.9,0-3.4,1.5-3.4,3.4v29.3L3.1,553.5c-0.3,1.8,0.9,3.6,2.7,3.9l128.9,19.8
				c1.8,0.3,3.5-0.9,3.8-2.7l10-53.3L151.6,521.3z M269.1,441.8h-5.2c-20-0.1-36.2-16.2-36.2-36.2V399h33.5L269.1,441.8z
				 M207.8,369.3h52.7v23h-52.7V369.3z M193,369.3h8.1v37.8H193V369.3z M153.4,369.3h32.9v23h-32.9V369.3z M153.4,399h13.1v56.1
				c0,7-4.4,13.2-11,15.5l-2.1,0.8L153.4,399z M154.6,477.8c10.8-2.3,18.5-11.7,18.5-22.7V399h13.1v11.5c0,1.9,1.5,3.4,3.4,3.4h14.9
				c1.9,0,3.4-1.5,3.4-3.4V399h13.1v6.5c0.1,23.7,19.3,42.9,43,43h6.5l19.3,102.8l-122.1,18.8l-14.2-75.6l0-16.5L154.6,477.8z
				 M98.9,369.3h8.1v37.8h-8.1V369.3z M39.5,369.3h52.7v23H39.5V369.3z M38.9,399h33.5v6.5c0,20-16.2,36.2-36.3,36.3h-5.2L38.9,399z
				 M146.6,494.3l-14.2,75.8L10.3,551.3l19.3-102.8h6.5c23.7-0.1,42.9-19.3,43-43V399h13.1v11.5c0,1.9,1.5,3.4,3.4,3.4h14.9
				c1.9,0,3.4-1.5,3.4-3.4V399h32.9L146.6,494.3z M113.8,392.3v-23h32.9v23H113.8z"/>
		</g>
		<g id="Rectangle_202" transform="translate(62.442 5.284)">
			<rect id="Rectangle_214" x="97.5" y="370.6" class="st2" width="9.9" height="9.9"/>
		</g>
	</g>
</g>
<g id="_201-sleeveless-1" transform="translate(-617.052 -264.575)">
	<g id="Group_4649" transform="translate(617.052 264.575)">
		<g id="Path_4177_00000066487583874135411400000015697332274803980445_" transform="translate(0 0.006)">
			<g id="Group_4675">
				<g id="Group_4674">
					<path id="Path_4182" class="st7" d="M61.8,737.6c-0.2,0-0.3,0-0.5,0c-6-0.2-10.6-5.3-10.4-11.2c0-0.7,0.1-1.4,0.3-2.1
						c8.4-34.8,3.4-48.6-0.3-53.8c-1.1-1.8-2.9-3.2-4.9-3.7c-5.9-1-9.9-6.5-9-12.4c0.9-5.4,5.7-9.4,11.2-9.1
						c8.2,1.1,15.6,5.7,20.2,12.6c10.5,14.5,11.7,38.6,3.8,71.6C71.2,734.2,66.8,737.6,61.8,737.6L61.8,737.6z"/>
				</g>
			</g>
			<g id="Group_4677" transform="translate(2.164 2.161)">
				<g id="Group_4676">
					<path id="Path_4183" class="st1" d="M59.7,729.3c-2.6,0-4.7-2.1-4.7-4.7c0-0.4,0-0.8,0.1-1.1c8.6-35.3,4-51.5-1.2-58.8
						c-2-3.1-5.1-5.3-8.7-6.2c-2.6-0.2-4.5-2.5-4.3-5.1c0.2-2.6,2.5-4.5,5.1-4.3c6.4,1,12,4.6,15.6,10.1c9.4,13,10.3,35.4,2.8,66.6
						C63.7,727.8,61.8,729.3,59.7,729.3"/>
					<path id="Path_4184" class="st7" d="M59.7,730.5L59.7,730.5L59.7,730.5c-3.3,0-5.9-2.6-5.9-5.9c0-0.5,0.1-0.9,0.2-1.3
						c8.5-34.9,4.1-50.7-1.1-57.9c-1.8-2.9-4.7-5-8-5.7c-1.5-0.2-2.9-1-3.8-2.2c-2-2.5-1.6-6.2,1-8.2c1.1-0.9,2.5-1.3,3.9-1.2
						c6.7,1,12.7,4.9,16.4,10.5c9.6,13.3,10.6,36,3,67.5C64.7,728.6,62.4,730.5,59.7,730.5z M59.7,728.2v1.1V728.2
						c1.7,0,3.1-1.1,3.5-2.7c7.5-30.8,6.6-52.9-2.6-65.6c-3.4-5.1-8.7-8.6-14.8-9.6c-1.8,0-3.4,1.3-3.7,3.2c-0.2,2,1.2,3.8,3.1,4
						c0,0,0,0,0,0c3.9,0.9,7.4,3.3,9.5,6.7c5.4,7.5,10.1,23.9,1.4,59.7c-0.1,0.3-0.1,0.6-0.1,0.8C56.1,726.6,57.7,728.2,59.7,728.2
						L59.7,728.2z"/>
				</g>
			</g>
		</g>
		<g id="Path_4178_00000007420204496198411070000016642422511800672186_" transform="translate(80.759)">
			<g id="Group_4679">
				<g id="Group_4678">
					<path id="Path_4185" class="st7" d="M157.3,737.6v-3.9V737.6c-5,0-9.3-3.4-10.5-8.3c-8-33-6.7-57.1,3.7-71.6
						c4.6-6.9,11.9-11.5,20.1-12.6c6-0.5,11.2,3.9,11.7,9.8c0.5,5.7-3.6,10.9-9.3,11.7c-2,0.5-3.8,1.8-4.9,3.6
						c-3.8,5.5-8.7,19.4-0.3,53.9c1.4,5.8-2.2,11.7-8,13.1C159,737.5,158.2,737.6,157.3,737.6L157.3,737.6z"/>
				</g>
			</g>
			<g id="Group_4681" transform="translate(2.15 2.162)">
				<g id="Group_4680">
					<path id="Path_4186" class="st1" d="M155.2,729.3c-2.2,0-4.1-1.5-4.6-3.6c-7.5-31.2-6.6-53.6,2.8-66.6c3.5-5.4,9.2-9.1,15.6-10
						c2.6-0.3,4.9,1.6,5.2,4.2c0.3,2.6-1.6,4.9-4.2,5.2c0,0-0.1,0-0.1,0c-3.8,0.9-7,3.2-9,6.5c-5.1,7.4-9.5,23.6-1,58.5
						c0.6,2.5-0.9,5.1-3.5,5.7C155.9,729.3,155.5,729.3,155.2,729.3"/>
					<path id="Path_4187" class="st7" d="M155.2,730.5L155.2,730.5c-2.7,0-5.1-1.8-5.7-4.5c-7.6-31.5-6.6-54.2,3-67.5
						c3.7-5.7,9.7-9.5,16.4-10.5c3.2-0.3,6.1,2.1,6.3,5.3c0.3,3.2-2.1,6.1-5.3,6.4c-3.4,0.8-6.3,3-8.1,6c-5,7.3-9.2,23.1-0.9,57.6
						c0.8,3.1-1.2,6.3-4.3,7.1C156.1,730.4,155.6,730.5,155.2,730.5L155.2,730.5z M169.4,650.2c-0.1,0-0.2,0-0.3,0
						c-0.9,0.1-8.5,0.9-14.8,9.6c-9.2,12.7-10.1,34.8-2.6,65.6c0.4,1.6,1.8,2.7,3.5,2.7l0,0c0.3,0,0.6,0,0.8-0.1
						c1.9-0.5,3.1-2.4,2.6-4.3c-8.6-35.3-4.1-51.8,1.2-59.4c2.2-3.5,5.7-6,9.7-7c2-0.1,3.5-1.9,3.4-3.9c0,0,0,0,0,0
						C172.8,651.6,171.2,650.2,169.4,650.2L169.4,650.2z"/>
				</g>
			</g>
		</g>
	</g>
	<g id="Path_4179_00000064342457104330398390000008116476944255156666_" transform="translate(620.786 294.018)">
		<path id="Path_4188" class="st0" d="M74.3,803.1c-2.5,0-4.6-2-4.7-4.5c-0.5-10.5-1-18.8-1.4-22.7c-0.7-5.7-3.2-11-7-15.3
			c-26.3-29.4-9.5-63.9-8.8-65.4c0.5-1.1,1.5-1.9,2.6-2.3c45.1-16.4,80.3,11.2,91.3,21.4c10.9-10.1,46.2-37.8,91.3-21.4
			c1.1,0.4,2.1,1.2,2.6,2.3c0.7,1.5,17.5,36-8.8,65.4c-3.9,4.3-6.3,9.6-7.1,15.3c-0.4,3.8-1,12.3-1.5,22.6c-0.1,2.6-2.3,4.6-4.9,4.5
			c-1.4-0.1-2.7-0.7-3.5-1.8H78.1C77.2,802.4,75.8,803.1,74.3,803.1"/>
		<path id="Path_4189" class="st7" d="M74.3,807.6l0-9.1l1.4-1.8l2.4-0.1h138.5l1.4,1.7c0.8-10.7,1.4-19.1,1.8-23
			c0.8-6.6,3.7-12.9,8.2-17.8c24.2-27.1,8.7-59,8.1-60.3c-43.2-15.8-77.3,11.6-86.7,20.4l-3.1,2.9l-3.1-2.9
			c-9.4-8.8-43.6-36.1-86.6-20.5c-0.8,1.4-16.3,33.2,8,60.4c4.5,4.9,7.4,11.1,8.2,17.7c0.4,4,1,12.4,1.5,23L74.3,807.6
			c-4.9,0-9-3.9-9.2-8.8c-0.5-10.5-1-18.7-1.4-22.4c-0.6-4.7-2.7-9.2-5.9-12.7c-28.4-31.8-10.3-68.9-9.5-70.5
			c1.1-2.1,2.9-3.8,5.1-4.6c44-16,79.3,8.1,92.8,19.6c13.5-11.5,48.9-35.6,92.8-19.6c2.2,0.8,4.1,2.4,5.1,4.6
			c0.8,1.6,18.8,38.8-9.5,70.4c-3.3,3.6-5.3,8.1-5.9,12.8c-0.4,3.6-1,12-1.4,22.2c-0.1,2.5-1.2,4.8-3,6.4c-1.8,1.7-4.2,2.5-6.7,2.4
			c-1.8-0.1-3.6-0.7-5.1-1.8H79.9C78.3,807,76.3,807.6,74.3,807.6z"/>
	</g>
	<g id="Group_4650" transform="translate(627.796 306.865)">
		<g id="Group_4682" transform="translate(0 18.466)">
			<path id="Path_4190" class="st7" d="M96.9,733.2c-30,0-39.6-8.1-40-8.4c-0.7-0.6-1.5-0.9-2.4-0.9c-1.9,0-3.5,1.6-3.6,3.5
				c0,0.9,0.3,1.9,1,2.6c1.1,1.1,11.4,10.5,45,10.5l0,0c2-0.1,3.5-1.7,3.5-3.7C100.3,734.8,98.8,733.3,96.9,733.2L96.9,733.2z"/>
		</g>
		<g id="Group_4683" transform="translate(55.325 18.453)">
			<path id="Path_4191" class="st7" d="M126.2,740.4c33.6,0,43.9-9.4,45-10.5c1.4-1.4,1.4-3.6,0-5c-1.4-1.4-3.6-1.5-5.1-0.1
				c-0.4,0.3-9.7,8.4-40,8.4c-2,0-3.6,1.5-3.7,3.5s1.5,3.6,3.5,3.7C126.1,740.4,126.1,740.4,126.2,740.4L126.2,740.4l0,1.1l0,0l0,0
				l0,0L126.2,740.4z"/>
		</g>
		<g id="Group_4684" transform="translate(30.729)">
			<path id="Path_4192" class="st7" d="M108.5,700L108.5,700c-2,0-3.6,1.6-3.6,3.6c0,0,0,0,0,0c0,5.8-4.7,10.6-10.6,10.6
				c-2-0.1-3.6,1.5-3.7,3.5c-0.1,2,1.5,3.6,3.5,3.7c0.1,0,0.1,0,0.2,0c9.8,0,17.7-8,17.7-17.8C112.1,701.6,110.5,700,108.5,700
				L108.5,700z"/>
		</g>
		<g id="Group_4685" transform="translate(36.9)">
			<path id="Path_4193" class="st7" d="M116.5,714.1c-5.8,0-10.6-4.7-10.6-10.6c0-2-1.6-3.6-3.6-3.6l0,0c-2,0-3.6,1.6-3.6,3.6
				c0,0,0,0,0,0c0,9.8,8,17.7,17.7,17.7c2-0.1,3.5-1.7,3.5-3.7C119.9,715.7,118.4,714.2,116.5,714.1L116.5,714.1z"/>
		</g>
	</g>
	<g id="Path_4184-2" transform="translate(623.056 363.941)">
		<path id="Path_4194" class="st0" d="M172.3,835.1c-1.3,0.1-2.5-0.5-3.4-1.4c0,0-7.4-7-25-8c-17.6,1.1-24.9,8-25,8.1
			c-1.9,1.8-4.8,1.8-6.7,0c-2.3-2.3-5-4.2-8-5.5c-6.9-2.8-14.6-3.1-21.6-0.7c-13.2,4-22.7,3.5-28.4-1.6c-4-4-5.7-9.7-4.6-15.3
			c0.1-0.3,0.1-0.6,0.2-0.8l9.6-24.1c0.7-1.6,2.1-2.8,3.9-2.9c3.4-0.4,6.8-1.1,10.2-2c10-3,20.8-2.6,30.5,1.1
			c3.1,1.3,6.1,2.9,8.8,4.9c4.7-2.9,14.6-7.4,30.8-8.2h0.5c16.2,0.8,26,5.3,30.8,8.2c2.7-2,5.7-3.7,8.8-4.9
			c9.8-3.7,20.5-4.1,30.5-1.1c3.3,1,6.7,1.6,10.2,2c1.7,0.2,3.2,1.3,3.9,2.9l9.6,24.1c0.1,0.3,0.2,0.5,0.3,0.8
			c1.1,5.6-0.6,11.3-4.6,15.3c-5.6,5.1-15.2,5.7-28.4,1.6c-7.1-2.4-14.7-2.1-21.6,0.7c-3,1.3-5.7,3.2-8,5.5
			C174.7,834.6,173.5,835.1,172.3,835.1"/>
		<path id="Path_4195" class="st7" d="M115.7,839.6c-2.4,0-4.8-1-6.5-2.7c-1.9-1.9-4.2-3.5-6.7-4.6c-5.8-2.4-12.4-2.6-18.3-0.6
			c-14.9,4.5-26,3.7-32.9-2.6c-5.2-5.1-7.4-12.4-6-19.5c0.1-0.6,0.3-1.1,0.5-1.7l9.6-24c1.3-3.2,4.2-5.4,7.6-5.8
			c3.2-0.4,6.3-1,9.4-1.9c11-3.2,22.7-2.8,33.4,1.2c2.6,1,5.1,2.3,7.4,3.8c9.5-4.6,19.8-7.1,30.3-7.4h0.7c10.6,0.3,21,2.8,30.5,7.4
			c2.3-1.5,4.8-2.7,7.3-3.8c10.7-4.1,22.5-4.5,33.5-1.2c3.1,0.9,6.2,1.5,9.4,1.9c3.4,0.4,6.3,2.6,7.6,5.8l9.6,24.1
			c0.2,0.5,0.4,1.1,0.5,1.7c1.4,7-0.8,14.3-5.9,19.3c-7.1,6.4-18.1,7.3-32.9,2.8c-6.1-2.1-12.7-1.9-18.6,0.6
			c-2.4,1.1-4.6,2.6-6.5,4.5c-1.7,1.7-4,2.7-6.3,2.7l0,0c-2.6,0.1-5.2-0.9-6.9-2.9l0,0c0,0-6.7-5.6-21.6-6.5
			c-15.3,1-21.8,6.8-21.9,6.8C120.3,838.7,118,839.6,115.7,839.6z M143.9,821.1l0.3,0c18.5,1.1,26.9,8.4,27.8,9.2l0.3,5.7v-5.5
			c2.8-2.7,6-4.9,9.5-6.5c7.9-3.3,16.8-3.6,24.9-0.9c7.8,2.4,18.4,4.2,23.9-0.7c2.8-2.9,4.1-7.1,3.2-11l-9.6-24.1
			c-3.7-0.5-7.4-1.3-11.1-2.3c-9.1-2.7-18.8-2.3-27.7,1c-2.7,1.1-5.3,2.6-7.7,4.3l-2.5,1.8l-2.6-1.6c-4.1-2.5-13.2-6.8-28.6-7.6
			h-0.3c-15.2,0.8-24.3,5.1-28.4,7.6l-2.6,1.6l-2.5-1.8c-2.4-1.8-5-3.2-7.8-4.4c-8.8-3.3-18.5-3.6-27.5-1c-3.6,1-7.2,1.8-11,2.2
			l-9.8,24.2c-0.8,4.1,0.4,8.3,3.4,11.2c5.3,4.8,15.9,2.9,23.8,0.5c8.1-2.7,16.8-2.4,24.7,0.9c3.5,1.6,6.7,3.7,9.5,6.5
			c1.3-0.9,9.7-8.3,28.2-9.4L143.9,821.1z"/>
	</g>
	<g id="Path_4185-2" transform="translate(619.11 339.27)">
		<path id="Path_4196" class="st1" d="M221.9,747.3c2.3,3.8,24.4,42.4,28.7,55.5c0.3,1.3,0.3,2.7,0,4c-2.7,7.1-11,14.2-34.9,7.6
			c-8-2.4-16.6-2.2-24.5,0.8c-3.3,1.3-6.3,3.2-9,5.6c-1.8,1.6-4.6,1.6-6.4,0c0,0-8.3-7.1-28-8.2c-19.8,1.1-28,8.1-28,8.2
			c-1.8,1.7-4.6,1.7-6.4,0c-2.6-2.4-5.7-4.3-9-5.6c-7.9-2.9-16.5-3.2-24.5-0.8c-23.9,6.6-32.2-0.5-34.9-7.6
			c-1.6-4.6-1.1-9.6,1.5-13.7L73,748.8c0.9-1.4,2.4-2.3,4.1-2.3h141.6c1.7,0,3.2,0.9,4.1,2.3"/>
		<path id="Path_4197" class="st7" d="M116.7,826.6c-2.3,0-4.5-0.9-6.3-2.4c-2.2-2-4.8-3.6-7.6-4.7c-6.9-2.5-14.4-2.7-21.5-0.6
			c-27.3,7.5-37.1-1.4-40.4-10.3c-2.2-5.9-1.5-12.5,1.9-17.8l26.4-44.3c1.7-2.8,4.7-4.5,8-4.5h141.6c2.7,0,5.2,1.2,7,3.2l0.2-0.1
			c0.2,0.4,24.3,42,29.1,56.4c0.5,2.1,0.6,4.3,0.1,6.5l-0.2,0.6c-3.4,8.9-13.1,17.8-40.3,10.3c-7.1-2.1-14.7-1.9-21.7,0.6
			c-2.8,1.1-5.3,2.7-7.5,4.7c-3.5,3.2-9,3.2-12.5-0.1l0,0c0,0-7.6-6-25-7c-17.6,1-25,7-25.1,7.1C121.1,825.7,119,826.6,116.7,826.6z
			 M91.1,808.3c5.1,0,10.2,0.9,15,2.7c3.8,1.5,7.4,3.7,10.4,6.5c0.7-0.4,9.7-8.2,31.1-9.4l0.2,0l0.2,0c20.6,1.1,29.7,8.4,30.7,9.3
			c3.3-2.6,6.9-4.7,10.7-6.3c8.8-3.3,18.5-3.6,27.5-0.9c11.2,3.1,25.3,4.8,29.2-4.5c0.1-0.6,0.1-1.2-0.1-1.7
			c-3.7-11.2-22.5-44.4-27.3-52.8l0,0L77.1,751l-26.6,44.4c-1.9,2.9-2.3,6.6-1.1,9.9c3.7,9.6,18,7.9,29.4,4.7
			C82.8,808.9,86.9,808.3,91.1,808.3L91.1,808.3z"/>
	</g>
</g>
<g id="_201-corset-5" transform="translate(-327.095 -264.19)">
	<g id="Path_4158" transform="translate(328.318 293.89)">
		<path id="Path_4156" class="st0" d="M562.6,395.1c-39.8,39.8-101.8-17.1-103.9-18.9c-2.1,1.8-64,58.7-103.9,18.9
			c51.9,103.9-9.4,165.3-9.4,165.3c21.6,21.6,94.4,18.9,113.3,18.9c18.9,0,91.7,2.8,113.3-18.9C572.1,560.3,510.7,498.9,562.6,395.1
			"/>
		<path id="Path_4157" class="st7" d="M476.5,583.4c-4.4,0-8.4,0-11.8-0.1c-4.6,0-7.1,0-11.7,0c-26.8,0.3-89.3,0.9-110.4-20.1
			l-2.9-2.9l2.9-2.9c2.4-2.4,58.6-60.7,8.7-160.5l6.6-4.8c34.3,34.3,87.6-9.6,97.9-18.8l3-2.6l3,2.6c10.3,9.2,63.6,53.1,97.9,18.8
			l6.6,4.8c-49.9,99.8,6.3,158.1,8.7,160.5l2.9,2.9l-2.9,2.9C556.7,581.6,506.7,583.4,476.5,583.4z M458.8,575.1c1.6,0,3.6,0,6,0
			c22.4,0.2,80.1,0.8,101.5-15.2c-11.2-13.6-48.8-68.5-14-152.1c-35.7,18.5-79.7-14.5-93.5-26.2c-14.2,12-57.9,44.6-93.5,26.2
			c34.8,83.6-2.8,138.4-14,152.1c21.5,16,79.2,15.5,101.5,15.2C455.2,575.1,457.2,575.1,458.8,575.1L458.8,575.1z"/>
	</g>
	<g id="Path_4159" transform="translate(327.095 264.191)">
		<path id="Path_4158-2" class="st0" d="M356.1,424.8c0,0-23.6-33.1-9.4-89.7c14.2,0,89.7-4.7,113.3,70.8
			C457.9,407.6,396,464.6,356.1,424.8"/>
		<path id="Path_4159-2" class="st7" d="M389.9,443.1c-13.8,0.1-27.1-5.4-36.6-15.4l2.9-2.9l-3.4,2.4c-1-1.4-24.5-35.3-10.1-93.1
			l0.8-3.1l5.6,0c75.6-0.9,104.2,39.6,114.9,73.7l0.8,2.6l-2.1,1.8C454.4,416.3,422.1,443.1,389.9,443.1z M359.3,422.1
			c32.7,32.2,82.4-6,95.9-17.5c-14.8-43.9-50.1-65.9-105.3-65.4C338.6,388.9,357.3,419,359.3,422.1z"/>
	</g>
	<g id="Path_4161" transform="translate(377.294 264.19)">
		<path id="Path_4160" class="st0" d="M513.7,424.8c0,0,23.6-33.1,9.4-89.7c-14.2,0-89.7-4.7-113.3,70.8
			C411.9,407.6,473.8,464.6,513.7,424.8"/>
		<path id="Path_4161-2" class="st7" d="M479.9,443.1c-32.2,0-64.5-26.7-72.6-33.8l-2-1.8l0.5-2.8c10.6-33.8,38.6-73.8,112.2-73.8
			c0.9,0,1.8,0,2.7,0l5.6,0l0.8,3.1c14.5,57.8-9.1,91.7-10.1,93.1l-3.4-2.4l2.9,2.9C507,437.6,493.7,443.2,479.9,443.1z
			 M414.6,404.6c13.5,11.6,63.3,49.7,95.9,17.5c2-3.1,20.7-33.5,9.4-83C464.8,338.7,429.3,360.7,414.6,404.6L414.6,404.6z"/>
	</g>
	<g id="Group_4646" transform="translate(328.318 303.034)">
		<g id="Path_4163">
			<path id="Path_4162" class="st1" d="M354.9,385.9c51.9,103.9-9.4,165.2-9.4,165.2c6.5,6.5,17.5,10.8,30.3,13.7
				C376,564.6,446.9,477.9,354.9,385.9"/>
			<path id="Path_4163-2" class="st7" d="M377.4,569.4l-2.5-0.5c-15.2-3.4-25.8-8.2-32.3-14.8l-2.9-2.9l2.9-2.9
				c2.4-2.4,58.6-60.7,8.7-160.5l3.7-1.9l2.9-2.9c93.7,93.7,21.9,183.5,21.1,184.4L377.4,569.4z M351.3,550.8
				c6.9,4.6,14.7,7.8,22.8,9.5c9.2-12.4,52.1-78-5.2-152.2C397.3,486.3,362,537.6,351.3,550.8z"/>
		</g>
		<g id="Path_4164" transform="translate(73.435)">
			<path id="Path_4164-2" class="st1" d="M489.2,385.9c-51.9,103.9,9.4,165.2,9.4,165.2c-6.5,6.5-17.5,10.8-30.3,13.7
				C468.2,564.6,397.3,477.9,489.2,385.9"/>
			<path id="Path_4165" class="st7" d="M466.8,569.4l-1.6-2c-0.7-0.9-72.5-90.8,21.1-184.4l2.9,2.9l3.7,1.9
				c-49.9,99.8,6.3,158.1,8.7,160.5l2.9,2.9l-2.9,2.9c-6.6,6.6-17.1,11.4-32.3,14.8L466.8,569.4z M475.2,408
				c-57.3,74.2-14.4,139.8-5.2,152.2c8.1-1.6,15.9-4.9,22.8-9.5C482.1,537.6,446.8,486.3,475.2,408L475.2,408z"/>
		</g>
	</g>
	<g id="Group_4647" transform="translate(365.335 312.997)">
		<g id="Path_4166">
			<path id="Path_4166-2" class="st1" d="M412.3,429.6l-9.6,2.8c-3.9,1.1-7.9-1.1-9-5c-0.2-0.7-0.3-1.3-0.3-2v-17.5
				c0-4,3.3-7.3,7.3-7.3c0.9,0,1.7,0.2,2.6,0.5l10,3.8c6.8,2.5,10.2,10.1,7.6,16.9C419.5,425.5,416.3,428.4,412.3,429.6"/>
			<path id="Path_4167" class="st7" d="M400.7,436.7c-6.3,0-11.4-5.1-11.4-11.4v-17.5c0-6.3,5.1-11.4,11.4-11.4l0,0
				c1.4,0,2.7,0.3,4,0.7l10,3.8c8.9,3.4,13.4,13.3,10,22.2c0,0,0,0,0,0c-1.9,5.1-6.1,8.9-11.3,10.5l-1.6-5.4l1.6,5.4l-9.6,2.8
				C402.9,436.6,401.8,436.7,400.7,436.7z M400.7,404.6c-1.8,0-3.2,1.4-3.2,3.2v17.5c0,0.3,0,0.6,0.1,0.9c0.5,1.7,2.2,2.7,3.9,2.2
				c0,0,0,0,0,0l9.5-2.8c2.7-0.8,4.9-2.8,5.9-5.4c1.7-4.6-0.6-9.8-5.2-11.5l-10-3.7C401.5,404.7,401.1,404.6,400.7,404.6
				L400.7,404.6z"/>
		</g>
		<g id="Path_4167-2" transform="translate(12.089)">
			<path id="Path_4168" class="st1" d="M419.1,429.6l9.6,2.8c3.9,1.1,7.9-1.1,9-5c0.2-0.7,0.3-1.3,0.3-2v-17.5c0-4-3.3-7.3-7.3-7.3
				c-0.9,0-1.7,0.2-2.6,0.5l-10,3.8c-6.8,2.5-10.2,10.1-7.6,16.9C412,425.5,415.1,428.4,419.1,429.6"/>
			<path id="Path_4169" class="st7" d="M430.7,436.7c-1.1,0-2.1-0.2-3.2-0.4l-9.6-2.8c-5.2-1.5-9.4-5.4-11.3-10.5
				c-3.3-8.9,1.1-18.8,10-22.2l10-3.8c1.3-0.5,2.6-0.7,4-0.7l0,0c6.3,0,11.4,5.1,11.4,11.4v17.5C442.1,431.6,437,436.7,430.7,436.7
				C430.7,436.7,430.7,436.7,430.7,436.7L430.7,436.7z M430.7,404.6L430.7,404.6c-0.4,0-0.8,0.1-1.1,0.2l-10,3.8
				c-4.6,1.7-7,6.9-5.2,11.5c1,2.6,3.2,4.7,5.9,5.5l0,0l9.6,2.8c1.7,0.5,3.4-0.5,3.9-2.2c0.1-0.3,0.1-0.6,0.1-0.9v-17.5
				C433.9,406.1,432.4,404.6,430.7,404.6L430.7,404.6z"/>
		</g>
		<g id="Path_4168-2" transform="translate(0 20.563)">
			<path id="Path_4170" class="st1" d="M412.3,457.1l-9.6,2.8c-3.9,1.1-7.9-1.1-9-5c-0.2-0.7-0.3-1.3-0.3-2v-17.5
				c0-4,3.3-7.3,7.3-7.3c0.9,0,1.7,0.2,2.6,0.5l10,3.7c6.8,2.5,10.2,10.1,7.7,16.9C419.5,453,416.3,456,412.3,457.1"/>
			<path id="Path_4171" class="st7" d="M400.8,464.3c-6.3,0-11.4-5.1-11.4-11.4v-17.5c0-6.3,5.1-11.4,11.4-11.4l0,0
				c1.4,0,2.7,0.2,4,0.7l10,3.8c8.9,3.4,13.4,13.3,10,22.2c-1.9,5.1-6.1,8.9-11.3,10.5l-1.6-5.4l1.6,5.4l-9.6,2.8
				C402.9,464.2,401.8,464.3,400.8,464.3z M400.7,432.2c-1.8,0-3.2,1.4-3.2,3.2v17.5c0,0.3,0,0.6,0.1,0.9c0.5,1.7,2.3,2.7,3.9,2.2
				c0,0,0,0,0,0l9.5-2.8c4.8-1.4,7.5-6.3,6.1-11.1c-0.1-0.4-0.3-0.8-0.4-1.2c-1-2.2-2.8-3.9-5-4.7l-10-3.8
				C401.5,432.3,401.1,432.2,400.7,432.2L400.7,432.2z"/>
		</g>
		<g id="Path_4169-2" transform="translate(12.089 20.563)">
			<path id="Path_4172" class="st1" d="M419.1,457.1l9.6,2.8c3.9,1.1,7.9-1.1,9-5c0.2-0.7,0.3-1.3,0.3-2v-17.5c0-4-3.3-7.3-7.3-7.3
				c-0.9,0-1.7,0.2-2.6,0.5l-10,3.7c-6.8,2.5-10.2,10.1-7.6,16.9C412,453,415.1,456,419.1,457.1"/>
			<path id="Path_4173" class="st7" d="M430.7,464.3c-1.1,0-2.1-0.2-3.2-0.4l-9.6-2.8c-5.2-1.5-9.4-5.4-11.3-10.5
				c-3.3-8.9,1.1-18.8,10-22.2l10-3.7c1.3-0.5,2.6-0.7,4-0.7l0,0c6.3,0,11.4,5.1,11.4,11.4v17.5C442.1,459.2,437,464.3,430.7,464.3
				C430.7,464.3,430.7,464.3,430.7,464.3L430.7,464.3z M430.7,432.2L430.7,432.2c-0.4,0-0.8,0.1-1.1,0.2l-10,3.7
				c-4.6,1.7-7,6.9-5.2,11.6c1,2.6,3.2,4.7,5.9,5.4l0,0l9.6,2.8c1.7,0.5,3.4-0.5,3.9-2.2c0.1-0.3,0.1-0.6,0.1-0.9v-17.5
				C433.9,433.6,432.4,432.2,430.7,432.2C430.7,432.2,430.7,432.2,430.7,432.2L430.7,432.2z"/>
		</g>
		<g id="Path_4170-2" transform="translate(0 42.341)">
			<path id="Path_4174" class="st1" d="M412.3,486.4l-9.6,2.8c-3.9,1.1-7.9-1.1-9-5c-0.2-0.7-0.3-1.3-0.3-2v-17.5
				c0-4,3.3-7.3,7.3-7.3c0.9,0,1.7,0.2,2.6,0.5l10,3.7c6.8,2.5,10.2,10.1,7.7,16.9C419.5,482.3,416.3,485.2,412.3,486.4"/>
			<path id="Path_4175" class="st7" d="M400.7,493.6c-6.3,0-11.4-5.1-11.4-11.4v-17.5c0-6.3,5.1-11.4,11.4-11.4h0
				c1.4,0,2.7,0.2,4,0.7l10,3.7c8.9,3.4,13.4,13.3,10,22.2c0,0,0,0,0,0c-1.9,5.1-6.1,8.9-11.3,10.5l-2.3-7.9
				c4.8-1.4,7.5-6.4,6.1-11.1c-0.8-2.7-2.8-4.9-5.4-5.9l-10-3.7c-0.4-0.1-0.7-0.2-1.1-0.2l0,0c-1.8,0-3.2,1.4-3.2,3.2c0,0,0,0,0,0
				v17.5c0,0.3,0,0.6,0.1,0.9c0.5,1.7,2.2,2.7,3.9,2.2l9.5-2.8l2.3,7.9l-9.6,2.8C402.9,493.4,401.8,493.5,400.7,493.6z"/>
		</g>
		<g id="Path_4171-2" transform="translate(12.089 42.341)">
			<path id="Path_4176" class="st1" d="M419.1,486.4l9.6,2.8c3.9,1.1,7.9-1.1,9-5c0.2-0.7,0.3-1.3,0.3-2v-17.5c0-4-3.3-7.3-7.3-7.3
				c-0.9,0-1.7,0.2-2.6,0.5l-10,3.7c-6.8,2.5-10.2,10.1-7.6,16.9C412,482.3,415.1,485.2,419.1,486.4"/>
			<path id="Path_4177" class="st7" d="M430.7,493.5c-1.1,0-2.1-0.2-3.2-0.4l-9.6-2.8c-5.2-1.5-9.4-5.4-11.3-10.5
				c-3.3-8.9,1.1-18.8,10-22.2l10-3.7c1.3-0.5,2.6-0.7,4-0.7h0c6.3,0,11.4,5.1,11.4,11.4v17.5C442.1,488.4,437,493.6,430.7,493.5
				C430.7,493.6,430.7,493.6,430.7,493.5L430.7,493.5z M430.7,461.4c-0.4-0.1-0.8,0-1.1,0.2l-10,3.8c-4.6,1.7-7,6.9-5.2,11.5
				c1,2.6,3.2,4.7,5.9,5.5l0,0l9.6,2.8c1.7,0.5,3.4-0.5,3.9-2.2c0,0,0,0,0,0c0.1-0.3,0.1-0.6,0.1-0.9v-17.5
				C433.9,462.9,432.4,461.4,430.7,461.4L430.7,461.4z"/>
		</g>
	</g>
</g>
<g id="fashion" transform="translate(-537.771 -264.575)">
	<g id="Path_4186_00000085234187980068047780000005293349012735003538_" transform="translate(551.358 266.71)">
		<path id="Path_4198" class="st0" d="M356.2,764.9L356.2,764.9c-4.2-20.1-11-47.5-12.3-60.1c-1.4-12.7-0.4-44.7-0.1-54.3
			c0.1-1.6,1.3-2.8,2.9-2.8h10.2c1.6,0,2.9,1.3,2.9,2.9c0,0,0,0,0,0v11.1c0,22.7,18.4,41.2,41.1,41.2c0,0,0,0,0,0h0.2
			c22.8-0.3,41.1-18.9,41-41.8v-10.5c0-1.6,1.3-2.9,2.9-2.9c0,0,0,0,0,0h10.2c1.6,0,2.8,1.2,2.9,2.8c0.3,9.6,1.3,41.6-0.1,54.3
			c-1.3,12.5-7.9,39.1-12.1,59.3l0,0C416,764.3,386.1,764.6,356.2,764.9z"/>
	</g>
	<g id="Path_4197_00000052806672609362900280000014071444235591862424_" transform="translate(537.771 264.575)">
		<path id="Path_4234" class="st1" d="M371.3,767.7l-11,23.2l-12.8,38.3l-13.9,78.4h20.3l17.4,5.2l72,25.6h24.4l11-3.5l18.6-10.5
			l-12.2-84.8l-13.4-45.3l-12.2-26.7H371.3z"/>
		<path id="Path_4199" class="st0" d="M565.2,788.9c-15.7,0-24.7,10.8-34.1,31.5c-9.1,19.9-24.8,44.4-40,44.4
			c-8.7,0-12.3-6.3-14.9-12.2c-0.7-1.5-2.2-2.3-3.8-1.9c-38.3,8.4-42.6,35.2-42.9,44.9c-0.1,1.9,1.4,3.5,3.3,3.6h69.9
			c2,0,3.7-1.2,4.4-3.1c8.6-26,36-52.7,47.2-52.7c2.8,3,2.8,16,2.8,22.7v29.6c0,1.9,1.6,3.5,3.5,3.5c0,0,0,0,0,0h7.2
			c1.9,0,3.5-1.6,3.5-3.5l0,0v-29.6c0-15.1,12-24.5,12-40.4C583.2,803.2,574.6,788.9,565.2,788.9L565.2,788.9z"/>
		<path id="Path_4200" class="st2" d="M565.2,784.6c-18.7,0-28.8,13.6-38.1,34c-12.4,27.2-25.1,42.8-34.9,42.8
			c-1.8,0-7.3,0-12.1-10.7c-1.5-3.3-5.1-5.2-8.7-4.4c-17.6,3.9-30.5,11.9-38.4,23.8c-4.9,7.5-7.6,16.2-7.9,25.2
			c-0.1,4.3,3.2,7.9,7.5,8l0,0h0.3h58.3c0.8,6.5,1.5,12.9,2,19.1c-16.6,12-35.2,12.4-48.2,10.5c-14.9-2.1-29.9-7.9-44.4-13.4
			c-5.8-2.2-11.7-4.5-17.6-6.5c-17.7-6.1-31.7-8.8-44.6-8.3c6.9-55.6,23.1-113.8,34.4-134.2h19.9c-1.5,8-3.2,19.8-4.9,34.2
			c-0.3,2.4,1.4,4.6,3.8,4.9c2.4,0.3,4.6-1.4,4.9-3.8l0,0v-0.1c1.8-15.3,3.6-27.6,5.1-35.2h27.6c1.5,7.7,3.3,19.9,5.1,35.2
			c0.2,2.4,2.4,4.1,4.7,3.9c2.4-0.2,4.1-2.4,3.9-4.7c0,0,0-0.1,0-0.1v-0.1c-1.7-14.4-3.4-26.2-4.9-34.2h19
			c6.9,12.7,19.2,51.7,26.5,83c0.5,2.3,2.9,3.8,5.2,3.3s3.8-2.9,3.3-5.2c0,0,0,0,0-0.1c-7.6-32.7-20.4-73-27.8-86.2
			c1.2-5.6,2.6-11.8,3.9-17.8c3.4-15.4,7-31.3,7.9-40.3c1.4-13,0.4-45.3,0.1-54.9c-0.1-3.9-3.3-7-7.2-7h-10.2c-4,0-7.2,3.2-7.2,7.2
			v10.5c0.1,20.4-16.2,37.1-36.7,37.4h-0.1c-20.3,0-36.8-16.5-36.8-36.8c0,0,0,0,0,0v-11.1c0-4-3.2-7.2-7.2-7.2h-10.2
			c-3.9,0-7.1,3.1-7.2,7c-0.2,5.5-0.6,19.8-0.6,33c0.1,2.4,2,4.3,4.4,4.3c2.3,0,4.2-1.9,4.3-4.3c0-12,0.4-25,0.6-31.2h7.3v9.6
			c0,25.1,20.4,45.5,45.5,45.5h0.2c25.2-0.3,45.5-20.9,45.4-46.1v-9h7.3c0.4,10.9,1.1,40.4-0.1,52.3c-0.9,8.4-4.4,24.1-7.8,39.3
			c-1.2,5.4-2.4,10.9-3.5,16.1h-82.8c-1.1-4.9-2.2-10.2-3.4-15.3c-3.5-15.5-7-31.5-7.9-40.1c-0.1-1-0.2-2.3-0.3-3.9
			c-0.2-2.4-2.3-4.2-4.7-4c-2.3,0.2-4.1,2.2-4,4.5c0.1,1.7,0.2,3.1,0.3,4.3c1,9.1,4.6,25.3,8.1,41.1c1.3,6,2.7,12.3,3.9,17.9
			c-5.9,10.7-13,30.8-19.5,55.6c-7.5,28.6-13.1,57.6-16.5,87c-0.3,2.4,1.4,4.5,3.8,4.8c0.3,0,0.6,0,0.9,0c13-1.3,27.3,1,46.2,7.5
			c5.8,2,11.7,4.2,17.4,6.4c14.9,5.7,30.4,11.6,46.2,13.9c4.2,0.6,8.5,0.9,12.7,0.9c15.9,0.3,31.4-4.9,43.9-14.6
			c1.1-0.9,1.8-2.3,1.7-3.8c-0.5-6.7-1.3-13.7-2.1-20.8h2.7c3.9,0,7.3-2.5,8.5-6.1c4.7-12.9,12.1-24.6,21.7-34.5
			c7.6-8.1,14.6-13.1,18.9-14.7c0.9,5.9,1.2,11.9,1,17.8v29.6c0,4.3,3.5,7.8,7.8,7.8h7.2c4.3,0,7.8-3.5,7.8-7.8v-29.6
			c0-6.5,2.6-12,5.4-17.8c3.2-6.7,6.5-13.6,6.5-22.7C587.5,801.7,578.1,784.5,565.2,784.6L565.2,784.6z M573.1,844.4
			c-3.1,6.5-6.3,13.1-6.3,21.6v28.7h-5.5v-28.7c0-13.9-0.6-22.1-4.1-25.7c-0.8-0.9-2-1.4-3.2-1.4c-10.1,0-23.8,13.7-27.7,18
			c-10.4,10.8-18.4,23.6-23.6,37.7c0,0.1-0.1,0.1-0.2,0.1h-68.8c0.5-10.1,5.6-32.1,38.7-39.7c4.7,10,11.3,15.1,19.7,15.1
			c13.9,0,28.4-16.1,42.8-47.9c9.7-21.4,17.6-28.9,30.2-28.9c5.7,0,13.6,11.2,13.6,32.2C578.8,832.5,576.1,838.3,573.1,844.4
			L573.1,844.4z"/>
	</g>
	<path id="Path_4233" class="st1" d="M1036.8,948.1h73.2l15.7,34.9l-50.5,55.2h-6.4l-47-55.2L1036.8,948.1z"/>
	<g id="Group_4686" transform="translate(612.543 282.128)">
		<path id="Path_4201" class="st2" d="M516.2,698l-1.1,0.4l-13-30.5c-1.1-2.6-3.6-4.2-6.4-4.2h-69.4c-2.8,0-5.3,1.7-6.4,4.2
			l-1.6,3.8c-0.7,1.6-0.1,3.5,1.5,4.3c0,0,0,0,0,0c1.6,0.7,3.5,0,4.2-1.6l1.9-4.4h18.7l-3.8,26.4h-26.2l2.4-5.7
			c0.7-1.6,0-3.5-1.6-4.2c0,0,0,0,0,0c-0.4-0.2-0.8-0.3-1.3-0.3c-1.3,0-2.4,0.8-2.9,1.9l-4.3,10.1c-1.1,2.5-0.6,5.4,1.2,7.4
			l47.6,53.5c2.6,2.9,6.9,3.1,9.8,0.6c0.2-0.2,0.4-0.4,0.6-0.6l47.6-53.5c1.8-2,2.2-4.8,1.2-7.2L516.2,698L516.2,698z M496.1,670
			l11.2,26.4h-26.1l-3.8-26.4H496.1z M451.2,670h19.7l3.8,26.4h-27.3L451.2,670z M450.3,743.3l-36.1-40.5h26.3l0.2,0.9
			c0.1,0.3,0.1,0.5,0.2,0.8h0h0l11.4,37.7L450.3,743.3z M471.8,743.3l-2-1.1l4.7-15.5c0.5-1.7-0.4-3.5-2.1-4c-1.7-0.5-3.5,0.4-4,2.1
			l-7.4,24.3l-14-46.4h28.1l-1.5,4.9c-0.5,1.7,0.4,3.5,2.1,4c1.7,0.5,3.5-0.4,4-2.1l1.6-5.2c0.1-0.3,0.1-0.5,0.2-0.8l0.2-0.9h26.3
			L471.8,743.3z"/>
	</g>
</g>
</svg>
